<svg xmlns="http://www.w3.org/2000/svg" width="26.364" height="45.97" viewBox="0 0 26.364 45.97">
  <g id="Group_6378" data-name="Group 6378" transform="translate(-685.36 -202.6)">
    <g id="Group_6176" data-name="Group 6176" transform="translate(685.36 214.038)">
      <rect id="Rectangle_1351" data-name="Rectangle 1351" width="1.815" height="16.961" transform="translate(12.272)" fill="#24a77e"/>
      <g id="Group_6175" data-name="Group 6175" transform="translate(0 15.245)">
        <path id="Path_3167" data-name="Path 3167" d="M685.36,266.781a2.157,2.157,0,0,1,2.151-2.151h22.062a2.157,2.157,0,0,1,2.151,2.151v.955a2.157,2.157,0,0,1-2.151,2.151H687.511a2.157,2.157,0,0,1-2.151-2.151Z" transform="translate(-685.36 -264.63)" fill="#24a77e"/>
      </g>
      <path id="Path_3168" data-name="Path 3168" d="M695.18,279.07H713.1l-2.422,13.077H697.6Z" transform="translate(-690.956 -257.614)" fill="#24a77e"/>
    </g>
    <g id="Group_6178" data-name="Group 6178" transform="translate(688.457 202.6)">
      <g id="Group_6177" data-name="Group 6177" transform="translate(0)">
        <path id="Path_3169" data-name="Path 3169" d="M725.433,222.448a2.725,2.725,0,0,0-.026-5.433c-2.293-.456-6.177,2-6.177,2l0,.723,0,.723S723.144,222.908,725.433,222.448Z" transform="translate(-707.758 -210.782)" fill="#24a77e"/>
        <path id="Path_3170" data-name="Path 3170" d="M722.211,206.428a2.847,2.847,0,0,0-1.144-3.5,2.912,2.912,0,0,0-3.635.791c-1.536,1.729-1.316,6.289-1.316,6.289l.637.361.632.357S721.48,208.618,722.211,206.428Z" transform="translate(-705.977 -202.6)" fill="#24a77e"/>
        <path id="Path_3171" data-name="Path 3171" d="M706.087,203.736a2.917,2.917,0,0,0-3.639-.783,2.834,2.834,0,0,0-1.118,3.5c.753,2.189,4.861,4.289,4.861,4.289l.632-.361.632-.361S707.64,205.461,706.087,203.736Z" transform="translate(-697.441 -202.613)" fill="#24a77e"/>
        <path id="Path_3172" data-name="Path 3172" d="M695.055,217.044a2.725,2.725,0,0,0,.021,5.433c2.293.456,6.181-2,6.181-2l0-.718,0-.723S697.343,216.583,695.055,217.044Z" transform="translate(-692.56 -210.798)" fill="#24a77e"/>
        <path id="Path_3173" data-name="Path 3173" d="M701.449,229.653a2.847,2.847,0,0,0,1.144,3.5,2.92,2.92,0,0,0,3.635-.787c1.54-1.729,1.316-6.289,1.316-6.289l-.632-.361-.632-.357S702.185,227.463,701.449,229.653Z" transform="translate(-697.513 -215.57)" fill="#24a77e"/>
        <path id="Path_3174" data-name="Path 3174" d="M717.529,232.347a2.917,2.917,0,0,0,3.639.783,2.829,2.829,0,0,0,1.114-3.5c-.753-2.185-4.861-4.289-4.861-4.289l-.632.357-.628.361S715.976,230.622,717.529,232.347Z" transform="translate(-706.005 -215.558)" fill="#24a77e"/>
        <path id="Path_3175" data-name="Path 3175" d="M712.9,218.05a2.308,2.308,0,1,1-2.327,2.31A2.335,2.335,0,0,1,712.9,218.05Z" transform="translate(-702.823 -211.404)" fill="#24a77e"/>
      </g>
    </g>
    <g id="Group_6179" data-name="Group 6179" transform="translate(690.53 222.86)">
      <path id="Path_3176" data-name="Path 3176" d="M724.975,249.722c-7.545-.357-7.261,3.936-7.3,4.448C718.153,254.372,721.84,256.592,724.975,249.722Z" transform="translate(-708.948 -249.701)" fill="#24a77e"/>
      <path id="Path_3177" data-name="Path 3177" d="M697.38,249.722c7.545-.357,7.261,3.936,7.291,4.448C704.2,254.372,700.516,256.592,697.38,249.722Z" transform="translate(-697.38 -249.701)" fill="#24a77e"/>
    </g>
  </g>
</svg>
