<svg id="Layer_1" data-name="Layer 1" xmlns="http://www.w3.org/2000/svg" viewBox="0 0 4 4"><defs><style>.cls-1{fill:#020302;}.cls-2{fill:#56331b;}.cls-3{fill:#fcdeae;}.cls-4{fill:#f9c06e;}.cls-5{opacity:0.5;}.cls-6{fill:#933d02;}.cls-7{fill:#ffa720;}.cls-8{fill:#fcb644;}.cls-9{fill:#f9df46;}.cls-10{fill:#f96d06;}.cls-11{fill:#e05c03;}.cls-12{fill:#fff;}</style></defs><path class="cls-1" d="M10.35,10.78s-.07,0-.1,0-.13-.26-.27-.3-.08,0-.11,0,0,0-.06-.06a.58.58,0,0,0-.32-.23.8.8,0,0,0-.64.09,1.85,1.85,0,0,0-.49.43l.06,0a.86.86,0,0,0-.06.23l0,.18a.33.33,0,0,0,0,.17.11.11,0,0,0,.16,0c0,.1,0,.2.07.3l.09-.06,0,.12a.07.07,0,0,1,.1,0,.23.23,0,0,1,.1-.07l0,.08a.11.11,0,0,1,.07,0,.36.36,0,0,1,0,.25.8.8,0,0,0,.21-.2v.13a.21.21,0,0,1,.14-.07v.12a.47.47,0,0,0,.28-.14l.06.11a.16.16,0,0,1,.21-.12c0-.09.17-.11.25-.19a.29.29,0,0,0,.08-.13l.14-.3C10.41,10.94,10.44,10.82,10.35,10.78Z" transform="translate(-7.62 -7.88)"/><path class="cls-2" d="M9.73,11.64l-.07.1A.86.86,0,0,0,9.73,11.64Z" transform="translate(-7.62 -7.88)"/><path class="cls-2" d="M9.7,11.77l0,0Z" transform="translate(-7.62 -7.88)"/><path class="cls-2" d="M9.15,11.76l0,0Z" transform="translate(-7.62 -7.88)"/><path class="cls-2" d="M10.28,11a.76.76,0,0,0-.16-.25.44.44,0,0,0-.19-.17l-.12,0a1.08,1.08,0,0,1-.18-.11.91.91,0,0,0-.45-.19.65.65,0,0,0-.39.09l0,0a.28.28,0,0,0-.16.22l0,.06a1.13,1.13,0,0,0,0,1,3,3,0,0,1-.07-.43,1.31,1.31,0,0,1,.23.56v-.32a.44.44,0,0,0,.16.26c-.05,0-.09,0-.1.05l.11,0-.06.16a1.22,1.22,0,0,0,.07-.17H9l.09,0,.06.1h0a.2.2,0,0,1,0-.22l0,0a.14.14,0,0,1,0,.09.29.29,0,0,1,0,.09.75.75,0,0,1,.07-.12.14.14,0,0,1,0,.17l.23-.21a1,1,0,0,1-.22.39.85.85,0,0,0,.29-.36.68.68,0,0,0,0,.37c.06-.05,0-.15,0-.24s0-.19.13-.18a.11.11,0,0,1,.08.13.08.08,0,0,1,0,.05l0-.06a.29.29,0,0,1-.08.19.69.69,0,0,0,.17-.34l.15.37a.34.34,0,0,0,0-.24.19.19,0,0,1,0-.23.37.37,0,0,0,.05.11l.07-.07a.32.32,0,0,1,0,.14l.06-.39a.12.12,0,0,1,0,.13A.28.28,0,0,0,10.28,11Zm-1.67-.41h0Zm.23.93c-.05,0-.09-.12,0-.15s.12,0,.15.08a.51.51,0,0,1,0,.17A.43.43,0,0,0,8.84,11.49Zm.18.08s0,0-.07,0h0a.65.65,0,0,0,0-.13l0,0Z" transform="translate(-7.62 -7.88)"/><path class="cls-2" d="M9.11,11.71a.25.25,0,0,0,0-.07l0,.07Z" transform="translate(-7.62 -7.88)"/><path class="cls-2" d="M9.15,11.76a.1.1,0,0,1,0,0h0Z" transform="translate(-7.62 -7.88)"/><path class="cls-2" d="M9,11.86l.09-.14h0S9.05,11.81,9,11.86Z" transform="translate(-7.62 -7.88)"/><path class="cls-3" d="M10.17,10.65c.1-.06.22-.09.33-.15a.65.65,0,0,0,.3-.39v0s0,0-.05-.05a.23.23,0,0,0-.21,0,.75.75,0,0,0-.14.17l-.63.35v0a2,2,0,0,1,.29-.49,1.67,1.67,0,0,0,.25-.36,1.07,1.07,0,0,0,.06-.3l0-.58a.07.07,0,0,0,0-.06l0,0a.25.25,0,0,0-.17,0s-.1.07-.08.12V8.79a1.75,1.75,0,0,1,0,.46c-.08.3-.34.52-.48.8a.88.88,0,0,1,0-.17v0l.07-.14a.62.62,0,0,0,0-.38s0-.06,0-.07a.07.07,0,0,0-.06,0c0-.07,0-.14,0-.21l-.12-.55s0,0,0,0h0c-.12,0-.23.11-.34.11a2,2,0,0,1,.14.86,5,5,0,0,0,0,.67,1.85,1.85,0,0,0,0,.23,1.22,1.22,0,0,0-.25-.2,2.23,2.23,0,0,1-.33-.2.8.8,0,0,1-.23-.37c0-.07-.05-.14-.12-.16a.12.12,0,0,0-.16.1.17.17,0,0,0,.07.16,1.57,1.57,0,0,0,.41.61,2,2,0,0,0,.23.18,2.93,2.93,0,0,0,.19.57l0,0a1.37,1.37,0,0,1-.69-.65.17.17,0,0,0-.06-.1.14.14,0,0,0-.14,0,.18.18,0,0,0-.06.09,1.63,1.63,0,0,0,1,.95s0,0,.06,0l0,0a.41.41,0,0,0,0-.11,2.3,2.3,0,0,0,.35.47s0,0,0,0a.07.07,0,0,0,.05,0,.75.75,0,0,0,0-.16.13.13,0,0,0,.12,0l0,0a.18.18,0,0,0,.16,0,1.37,1.37,0,0,0,.8-.67s0-.07,0-.1a.13.13,0,0,0-.17,0,.2.2,0,0,0-.11.14v0a.84.84,0,0,1-.57.33v-.07l.11,0s.06,0,.07,0a.17.17,0,0,0,0-.1A.35.35,0,0,1,10.17,10.65Zm-1.05.18s0,.07.06.08h0a.49.49,0,0,1,0,.11v0A1.47,1.47,0,0,1,9,10.65.32.32,0,0,1,9.12,10.83Z" transform="translate(-7.62 -7.88)"/><path class="cls-3" d="M9,8.55H9Z" transform="translate(-7.62 -7.88)"/><path class="cls-3" d="M7.93,10.37v0Z" transform="translate(-7.62 -7.88)"/><path class="cls-4" d="M9.14,8.69a.13.13,0,0,1,.07,0,.14.14,0,0,1,.16.07l0,0h.08v0l0-.14h0a.7.7,0,0,1-.35,0h0a1.45,1.45,0,0,0,.09.22S9.12,8.73,9.14,8.69Z" transform="translate(-7.62 -7.88)"/><path class="cls-4" d="M9.17,9.46h0v.42a2.66,2.66,0,0,1,.07-.39h0Z" transform="translate(-7.62 -7.88)"/><path class="cls-4" d="M9.3,10.44l-.07.06h0S9.28,10.46,9.3,10.44Z" transform="translate(-7.62 -7.88)"/><path class="cls-4" d="M9.43,10.37h0a.58.58,0,0,1,.38.1.28.28,0,0,0,0-.09c.07-.24.34-.42.45-.66a1.14,1.14,0,0,0,.06-.25,3.79,3.79,0,0,0,.05-.58s0,0,0,0l-.05,0-.21,0h0a0,0,0,0,0,0,0,.76.76,0,0,0,0,.15V8.85a1.35,1.35,0,0,1,0,.35,1,1,0,0,1,.1-.21l0,0a.07.07,0,0,1,.07,0,.11.11,0,0,1,0,.06.7.7,0,0,1,0,.25,1.57,1.57,0,0,1-.09.43,3.48,3.48,0,0,1-.5.59h0l-.06,0a.13.13,0,0,1-.07-.15A.37.37,0,0,1,9.64,10v0l-.07.09a.57.57,0,0,0,0-.13c0-.17.12-.33.1-.5l-.33.05,0,.06,0,0a.23.23,0,0,1,0,.26s.05-.07.06-.12,0-.09.09-.09a.11.11,0,0,1,.07.1c0,.15-.11.27-.15.41a2,2,0,0,0-.05.24.52.52,0,0,1-.07.15l.1,0Z" transform="translate(-7.62 -7.88)"/><path class="cls-4" d="M8.1,9.63l.17.27-.1-.2s0-.07,0-.08a.06.06,0,0,1,.06,0,.86.86,0,0,1,.13.14c0,.06.08.14,0,.2h0L8.25,9.9l.18.25c0-.08,0-.18.07-.23l0,0a0,0,0,0,0,0,0,.62.62,0,0,1-.22-.39s0,0,0,0h0L8,9.56A.16.16,0,0,1,8.1,9.63Z" transform="translate(-7.62 -7.88)"/><polygon class="cls-4" points="0.42 1.68 0.42 1.68 0.41 1.68 0.42 1.68"/><path class="cls-4" d="M9.29,11.08A2,2,0,0,1,9,10.6a.66.66,0,0,0,.19.09h0a0,0,0,0,0,0,0l0-.13,0,0-.06-.15v0a.14.14,0,0,0,0-.07l-.06,0-.15-.07h0s0,0,0,0a.53.53,0,0,0,0,.17l-.05-.12a0,0,0,0,0,0,0h0l-.13,0h0a.23.23,0,0,1-.16,0h0l.21.16v0l0,.18,0-.14s0-.06,0-.06l0,0a1.18,1.18,0,0,1,.19.37c.09.2.25.35.35.54,0,0,0,.08,0,.11H9.32c-.09,0-.15-.1-.2-.19l-.33-.67A2.78,2.78,0,0,0,9,11h0a1.45,1.45,0,0,1-.76-.68,0,0,0,0,0,0,0h0l-.19.09a1.75,1.75,0,0,0,.28.39v0a1.53,1.53,0,0,0,1,.58.5.5,0,0,0,.19.19h0l0,0a.22.22,0,0,0,0-.22A1.21,1.21,0,0,0,9.29,11.08Zm-.28.1H9a.37.37,0,0,1-.18,0,.77.77,0,0,1-.24-.12,2.37,2.37,0,0,1-.37-.34l-.11-.16c0-.05-.06-.11,0-.15a.12.12,0,0,1,.1,0,.27.27,0,0,1,.07.08,1.48,1.48,0,0,0,.54.45c.1.05.22.11.25.21Z" transform="translate(-7.62 -7.88)"/><path class="cls-4" d="M10.62,10.21a.18.18,0,0,0-.16,0s.08,0,.07.08l0,0a1.2,1.2,0,0,1-.21.17.47.47,0,0,1-.26.08s0,0-.06,0,0,0,0,0h0a0,0,0,0,0,0,0,.09.09,0,0,0,0,.05l.17.15.17-.13a2,2,0,0,0,.35-.31.05.05,0,0,0,0,0Z" transform="translate(-7.62 -7.88)"/><path class="cls-4" d="M10.39,10.72l0,0,0,0,0,.08,0,0h0a.09.09,0,0,1,.07,0,.06.06,0,0,1,0,0,.19.19,0,0,1-.06.15.74.74,0,0,1-.23.2.28.28,0,0,1-.23.05s.05,0,.06,0H9.85l.08,0H9.86l.15-.08-.23.08h0s0-.07,0-.11v0h0l-.31-.09s0,0,0,0h0l.08.42a.94.94,0,0,0,0-.29.08.08,0,0,1,0-.07.07.07,0,0,1,.08,0,.33.33,0,0,1,.07.3.18.18,0,0,1-.05.07.17.17,0,0,1-.1,0,.1.1,0,0,0,.12.06.14.14,0,0,0,.1-.07.08.08,0,0,0,0,0H9.8a1,1,0,0,0,.45-.22,1.66,1.66,0,0,0,.32-.38l-.16-.11Z" transform="translate(-7.62 -7.88)"/><path class="cls-4" d="M7.91,10.39h0l0,0Z" transform="translate(-7.62 -7.88)"/><g class="cls-5"><path class="cls-6" d="M9.17,8.65a.32.32,0,0,1,.14,0c.06,0,.09.1.16.11a.21.21,0,0,0,0-.11l0-.1h0l-.12,0L9,8.58v0S9.12,8.65,9.17,8.65Z" transform="translate(-7.62 -7.88)"/><path class="cls-6" d="M10.1,10l.16-.21a1,1,0,0,0,.11-.33,2.43,2.43,0,0,0,0-.6v0h0l-.12,0h-.1a.07.07,0,0,0,0,.06V9s0,0,.07,0a.1.1,0,0,1,.09,0,.36.36,0,0,1,0,.09,1,1,0,0,1,0,.34,1.07,1.07,0,0,1-.06.3c-.09.23-.34.39-.44.63,0,0,0,.09,0,.12A1.92,1.92,0,0,1,10.1,10Z" transform="translate(-7.62 -7.88)"/><path class="cls-6" d="M8,9.56a.19.19,0,0,0,.15,0h.06l0,0,.14.18a.26.26,0,0,0,.09.09,1.19,1.19,0,0,1-.21-.4s0,0,0,0h0l-.17.09H8S8,9.55,8,9.56Z" transform="translate(-7.62 -7.88)"/><path class="cls-6" d="M9.05,11.08A.2.2,0,0,0,9,11l-.11,0a.92.92,0,0,1-.25-.15,1.47,1.47,0,0,1-.44-.49s0,0,0,0h0l-.2.07a.44.44,0,0,0,.14.22S8,10.5,8,10.46s.09-.09.15-.07a.44.44,0,0,1,.14.13,1.42,1.42,0,0,0,.5.44l.15.08a.17.17,0,0,1,.05.15.09.09,0,0,1-.13.06,1,1,0,0,0,.29.11h0a0,0,0,0,0,0,0C9.14,11.23,9.1,11.15,9.05,11.08Z" transform="translate(-7.62 -7.88)"/><path class="cls-6" d="M7.9,10.36h0Z" transform="translate(-7.62 -7.88)"/><path class="cls-6" d="M9.79,11.07A.24.24,0,0,0,9.92,11a.8.8,0,0,0,.13-.19,1.13,1.13,0,0,1,.39-.33.78.78,0,0,0,.36-.36.93.93,0,0,1-.37,0h0s0,.08,0,.08.15,0,.16,0,0,.08-.09.11a4.41,4.41,0,0,0-.72.46l-.07.09H9.63l-.1,0s-.08,0-.1,0l0,0h0a.06.06,0,0,0,0,.06l0,.06.11,0a.14.14,0,0,1,.12,0,.64.64,0,0,1,0,.07.86.86,0,0,1,0,.16.28.28,0,0,1,0,.09.13.13,0,0,1-.07.06.12.12,0,0,1-.1,0l0,0,0,0a.41.41,0,0,0-.11-.19,2.17,2.17,0,0,1-.42-.81s0,0,0-.05h0l-.08,0a.07.07,0,0,0,0,.08l0,0,0,.08s.07-.05.11,0a.23.23,0,0,1,.08.11c.06.15.12.31.19.46a1.54,1.54,0,0,0,.25.32.23.23,0,0,1,0,.18,0,0,0,0,1,0,0H9.34l-.12-.05,0,.06a1,1,0,0,0,.13.15s0,0,0,0,0,0,0-.05l0-.14h0l.07,0a.16.16,0,0,0,.1,0s.05,0,.08,0a.85.85,0,0,0,.49-.22,2,2,0,0,0,.35-.41s0,0,0,0l0,0-.1-.07-.07,0h0l0,.06a.09.09,0,0,1,.08.11s0,.09-.07.13a1.32,1.32,0,0,1-.42.36.4.4,0,0,1-.15,0H9.74a.59.59,0,0,0,0-.23Z" transform="translate(-7.62 -7.88)"/><polygon class="cls-6" points="2.8 2.83 2.8 2.83 2.8 2.82 2.8 2.83"/><path class="cls-6" d="M10.38,10.75l0,0S10.37,10.74,10.38,10.75Z" transform="translate(-7.62 -7.88)"/><path class="cls-6" d="M9.26,10a1.2,1.2,0,0,0,.11-.23.22.22,0,0,0,0-.21h0c.07,0,.16-.07.23,0l0,.06a.34.34,0,0,1-.06.21L9.45,10a.58.58,0,0,0-.06.29.07.07,0,0,0,0,.06h0a.35.35,0,0,0,.06.14v0l0,0c-.08,0-.07-.2,0-.29a1,1,0,0,1,.13-.17,1,1,0,0,1,0-.27.93.93,0,0,0,.07-.33v0h0l-.3,0h0l0,0a.38.38,0,0,1-.06.32.89.89,0,0,0-.15.33.91.91,0,0,1,0,.17.15.15,0,0,0-.1,0l.15.09A.82.82,0,0,1,9.26,10Z" transform="translate(-7.62 -7.88)"/></g><path class="cls-7" d="M8.75,8.55a1,1,0,0,0,.54,0,1.78,1.78,0,0,0,.51-.16.48.48,0,0,0-.08.18.17.17,0,0,0,0,.12h0a1,1,0,0,0-.44.07A.49.49,0,0,0,9,9a.35.35,0,0,0-.06.26.26.26,0,0,0,.18.16.69.69,0,0,0,.25,0,3,3,0,0,0,.66-.1.27.27,0,0,0,.12-.06c.06-.07,0-.17,0-.24a.84.84,0,0,0-.22-.24h0a3.53,3.53,0,0,0,.92.05h.08A.12.12,0,0,0,11,8.75a.29.29,0,0,0-.05-.13.93.93,0,0,0-.21-.27.44.44,0,0,0-.23-.1.58.58,0,0,0-.41,0l-.13.06a.19.19,0,0,0,0-.07A.57.57,0,0,0,9.68,8a.66.66,0,0,0-.2-.06,1.15,1.15,0,0,0-.37,0A.73.73,0,0,0,8.92,8a.93.93,0,0,0-.28.29.24.24,0,0,0,0,.23A.41.41,0,0,0,8.75,8.55Z" transform="translate(-7.62 -7.88)"/><path class="cls-7" d="M8,9.57a1.19,1.19,0,0,0,.59-.24.07.07,0,0,0,0-.05.1.1,0,0,0,0-.1A.9.9,0,0,0,8.34,9L8.28,9H8.2a.53.53,0,0,0-.41,0,.49.49,0,0,0-.16.3.22.22,0,0,0,0,.21A.31.31,0,0,0,8,9.57Z" transform="translate(-7.62 -7.88)"/><path class="cls-7" d="M9.28,10.15a.13.13,0,0,0,0-.12v0A.62.62,0,0,0,9,9.81a.48.48,0,0,0-.24,0,.49.49,0,0,0-.31.11.47.47,0,0,0-.1.2A.22.22,0,0,0,8.33,10a.51.51,0,0,0-.16-.09H8a.37.37,0,0,0-.35.25.15.15,0,0,0,0,.16.19.19,0,0,0,.1,0,1.5,1.5,0,0,0,.59-.1l0,0,.06,0a1,1,0,0,0,.75-.07A.27.27,0,0,0,9.28,10.15Z" transform="translate(-7.62 -7.88)"/><path class="cls-7" d="M11.47,9.73c-.25-.29-.88-.18-.88-.18a.53.53,0,0,0-.43.3.22.22,0,0,0,0,.22.34.34,0,0,0,.12.06,2.48,2.48,0,0,0,1,.07c.13,0,.28,0,.33-.16S11.55,9.82,11.47,9.73Z" transform="translate(-7.62 -7.88)"/><path class="cls-7" d="M9.93,10.49l-.07,0a.44.44,0,0,0-.31-.09.47.47,0,0,0-.4.27.17.17,0,0,0,0,.12.26.26,0,0,0,.16.15A1.43,1.43,0,0,0,10,11l.07,0a.17.17,0,0,0,.06-.1.27.27,0,0,0-.06-.22A.65.65,0,0,0,9.93,10.49Z" transform="translate(-7.62 -7.88)"/><path class="cls-7" d="M11,10.49a.38.38,0,0,0-.23-.16.7.7,0,0,0-.29,0s-.09,0-.1.07-.08.05-.1.09a.16.16,0,0,0,0,.16.49.49,0,0,0,.14.11.78.78,0,0,0,.48.15.16.16,0,0,0,.13-.06.14.14,0,0,0,0-.11A.46.46,0,0,0,11,10.49Z" transform="translate(-7.62 -7.88)"/><path class="cls-8" d="M8.84,8.45a.53.53,0,0,0,.25,0,.58.58,0,0,0,.37-.33.17.17,0,0,0,0-.1.11.11,0,0,0-.08-.08.41.41,0,0,0-.29,0,.84.84,0,0,0-.28.15.31.31,0,0,0-.14.24A.2.2,0,0,0,8.84,8.45Z" transform="translate(-7.62 -7.88)"/><path class="cls-8" d="M9.68,9.12a.31.31,0,0,0,.1-.27.11.11,0,0,0,0-.07l-.08,0a1.27,1.27,0,0,0-.29,0h0A.68.68,0,0,0,9.05,9,.24.24,0,0,0,9,9.13a.2.2,0,0,0,.17.16.49.49,0,0,0,.24,0A.84.84,0,0,0,9.68,9.12Z" transform="translate(-7.62 -7.88)"/><path class="cls-8" d="M8.17,9a.42.42,0,0,0-.33,0l.08,0a.36.36,0,0,0-.27.41s0,0,0,.05.08.06.14.05A.26.26,0,0,0,8,9.38L8,9.26a.87.87,0,0,1,.17-.16.07.07,0,0,0,0-.06S8.21,9,8.17,9Z" transform="translate(-7.62 -7.88)"/><path class="cls-8" d="M8.12,9.94H7.9a.83.83,0,0,0-.16.09.28.28,0,0,0-.09.1.11.11,0,0,0,0,.11.11.11,0,0,0,.11,0,.33.33,0,0,0,.1-.06,1,1,0,0,1,.25-.14s.07,0,.07-.06A.09.09,0,0,0,8.12,9.94Z" transform="translate(-7.62 -7.88)"/><path class="cls-8" d="M9,9.81H8.87a.58.58,0,0,0-.23,0,.43.43,0,0,0-.2.15.12.12,0,0,0,0,.13.09.09,0,0,0,.05,0,.33.33,0,0,0,.29,0A.24.24,0,0,0,8.89,10,.45.45,0,0,0,9,9.9a.08.08,0,0,0,0-.05S9,9.81,9,9.81Z" transform="translate(-7.62 -7.88)"/><path class="cls-8" d="M10.59,8.39s0,0,0-.05l0-.05a.25.25,0,0,0-.13,0l0,0a.65.65,0,0,0-.53.17.23.23,0,0,0-.07.1.09.09,0,0,0,0,.11.19.19,0,0,0,.09.05.78.78,0,0,0,.49-.1A.49.49,0,0,0,10.59,8.39Z" transform="translate(-7.62 -7.88)"/><path class="cls-8" d="M11.22,9.65a.39.39,0,0,0-.22-.1,1.15,1.15,0,0,0-.37,0,.67.67,0,0,0-.33.15.19.19,0,0,0-.05.22.25.25,0,0,0,.21.08,1.21,1.21,0,0,0,.74-.24s0,0,0-.06A.08.08,0,0,0,11.22,9.65Z" transform="translate(-7.62 -7.88)"/><path class="cls-8" d="M10.79,10.39a.61.61,0,0,1-.13,0l.15,0a.47.47,0,0,0-.43,0,.16.16,0,0,0-.07.07.08.08,0,0,0,0,.09.14.14,0,0,0,.1,0,.56.56,0,0,0,.34,0,.1.1,0,0,0,.08-.06S10.84,10.41,10.79,10.39Z" transform="translate(-7.62 -7.88)"/><path class="cls-8" d="M9.84,10.47a.66.66,0,0,0-.21-.08h.09a.42.42,0,0,0-.44.1.11.11,0,0,0,0,.1.11.11,0,0,0,.06.07l.1,0a2.54,2.54,0,0,0,.39,0,.14.14,0,0,0,.11,0,.08.08,0,0,0,0-.11A.18.18,0,0,0,9.84,10.47Z" transform="translate(-7.62 -7.88)"/><g class="cls-5"><path class="cls-9" d="M9.37,8.07A.09.09,0,0,0,9.4,8a.12.12,0,0,0-.1-.08A.42.42,0,0,0,9,8h.07a.46.46,0,0,0-.28.17.37.37,0,0,0-.05.11.15.15,0,0,0,0,.11.18.18,0,0,0,.13,0l.14,0A.7.7,0,0,0,9.37,8.07Z" transform="translate(-7.62 -7.88)"/><path class="cls-9" d="M9.52,9.06l.11,0,.08-.08a.16.16,0,0,0-.1-.16l-.12,0h0a.49.49,0,0,0-.32.18A.18.18,0,0,0,9.09,9a.12.12,0,0,0,0,.08s.09,0,.14,0l.15,0Z" transform="translate(-7.62 -7.88)"/><path class="cls-9" d="M8.11,9a.15.15,0,0,0-.13,0H8A.24.24,0,0,0,7.84,9a.52.52,0,0,0-.1.11.29.29,0,0,0-.07.12.14.14,0,0,0,.06.13h0s.06,0,.08-.06a.59.59,0,0,1,.24-.23S8.13,9,8.14,9A.09.09,0,0,0,8.11,9Z" transform="translate(-7.62 -7.88)"/><path class="cls-9" d="M8.08,10h0a.35.35,0,0,0-.31.1s0,0,0,0,0,.06.09.06a.6.6,0,0,0,.11-.06A.66.66,0,0,0,8.11,10v0S8.1,10,8.08,10Z" transform="translate(-7.62 -7.88)"/><path class="cls-9" d="M8.92,9.8a.14.14,0,0,0-.09,0h0a.41.41,0,0,0-.32.12s0,.08,0,.11a.07.07,0,0,0,.06,0A.48.48,0,0,0,8.74,10l.17-.1A.1.1,0,0,0,9,9.86.06.06,0,0,0,8.92,9.8Z" transform="translate(-7.62 -7.88)"/><path class="cls-9" d="M10.5,8.33a.07.07,0,0,0,0-.08h-.07a.55.55,0,0,0-.22,0,.46.46,0,0,0-.26.13.26.26,0,0,0-.05.09.08.08,0,0,0,0,.08.1.1,0,0,0,.09,0c.13,0,.23-.12.35-.15l.13,0Z" transform="translate(-7.62 -7.88)"/><path class="cls-9" d="M11.17,9.61s0,0-.05,0h0a1.25,1.25,0,0,0-.61,0,.17.17,0,0,0-.12.08.09.09,0,0,0,0,.13.13.13,0,0,0,.09,0,1.13,1.13,0,0,0,.65-.11.18.18,0,0,0,.07-.05A.06.06,0,0,0,11.17,9.61Z" transform="translate(-7.62 -7.88)"/><path class="cls-9" d="M10.78,10.37l-.1,0a.34.34,0,0,0-.26,0s-.05,0,0,.07,0,0,.08,0a.55.55,0,0,0,.33-.07l0,0S10.8,10.38,10.78,10.37Z" transform="translate(-7.62 -7.88)"/><path class="cls-9" d="M9.79,10.43a1.09,1.09,0,0,0-.19,0,.49.49,0,0,0-.24,0l0,.06a.06.06,0,0,0,0,.08.1.1,0,0,0,.07,0h.3a.17.17,0,0,0,.12,0A.09.09,0,0,0,9.79,10.43Z" transform="translate(-7.62 -7.88)"/></g><g class="cls-5"><path class="cls-10" d="M9.28,8.58a1.05,1.05,0,0,0,.59-.23.05.05,0,0,0,0,0s0,0,0-.05a1.1,1.1,0,0,0-.14-.18.51.51,0,0,0-.36-.15H9.31a.24.24,0,0,1,.2.16.44.44,0,0,1,0,.25.37.37,0,0,1-.05.11.34.34,0,0,1-.12.09H9l-.13,0c-.07,0-.14-.07-.15-.14s0-.06,0-.09a0,0,0,0,0,0,0h0a.18.18,0,0,0,0,.12v0a.15.15,0,0,0,.07.18.51.51,0,0,0,.21.06A1,1,0,0,0,9.28,8.58Z" transform="translate(-7.62 -7.88)"/><path class="cls-10" d="M9.31,7.92Z" transform="translate(-7.62 -7.88)"/><path class="cls-10" d="M9.74,8.63v0a.06.06,0,0,0,0,.06l0,0a.32.32,0,0,0,.2.08.32.32,0,0,1-.1-.1Z" transform="translate(-7.62 -7.88)"/><path class="cls-10" d="M10.86,8.86a.18.18,0,0,0,.07,0c0-.05,0-.1,0-.15a2.18,2.18,0,0,0-.26-.34v0a.21.21,0,0,0-.15-.07.31.31,0,0,1,.18.21.28.28,0,0,1-.1.25.48.48,0,0,1-.32.09,1.34,1.34,0,0,1-.28,0,2.64,2.64,0,0,0,.63.06A.59.59,0,0,0,10.86,8.86Z" transform="translate(-7.62 -7.88)"/><path class="cls-10" d="M8.2,9a.2.2,0,0,0-.11,0L8.22,9a.15.15,0,0,1,.07.12.32.32,0,0,1-.06.18l-.06.1a.31.31,0,0,1-.09.07.86.86,0,0,1-.17,0H7.78a.21.21,0,0,1-.13-.1,0,0,0,0,0,0,0l0,0s0,.09.05.12a.23.23,0,0,0,.14,0,.76.76,0,0,0,.21,0l.17,0a1.14,1.14,0,0,0,.3-.18.15.15,0,0,0,.06-.05s0-.1-.06-.13A.58.58,0,0,0,8.2,9Z" transform="translate(-7.62 -7.88)"/><path class="cls-10" d="M9.94,8.91a.51.51,0,0,0-.36-.15A.31.31,0,0,1,9.8,9a.39.39,0,0,1-.23.41h0l-.27,0H9.2l-.07,0A.42.42,0,0,1,9,9.17a.16.16,0,0,0,0,.07v0A.13.13,0,0,0,9,9.34a.33.33,0,0,0,.27.11h.05l.39,0a.73.73,0,0,0,.38-.11l0,0a.1.1,0,0,0,0-.09A.64.64,0,0,0,9.94,8.91Z" transform="translate(-7.62 -7.88)"/><path class="cls-10" d="M9.56,8.76h0Z" transform="translate(-7.62 -7.88)"/><path class="cls-10" d="M11.54,9.86a.63.63,0,0,0-.54-.3l.18.08a.27.27,0,0,1,.13.18.25.25,0,0,1-.14.25.5.5,0,0,1-.32.06h-.09l-.08,0h-.07l-.23-.05a.17.17,0,0,1-.12,0,.11.11,0,0,1-.07-.09s0,.06,0,.09a.15.15,0,0,0,.09.06,1.37,1.37,0,0,0,.28.05,3.3,3.3,0,0,0,.77,0c.1,0,.22-.05.25-.15A.21.21,0,0,0,11.54,9.86Z" transform="translate(-7.62 -7.88)"/><path class="cls-10" d="M8.43,10a.32.32,0,0,0,0,.14v0h0a.06.06,0,0,0,0,0A.33.33,0,0,0,8.21,10v0a.16.16,0,0,0-.15,0,.09.09,0,0,1,.11,0,.11.11,0,0,1,0,.11.33.33,0,0,1-.1.14c-.08.05-.19.05-.27.11a1,1,0,0,0,.41-.06l.12-.05a.13.13,0,0,0,.06-.07h0a.07.07,0,0,0,0,.05s0,0,.06,0a0,0,0,0,0,0,0Z" transform="translate(-7.62 -7.88)"/><path class="cls-10" d="M9.25,10.15l0,0a.14.14,0,0,0,0-.07A.52.52,0,0,0,9,9.83l.06,0a.31.31,0,0,0-.25,0c.06,0,.13,0,.17.08A.12.12,0,0,1,9,10a.33.33,0,0,1-.06.22.49.49,0,0,1-.23.11.73.73,0,0,0,.32-.06A.4.4,0,0,0,9.25,10.15Z" transform="translate(-7.62 -7.88)"/><path class="cls-10" d="M9.14,10.74v0h0Z" transform="translate(-7.62 -7.88)"/><path class="cls-10" d="M10.08,10.68c-.05-.08-.1-.17-.2-.2l-.08-.05a.39.39,0,0,1,.14.2.29.29,0,0,1,0,.18l-.06.08c-.09.06-.22,0-.32,0a1.28,1.28,0,0,1-.25-.15s-.07,0-.07-.09,0,0,0,0,0,0,0,0h0a.18.18,0,0,0,.08.15l.07,0a1.55,1.55,0,0,0,.23.06h0A1.14,1.14,0,0,0,10,11a.22.22,0,0,0,.11-.05.11.11,0,0,0,0-.12A.61.61,0,0,0,10.08,10.68Z" transform="translate(-7.62 -7.88)"/><path class="cls-10" d="M10.94,10.47a.25.25,0,0,0-.15-.11v0a.16.16,0,0,1,.09.09.25.25,0,0,1,0,.12.22.22,0,0,1-.05.08.26.26,0,0,1-.21.08.79.79,0,0,1-.22-.05l0,0-.06-.07a.14.14,0,0,1,0-.14l0,0a.09.09,0,0,0,0,.11.23.23,0,0,0,.07.1.65.65,0,0,0,.16.09.73.73,0,0,0,.34.12.22.22,0,0,0,.14,0,.15.15,0,0,0,0-.12.51.51,0,0,0,0-.13A.48.48,0,0,0,10.94,10.47Z" transform="translate(-7.62 -7.88)"/></g><path class="cls-11" d="M9.9,8.32a.17.17,0,0,0,0-.15.63.63,0,0,0-.11-.12.38.38,0,0,0-.28-.11h0a.2.2,0,0,1,.18.11.32.32,0,0,1-.1.41l-.12,0-.13.06a2,2,0,0,0,.49-.15A.29.29,0,0,0,9.9,8.32Z" transform="translate(-7.62 -7.88)"/><path class="cls-11" d="M10.54,8.28l.05,0h0Z" transform="translate(-7.62 -7.88)"/><path class="cls-11" d="M10.91,8.84a.13.13,0,0,0,0-.12.66.66,0,0,0-.33-.42h0a.73.73,0,0,1,.21.22.23.23,0,0,1-.05.27.31.31,0,0,1-.16.06l-.28,0h.47A.19.19,0,0,0,10.91,8.84Z" transform="translate(-7.62 -7.88)"/><path class="cls-11" d="M9.82,8.79a.16.16,0,0,0-.12,0A1.18,1.18,0,0,1,10,9a.16.16,0,0,1,0,.07.34.34,0,0,1,0,.1.29.29,0,0,1-.13.19,2.29,2.29,0,0,1-.28.09,2.07,2.07,0,0,0,.43-.1.41.41,0,0,0,.11-.07.2.2,0,0,0,0-.11A.52.52,0,0,0,10,9l-.09-.1A.58.58,0,0,0,9.82,8.79Z" transform="translate(-7.62 -7.88)"/><path class="cls-11" d="M9.67,8.75h0Z" transform="translate(-7.62 -7.88)"/><path class="cls-11" d="M8.44,9.07A.3.3,0,0,0,8.22,9h0a.35.35,0,0,1,.17.15v0a.16.16,0,0,1,0,.1.32.32,0,0,1,0,.09.48.48,0,0,1-.26.17.76.76,0,0,0,.41-.2.08.08,0,0,0,0,0,.16.16,0,0,0,0-.07A.55.55,0,0,0,8.44,9.07Z" transform="translate(-7.62 -7.88)"/><path class="cls-11" d="M8.2,10h0a.35.35,0,0,1,.11.1.17.17,0,0,1,0,.05s-.05.09-.09.12L8,10.36a.72.72,0,0,0,.43-.15l0,0a0,0,0,0,0,0,0A.35.35,0,0,0,8.2,10Z" transform="translate(-7.62 -7.88)"/><path class="cls-11" d="M8.91,9.8h0a.34.34,0,0,1,.14.09.35.35,0,0,1,.1.11.17.17,0,0,1,0,.14l-.09.07-.19.1a.27.27,0,0,0,.12,0l.19-.08s.09,0,.09-.1,0-.06,0-.09A.48.48,0,0,0,8.91,9.8Z" transform="translate(-7.62 -7.88)"/><path class="cls-11" d="M11.54,9.84a.54.54,0,0,0-.47-.27l.14,0a.38.38,0,0,1,.13.09.41.41,0,0,1,.1.13.25.25,0,0,1,0,.15c0,.09-.14.13-.23.15a1.87,1.87,0,0,1-.4.07l.4,0a.64.64,0,0,0,.2,0,.22.22,0,0,0,.15-.13A.25.25,0,0,0,11.54,9.84Z" transform="translate(-7.62 -7.88)"/><path class="cls-11" d="M11,10.54a.27.27,0,0,0-.13-.15l0,0a.25.25,0,0,1,.12.28.27.27,0,0,1-.25.14.74.74,0,0,1-.29-.08.75.75,0,0,0,.24.15.44.44,0,0,0,.28,0,.16.16,0,0,0,.09-.05.12.12,0,0,0,0-.1A.45.45,0,0,0,11,10.54Z" transform="translate(-7.62 -7.88)"/><path class="cls-11" d="M9.9,10.49a.36.36,0,0,1,.1.14.2.2,0,0,1,0,.2.3.3,0,0,1-.13.09.9.9,0,0,1-.28,0,.37.37,0,0,0,.18,0,.81.81,0,0,1,.16,0,.38.38,0,0,0,.15,0,.12.12,0,0,0,.08-.1.25.25,0,0,0,0-.12A.56.56,0,0,0,9.9,10.49Z" transform="translate(-7.62 -7.88)"/><path class="cls-11" d="M9.89,10.49h0l0,0Z" transform="translate(-7.62 -7.88)"/><g class="cls-5"><path class="cls-12" d="M7.72,9.22h0a.86.86,0,0,0,.32-.15A.1.1,0,0,0,8.13,9l0,0h0a.39.39,0,0,0-.35.17.14.14,0,0,0,0,.06S7.7,9.22,7.72,9.22Z" transform="translate(-7.62 -7.88)"/><path class="cls-12" d="M8,10H7.89a.28.28,0,0,0-.19.14s0,.07,0,.08,0,0,.07,0L8,10H8Z" transform="translate(-7.62 -7.88)"/><path class="cls-12" d="M8.56,10l.23-.11s.08,0,.09-.07a0,0,0,0,0,0,0h0a.28.28,0,0,0-.18,0l-.06,0-.07,0-.05,0h0l-.06.06s0,.06,0,.08A.12.12,0,0,0,8.56,10Z" transform="translate(-7.62 -7.88)"/><path class="cls-12" d="M9.13,8.9s0,.06,0,.09a.1.1,0,0,0,.1,0,2,2,0,0,0,.31-.13c.05,0,.11,0,.14-.08s0,0,0,0l0,0a.32.32,0,0,0-.17,0l-.1,0A.44.44,0,0,0,9.13,8.9Z" transform="translate(-7.62 -7.88)"/><path class="cls-12" d="M8.81,8.25a.28.28,0,0,0,.13,0A1,1,0,0,0,9.33,8l.05,0a.06.06,0,0,0,0-.06.06.06,0,0,0-.05,0H9.15a.6.6,0,0,0-.39.22s0,0,0,.06S8.78,8.25,8.81,8.25Z" transform="translate(-7.62 -7.88)"/><path class="cls-12" d="M9.92,8.52a.72.72,0,0,0,.49-.18l0,0a0,0,0,0,0,0-.06l-.07,0h.07a.61.61,0,0,0-.54.13s-.06.08,0,.11S9.88,8.52,9.92,8.52Z" transform="translate(-7.62 -7.88)"/><path class="cls-12" d="M11.06,9.56H11a1.51,1.51,0,0,0-.3,0,.7.7,0,0,0-.34.12s-.06.05-.06.08l0,0a.2.2,0,0,0,.15,0l.1,0,.25-.07a.42.42,0,0,0,.22-.11l0,0S11.07,9.56,11.06,9.56Z" transform="translate(-7.62 -7.88)"/><path class="cls-12" d="M10.7,10.33h-.06a.22.22,0,0,0-.22.07.09.09,0,0,0,0,.06.07.07,0,0,0,0,.06h.08a1.13,1.13,0,0,0,.24-.08l0,0s0,0,0,0A.11.11,0,0,0,10.7,10.33Z" transform="translate(-7.62 -7.88)"/><path class="cls-12" d="M9.61,10.37h0a.67.67,0,0,0-.25.08.32.32,0,0,0-.1.1.1.1,0,0,0,0,.12.15.15,0,0,0,.11,0,1.82,1.82,0,0,0,.28-.13s0,0,0,0a0,0,0,0,0,0,0A.11.11,0,0,0,9.61,10.37Z" transform="translate(-7.62 -7.88)"/><path class="cls-12" d="M9.15,8.76v0s0,0,.05,0a.11.11,0,0,0,.07,0,0,0,0,0,0,0-.06.05.05,0,0,0-.05,0l-.07,0h0l0,0v0A.19.19,0,0,0,9.15,8.76Z" transform="translate(-7.62 -7.88)"/><polygon class="cls-12" points="1.75 1.65 1.75 1.65 1.75 1.65 1.75 1.65"/><path class="cls-12" d="M9.36,9.59V9.54A0,0,0,0,0,9.36,9.59Z" transform="translate(-7.62 -7.88)"/><path class="cls-12" d="M9.45,9.82a.32.32,0,0,0,.06-.18.09.09,0,0,0,0-.05s-.07,0-.11-.05h0a.3.3,0,0,1,0,.26.34.34,0,0,0-.06.15,0,0,0,0,0,0,0h0Z" transform="translate(-7.62 -7.88)"/><path class="cls-12" d="M10.19,9.05v0Z" transform="translate(-7.62 -7.88)"/><path class="cls-12" d="M10.22,9l0,0a.59.59,0,0,1,0,.13.82.82,0,0,1-.28.53,1.38,1.38,0,0,0-.35.5.08.08,0,0,0,0,.08s.07,0,.09,0a4,4,0,0,0,.4-.52,1.27,1.27,0,0,0,.21-.6.2.2,0,0,0,0-.07A.07.07,0,0,0,10.22,9Z" transform="translate(-7.62 -7.88)"/><polygon class="cls-12" points="2.58 1.14 2.58 1.14 2.58 1.13 2.58 1.14"/><path class="cls-12" d="M10.09,10.43s-.05,0,0,0,0,0,0,0a1.41,1.41,0,0,0,.39-.19l0,0a0,0,0,0,0,0,0l0,0-.18.1Z" transform="translate(-7.62 -7.88)"/><path class="cls-12" d="M10.4,10.83s0,0,0,0a.23.23,0,0,1-.07.1,1.65,1.65,0,0,1-.36.22.14.14,0,0,0,.14,0l.16-.07.11-.08a.24.24,0,0,0,.07-.13S10.42,10.84,10.4,10.83Z" transform="translate(-7.62 -7.88)"/><path class="cls-12" d="M10.32,10.9s0,0,0-.05h0v0Z" transform="translate(-7.62 -7.88)"/><path class="cls-12" d="M9.57,11a.06.06,0,0,0-.07,0s0,0,0,0a1,1,0,0,0,0,.17.14.14,0,0,0,0,.06.07.07,0,0,0,.07,0,.07.07,0,0,0,0-.06v-.11A.12.12,0,0,0,9.57,11Z" transform="translate(-7.62 -7.88)"/><path class="cls-12" d="M9.44,11.08a.05.05,0,0,1,0,0h0Z" transform="translate(-7.62 -7.88)"/><path class="cls-12" d="M8.94,10.66a.48.48,0,0,0-.1-.23l0,0,0,0h0v0a.14.14,0,0,0,0,.06v0a1.66,1.66,0,0,0,.12.31L9,11a.85.85,0,0,0,.19.3h0a0,0,0,0,0,0,0s0,0,0,0A2,2,0,0,1,8.94,10.66Z" transform="translate(-7.62 -7.88)"/><path class="cls-12" d="M8.68,10.94a1.26,1.26,0,0,1-.5-.44.15.15,0,0,0,0-.06.08.08,0,0,0-.09,0,0,0,0,0,0,0,.07l0,0a2.06,2.06,0,0,0,.59.55.52.52,0,0,0,.23.1h0s0,0,0,0A.55.55,0,0,0,8.68,10.94Z" transform="translate(-7.62 -7.88)"/><path class="cls-12" d="M8.24,9.79a.12.12,0,0,0,0,.05,0,0,0,0,0,.06,0s0,0,0,0a.12.12,0,0,1-.05-.07l0-.06a.21.21,0,0,0-.11,0v0h0Zm-.1-.16Z" transform="translate(-7.62 -7.88)"/><path class="cls-12" d="M9.28,10.22s-.06,0-.07,0h0a.25.25,0,0,0,0,.17.18.18,0,0,0,.07-.2Z" transform="translate(-7.62 -7.88)"/></g></svg>