<svg xmlns="http://www.w3.org/2000/svg" width="48.945" height="45.167" viewBox="0 0 48.945 45.167">
  <g id="Group_6221" data-name="Group 6221" transform="translate(-62.402 -404.112)">
    <g id="Group_6102" data-name="Group 6102" transform="translate(62.402 404.112)">
      <path id="Path_3113" data-name="Path 3113" d="M90.118,429.634c.406-3.056,2.074-13.46-2.471-13.819-2.77-.221-2.72,5.72-2.72,5.72s-4.651-12.782-6.721-15.133c-1.5-1.7-3.858-1.521-4.48.553a8.567,8.567,0,0,0-.834-1.733c-1.512-1.991-5.006-1.378-4.623,2.452.018.157.041.336.074.526-.963-.747-3.752-.977-4.024,2.2a9.862,9.862,0,0,0,.885,3.821.446.446,0,0,0-.171-.06c-1.369-.138-3.084.525-2.521,3.236s4.937,12.376,6.9,15.008a15.678,15.678,0,0,1,3.024,5.725c.627,1.862,2.964,8.491,3.946,10.832l19.42-8.256C94.377,437.65,89.726,432.579,90.118,429.634Z" transform="translate(-62.402 -404.112)" fill="#24a77e"/>
      <path id="Path_3114" data-name="Path 3114" d="M115.727,436.094c-1.351-2.766-6.223-12.109-2.028-13.888,2.558-1.083,4.388,4.568,4.388,4.568s.369-13.6,1.59-16.483c.885-2.088,3.176-2.664,4.425-.89a8.5,8.5,0,0,1,.244-1.908c.8-2.365,4.314-2.886,5.158.871.037.152.065.327.1.521.678-1.014,3.25-2.116,4.513.816a9.967,9.967,0,0,1,.369,3.9.387.387,0,0,1,.143-.111c1.254-.562,3.093-.475,3.416,2.272s-.77,13.3-1.807,16.423a15.7,15.7,0,0,0-1.06,6.384c0,1.964-.129,8.993-.318,11.524l-21.033-1.692C114.219,445.046,117.026,438.768,115.727,436.094Z" transform="translate(-89.154 -404.931)" fill="#24a77e"/>
      <path id="Path_3115" data-name="Path 3115" d="M162.051,422.87a2.6,2.6,0,0,0-1.056.24.324.324,0,0,0-.041.037l-.277.29-.037.793.682-.715c.028-.028.037-.037.041-.037a2.659,2.659,0,0,1,1.056-.24,1.527,1.527,0,0,1,.926.286A1.528,1.528,0,0,0,162.051,422.87Z" transform="translate(-115.358 -414.224)" fill="#f9fded"/>
      <path id="Path_3116" data-name="Path 3116" d="M139.329,410.214a7.727,7.727,0,0,1,.226-1.812,2.292,2.292,0,0,1,2.12-1.613,1.924,1.924,0,0,1,1.226.443,2.029,2.029,0,0,0-1.595-.811,2.287,2.287,0,0,0-2.12,1.609,7.728,7.728,0,0,0-.226,1.812l-.051.917.36.512Z" transform="translate(-103.644 -405.356)" fill="#f9fded"/>
      <path id="Path_3117" data-name="Path 3117" d="M150.865,412.442a2.381,2.381,0,0,1,1.825-.908,1.793,1.793,0,0,1,1.139.406,1.924,1.924,0,0,0-1.512-.77,2.388,2.388,0,0,0-1.825.908l-.272.41.115.751Z" transform="translate(-109.741 -407.917)" fill="#f9fded"/>
      <path id="Path_3118" data-name="Path 3118" d="M125.762,430.758c0-.134.378-13.561,1.558-16.35a2.556,2.556,0,0,1,2.208-1.719,1.746,1.746,0,0,1,1.106.4,1.9,1.9,0,0,0-1.475-.77,2.556,2.556,0,0,0-2.208,1.719c-1.18,2.789-1.553,16.211-1.558,16.35l-.493.069c.055.147.1.286.143.4Z" transform="translate(-96.092 -408.537)" fill="#f9fded"/>
      <path id="Path_3119" data-name="Path 3119" d="M116.85,455.95l-.23-.466c-1.286-2.6-4.291-8.7-3.2-11.634a2.135,2.135,0,0,1,1.217-1.291,1.281,1.281,0,0,1,.512-.111,1.731,1.731,0,0,1,1.111.493,2.116,2.116,0,0,0-1.48-.862,1.279,1.279,0,0,0-.512.111,2.135,2.135,0,0,0-1.217,1.291c-1.088,2.927,1.918,9.025,3.2,11.63l.23.466c.913,1.876.009,5.149-.876,8.325l.535-.226C116.966,460.7,117.708,457.711,116.85,455.95Z" transform="translate(-89.577 -424.579)" fill="#f9fded"/>
    </g>
    <path id="Path_3120" data-name="Path 3120" d="M87.872,409.191a1.864,1.864,0,0,1,1.812-1.443,2.661,2.661,0,0,1,1.7.7.256.256,0,0,0-.028-.037,2.79,2.79,0,0,0-2.037-1.028,1.864,1.864,0,0,0-1.812,1.443l-.207.7.272.691Z" transform="translate(-13.421 -1.761)" fill="#f9fded"/>
    <path id="Path_3121" data-name="Path 3121" d="M111.851,436.01c0-.037-.014-3.655,1.263-4.941a1.277,1.277,0,0,1,.94-.41,1.076,1.076,0,0,1,.12,0,2.1,2.1,0,0,1,1.185.461,2.129,2.129,0,0,0-1.558-.83,1.049,1.049,0,0,0-.12,0,1.277,1.277,0,0,0-.94.41c-1.277,1.286-1.263,4.9-1.263,4.941l-.5.092c.092.249.143.4.152.406Z" transform="translate(-26.186 -14.111)" fill="#f9fded"/>
    <path id="Path_3122" data-name="Path 3122" d="M70.514,432.976c-1.987-2.655-6.3-12.275-6.84-14.865a2.569,2.569,0,0,1,.281-2.185,1.979,1.979,0,0,1,1.54-.622c.1,0,.2,0,.3.014,0,0,.009,0,.037.018l.88.479-.36-.936a9.474,9.474,0,0,1-.862-3.655c.175-2.033,1.4-2.337,2.111-2.337a2.3,2.3,0,0,1,1.323.4l.747.581-.157-.936c-.032-.18-.055-.355-.074-.5a3.207,3.207,0,0,1,.618-2.517,1.942,1.942,0,0,1,1.466-.641,2.326,2.326,0,0,1,1.452.53,2.373,2.373,0,0,0-1.821-.9,1.942,1.942,0,0,0-1.466.641,3.207,3.207,0,0,0-.618,2.517c.014.148.041.318.074.5l.157.936-.747-.581a2.283,2.283,0,0,0-1.323-.392c-.714,0-1.936.3-2.111,2.332a9.37,9.37,0,0,0,.862,3.655l.364.936-.88-.479a.209.209,0,0,0-.037-.018c-.1-.009-.2-.014-.3-.014a1.979,1.979,0,0,0-1.54.622,2.572,2.572,0,0,0-.281,2.185c.535,2.591,4.854,12.21,6.84,14.865a16.063,16.063,0,0,1,3.079,5.826c.576,1.71,2.752,7.878,3.794,10.463l.189-.078c-1.1-2.789-3.07-8.4-3.614-10.016A16.194,16.194,0,0,0,70.514,432.976Z" transform="translate(-0.433 -0.425)" fill="#f9fded"/>
    <path id="Path_3123" data-name="Path 3123" d="M118.15,490.24l-.535.226a30.514,30.514,0,0,0-.765,3.208l.429.037c.184-1,.516-2.176.862-3.416A.2.2,0,0,1,118.15,490.24Z" transform="translate(-29.35 -46.427)" fill="#f9fded"/>
    <path id="Path_3124" data-name="Path 3124" d="M119.076,489.93l-.535.226c-.014.046-.028.1-.041.143l.535-.226C119.053,490.022,119.062,489.976,119.076,489.93Z" transform="translate(-30.24 -46.26)" fill="#f9fded"/>
    <path id="Path_3125" data-name="Path 3125" d="M119.259,488.94l-.535.226-.014.055-.111.4.535-.226Z" transform="translate(-30.294 -45.727)" fill="#f9fded"/>
  </g>
</svg>
