<svg xmlns="http://www.w3.org/2000/svg" width="58.484" height="53.97" viewBox="0 0 58.484 53.97">
  <g id="Group_6221" data-name="Group 6221" transform="translate(-62.402 -404.112)">
    <g id="Group_6102" data-name="Group 6102" transform="translate(62.402 404.112)">
      <path id="Path_3113" data-name="Path 3113" d="M95.519,434.608C96,430.956,98,418.525,92.567,418.1c-3.31-.264-3.25,6.835-3.25,6.835s-5.557-15.273-8.03-18.082c-1.79-2.032-4.61-1.818-5.354.661a10.237,10.237,0,0,0-1-2.071c-1.807-2.379-5.982-1.647-5.524,2.93.022.187.05.4.088.628-1.151-.892-4.483-1.168-4.808,2.633A11.784,11.784,0,0,0,65.75,416.2a.533.533,0,0,0-.2-.072c-1.636-.165-3.685.628-3.013,3.866s5.9,14.789,8.251,17.934a18.733,18.733,0,0,1,3.613,6.841c.749,2.225,3.542,10.145,4.715,12.943l23.2-9.865C100.609,444.186,95.051,438.127,95.519,434.608Z" transform="translate(-62.402 -404.112)" fill="#d2972d"/>
      <path id="Path_3114" data-name="Path 3114" d="M116.447,442.032c-1.614-3.3-7.436-14.469-2.423-16.6,3.057-1.294,5.243,5.458,5.243,5.458s.441-16.248,1.9-19.7c1.058-2.5,3.795-3.184,5.288-1.063a10.154,10.154,0,0,1,.292-2.28c.958-2.826,5.155-3.448,6.163,1.041.044.182.077.391.116.622.81-1.212,3.883-2.528,5.392.975a11.91,11.91,0,0,1,.441,4.665.464.464,0,0,1,.171-.132c1.5-.672,3.7-.567,4.081,2.715s-.92,15.9-2.159,19.624a18.76,18.76,0,0,0-1.267,7.628c-.006,2.346-.154,10.746-.38,13.77l-25.132-2.021C114.646,452.728,118,445.226,116.447,442.032Z" transform="translate(-84.696 -404.795)" fill="#d2972d"/>
      <path id="Path_3115" data-name="Path 3115" d="M162.325,422.87a3.106,3.106,0,0,0-1.261.286.388.388,0,0,0-.05.044l-.33.347-.044.947.815-.854c.033-.033.044-.044.05-.044a3.178,3.178,0,0,1,1.261-.286,1.824,1.824,0,0,1,1.107.341A1.826,1.826,0,0,0,162.325,422.87Z" transform="translate(-106.532 -412.539)" fill="#f9fded"/>
      <path id="Path_3116" data-name="Path 3116" d="M139.411,410.953a9.234,9.234,0,0,1,.27-2.165,2.738,2.738,0,0,1,2.534-1.928,2.3,2.3,0,0,1,1.465.529,2.424,2.424,0,0,0-1.906-.969,2.733,2.733,0,0,0-2.534,1.922,9.234,9.234,0,0,0-.27,2.165l-.061,1.1.43.611Z" transform="translate(-96.771 -405.149)" fill="#f9fded"/>
      <path id="Path_3117" data-name="Path 3117" d="M150.991,412.69a2.845,2.845,0,0,1,2.181-1.085,2.143,2.143,0,0,1,1.36.485,2.3,2.3,0,0,0-1.807-.92,2.854,2.854,0,0,0-2.181,1.085l-.325.49.138.9Z" transform="translate(-101.851 -407.283)" fill="#f9fded"/>
      <path id="Path_3118" data-name="Path 3118" d="M125.93,434.351c.006-.16.452-16.2,1.862-19.536a3.055,3.055,0,0,1,2.638-2.054,2.087,2.087,0,0,1,1.322.479,2.266,2.266,0,0,0-1.762-.92,3.055,3.055,0,0,0-2.638,2.054c-1.41,3.332-1.856,19.371-1.862,19.536l-.589.083c.066.176.121.341.171.479Z" transform="translate(-90.477 -407.799)" fill="#f9fded"/>
      <path id="Path_3119" data-name="Path 3119" d="M117.637,458.653l-.275-.556c-1.537-3.112-5.128-10.4-3.828-13.9a2.551,2.551,0,0,1,1.454-1.542,1.53,1.53,0,0,1,.611-.132,2.068,2.068,0,0,1,1.327.589,2.528,2.528,0,0,0-1.768-1.03,1.529,1.529,0,0,0-.611.132,2.551,2.551,0,0,0-1.454,1.542c-1.3,3.5,2.291,10.784,3.828,13.9l.275.556c1.091,2.242.011,6.152-1.046,9.947l.639-.27C117.775,464.326,118.661,460.757,117.637,458.653Z" transform="translate(-85.048 -421.168)" fill="#f9fded"/>
    </g>
    <path id="Path_3120" data-name="Path 3120" d="M87.983,409.545a2.227,2.227,0,0,1,2.165-1.724,3.18,3.18,0,0,1,2.032.832.3.3,0,0,0-.033-.044,3.334,3.334,0,0,0-2.434-1.228,2.227,2.227,0,0,0-2.165,1.724l-.248.832.325.826Z" transform="translate(-11.185 -1.468)" fill="#f9fded"/>
    <path id="Path_3121" data-name="Path 3121" d="M112.021,437.125c0-.044-.017-4.368,1.509-5.9a1.526,1.526,0,0,1,1.124-.49,1.29,1.29,0,0,1,.143.006,2.51,2.51,0,0,1,1.416.551,2.543,2.543,0,0,0-1.862-.991,1.241,1.241,0,0,0-.143-.006,1.526,1.526,0,0,0-1.124.49c-1.526,1.537-1.509,5.86-1.509,5.9l-.595.11c.11.3.171.474.182.485Z" transform="translate(-21.822 -11.759)" fill="#f9fded"/>
    <path id="Path_3122" data-name="Path 3122" d="M71.938,438.448c-2.374-3.173-7.529-14.667-8.174-17.763a3.07,3.07,0,0,1,.336-2.611,2.365,2.365,0,0,1,1.84-.744c.121,0,.237.005.358.017-.006,0,.011.006.044.022l1.052.573-.43-1.118a11.32,11.32,0,0,1-1.03-4.368c.209-2.429,1.669-2.792,2.523-2.792a2.743,2.743,0,0,1,1.581.474l.892.694-.187-1.118c-.039-.215-.066-.424-.088-.6a3.833,3.833,0,0,1,.738-3.007,2.321,2.321,0,0,1,1.751-.766,2.779,2.779,0,0,1,1.735.633A2.835,2.835,0,0,0,72.7,404.9a2.321,2.321,0,0,0-1.751.766,3.833,3.833,0,0,0-.738,3.007c.017.176.05.38.088.6l.187,1.118L69.6,409.7a2.728,2.728,0,0,0-1.581-.468c-.854,0-2.313.364-2.523,2.787a11.2,11.2,0,0,0,1.03,4.368l.435,1.118-1.052-.573a.25.25,0,0,0-.044-.022c-.116-.011-.237-.017-.358-.017a2.365,2.365,0,0,0-1.84.744,3.074,3.074,0,0,0-.336,2.611c.639,3.1,5.8,14.59,8.174,17.763a19.193,19.193,0,0,1,3.679,6.962c.688,2.043,3.288,9.413,4.533,12.5l.226-.094c-1.311-3.332-3.668-10.035-4.318-11.969A19.35,19.35,0,0,0,71.938,438.448Z" transform="translate(-0.361 -0.354)" fill="#f9fded"/>
    <path id="Path_3123" data-name="Path 3123" d="M118.4,490.24l-.639.27a36.455,36.455,0,0,0-.914,3.833l.512.044c.22-1.19.617-2.6,1.03-4.081A.237.237,0,0,1,118.4,490.24Z" transform="translate(-24.459 -38.69)" fill="#f9fded"/>
    <path id="Path_3124" data-name="Path 3124" d="M119.188,489.93l-.639.27c-.017.055-.033.116-.05.171l.639-.27C119.161,490.04,119.172,489.985,119.188,489.93Z" transform="translate(-25.2 -38.551)" fill="#f9fded"/>
    <path id="Path_3125" data-name="Path 3125" d="M119.388,488.94l-.639.27-.017.066-.132.479.639-.27Z" transform="translate(-25.245 -38.106)" fill="#f9fded"/>
  </g>
</svg>
