<svg xmlns="http://www.w3.org/2000/svg" xmlns:xlink="http://www.w3.org/1999/xlink" width="229" height="236" viewBox="0 0 229 236">
  <defs>
    <clipPath id="clip-path">
      <rect id="Rectangle_1365" data-name="Rectangle 1365" width="229" height="236" transform="translate(-441 786)" fill="#fff" stroke="#707070" stroke-width="1"/>
    </clipPath>
  </defs>
  <g id="Mask_Group_2" data-name="Mask Group 2" transform="translate(441 -786)" opacity="0.05" clip-path="url(#clip-path)">
    <g id="Group_6238" data-name="Group 6238" transform="translate(-441.012 802.458)">
      <path id="Path_3224" data-name="Path 3224" d="M86.136,423.847a18.557,18.557,0,0,0,6.746-.965c3.691-1.257,7.206-3.727,11.087-3.347,3.983.387,7.265,3.742,11.27,3.918,4.992.227,9.224-4.539,14.208-4.2,2.222.154,4.224,1.316,6.249,2.258a10.284,10.284,0,0,0,8.274.548l-.037.022c.219-.336.643-.263.921-.475l-.029.022a3.8,3.8,0,0,1,1.893-.9.2.2,0,0,0,.307-.044c2.025-1.243,2.463,1.951,1.835,3.209a12.289,12.289,0,0,1-12.542,6.476,13.31,13.31,0,0,0-3.7-.417c-2.4.307-4.027,2.507-5.993,3.925a13.645,13.645,0,0,1-9.465,2.068c-3.866-.431-7.477-2.741-11.314-2.821-3.545-.08-6.366,2.339-9.348,3.9-5.211,2.726-11.672,1.732-17.015-.731-3-1.374-5.569-2.529-8.917-1.856-1.44.292-2.719,1.242-4.21,1.608a19.248,19.248,0,0,1-6.271.438,30.451,30.451,0,0,1-9-2.375c-1.067-.446-2.85-1.074-3.823-.1-.8.8-1.286,2.368-1.827,3.369q-2.061,3.793-4.129,7.594c-1.6,3.04-3.282,6.037-4.926,9.048-.577,1.067-4.612,6.9-2.741,7.148l-.022-.015c1.849,1.082,5.723-.029,7.55-.76,2.551-1.016,4.773-2.712,7.287-3.808a17.579,17.579,0,0,1,14.713.475c4.97,2.492,9.874,4.955,15.692,4.334,5.2-.556,10.188-3.6,15.327-2.653,3.457.636,6.541,3.084,10.167,2.8,3.961-.314,7.47-2.792,11.489-2.785,2.646.007,5.211.841,7.813,1.316a28.9,28.9,0,0,0,6.549.438c1.177-.051,4.458-1.14,5.452-.665,1.272.607,3.143-.058,3.077,2.251a4.322,4.322,0,0,1-1.118,2.492c-3.888,4.853-9.092,4.1-14.6,4.29a8.247,8.247,0,0,0-3.589.68l.022-.015c-.234.292-.65.227-.921.446l.029-.015c-2.975,1.805-7.133,1.988-10.51,1.447-2.748-.439-5.438-1.476-8.222-1.4-4.071.11-6.132,2.734-9.268,4.758a17.288,17.288,0,0,1-11.321,2.463,25.694,25.694,0,0,1-11.329-4.524c-2.017-1.374-3.932-2.982-6.242-3.764a12.067,12.067,0,0,0-6.446-.19c-.914.2-1.893.446-2.77.738a11.631,11.631,0,0,0-2.821.936l.022-.015c-1.389,0-3.157,1.06-4.656,1.235a24.95,24.95,0,0,1-11.2-1.264c-1.177-.417-4.071-2.522-5.167-2.31-1.118.219-1.754,2.4-2.288,3.238l-3.574,5.5a82.372,82.372,0,0,1-7.616,11.446l-.117.131s.175-.036.183-.044a.635.635,0,0,1,.27-.314,4.4,4.4,0,0,0,.38-.263,6.069,6.069,0,0,1,.6-.446c.38-.271.877-.146,1.264-.388l-.037.022c.212-.351.636-.278.928-.475l-.037.029a13.33,13.33,0,0,1,4.495-1.791l-.051.037a13.223,13.223,0,0,1,8.4-.439l-.051-.037c.417.307,1.038-.044,1.389.453l-.044-.029a11.081,11.081,0,0,1,3.589,1.813l-.037-.029a3.649,3.649,0,0,1,1.359.943l-.044-.036a5.234,5.234,0,0,1,1.813,1.381l-.044-.037A11.024,11.024,0,0,0,51.2,489.926c4.912-2.215,10.042-2.851,15.232-.621a9,9,0,0,1,2.339,1.213l-.037-.022c.285.2.716.132.921.475l-.037-.029c.629.263,1.367.307,1.805.935l-.037-.037c.994.519,2.149.468,3.165.914l-.037-.037c2.668.629,5.182-.095,7.682-.884l-.044.029c4.765-2.127,9.6-3.128,14.625-.892l-.044-.029a9.1,9.1,0,0,1,2.258.936l-.044-.037a9.435,9.435,0,0,1,2.28.9l-.037-.029c3.706,1.5,7.4,1.031,11.08-.095.358-.11.694-.234.994.1l.132.08.124-.088c1.856.212,3.72.585,5.577.007l-.044.036c.2-.373.636-.3.936-.475l-.044.029c1.009-1.14,2.507-1.155,3.808-1.579.906-.3,1.549.249,1.849,1.14l-.044-.066a4.54,4.54,0,0,1-.417,4.385l.029-.051c-.175.3-.11.724-.468.936l.029-.044a10.094,10.094,0,0,1-4.926,4.9l.051-.037c-.2.38-.629.314-.936.475l.051-.037a18.612,18.612,0,0,1-12.849,1.1c-2.865-.672-4.955.27-7.535,1.352a43.606,43.606,0,0,1-8.405,2.734,28.832,28.832,0,0,1-18.221-2.419c-1.666-.826-3.318-1.834-5.175-2-2.646-.241-4.743,1.316-6.826,2.7a15.136,15.136,0,0,1-6.9,2.638,20.362,20.362,0,0,1-14.808-4.276c-1.805-1.425-3.384-3.128-5.226-4.5-3.647-2.734-6.826-2.332-10.985-1.264l.037-.022a14.683,14.683,0,0,1-9.3-.022l.044.029c-1.06-.271-2.207-.219-3.157-.884a.107.107,0,0,0,.029.015c-1.732-.862-5.335,5.562-6.315,6.819q-2.28,2.938-4.656,5.8c-1.045,1.257-2.47,3.852-3.859,4.692l.058-.051a.644.644,0,0,1-.49.5l.058-.066c-.227.409-.519.373-.84.117V501.971c1.966-3.143,4.466-5.884,6.658-8.858.994-1.352,1.52-2.558.906-4.254a14.809,14.809,0,0,1-.57-5.27,12.368,12.368,0,0,0-3.918-9.553A35.2,35.2,0,0,1-6.35,470.85V433.5c.621-.49,1.162-.153,1.564.285,3.486,3.779,6.841,7.616,7.192,13.141a14.176,14.176,0,0,1-.519,4.824c-1.213,4.254.044,7.864,2.58,11.219.4.534.8,1.06,1.191,1.6,3.34,4.641,5.131,9.655,3.669,15.444.577.11.672-.336.848-.585,4.268-6.315,8.792-12.454,12.915-18.864,1.805-2.807,1.93-3.581-.1-6.176a22.125,22.125,0,0,1-4.875-11.234,9.776,9.776,0,0,0-4.751-7.148c-5.438-3.567-8.617-8.427-8.274-15.18a5.879,5.879,0,0,0-1.9-4.349c-1.308-1.425-2.967-2.448-4.3-3.852-3.618-3.8-5.416-8.222-4.641-13.536a6.666,6.666,0,0,0-.585-4.721V375.7c1.1-.585,1.425.4,1.9.972A15.1,15.1,0,0,1-2.016,381.4a14.246,14.246,0,0,0,4.005,6.044c.884.789,1.7,1.644,2.514,2.514a16.641,16.641,0,0,1,4.933,10.861,15.1,15.1,0,0,0,5.05,11.2c3.033,2.69,5.233,6.015,5.3,10.378a10.3,10.3,0,0,0,3.326,7.068,43.04,43.04,0,0,1,3.274,3.917c2.909,3.852,3.53,8.208,2.726,12.864a14.168,14.168,0,0,0-.512,5.072c3.713-6.278,7.433-12.286,10.971-18.4a3.293,3.293,0,0,0-.336-4.086,23.929,23.929,0,0,0-2.353-2.66,14.526,14.526,0,0,1-4.6-9.37,11.687,11.687,0,0,0-4.926-8.807,29.385,29.385,0,0,1-3.238-2.7c-2.7-2.617-4.436-5.723-4.349-9.626.007-.219-.029-.446,0-.665a12.4,12.4,0,0,0-4.9-12.279c-3.2-2.565-3.823-6.286-2.712-10.123a5.5,5.5,0,0,0-1.389-5.891,18.322,18.322,0,0,1-2.178-2.8,9.207,9.207,0,0,1-1.162-8.471,38.132,38.132,0,0,1,2.171-4.868c1.1-2.163,1.191-4.239-.373-6.249-.5-.643-1.031-1.367-.431-2.215a2.524,2.524,0,0,1,2.558-.979c4.276.548,8.2,5.672,7.652,10.042-.117.957-.278,1.908-.468,2.85a8.778,8.778,0,0,0,2.565,8.522,12.933,12.933,0,0,1,4.276,10.751,12.019,12.019,0,0,0,5.35,11.5c3.508,2.485,5.357,5.781,4.882,10.262a13.565,13.565,0,0,0,4.224,11.665,10.383,10.383,0,0,1,2.88,7.93c-.08,3.1-.278,6.242,1.389,9.07.541.146.621-.292.767-.585,3.545-7,6.907-14.106,10.729-20.962a3.44,3.44,0,0,0-.2-4.078,20.743,20.743,0,0,1-3.742-9.845,14.338,14.338,0,0,0-4.495-9.187c-1.878-1.783-3.837-3.486-5.62-5.357a23.124,23.124,0,0,1-5.81-11.087,13.334,13.334,0,0,0-2.931-5.9c-3.377-3.925-4.641-8.332-3.077-13.412.84-2.712.972-5.35-.709-7.894a7.326,7.326,0,0,1-.965-3.625,3.708,3.708,0,0,0-1.571-2.96c.088-.2.175-.475.38-.5,3.3-.38,6.446-1.7,9.808-1.747.183.132.409.27.431.482.395,4.056,2.66,7.09,5.306,9.977a10.116,10.116,0,0,1,2.551,7.587,25.508,25.508,0,0,0,.87,8.785,16.39,16.39,0,0,0,4.093,7.25,13.578,13.578,0,0,1,4.429,9.618,11.353,11.353,0,0,0,2.375,6.783,15.2,15.2,0,0,1,3.033,12.549,9.807,9.807,0,0,0,.015,3.64,27.622,27.622,0,0,0,2.039-3.559A83.69,83.69,0,0,1,71.2,373.117c1.147-1.644,1.228-2.967.015-4.59A22.654,22.654,0,0,1,66.409,353.2a10.961,10.961,0,0,0-3.216-8.259c-.8-.862-1.571-1.776-2.39-2.624-4.86-5.036-5.818-11.095-4.736-17.709a29.734,29.734,0,0,0,.022-5.759,13.68,13.68,0,0,1,6.995-3.523c2.66,1.25,4.29,3.223,4.385,6.271a19.007,19.007,0,0,0,5.167,11.774A14.6,14.6,0,0,1,76.6,344.532c-.2,4.941-.409,9.925.731,14.83a13.331,13.331,0,0,1-.022,4.173c4.064-6.329,8.105-12.622,12.461-18.711a2.441,2.441,0,0,0,.022-3.062,19,19,0,0,1-2.624-13.192c.541-4.122.4-8.274-1.549-12.169-2.814-5.628-2.8-11.57-1.718-17.592a39.414,39.414,0,0,1,1.2-4.736,18.754,18.754,0,0,0,.87-9.194,21.276,21.276,0,0,1,1.323-11.76,5.575,5.575,0,0,0,.344-1.286c1.213-1.564,3.3-1.148,4.78-2.1.227.022.5.088.57.27.95,2.66,3.106,4.173,5.321,5.635a.646.646,0,0,1-.234.855l.029-.015a8.582,8.582,0,0,1-.884,2.726l.022-.029c-1.1,1.754-.227,4.641.38,6.359a14.018,14.018,0,0,1,.512,7.462c-.563,2.682-1.915,5.2-2.083,7.923-.234,3.866,1.93,7.47,2.346,11.321.365,3.4-.607,6.739-.841,10.108-.227,3.238,1.425,6.746-.365,9.75l.029-.044A21.242,21.242,0,0,1,95.981,335a2.7,2.7,0,0,0-.241.694,2.117,2.117,0,0,1-.1.57c-.08.183-.248.314-.314.5-.227.585-.058,1.754.687.9a185.09,185.09,0,0,1,20.874-20.187l-.029.022a.829.829,0,0,1,.526-.438l-.029.044c.658-1.6-.987-2.675-.943-4.137l.015.029a10.887,10.887,0,0,1,.088-8.1c1.754-4.378,2.244-8.778-.19-13.112-.256-.453-.007-1.038-.365-1.454a9.232,9.232,0,0,1,.073-7.433c.994-2.236,2.712-4.319,2.733-6.878.022-2.375-1.506-4.5-1.8-6.856-.409-3.3,1.615-6.344,2.821-9.45a39.862,39.862,0,0,0,1.3-4.3,39.958,39.958,0,0,0,1.221-4.656c.227-.862.417-3.53,1.33-3.947l-.066.073a.624.624,0,0,1,.475-.519l-.066.058c1.118-.745,1.659-.022,2.141.848l-.029-.051a3.6,3.6,0,0,1,.263,2.565c-.3,4.473.621,8.778,1.52,13.112a27.368,27.368,0,0,1,.431,9.4,22.305,22.305,0,0,0,1.023,11.329,7.359,7.359,0,0,1,.161,5.613c-1.557,3.83-1.381,7.747-.826,11.731a14.24,14.24,0,0,1-.482,5.891,5.66,5.66,0,0,1-.417,2.054q4.319-2.675,8.646-5.343c.694-.431.6-.782.336-1.447a17.871,17.871,0,0,1-.826-11.168q.274-.921.614-1.82c1.623-4.246,3.311-7.835,2.865-12.549-.227-2.4-.9-4.809-.439-7.177.541-2.8,2.573-5.058,3.669-7.7.936-2.251,1.162-4.721,1.7-7.1.548-2.47,1.966-6.052,4.224-7.47a.918.918,0,0,1,1.147.124c-.007,0-.015-.007-.015-.022a.877.877,0,0,1,.446.5l-.051-.073a8,8,0,0,1,.007,4.846l.037-.051c-.46.862.153,1.886-.4,2.741a.932.932,0,0,0-.007.877,18.685,18.685,0,0,1-.234,7.82c-.249.972-.6,1.922-.943,2.865a19.3,19.3,0,0,0-1.184,4.3,9.914,9.914,0,0,0,.906,4.955,14.857,14.857,0,0,1,.965,3.238c.409,2.894-.884,5.372-2.3,7.777-1.286,2.185-2.229,4.729-1.791,7.221a6.346,6.346,0,0,1,.08,2.646,9.611,9.611,0,0,1-.322,1.893,14.7,14.7,0,0,0,4.217-1.593c1.564-.68,3.135-1.359,4.7-2.039.424-.183.936-.358.972-.8.029-.424-.395-1.111-.387-1.637a13.017,13.017,0,0,1,.8-3.267l-.037.051a24.714,24.714,0,0,1,1.3-3.632l-.015.029c.57-1,.585-2.653.8-3.793a27.679,27.679,0,0,1,.775-3.362,26.555,26.555,0,0,1,1.213-2.909q2.642-5.668,5.277-11.329a22.925,22.925,0,0,1,1.462-2.785c.694-1.067,1.557-2.01,2.346-3.011a25.909,25.909,0,0,0,2.193-3.282,7.143,7.143,0,0,1,1.2-1.761c.789-.738,2.514-1.045,2.719.4a4.393,4.393,0,0,1-.227,1.586c-1.177,5.043-.453,10.5-2.646,15.3a43.622,43.622,0,0,0-1.937,3.991c-.716,2.112-.548,4.473-1.469,6.5a13.29,13.29,0,0,1-2.163,3.062,34.8,34.8,0,0,0-3.3,4.2c-.643,1.038-2.631,4.188-.139,3.245a27.932,27.932,0,0,1,2.843-.906c1.359-.351,2.748-.563,4.1-.95a15.86,15.86,0,0,0,5.8-3.106,49.57,49.57,0,0,1,5.942-3.786c2.317-1.454,4.341-3.413,6.688-4.795,1.221-.716,2.7-1.14,4-1.74a39.1,39.1,0,0,0,3.874-2.039c1.454-.884,2.829-1.893,4.341-2.668a28.9,28.9,0,0,1,5.752-2.025,8.409,8.409,0,0,0,2.836-1.169c.855-.621,1.462-1.549,2.463-1.973l-.058.037c2.2-1.608,3.355,1.432,2.865,3.135a9.868,9.868,0,0,1-1.593,2.865,21.6,21.6,0,0,1-5.138,5.6c-.643.431-1.323.789-1.988,1.191-.57.343-1.206,1.1-1.82,1.286l.051-.051a18.9,18.9,0,0,1-6.256,4.553,32.98,32.98,0,0,1-5.73,1.535,16.337,16.337,0,0,0-5.387,2.288,47.365,47.365,0,0,1-5.591,3.3c-4.005,1.776-8.727,1.973-13.01,2.7a30.145,30.145,0,0,0-3.114.643,23.1,23.1,0,0,0-4.758,2.068c-1.33.731-2.7,2.025-4.173,2.427a8.491,8.491,0,0,1,1.338-.409c2.931-.322,6.11.183,9.056.3,2.77.117,5.825-.358,8.515.387.716.2,1.4.49,2.127.68,2.419.643,4.992.088,7.484.314a10.12,10.12,0,0,1,2.551.548c.439.161.855.351,1.286.519,2.492.965,5,.585,7.594.709,1.264.058,2.967-.665,3.6.935a2.721,2.721,0,0,1-.672,2.734,7.507,7.507,0,0,1-2.485,1.593c-2.967,1.352-6.169,2.507-9.421,2.236-1.849-.154-3.647-.767-5.5-.819-2.434-.066-4.795.833-7.228.884-3.362.08-6.534-1.44-9.852-1.973-2.617-.424-5.277-.248-7.9-.592a24.5,24.5,0,0,1-7.6-2.7,8.208,8.208,0,0,0-2-.57,2.133,2.133,0,0,0-1.162.439q-4.506,2.785-8.822,5.847-2.193,1.557-4.327,3.179a16.167,16.167,0,0,0-2.127,1.644,5.761,5.761,0,0,1-1.264,1.3c.278.022.475-.19.731-.2,2.193-.468,4.436.117,6.622-.387l-.037.029c3.53-.482,7.053-1.2,10.642-.424l-.044-.037c1,.519,2.185-.219,3.157.468l-.037-.029a18.908,18.908,0,0,0,5.884,0l-.037.029a23.555,23.555,0,0,1,7.974-.007l-.037-.022a14.168,14.168,0,0,1,3.581.95l-.044-.037c2.989.994,6.081.68,9.121.526a25.72,25.72,0,0,1,3.676.08c1.2.11,2.551.607,3.742.336,2.076-.468,5.452-3.421,7.038-.482l-.037-.051c.972,1.418-.65,3.479-1.922,4.151-.943.5-2,.745-2.982,1.177-.439.19-.862.424-1.3.629-2.617,1.228-5.569,1.469-8.449,1.791a22.443,22.443,0,0,0-3.421.577c-.629.168-1.242.387-1.864.57a15.551,15.551,0,0,1-7.528.38l.029.015a26.14,26.14,0,0,1-4.48-.892l.022.007c-1.345-.351-2.741-.387-4.093-.651a14.177,14.177,0,0,0-4.159-.249c-2.463.234-4.9.753-7.375.76-3.559.015-7.031-1.031-10.474-1.93a31.811,31.811,0,0,0-8.347-1.308,8.69,8.69,0,0,0-3.26.577,11.29,11.29,0,0,0-2.668,2c-.709.592-1.4,1.191-2.1,1.805q-2.017,1.776-3.961,3.633-2.456,2.346-4.78,4.831c-.789.841-1.623,1.674-2.346,2.573-.2.241-1.228,2.171-1.323,2.171a8.736,8.736,0,0,0,2.427-.38l-.029.015c3.23-1.652,7.418-.724,10.854-1.586,1.791-.446,3.479-1.25,5.292-1.6,2.872-.563,5.832.015,8.756-.095,3.165-.117,6.271-1.045,9.436-1.126a31.4,31.4,0,0,1,7.762,1.038c2.448.555,4.97,1.184,7.433.694,1.886-.373,3.625-1.381,5.533-1.549a16.46,16.46,0,0,1,4.21.468,28.834,28.834,0,0,0,8.354.212c2.2-.263,4.933-1.447,7.141-1.118a2.156,2.156,0,0,1,1.63,2.149,3.677,3.677,0,0,1-1.308,2.792c-.555.5-1.221.855-1.82,1.3-.782.577-1.447,1.279-2.215,1.878-2.558,1.981-5.6,2.134-8.7,2.039a19.985,19.985,0,0,0-4.436.066c-1.389.292-2.69,1.111-4.056,1.52a15.651,15.651,0,0,1-4.641.716c-1.308-.015-2.573-.351-3.874-.46a24.429,24.429,0,0,0-4.955.154l.029-.022c-1.323.424-2.7.592-4.049.892l.044-.029a22.639,22.639,0,0,1-10.188-.439l.044.029a60.064,60.064,0,0,0-6.249-1.089,26.123,26.123,0,0,0-6.709.665,16.757,16.757,0,0,1-7.513.6,31.068,31.068,0,0,1-3.91-.855c-.862-.234-1.725-.482-2.6-.65a14.262,14.262,0,0,0-4.21-.168,7.415,7.415,0,0,0-3.618,1.052l.029-.029a19.388,19.388,0,0,0-2.456,3.34q-1.436,1.951-2.85,3.925-1.557,2.171-3.077,4.363c-.848,1.221-1.652,3.019-2.77,3.976l.007-.022c-.132.336-.285.709.307.7,4.122-.066,7.674-2.163,11.519-3.552,3.3-1.191,6.914-1.973,10.313-1.118,2.975.753,5.555,2.7,8.551,3.377,5.328,1.213,10.919-1.761,16.277-.672,4.261.862,7.791,4.2,12.111,4.634,3.669.38,7.185-1.4,10.81-2.1a18.972,18.972,0,0,1,10.167.826,3.659,3.659,0,0,1,1.571.935c2.244,2.587-1.944,5.131-3.844,5.869a31.936,31.936,0,0,1-6.388,1.9c-2.156.358-4.363-.022-6.512.424-1.747.358-3.391,1.074-5.094,1.586a21.54,21.54,0,0,1-15.655-1.279c-.855-.431-1.681-.921-2.558-1.3a15.649,15.649,0,0,0-9.991-.49c-4.948,1.213-10.028,2.251-15.107,1.835-6.139-.5-11.9-3.1-17.907-4.451-1.126-.256-2.653-.417-3.435.431a107.176,107.176,0,0,0-6.68,10.846c-1.038,1.864-2.046,3.749-3.077,5.62-.278.5-2.916,4.634-2.748,4.86,1.06,1.432,2.463.6,3.749.563l-.037.029c1.637-.775,3.4-1.286,4.963-2.222l-.051.036c.161-.4.621-.307.892-.526l-.029.022a12.1,12.1,0,0,1,3.6-1.791l-.044.022c2.58-1.476,5.584-.475,8.193.227a52.883,52.883,0,0,0,5.27,1.228,18.048,18.048,0,0,0,8.668-.555c3.567-1.206,7.389-3.4,11.2-1.842l.11.1.132-.051c.468.278,1.118-.044,1.513.475l-.051-.037a20.389,20.389,0,0,0,13.032.884l-.044.029a15.273,15.273,0,0,1,3.589-.935l-.037.022c1.082-.629,3.552-.446,4.743-.285,1.747.241,3.421.724,5.189.855a79.9,79.9,0,0,0,8.778-.058c1.593-.058,3.135-.08,3.866,1.74l-.044-.058c3.033,4.524-6.629,5.774-8.785,6.059-2.295.3-4.48,1.1-6.761,1.5-2.31.4-4.634-.132-6.885.614a25.243,25.243,0,0,0-5.16,2.945c-6.563,4.064-15.085,3.391-22.182,1.206a31.717,31.717,0,0,0-6.286-1.542,12.555,12.555,0,0,0-6.373,1.213,21.905,21.905,0,0,1-15.093,1.016c-3.494-.921-6.856-2.273-10.335-3.23A4.39,4.39,0,0,0,65.569,400c-.687.329-.767,1.169-1.286,1.4l.037-.051c-2.427,3.245-4.005,7.616-5.884,11.219-1.666,3.9-3.961,7.638-5.92,11.394-1.257,2.412-1.93,3.742,1.272,3.311l-.044.036c.621-.68,1.571.044,2.207-.519,1.988-1.754,5.072-3.216,7.44-4.393a17.24,17.24,0,0,1,8.836-2.1c3.7.263,7.068,2.171,10.685,2.989A10.412,10.412,0,0,0,86.136,423.847Z" transform="translate(6.35 -188.357)" fill="#005329"/>
      <path id="Path_3227" data-name="Path 3227" d="M68.726,723.606c-6.958.168-13.382-3-19.441-6.1-2.163-1.1-4.371-2.514-6.907-2.258-5.226.519-10.481.724-15.67,1.652-4.159.746-8.04,1.937-11.066,5.087-5.116,5.321-10.291,10.6-14.691,16.554-1.973,2.675-4.049,5.277-6.081,7.908-.307.395-.541.935-1.221.7V725.813c0-.095.234-.351.278-.461a2.257,2.257,0,0,0,.146-.658c.051-.46.022-.906.08-1.367.256-2,.782-3.939,1.009-5.935a21.138,21.138,0,0,0-.066-5.262c-.241-1.761-.687-3.486-.9-5.255-.073-.592-.015-1.2-.058-1.8a3.254,3.254,0,0,0-.168-.914c-.044-.124-.322-.475-.322-.585V690.687a.8.8,0,0,1,.629-.227.9.9,0,0,1,.555.358c1.7,4.9,2.558,10.028,4.151,15.042a141.456,141.456,0,0,1,11.957-25.632c.884-1.542.9-3.6,2.726-4.575a1.739,1.739,0,0,1,1.908.687c.453,1.549-.512,2.733-1.016,4.034A131.261,131.261,0,0,0,.3,717.291c-1.133,5.284-1.754,10.656-2.624,15.984a5.4,5.4,0,0,0-.175.738c-.007.292.256.395.11.139s.409,0,.146-.139a272.947,272.947,0,0,1,24.368-28.139c5.065-5,10.5-9.523,15.992-14a30.674,30.674,0,0,0,8.968-12.184c1.674-4.546,3.859-8.873,5.613-13.39,2.507-6.059,3.084-12.615,4.919-18.849a22,22,0,0,1,1.294-4,57.465,57.465,0,0,1,2.171-6.439c.365-.8.614-1.666,1.469-2.12a1.116,1.116,0,0,1,1.023.161c.775,1.345-.058,2.529-.38,3.757a23.546,23.546,0,0,0-.892,3.135c-1.25,4.919-2.09,9.933-3.216,14.873-.088.329-.263.643-.336.972-.066.278.256.373.11.11s.431-.051.153-.146c2.85-3.26,5.979-6.249,8.7-9.6a3.434,3.434,0,0,1,1.528-1.221,1.089,1.089,0,0,1,1.126.972c.139.614-.68,1.228-.987,1.637-.541.716-1.089,1.418-1.652,2.112-.731.906-1.484,1.8-2.244,2.675-.387.453-.789.892-1.169,1.352-1.549,1.849-3.084,3.771-4.458,5.781-.7,1.023-1.367,2.076-1.973,3.15a8.833,8.833,0,0,0-.855,1.623,14.945,14.945,0,0,1-.629,1.7c-1.718,3.9-3.567,7.733-5.16,11.679-.088.183-.2.351-.3.519a6.774,6.774,0,0,0-.373.811,4.266,4.266,0,0,0-.38,1.82,27.011,27.011,0,0,0,2.872-1.849c1.462-.9,2.821-1.951,4.246-2.9,1.447-.957,2.916-1.871,4.407-2.755,2.975-1.769,6.037-3.4,9.121-4.963,2.478-1.25,4.977-2.448,7.47-3.662,1.133-.541,2.361-.9,3.516-1.447,1.272-.607,2.536-1.213,3.808-1.834,2.938-1.432,5.847-2.923,8.771-4.393.417-.212.833-.417,1.257-.629,2.353-1.147,4.816-2.046,7.155-3.2.548-.27,1.089-.556,1.623-.848a4.965,4.965,0,0,0,.819-.453,17.144,17.144,0,0,0,1.769-2c.68-.782,1.381-1.549,2.1-2.295a.357.357,0,0,1,.219-.139c.2-.234.409-.475.607-.709.731-.848,1.528-1.659,2.244-2.514a21.129,21.129,0,0,1,2.339-2.156c1.732-1.535,3.486-3.062,5.138-4.685.7-.687,2.419-2.441,3.135-.863.117.943-.563,1.469-1.118,2.039-4.02,4.093-8.2,8.018-11.913,12.374.153.373.278-.015.351-.044.27-.117-.066.066.19-.095,5.218-2.427,10.627-4.4,15.824-6.856a5.086,5.086,0,0,1,2.785-.592,1.972,1.972,0,0,1,1.425,1.22c.2.541.351,1.6-.117,2.025a2.234,2.234,0,0,1-.7.373c-5.021,1.922-10.05,3.8-15.063,5.723-2.244.863-4.473,1.754-6.673,2.726-2.171.958-4.246,2.076-6.366,3.136-1.067.533-2.156,1.038-3.238,1.535L96,663.052c-2.222,1.023-4.436,2.047-6.636,3.1-2.156,1.031-4.21,2.163-6.293,3.325a7.694,7.694,0,0,1-2.865,1.184,32.618,32.618,0,0,1,6.753-.168c4.51.49,9.414-.263,13.887-.833a117.88,117.88,0,0,0,13.967-2.638,4.934,4.934,0,0,1,1.864-.227c1.191.168,2.039,1.586.826,2.383a3.771,3.771,0,0,1-1.191.438l-10.137,2.456a23.394,23.394,0,0,1-4.422.694c-1.725.1-3.45.066-5.175.1-3.355.044-6.731.417-10.093.285-2.229,1.045-4.641.7-6.973.862-4.963.351-9.173,2.58-13.273,5.138-.146.088-.256.271-.409.373a2.265,2.265,0,0,1-.563.241,10.2,10.2,0,0,0-1.286.5,59.747,59.747,0,0,0-8.5,5.452q-4.309,3.015-8.456,6.234c-3.669,2.85-7.36,5.716-10.89,8.734-2.258,1.929-4.261,4.137-6.461,6.125-2.529,2.28-5.387,4.3-7.433,7.06a2.21,2.21,0,0,1-1.074.965,76,76,0,0,1,10.664-1.681c3.369-.387,6.746-.65,10.123-.928,3.494-.285,6.98-.577,10.459-1a95.461,95.461,0,0,0,10.357-1.761c1.118-.256,2.229-.541,3.326-.855.8-.154,1.542-.183,1.6.936.015.314-2.236,1.14-2.536,1.257-.892.351-1.813.621-2.733.892-2.587.767-5.226,1.257-7.835,1.908-1.725.329-3.618.329-5.24,1-.124.051-.212-.007-.263.153a14.6,14.6,0,0,0,4,2.237,39.085,39.085,0,0,0,9.414,3.545c2.134.534,4.349.8,6.512,1.257A1.452,1.452,0,0,1,68.726,723.606Z" transform="translate(6.35 -292.971)" fill="#384215"/>
      <path id="Path_3228" data-name="Path 3228" d="M87.9,255.812a95.267,95.267,0,0,1-22.35,3.165c-7.1.285-14.216.161-21.305.782-2.5.219-4.992.614-7.484.921-3.764.475-6.746,2.573-9.589,4.817-5.248,4.151-9.575,9.253-14.223,14.026A200.051,200.051,0,0,0-5.159,300.257c-.3.409-.555.906-1.191.877V287.35c2.507-8.164,5.927-16.079,7.126-24.609.5-3.5.439-7.06.621-10.59a159.369,159.369,0,0,1,1.878-18.469,4.527,4.527,0,0,1,.928-2.448,1.518,1.518,0,0,1,2.1.263,3.438,3.438,0,0,1,.2,2.383,84.033,84.033,0,0,0-1.14,16.584,17.454,17.454,0,0,1-.307,3.625c.351-2.522,1.659-4.846,2.755-7.214a153.707,153.707,0,0,1,8.493-16.606c.424-.68.767-1.454,1.586-1.8.782-.007,1.535.037,1.542,1.1l.015-.022a.284.284,0,0,0-.212.322A203.336,203.336,0,0,0,9.656,251C5.629,260.95,2.932,271.292.469,281.7c-.117.5-.153,1.016-.227,1.528S-.233,284.4.82,284.28c1.718-1.834,3.421-3.684,5.153-5.5,10.919-11.4,22.292-22.314,34.278-32.6a46.124,46.124,0,0,0,11.095-14.311c3.07-6.081,5.862-12.286,8.683-18.484a63.216,63.216,0,0,1,10.013-15.911c.7-.073.767.344.665.884a150.655,150.655,0,0,0-15.677,35.448c.709.058,1.009-.409,1.381-.694,10.174-7.784,20.5-15.37,31.04-22.657A32.98,32.98,0,0,0,97.325,200.4c1.411-2.346,3.04-4.553,4.517-6.863a71.353,71.353,0,0,1,5.145-6.673c.731-.212,1,.27,1.235.819.175,1-.482,1.659-1.009,2.353a105.129,105.129,0,0,0-7.28,11.307.734.734,0,0,0-.146.358,3.083,3.083,0,0,1,.322-.285,93.086,93.086,0,0,1,14.15-6.512c.884-.3,2,.9,1.367,1.688a1.948,1.948,0,0,1-.658.475,198.2,198.2,0,0,0-18.031,10.517c-3.121,2.127-6.1,4.444-9.158,6.644a10.9,10.9,0,0,1-2.178,1.5l.037-.029c-.548.417-.943,1.031,0,1.191.395.066.782-.015,1.184.015.512.044,1.023.11,1.528.153,1.023.1,2.039.183,3.062.263,3.472.256,6.958.395,10.437.49,3.537.1,7.053-.088,10.583-.088.365-.022.738-.037,1.1-.058a2.961,2.961,0,0,0,.57-.066c.19-.044.365-.124.548-.175a4.63,4.63,0,0,1,1.74-.044,1.214,1.214,0,0,1,.453.11c.292.161.358.709.351,1.009a1.235,1.235,0,0,1-.862,1.1,4.232,4.232,0,0,1-1.169.212c-1.937.154-3.881.278-5.818.482a41.443,41.443,0,0,1-4.349.49,60.755,60.755,0,0,1-8.237-.154,64.661,64.661,0,0,0-9.955,0,33.144,33.144,0,0,0-6.746.841,21.183,21.183,0,0,0-6.037,2.96c-2.427,1.666-4.59,3.676-6.885,5.525-1.74,1.4-3.559,2.7-5.343,4.042-1.476,1.118-2.865,2.346-4.3,3.508-1.089.877-2.149,1.776-3.2,2.7-.965.855-2.061,1.637-2.967,2.543q-3.333,2.8-6.563,5.708-1.634,1.469-3.245,2.975a20.827,20.827,0,0,1-2.989,2.565,1.388,1.388,0,0,1-.5.446l.022-.029c-.007.322-.482.555-.387.877.11.365.76.365,1.038.344a92.661,92.661,0,0,1,9.545-.417c.285.007.563.022.848.037l.936.044,1.7.088a7.48,7.48,0,0,0,3.72-.46c1.082-.534,2.09-1.177,3.2-1.71l-.051.037a33.74,33.74,0,0,1,3.947-2.193c4.415-2.324,8.785-4.714,13.178-7.09,3.333-1.805,6.709-3.581,10.188-5.094,1.147-.5,2.12.022,1.739,1.337-3.289,2.543-7.17,4.056-10.737,6.132-4.656,2.712-9.494,5.109-13.909,8.215a2.684,2.684,0,0,1-1.791.716,12.05,12.05,0,0,1,2.522-.066c2.631-.007,5.262-.2,7.886-.2,3.6-.212,7.192-.563,10.766-1.023q1.875-.241,3.749-.526A43.337,43.337,0,0,0,90.6,252.2a2.274,2.274,0,0,1,1.82.373,1.1,1.1,0,0,1-.051,1.44c-.957,1.228-2.346,1.345-3.735,1.44C88.328,255.5,88.072,255.527,87.9,255.812Z" transform="translate(6.35 -172.397)" fill="#384215"/>
      <path id="Path_3232" data-name="Path 3232" d="M60.84,633.979c.248-.526.475-1.067.694-1.608.146-.373.285-.745.446-1.111a6.655,6.655,0,0,0,.585-1.162,1.757,1.757,0,0,0-1.184-.914c-3.632-1.082-5.569-3.625-6.329-7.221-.585-2.777-3.976-.979-5.832-.687a14.865,14.865,0,0,1-7.857-.5c-1.93-.767-3.581-2.112-5.445-3.026a18.224,18.224,0,0,0-6.519-1.63,29.255,29.255,0,0,0-10.759,1.126c-5.569,1.674-10.181,3.9-16.145,3.055l.037.029c-1.177-.687-2.536.066-3.735-.46l-.132.066-.117-.095a11.183,11.183,0,0,0-4.9-.029v9.348a56.35,56.35,0,0,1,7.243,3.325A16.759,16.759,0,0,0,14.78,634.03a63.154,63.154,0,0,1,7.068-1.849,15.87,15.87,0,0,1,9.538.987c2.529,1.06,4.912,2.4,7.367,3.6,6.154,3,12.469,4.1,19.025,1.257.344-.153.994-.168,1.272-.417.307-.278.351-.8.526-1.162.248-.512.555-1,.819-1.513C60.54,634.608,60.694,634.293,60.84,633.979Z" transform="translate(6.35 -287.907)" fill="#616840"/>
      <path id="Path_3239" data-name="Path 3239" d="M-.968,684.382c-1.732.7-3.406,1.623-5.372,1.476v-19.12c.365-.482.892-.227,1.352-.292a10.554,10.554,0,0,1,7.528,4.619C5.7,675.363,3.8,682.577-.968,684.382Z" transform="translate(6.347 -301.473)" fill="#d2972d"/>
      <path id="Path_3241" data-name="Path 3241" d="M136.714,629.688c-.57-2.514-3.713-2.741-5.781-2.858-1.886-.1-3.786-.022-5.672-.124-.9-.051-1.82-.27-2.712-.263-.862,0-1.769.168-2.631.256-3.318.358-6.724.987-10.064,1.038a14.743,14.743,0,0,1-3.625-.395c-.395-.1-.782-.2-1.169-.329a22.054,22.054,0,0,1-3.1-1.367,14.116,14.116,0,0,1-1.739-.833,1.082,1.082,0,0,0-.9-.344c-.914.19-1.235.979-1.71,1.63-2.039,2.792-4.261,5.343-8.018,5.759-.577.066-.957,2.12-1.111,2.646-.1.351-.906,4.4-1.023,4.4a7.077,7.077,0,0,0,2.733-.841c.892-.387,1.761-.826,2.682-1.133a5.631,5.631,0,0,0,1.221-2.076c2.083-4.13,6.8-6.22,12.293-5.438,3.72.533,6.191,3.333,7.068,8.01.146.76.044,1.71,1.206,1.8a11.877,11.877,0,0,0,5.986-1.732A29.677,29.677,0,0,0,123.3,635.9a12.321,12.321,0,0,1,1.966-1.147,6.631,6.631,0,0,1,2.2-.38l2.675-.219c2.448-.2,5.5-.716,6.49-3.325A1.914,1.914,0,0,0,136.714,629.688Z" transform="translate(-18.896 -290.179)" fill="#626840"/>
      <path id="Path_3242" data-name="Path 3242" d="M96.514,197.949a8.376,8.376,0,0,1-2.631-4.436A8.207,8.207,0,0,1,99.2,183.3a18.38,18.38,0,0,1,2.982-.957,4.1,4.1,0,0,1,1.52.08,8.8,8.8,0,1,1-5.314,16.664A7.326,7.326,0,0,1,96.514,197.949Z" transform="translate(-20.539 -171.184)" fill="#d2972d"/>
      <path id="Path_3243" data-name="Path 3243" d="M101.236,676.752c.1.066-.724.482-.738.5-.358.161-.716.322-1.067.49-.724.336-1.447.687-2.171,1.045q-1.765.877-3.5,1.82c-1.1.607-2.266,1.169-3.347,1.82a142.888,142.888,0,0,0-13.894,7.623c-.724.46-1.286,1.125-2.054,1.528a.665.665,0,0,1-.49.1,2,2,0,0,1-.278-.146c-.365-.168-.709.11-1.06.168a.56.56,0,0,1-.577-.234c-.263-.344-.1-.8.051-1.155,1.33-3.325,2.872-6.571,4.341-9.838.534-1.177.987-2.39,1.63-3.516a1.362,1.362,0,0,0,1.235-.007,44.969,44.969,0,0,1,10.444-2.361c.037,0,.073-.007.11-.007a24.446,24.446,0,0,1,5.906.745c.936.161,1.871.344,2.785.592A8.455,8.455,0,0,1,101.236,676.752Z" transform="translate(-14.714 -303.659)" fill="#616840"/>
      <path id="Path_3244" data-name="Path 3244" d="M148.923,182.453a2.245,2.245,0,0,0-1.162-.892c-3.326-3.749-3.435-7.762-.314-11.694.27-.344.563-.672.84-1.009.767-1.052,2-1.14,3.106-1.484l-.029.015a6.633,6.633,0,0,1,5.759.884l-.022-.015a6.122,6.122,0,0,1,1.33.95l-.044-.044a9.545,9.545,0,0,1,2.748,4.8,8.027,8.027,0,0,1-1.089,5.328,7.608,7.608,0,0,1-3.114,2.77C154.324,183.337,151.686,184.207,148.923,182.453Z" transform="translate(-34.431 -167.089)" fill="#d2972d"/>
      <path id="Path_3248" data-name="Path 3248" d="M140.018,264.891a5.911,5.911,0,0,1,1.718.643,6.825,6.825,0,0,1,1.593,1.3,8.677,8.677,0,0,1,.607.745,9.638,9.638,0,0,1,1.009,9.6c-1.418,2.872-4.89,4.276-7.974,4.144a9.783,9.783,0,0,1-5.145-1.747,9.3,9.3,0,0,1-3.3-4.583c-.058-.431-.11-.87-.168-1.3-.811-1.447-.27-2.755.409-4.049a12.1,12.1,0,0,1,2.39-3.019,9.17,9.17,0,0,1,1.564-1.184,5.973,5.973,0,0,1,2.565-.592A17.356,17.356,0,0,1,140.018,264.891Z" transform="translate(-29.794 -193.359)" fill="#d2972d"/>
      <path id="Path_3249" data-name="Path 3249" d="M96.056,747.267a8.906,8.906,0,0,1,8.507-2.025c3.238.819,5.971,3.83,5.825,7.287a8.3,8.3,0,0,1-2.522,5.957,7.517,7.517,0,0,1-2.982,1.659,10.312,10.312,0,0,1-8.062-1.549,7.966,7.966,0,0,1-3.194-5.672,7.337,7.337,0,0,1,.387-2.617,8.722,8.722,0,0,1,1.272-2.185A8.554,8.554,0,0,1,96.056,747.267Z" transform="translate(-20.556 -322.596)" fill="#d1962b"/>
      <path id="Path_3252" data-name="Path 3252" d="M25.932,239.608a5.771,5.771,0,0,1-.643-1.06,9.005,9.005,0,0,1-.877-1.659,8.209,8.209,0,0,1-.555-3.406,10.145,10.145,0,0,1,2.675-6.147c1.535-1.718,3.815-2.054,6-1.864a10.529,10.529,0,0,1,3.282.76,6.567,6.567,0,0,1,3.881,5.606c.373,4.758-2.66,9.319-7.638,9.7a9.158,9.158,0,0,1-2.924-.263,8.558,8.558,0,0,1-1.462-.482c-.512-.227-.826-.687-1.316-.95a3.35,3.35,0,0,1-.358-.19A.148.148,0,0,1,25.932,239.608Z" transform="translate(-1.776 -182.789)" fill="#d2972d"/>
      <path id="Path_3253" data-name="Path 3253" d="M87.233,318.882a9.721,9.721,0,0,0-3.114,5.854,13.433,13.433,0,0,0,.365,4.751c-1.842.2-3.311,1.4-5.043,1.9-.409.117-.819.263-1.228.395-.395-1.725-1.082-3.362-1.425-5.116a16.5,16.5,0,0,1,.636-8.3c.358-1.126.745-2.244,1.06-3.384a10.628,10.628,0,0,0,.329-4.6,11.462,11.462,0,0,1-.132-4.407c.2-.884.482-1.762,1.513-1.988a2.411,2.411,0,0,1,2.485,1.1,4.055,4.055,0,0,1,.826,2.025,10.288,10.288,0,0,1,.183,1.761A14.808,14.808,0,0,0,87.233,318.882Z" transform="translate(-15.95 -203.914)" fill="#626840"/>
      <path id="Path_3254" data-name="Path 3254" d="M50.878,347.136c-1.718.862-3.691.585-5.467,1.235a16.6,16.6,0,0,1-2.565.5,11.435,11.435,0,0,0-.833-6.066c-.248-.614-.519-1.228-.738-1.849C40.58,339,41.7,337.6,43.781,337.8a4.2,4.2,0,0,1,3.245,2.4,15.965,15.965,0,0,1,2.317,5.942C49.489,347.231,50.132,347.165,50.878,347.136Z" transform="translate(-6.411 -213.026)" fill="#626941"/>
      <path id="Path_3256" data-name="Path 3256" d="M54.635,689.049c.037-.621.263-.958-.27-1.177-1.981-.826-3.954-1.667-5.906-2.566a10.693,10.693,0,0,0-8.2-.519c-2.032.687-4.086,1.323-6.074,2.119-3.983,1.608-7.557,2.668-11.855,2.3a9.641,9.641,0,0,0,.965-3.91c.563-.643,1.206-.4,1.93-.453,3.486-.234,5.7-2.207,7.082-5.248a7.8,7.8,0,0,0-.928-8.361c-.541-.738-1.5-1.308-1.221-2.463A22.294,22.294,0,0,1,47.6,671.478c1.257.775,2.492,1.579,3.742,2.361a16.108,16.108,0,0,0,7.543,2.317c.738.051.892-.1,1.462-.738C58.45,679.869,56.542,684.6,54.635,689.049Z" transform="translate(-1.368 -301.915)" fill="#616840"/>
      <path id="Path_3257" data-name="Path 3257" d="M115.86,640.082c0-.117,0-.227-.007-.343a10.1,10.1,0,0,0-3.238-7.309c-2.88-2.522-6.205-2.544-9.6-1.908a10.415,10.415,0,0,0-8.522,7.725,6.882,6.882,0,0,0-.066,4.656,7.707,7.707,0,0,0,1.272,2.236,5.7,5.7,0,0,0,.884.8c.358.3.592.753.95,1.067a10.489,10.489,0,0,0,1.082.79,15,15,0,0,0,2.558,1.454,9.289,9.289,0,0,0,3,.584,12.783,12.783,0,0,0,2.894-.131A10.939,10.939,0,0,0,111.8,647.8a10.358,10.358,0,0,0,3.15-4.159A8.349,8.349,0,0,0,115.86,640.082Z" transform="translate(-20.671 -291.714)" fill="#d1962b"/>
      <path id="Path_3258" data-name="Path 3258" d="M77.069,615.978a9.4,9.4,0,0,1,3.676-4.561c3.706-2.448,9.158-2.675,12.622.314a8.419,8.419,0,0,1,1.038,1.067,8.9,8.9,0,0,1,1.886,4.458,9.154,9.154,0,0,1-.022,2.448,6.122,6.122,0,0,1-.95,2.419,14.124,14.124,0,0,1-1.725,2.383,25.516,25.516,0,0,1-3.406,2.865c-1.257.95-2.916.928-4.466,1.016-.292-.007-.585-.022-.877-.029-.424-.139-.841-.285-1.264-.4a9.115,9.115,0,0,1-6.746-7.543,6.864,6.864,0,0,1-.358-1.827A10.907,10.907,0,0,1,77.069,615.978Z" transform="translate(-15.938 -286.16)" fill="#d1962b"/>
      <path id="Path_3259" data-name="Path 3259" d="M179.1,669.695a8.025,8.025,0,0,0-6.6-4.429,12.233,12.233,0,0,0-5.153.4,10.257,10.257,0,0,0-6.015,6.563,8.166,8.166,0,0,0,1.557,7.411,8.995,8.995,0,0,0,7.755,3.209,10.061,10.061,0,0,0,7.988-4.385,8.947,8.947,0,0,0,1.206-6.651A9.2,9.2,0,0,0,179.1,669.695Z" transform="translate(-38.688 -301.133)" fill="#d1962b"/>
      <path id="Path_3260" data-name="Path 3260" d="M181.153,651.124c-.073-.066-.146-.132-.219-.2a11.735,11.735,0,0,1-3.589-6.125,5.237,5.237,0,0,1,.446-3.362,5.362,5.362,0,0,1,1.944-1.805c1.3-.921,2.236-2.09,3.713-2.8a10.135,10.135,0,0,1,4.809-1,9.624,9.624,0,0,1,6.987,3.384,8.781,8.781,0,0,1,.921,8.7A9.286,9.286,0,0,1,181.153,651.124Z" transform="translate(-43.061 -293.233)" fill="#d1962b"/>
      <path id="Path_3261" data-name="Path 3261" d="M28.78,669.988a9.285,9.285,0,0,0-6.037-3.019,8.712,8.712,0,0,0-4.3.8,11.61,11.61,0,0,0-4.6,3.991c-3.216,4.122-.256,11.855,4.9,12.834.592.175,1.184.351,1.776.519.446,0,.884-.007,1.33.007,4.02.088,6.68-1.908,8.3-5.46a8.909,8.909,0,0,0,.745-5.591A9.037,9.037,0,0,0,28.78,669.988Z" transform="translate(1.274 -301.609)" fill="#d2972d"/>
      <path id="Path_3262" data-name="Path 3262" d="M110.327,726.118a9.146,9.146,0,0,0-3.918-5.255,8.152,8.152,0,0,0-4.561-.826,10.124,10.124,0,0,0-6.943,3.589,9.209,9.209,0,0,0-1.688,7.8,6.767,6.767,0,0,0,4.013,4.363,10.388,10.388,0,0,0,11.943-3.048A7.146,7.146,0,0,0,110.327,726.118Z" transform="translate(-20.384 -315.889)" fill="#d1962b"/>
      <path id="Path_3263" data-name="Path 3263" d="M165.025,622.417c3.457-3.326,10.525-4.093,13.156.27,1.418,2.346,2.332,4.817,1.74,7.594a3.27,3.27,0,0,1-.417,1.125,12.281,12.281,0,0,1-3.391,4.042,9.711,9.711,0,0,1-4.3,1.7c-4.042.446-7.243-2.558-8.42-6.213a8.932,8.932,0,0,1,.27-6.717A6.622,6.622,0,0,1,165.025,622.417Z" transform="translate(-39.189 -288.887)" fill="#d1962b"/>
      <path id="Path_3264" data-name="Path 3264" d="M10.841,673.32a9.6,9.6,0,0,0,.592,8.873,11.28,11.28,0,0,0,4.312,3.961,11.554,11.554,0,0,0-1.5,2.017,13.091,13.091,0,0,1-1.213,2.2.517.517,0,0,0-.285-.395,2.6,2.6,0,0,0-.665-.161c-1.791-.358-3.516-.943-5.284-1.4a21.467,21.467,0,0,1-4.093-1.454,4.092,4.092,0,0,1-1.191-.614c-.439-.446.029-.775.446-1.074,3.143-2.237,3.735-6.424,3.347-10-.037-.358-.285-2.434-.694-2.529A24.689,24.689,0,0,0,10.841,673.32Z" transform="translate(4.281 -303.173)" fill="#626840"/>
      <path id="Path_3265" data-name="Path 3265" d="M94.277,692.626c-.1.051-.19.11-.292.161a3.7,3.7,0,0,1-.833.417,11.234,11.234,0,0,0-1,.548c.219-.738.987-1.074,2.2-1.769.782-.453,1.864-.928,2.617-1.432,3.019-2.039,6.337-2.624,9.83-2.989a29.021,29.021,0,0,1,3.194-.08c.548,0,1.1.007,1.652-.015a12.116,12.116,0,0,1,1.528-.11.609.609,0,0,1-.227.117,22.788,22.788,0,0,1-2.361,1.06c-2.28.607-4.714.007-7.053.278a15.127,15.127,0,0,0-4.795,1.491C97.23,691.032,95.746,691.814,94.277,692.626Z" transform="translate(-20.158 -307.1)" fill="#626a43"/>
      <path id="Path_3266" data-name="Path 3266" d="M117.371,680.28c-.044.036-.022.073.015.117.4.46,1.864,1.769,1.1,2.419-.2.175-.724.168-.972.2-.746.095-1.491.139-2.236.175-.6.029-1.206.044-1.813.029-.314-.007-.629-.015-.936-.037-.175-.007-.841-.161-.965-.073a16.5,16.5,0,0,1,2.836-1.571c.5-.227,1.009-.438,1.513-.643A6.762,6.762,0,0,0,117.371,680.28Z" transform="translate(-25.382 -305.199)" fill="#5d643c"/>
      <path id="Path_3267" data-name="Path 3267" d="M163.7,219.056a8.317,8.317,0,0,1,2-1.286,11.817,11.817,0,0,1,4.429-.994,9.082,9.082,0,0,1,2.777.256,6.446,6.446,0,0,1,1.9.884c2.7,1.864,3.559,5.511,3.625,8.61a5.335,5.335,0,0,1-.1,1.323,5.59,5.59,0,0,1-.4,1.074,7.915,7.915,0,0,1-1.937,2.821,6.982,6.982,0,0,1-1.111.738,11.431,11.431,0,0,1-7.492,1.447,6.218,6.218,0,0,1-1.535-.468,8.828,8.828,0,0,1-2.266-1.769,9.537,9.537,0,0,1-1.038-1.133,8.566,8.566,0,0,1-.672-1.147,8.976,8.976,0,0,1-1.038-3.793A8.077,8.077,0,0,1,163.7,219.056Z" transform="translate(-38.638 -180.458)" fill="#d2972d"/>
      <path id="Path_3268" data-name="Path 3268" d="M162.749,199.134a17.789,17.789,0,0,1-3.779-5.372,7.884,7.884,0,0,1,2.383-7.842,9.55,9.55,0,0,1,1.988-1.264c4.824-2.4,11.709-.2,13.331,5.233a8.066,8.066,0,0,1,.307,1.666c.358,5.321-4.765,9.37-9.83,9.063a8.512,8.512,0,0,1-3.859-1.111A5.888,5.888,0,0,1,162.749,199.134Z" transform="translate(-38.068 -171.557)" fill="#d2972d"/>
      <path id="Path_3269" data-name="Path 3269" d="M128.023,259.261a14.7,14.7,0,0,1-4.568-2.273,6.928,6.928,0,0,1-1.864-2.39,4.942,4.942,0,0,1-.424-.738,2.853,2.853,0,0,1-.153-.862,12.583,12.583,0,0,1,.256-3.918,7.182,7.182,0,0,1,2.149-3.552,8.4,8.4,0,0,1,5.394-2.368,10.859,10.859,0,0,1,2.624.051,7.462,7.462,0,0,1,4.32,2.368,8.713,8.713,0,0,1,2.156,7.375,4.785,4.785,0,0,1-.709,1.856,6.71,6.71,0,0,1-.724.848,14.765,14.765,0,0,1-2.434,2.039c-.38.248-.775.468-1.169.694a6.026,6.026,0,0,1-4.78.9A.169.169,0,0,0,128.023,259.261Z" transform="translate(-27.914 -187.547)" fill="#d2972d"/>
      <path id="Path_3270" data-name="Path 3270" d="M1.264,236.661c-.738-3.472-.943-6.841,1.791-9.67l1.93-1.052a7.688,7.688,0,0,1,9.07.658c2.843,2.258,3.479,5.306,2.507,8.734-.1.365.015.862-.066,1.264a4.1,4.1,0,0,1-.439,1.118,5.158,5.158,0,0,1-1.871,1.739,20.943,20.943,0,0,1-5.014,2.083,3.289,3.289,0,0,1-1.111.212,11.959,11.959,0,0,1-1.323-.307,4.575,4.575,0,0,1-1.286-.227,7.666,7.666,0,0,1-1.805-1.155A6.737,6.737,0,0,1,1.264,236.661Z" transform="translate(4.43 -182.612)" fill="#d2972d"/>
      <path id="Path_3271" data-name="Path 3271" d="M125.69,274.242a19.1,19.1,0,0,1,1.4-3.011c.219-.387.439-.775.672-1.162a6.336,6.336,0,0,1,.687-1.155,2.566,2.566,0,0,1,1.162-.731c.132-.037.212-.029.168.124a2.561,2.561,0,0,1-.519.731,9.762,9.762,0,0,0-.826,1.009,8.833,8.833,0,0,0-.972,4.064A3.425,3.425,0,0,0,125.69,274.242Z" transform="translate(-29.185 -194.291)" fill="#616840"/>
      <path id="Path_3277" data-name="Path 3277" d="M18.5,243.642a13.834,13.834,0,0,0,2.836-4.422c1.666,1.944,1.381,3.216-.906,4.129A3.374,3.374,0,0,1,18.5,243.642Z" transform="translate(-0.338 -186.501)" fill="#868964"/>
      <path id="Path_3278" data-name="Path 3278" d="M182.26,640.78a2.84,2.84,0,0,1,1.725-1.44A1.958,1.958,0,0,1,182.26,640.78Z" transform="translate(-44.409 -294.181)" fill="#d1962b"/>
      <path id="Path_3280" data-name="Path 3280" d="M26.525,353.87c-1.893.409-3.749.957-5.679,1.279-2.653.439-5.343.68-8.025.906a182.545,182.545,0,0,1-19.171,1V353.5c0,.271,14.778-1.074,16.116-1.242,4.882-.607,9.889-1.169,14.705-2.141,3.954-.8,7.879-1.74,11.8-2.69a107.755,107.755,0,0,0,11.146-2.945,54.692,54.692,0,0,0,10.5-4.721c.921-.57,2.85-1.549,3.969-1.338a1.352,1.352,0,0,1,.987.738,3.62,3.62,0,0,1,.307.87.657.657,0,0,1-.168.548c-.526.6-2.068.811-2.807,1.14a26.9,26.9,0,0,0-2.887,1.579,81.571,81.571,0,0,1-10,5.2,60.073,60.073,0,0,1-8.792,3.033C34.572,352.591,30.516,353.008,26.525,353.87Z" transform="translate(6.35 -213.19)" fill="#384215"/>
      <path id="Path_3281" data-name="Path 3281" d="M104.117,329.795a9.177,9.177,0,0,0-3.837-6.337c-2.741-1.9-5.533-1.389-8.5-.387-2.39.8-4.166,1.827-5.175,4.246-.921,2.207-1.052,5.072.4,7.082.153.307.314.614.468.914a3.256,3.256,0,0,0,.292.482,1.461,1.461,0,0,1,.088.431c.87.767,1.659,1.615,2.587,2.317a6.189,6.189,0,0,0,2.938,1.206,9.9,9.9,0,0,0,7.565-1.893,9.049,9.049,0,0,0,3.187-6.022A8.648,8.648,0,0,0,104.117,329.795Z" transform="translate(-18.48 -208.826)" fill="#d2972d"/>
    </g>
  </g>
</svg>
