<svg xmlns="http://www.w3.org/2000/svg" width="31.868" height="41.165" viewBox="0 0 31.868 41.165">
  <g id="Group_6532" data-name="Group 6532" transform="translate(-948.132 -307.835)">
    <path id="Path_3106" data-name="Path 3106" d="M154.117,368.75c-7.559,0-11.867,2.495-11.867,5.57h23.736C165.986,371.245,161.675,368.75,154.117,368.75Z" transform="translate(805.882 -25.32)" fill="#005329"/>
    <g id="Group_6531" data-name="Group 6531" transform="translate(-3.582 -8.968)">
      <path id="Path_3107" data-name="Path 3107" d="M181.566,332.744a13.578,13.578,0,0,1,.5-3.227,9.941,9.941,0,0,1,1.439-3.12c.276-.406.637-.851.989-1.279.357-.406.7-.8,1.065-1.163.717-.749,1.444-1.426,2.135-2.09s1.355-1.288,1.947-1.916a18.866,18.866,0,0,0,1.573-1.841,12.686,12.686,0,0,0,1.078-1.734c.129-.281.245-.539.357-.78.085-.25.165-.481.236-.691a6.819,6.819,0,0,0,.25-1l.076-.357s-.009.125-.027.365a6.784,6.784,0,0,1-.116,1.038c-.045.223-.089.468-.143.735-.08.263-.165.544-.258.847a13.519,13.519,0,0,1-.873,1.948,21.638,21.638,0,0,1-1.368,2.121c-.521.726-1.11,1.457-1.707,2.206s-1.221,1.511-1.8,2.3c-.294.392-.561.8-.829,1.2-.241.4-.481.775-.722,1.248l-.178.339-.022.045,0,.009c.018-.027-.045.08.036-.062l-.009.018-.027.08-.058.16c-.076.21-.16.419-.223.633a9.922,9.922,0,0,0-.272,1.3,10.748,10.748,0,0,0-.04,2.62C184.65,333.564,181.566,332.744,181.566,332.744Z" transform="translate(779.514 24.653)" fill="#005329"/>
      <path id="Path_3108" data-name="Path 3108" d="M180.918,310.459l-.049-1.15q-.013-.274-.027-.6c-.022-.187-.045-.392-.071-.611a15.107,15.107,0,0,0-.209-1.511c-.089-.575-.218-1.19-.379-1.841-.143-.655-.352-1.337-.544-2.055-.419-1.422-.922-2.95-1.4-4.506-.241-.784-.472-1.569-.677-2.366s-.383-1.591-.539-2.362c-.134-.784-.267-1.538-.321-2.273a19.99,19.99,0,0,1-.111-2.059c-.04-.637.045-1.221.053-1.729a11.282,11.282,0,0,1,.134-1.315c.1-.722.156-1.132.156-1.132s-.018.419-.049,1.15a11.38,11.38,0,0,0-.009,1.31c.036.5.009,1.074.107,1.685a18.4,18.4,0,0,0,.294,1.943c.116.686.307,1.377.5,2.095.218.709.441,1.435.722,2.148.263.722.562,1.439.865,2.152.611,1.431,1.257,2.861,1.832,4.26.276.713.561,1.39.784,2.081s.45,1.333.611,1.97a17.871,17.871,0,0,1,.423,1.8c.058.281.107.539.156.78.031.218.058.419.085.6.1.722.156,1.132.156,1.132Z" transform="translate(782.269 40.507)" fill="#005329"/>
      <g id="Group_6099" data-name="Group 6099" transform="translate(966.895 325.921)">
        <g id="Group_6098" data-name="Group 6098" transform="translate(0 3.209)">
          <path id="Path_3109" data-name="Path 3109" d="M200.425,301.265s.357-3.057-.829-4.969-4.479-2.558-4.956-3.106c0,0,.209,4.537,1.194,5.7.824.972,2.767,2.718,3.775,2.6,0,0-2.389-2.928-2.442-4.523C197.171,296.969,199.5,301.038,200.425,301.265Z" transform="translate(-194.64 -293.19)" fill="#79bd1a"/>
        </g>
        <path id="Path_3110" data-name="Path 3110" d="M210.244,299.663s11.868-3.258,8.775-13.673a25.408,25.408,0,0,1-3.953,2.277c-2.772,1.359-6.4,3.534-5.477,11.088.1.811,2.861-7.42,5.99-8.828C215.579,290.522,209.995,298.843,210.244,299.663Z" transform="translate(-202.847 -285.99)" fill="#79bd1a"/>
      </g>
      <path id="Path_3111" data-name="Path 3111" d="M170.876,273.373s2.616-6.747-3.788-7.843a12.888,12.888,0,0,1-.267,2.549c-.307,1.729-.508,4.091,3.663,5.544.446.156-2.736-3.311-2.331-5.223C168.158,268.4,170.373,273.289,170.876,273.373Z" transform="translate(787.757 51.273)" fill="#79bd1a"/>
      <g id="Group_6100" data-name="Group 6100" transform="translate(959.749 319.851)">
        <path id="Path_3112" data-name="Path 3112" d="M179.178,279.612a7.837,7.837,0,0,0,3.65-2.3c1.119-1.569.535-4.381.811-4.942,0,0-3.516,1.667-4.1,2.83-.495.971-1.226,3.088-.8,3.846,0,0,1.52-2.857,2.763-3.427C181.491,275.619,179.053,278.81,179.178,279.612Z" transform="translate(-178.605 -272.37)" fill="#79bd1a"/>
      </g>
    </g>
  </g>
</svg>
