<svg id="Layer_1" data-name="Layer 1" xmlns="http://www.w3.org/2000/svg" viewBox="0 0 12.78 11.23"><defs><style>.cls-1{fill:#294f1b;}.cls-2{fill:#f9bd46;}.cls-3{fill:#c45f05;}.cls-4{opacity:0.5;}.cls-5{fill:#fff;}.cls-6{fill:#f47208;}.cls-7{fill:#f9d332;}.cls-8{opacity:0.7;}.cls-9{fill:#e4a308;}.cls-10{opacity:0.3;}.cls-11{fill:#fcec59;}.cls-12{opacity:0.2;}.cls-13{fill:#603813;}.cls-14{fill:#fcd165;}.cls-15{fill:#f7c934;}.cls-16{fill:#3f7f25;}.cls-17{fill:#a4d66b;}</style></defs><path class="cls-1" d="M5.84,10.34a3,3,0,0,1,.38.33A.93.93,0,0,0,5.84,10.34Z" transform="translate(-3.23 -4.26)"/><path class="cls-1" d="M7.67,12.53a2.42,2.42,0,0,0-.07-.47A2.42,2.42,0,0,0,7.67,12.53Z" transform="translate(-3.23 -4.26)"/><path class="cls-1" d="M14,12.4a2.94,2.94,0,0,1-1,.7c.34-1,1.56-1.46,2.1-2.39a2,2,0,0,0-1.36,1A3.49,3.49,0,0,1,12.6,13a5.56,5.56,0,0,1,.25-.91,1.41,1.41,0,0,1-.49.48c.13-.7.25-1.39.38-2.09a5.36,5.36,0,0,0-1,1.69,13.68,13.68,0,0,0,1.34-5c-.6,1.6-1.22,3.19-1.84,4.78A14.69,14.69,0,0,1,12,8.53l-1.43,3.63.9-3.9a3.71,3.71,0,0,0-1,1.46,4.54,4.54,0,0,0-.13.9,5.54,5.54,0,0,1-.38,1.45c0-.84.06-1.69.15-2.53-.22,1-.4,2.1-.54,3.15A23.5,23.5,0,0,0,9,8a19.5,19.5,0,0,1,0,4.32,5.28,5.28,0,0,0-.58-2.73l.15,2.55c-.1-.21-.2-.43-.29-.64a9.69,9.69,0,0,1-.09,1.7l-.28-.3a.21.21,0,0,0-.09.18,2.3,2.3,0,0,1-.18-.5,2.3,2.3,0,0,1-.15,1c-.12,0-.15-.2-.16-.33a3.85,3.85,0,0,0-1.14-2.5,2.53,2.53,0,0,1,.26.55,20.66,20.66,0,0,1,.76,2.66L6.83,13a3.1,3.1,0,0,0,0,.91A.2.2,0,0,0,7,14c.07.05.16,0,.24,0,.33,0,.24.61.51.81a.48.48,0,0,1,.49-.26.37.37,0,0,1,.29.43c.16-.18.45-.37.6-.19s.06.1.11.13.27-.08.3-.22.07-.33.22-.37c.07.29.15.57.23.85,0,.08.06.17.13.19s.17-.06.22-.14l.64-.89.17.92A1.54,1.54,0,0,0,11.94,14c.21.06.15.47.37.49s.19-.12.23-.23l.33-.83c.07.21.15.43.23.64s.27.49.49.4a.51.51,0,0,0,.2-.21l1-1.78a5.57,5.57,0,0,0-1,.53Z" transform="translate(-3.23 -4.26)"/><path class="cls-1" d="M12.85,12a1.3,1.3,0,0,0,.17-.38C13,11.79,12.9,11.91,12.85,12Z" transform="translate(-3.23 -4.26)"/><path class="cls-2" d="M11.94,7.83A2.5,2.5,0,0,0,10.63,6.5,6.16,6.16,0,0,0,8.78,6a7.75,7.75,0,0,0-4.6.49,1.58,1.58,0,0,0-.68.57.72.72,0,0,0,0,.84h0a.74.74,0,0,1,.83.53,5.63,5.63,0,0,1,0,.59c0,.19.16.4.36.41s.36-.22.55-.29a.74.74,0,0,1,.77.36,4.69,4.69,0,0,1,.72,2.72A5.55,5.55,0,0,0,7,13.4a1.65,1.65,0,0,0,.62,1,1,1,0,0,0,1.1.05.51.51,0,0,0,.19-.22.59.59,0,0,0,0-.37,7.07,7.07,0,0,0-.4-1,4,4,0,0,1-.16-1.76,2.65,2.65,0,0,1,.4-1.32,2.58,2.58,0,0,1,1.37-.87,12.4,12.4,0,0,0,1.57-.49c.13-.06.28-.15.31-.3A.4.4,0,0,0,11.94,7.83Z" transform="translate(-3.23 -4.26)"/><path class="cls-3" d="M6.06,9.08a.75.75,0,0,0-.86,0h.07a.55.55,0,0,1,.66,0,1.72,1.72,0,0,1,.46.54l.53.85a5.76,5.76,0,0,0-.48-1A1.25,1.25,0,0,0,6.06,9.08Z" transform="translate(-3.23 -4.26)"/><path class="cls-3" d="M6.6,9.07a.54.54,0,0,0-.38-.19l.1.21a2.29,2.29,0,0,1,.46.74,2.51,2.51,0,0,0,.28.65,6.64,6.64,0,0,0-.3-1.08A1.12,1.12,0,0,0,6.6,9.07Z" transform="translate(-3.23 -4.26)"/><path class="cls-3" d="M7.15,8.87s0-.08-.05-.1h0a.4.4,0,0,0-.28.16.76.76,0,0,1,.13.29c.12.4.23.8.34,1.19a.23.23,0,0,0,0-.18Z" transform="translate(-3.23 -4.26)"/><polygon class="cls-3" points="3.54 4.68 3.54 4.67 3.54 4.67 3.54 4.68"/><path class="cls-3" d="M7.82,8.53s0,0-.07,0a.33.33,0,0,0-.27.17,5.1,5.1,0,0,0,0,.78c0,.36,0,.72,0,1.07l.15-1.21a1.57,1.57,0,0,1,.19-.68S7.84,8.56,7.82,8.53Z" transform="translate(-3.23 -4.26)"/><path class="cls-3" d="M8.39,8.88a.25.25,0,0,0,0-.08.13.13,0,0,0-.06-.07.19.19,0,0,0-.16-.06l-.08,0a6.62,6.62,0,0,0-.33,1.74c.08-.26.15-.52.23-.77a1.92,1.92,0,0,1,.16-.42A2,2,0,0,0,8.39,8.88Z" transform="translate(-3.23 -4.26)"/><path class="cls-3" d="M9.66,8.62a0,0,0,0,0,0,0,.49.49,0,0,0-.41-.05.82.82,0,0,0-.2.12A1.73,1.73,0,0,0,8.66,9a3.23,3.23,0,0,0-.29.59c-.08.2-.15.4-.22.6A2.71,2.71,0,0,1,9.57,8.74C9.63,8.72,9.69,8.67,9.66,8.62Z" transform="translate(-3.23 -4.26)"/><path class="cls-3" d="M8.15,10.22s0,.09-.05.14S8.13,10.26,8.15,10.22Z" transform="translate(-3.23 -4.26)"/><g class="cls-4"><path class="cls-5" d="M7.63,13.19a3,3,0,0,1-.06-.95,2.8,2.8,0,0,0,0-1,.92.92,0,0,0-.39-.48.22.22,0,0,0-.17,0,.17.17,0,0,0-.09.14s0,0,0,.06a9.54,9.54,0,0,1,.18,1.41,4.37,4.37,0,0,0,.08.88,1.16,1.16,0,0,0,.49.71A1.08,1.08,0,0,0,7.63,13.19Z" transform="translate(-3.23 -4.26)"/></g><g class="cls-4"><path class="cls-6" d="M7.62,14.06l-.09-.15A.38.38,0,0,0,7.62,14.06Z" transform="translate(-3.23 -4.26)"/></g><g class="cls-4"><path class="cls-6" d="M8.13,14l0-.11A.35.35,0,0,0,8.13,14Z" transform="translate(-3.23 -4.26)"/></g><g class="cls-4"><path class="cls-6" d="M8.69,9.72a2.93,2.93,0,0,1,1.46-.88c.55-.17,1.12-.28,1.65-.5a.66.66,0,0,0-.55,0l-.18.08a2.54,2.54,0,0,1-.39,0c-.32,0-.61.26-.92.21s-.4-.18-.59-.1-.2.19-.32.26a.54.54,0,0,1-.45,0c-.15,0-.29-.13-.44-.18a1,1,0,0,0-.82.13c-.17.12-.32.3-.53.3s-.3-.14-.46-.18-.58.1-.78-.08S5.19,8.35,5,8.34s-.22.18-.2.31A1.16,1.16,0,0,0,5,9,.76.76,0,0,1,5,9.4,1.06,1.06,0,0,1,5.67,9c.28,0,.51.23.78.27s.39-.06.58,0a1.25,1.25,0,0,1,.58.22,2.31,2.31,0,0,1,.24.2,1.2,1.2,0,0,1,.27.89c0,.32-.11.63-.15,1a3.53,3.53,0,0,0,.45,2.29.83.83,0,0,1,.05.35c-.09-.15-.19-.3-.29-.45,0,.17.08.35.11.52A.35.35,0,0,1,8.13,14a1,1,0,0,1,0,.25,3.87,3.87,0,0,1-.27-.43,1.44,1.44,0,0,1,.14.53l-.33-.46.15.36a.84.84,0,0,1-.23-.23l.13.22a2.89,2.89,0,0,1-.7-.93,1.64,1.64,0,0,0,.53,1,.91.91,0,0,0,1,.09.52.52,0,0,0,.19-.2.62.62,0,0,0,0-.53c-.07-.17-.18-.32-.26-.48a3.06,3.06,0,0,1-.26-.94,5.23,5.23,0,0,1,0-1.31A2.37,2.37,0,0,1,8.69,9.72Z" transform="translate(-3.23 -4.26)"/></g><path class="cls-3" d="M6.57,10.54a.32.32,0,0,0,.07.19l0-.13A.08.08,0,0,1,6.57,10.54Z" transform="translate(-3.23 -4.26)"/><path class="cls-3" d="M8.23,10.58l0-.09-.1.19a.08.08,0,0,0-.11,0,.36.36,0,0,0-.07.1,1,1,0,0,0-.08-.25l-.13.2-.06-.11a.22.22,0,0,0-.09.1.09.09,0,0,1-.06-.06,1.34,1.34,0,0,0-.11.14,1,1,0,0,1-.1-.17.07.07,0,0,1-.1,0,.16.16,0,0,1-.07-.11s0-.08-.09-.09a.15.15,0,0,1-.2.14s-.08-.06-.13-.07-.11.06-.07.09h0a5.32,5.32,0,0,1,.14.67,2.79,2.79,0,0,0,0-.58l.08.39v-.32A.54.54,0,0,1,7,11l0-.15a.87.87,0,0,1,.07.17.86.86,0,0,0,.06-.23,4.6,4.6,0,0,1,.19.52.87.87,0,0,0,.07-.42.46.46,0,0,1,.09.3l0-.29,0,.18a.24.24,0,0,1,.06-.11l0,.19a.67.67,0,0,1,.09-.21l.07.22c0-.11,0-.23.07-.35a2.45,2.45,0,0,0,.08.29.68.68,0,0,0,.12-.26.88.88,0,0,1,0,.28A.22.22,0,0,0,8.17,11l0,.4.13-.66a4.17,4.17,0,0,0,0,.61c.05-.29.09-.59.14-.88A1.49,1.49,0,0,1,8.23,10.58Z" transform="translate(-3.23 -4.26)"/><polygon class="cls-3" points="3.38 6.34 3.38 6.34 3.38 6.33 3.38 6.34"/><path class="cls-7" d="M6.54,10.43a.46.46,0,0,0,.08.19l0-.14Z" transform="translate(-3.23 -4.26)"/><path class="cls-7" d="M8.28,10.47l0-.1-.12.19a.09.09,0,0,0-.11,0,.26.26,0,0,0-.07.1.75.75,0,0,0-.09-.25l-.13.19-.06-.1a.18.18,0,0,0-.09.1.09.09,0,0,1-.06-.06l-.12.14a1,1,0,0,1-.11-.17s-.06.06-.1,0a.28.28,0,0,1-.08-.11s0-.08-.08-.09a.16.16,0,0,1-.21.14c-.05,0-.09-.07-.14-.07s-.11.06-.07.09h0a5.47,5.47,0,0,1,.14.68,3.69,3.69,0,0,0,0-.58l.07.39c0-.11,0-.22,0-.33a.58.58,0,0,1,.08.22l0-.16a.64.64,0,0,1,.06.18,1.55,1.55,0,0,0,.07-.23,5.38,5.38,0,0,1,.2.51,1,1,0,0,0,.07-.41.51.51,0,0,1,.1.3l0-.29.06.18a.23.23,0,0,1,.06-.12l.05.19a1,1,0,0,1,.09-.21l.07.23c0-.12.06-.23.08-.35A1.61,1.61,0,0,0,8,11a.54.54,0,0,0,.11-.27.71.71,0,0,1,0,.29.22.22,0,0,0,.08-.14l0,.39.14-.65a3.13,3.13,0,0,0,0,.61l.14-.88Z" transform="translate(-3.23 -4.26)"/><polygon class="cls-7" points="3.36 6.23 3.36 6.23 3.36 6.22 3.36 6.23"/><g class="cls-4"><path class="cls-6" d="M6.73,9.79a1.52,1.52,0,0,0-.23-.5A1,1,0,0,0,6.3,9a.76.76,0,0,0-1,0,3.37,3.37,0,0,1,.48.12,1.39,1.39,0,0,1,.51.45,2.66,2.66,0,0,1,.31.66s0,0,.05,0l0,0A.84.84,0,0,0,6.73,9.79Z" transform="translate(-3.23 -4.26)"/></g><g class="cls-8"><path class="cls-3" d="M3.87,7.62c-.11.09-.08.29-.21.35h0A.53.53,0,0,1,4.06,8a.07.07,0,0,0,.07,0l0,0a.4.4,0,0,0,0-.32A.2.2,0,0,0,3.87,7.62Z" transform="translate(-3.23 -4.26)"/><path class="cls-3" d="M11.08,8.41a4.29,4.29,0,0,0-.5-.07c-.21,0-.38.19-.59.21s-.4-.12-.62-.14a.52.52,0,0,0-.51.29.32.32,0,0,1-.08.14.25.25,0,0,1-.19,0A2.45,2.45,0,0,1,8,8.62a.9.9,0,0,0-.64-.09A1.67,1.67,0,0,0,7,8.78a.52.52,0,0,1-.41.13c-.09,0-.17-.08-.26-.11a1.94,1.94,0,0,0-.54,0,.86.86,0,0,1-.59-.31.26.26,0,0,0-.09-.09c-.12-.07-.27,0-.29.18a.57.57,0,0,0,.12.37L5,9.43A1.51,1.51,0,0,0,5.23,9l.08-.1a.28.28,0,0,1,.18,0,4.64,4.64,0,0,1,.76.13c.19.06.37.14.56.18a.8.8,0,0,0,.57-.07A1,1,0,0,1,7.67,9a.46.46,0,0,1,.43.2,1.28,1.28,0,0,1,.28,1.08A1.62,1.62,0,0,1,9,9.4a3.13,3.13,0,0,1,.92-.49l.65-.19c.43-.12.85-.26,1.28-.4C11.58,8.2,11.33,8.4,11.08,8.41Z" transform="translate(-3.23 -4.26)"/><path class="cls-3" d="M8.08,14.44a.14.14,0,0,0,.09,0H8.08Z" transform="translate(-3.23 -4.26)"/><path class="cls-3" d="M8.07,14.44l-.22-.06Z" transform="translate(-3.23 -4.26)"/><path class="cls-3" d="M8.69,13.38a3.83,3.83,0,0,1-.44-2.16.64.64,0,0,0-.1.13h0a.54.54,0,0,0-.05.21v0a3.88,3.88,0,0,0,.45,2.12,1.12,1.12,0,0,1,.1.31.32.32,0,0,1-.09.3.21.21,0,0,1-.29,0s0,.1-.06.07,0,.07,0,.09h0a.8.8,0,0,0,.4-.08.6.6,0,0,0,.32-.6A1.2,1.2,0,0,0,8.69,13.38Z" transform="translate(-3.23 -4.26)"/></g><path class="cls-7" d="M12.2,6.29,12,6.08A.74.74,0,0,0,11.91,6c-.2-.09-.39.19-.61.19,0-.23.44-.3.41-.54,0-.07-.08-.13-.14-.19a5.67,5.67,0,0,0-1.12-.76.34.34,0,0,0-.17,0l-.14,0a.68.68,0,0,1-.24-.08,2.51,2.51,0,0,0-1.34-.29,5.22,5.22,0,0,0-1.28.32A.75.75,0,0,0,7,4.71,2.46,2.46,0,0,0,6.86,5c-.07.08-.2.14-.28.07s-.06-.16-.13-.2a.19.19,0,0,0-.15,0A3.47,3.47,0,0,0,5.51,5a1.14,1.14,0,0,0-.61.51c-.06.13-.13.3-.27.3l-.14,0a.39.39,0,0,0-.3.17c-.19.2-.37.41-.55.62a.57.57,0,0,0-.2.45.58.58,0,0,1,0,.19c0,.09-.09.16-.15.23a.38.38,0,0,0,0,.46.26.26,0,0,0,.42,0c0-.07,0-.16,0-.23s.15-.13.2-.06l0,0c.12-.06.26.12.23.26A2.69,2.69,0,0,1,4,8.26a1,1,0,0,0,.24.89.84.84,0,0,0,.44.37c.19.05.43-.1.41-.29s-.27-.29-.35-.47a.32.32,0,0,1,.15-.38.32.32,0,0,1,.39.13,1.73,1.73,0,0,0,.1.24c.15.21.5,0,.74.1A.76.76,0,0,1,6.32,9a.79.79,0,0,0,.5.2A.52.52,0,0,0,7.29,9a2,2,0,0,1,.11-.2.44.44,0,0,1,.49,0c.16.07.3.19.46.26a.42.42,0,0,0,.49,0c.05-.06.08-.14.13-.19a.44.44,0,0,1,.43-.09,1.78,1.78,0,0,0,.45.08c.32,0,.61-.33.91-.24.09,0,.18.1.27.06s.09-.08.14-.12.39,0,.59-.09a.52.52,0,0,0,.39-.66c-.05-.13-.16-.26-.13-.4s.28-.27.36-.45S12.33,6.45,12.2,6.29Z" transform="translate(-3.23 -4.26)"/><g class="cls-4"><path class="cls-9" d="M6.48,6.72v0s0-.1-.05-.16Z" transform="translate(-3.23 -4.26)"/><path class="cls-9" d="M9.46,6.24a1.24,1.24,0,0,0-.12-.32,1,1,0,0,0-.73-.45,2.34,2.34,0,0,0-.87.08,2.14,2.14,0,0,0-.84.38,1,1,0,0,0-.42.77,1.65,1.65,0,0,0,2.86.42,1,1,0,0,0,.18-.37A1.12,1.12,0,0,0,9.46,6.24Z" transform="translate(-3.23 -4.26)"/></g><path class="cls-9" d="M9.07,6.52a.43.43,0,0,0-.22-.28,1.48,1.48,0,0,0-1.25,0,1.49,1.49,0,0,0-.74.45l-.07.06a1.41,1.41,0,0,0,.57.76,1,1,0,0,0,.92.11A1.61,1.61,0,0,0,9,6.84.6.6,0,0,0,9.07,6.52Z" transform="translate(-3.23 -4.26)"/><g class="cls-10"><path class="cls-6" d="M8.52,7.09A.24.24,0,0,0,8.45,7,.76.76,0,0,0,8,6.81a1.24,1.24,0,0,0-.43,0A.54.54,0,0,0,7.25,7a.36.36,0,0,0,0,.4,1.36,1.36,0,0,0,.67.26.64.64,0,0,0,.58-.52A.14.14,0,0,0,8.52,7.09Z" transform="translate(-3.23 -4.26)"/></g><path class="cls-11" d="M6.68,7.22a1.76,1.76,0,0,0-1.07-.78A5.7,5.7,0,0,1,4.34,6l0,0a4.77,4.77,0,0,0-.75.86.23.23,0,0,0,0,.15c0,.12.16.16.28.17l2.72.21s.11,0,.12-.05A.08.08,0,0,0,6.68,7.22Z" transform="translate(-3.23 -4.26)"/><g class="cls-10"><path class="cls-11" d="M12,7.16a3.28,3.28,0,0,0-.87.28l.59.13.17,0a.09.09,0,0,0,.07,0s0-.09,0-.13A.46.46,0,0,1,12,7.15Z" transform="translate(-3.23 -4.26)"/><path class="cls-11" d="M10.59,6.7c0-.06.05-.12.05-.18a.15.15,0,0,0-.16-.16.43.43,0,0,0-.23.1A1,1,0,0,1,10,6.6c-.12,0-.27,0-.37.09l-.08.07a.76.76,0,0,1-.26.11A.64.64,0,0,0,9,7.33a.86.86,0,0,0,.5,0l-.1.06c.37-.11.75.21,1.13.14,0,0,0,0,.06,0s0-.09,0-.13a.45.45,0,0,0-.13-.1c-.06,0-.14-.08-.12-.14l.05,0c.08,0,.18,0,.27,0s.2-.07.18-.16S10.61,6.79,10.59,6.7Z" transform="translate(-3.23 -4.26)"/><path class="cls-11" d="M9.16,6.78a.73.73,0,0,1,.51-.26.72.72,0,0,0,.52-.23c.07-.09.09-.21.17-.29s.1-.1.1-.16-.12-.13-.21-.1-.15.1-.24.13a.06.06,0,0,1-.08,0s0,0,0-.06V5.54c0-.07,0-.15-.08-.16s-.12.07-.19,0,0-.23-.09-.25-.12,0-.18.05-.18-.1-.27-.1-.19.14-.18.25a1.34,1.34,0,0,1,0,.34.81.81,0,0,1-.17.3.85.85,0,0,0-.13.62.94.94,0,0,1,.14-.26s.05-.07.09-.06,0,.08,0,.13-.21.36-.16.55a1.78,1.78,0,0,0,.31-.23Z" transform="translate(-3.23 -4.26)"/><path class="cls-11" d="M8.58,5.87a.09.09,0,0,0-.07,0L8.31,6c0-.16.2-.32.14-.47l-.12.09c0-.17,0-.33.07-.5a.17.17,0,0,0,0-.07L8.33,5A.34.34,0,0,0,8,5.19c0,.06,0,.13-.08.15s-.18-.13-.3-.12-.11.13-.11.22a.66.66,0,0,0,0,.24c0,.07.11.13.12.22s0,.13,0,.2,0,.16.07.18.07,0,.11,0,0,.13.07.21A.15.15,0,0,0,8,6.61a.15.15,0,0,0,.14-.13l.13,0c.11-.17.22-.33.32-.5S8.64,5.89,8.58,5.87Z" transform="translate(-3.23 -4.26)"/><path class="cls-11" d="M7.24,5.9S7.18,6,7.13,6,7,5.69,6.79,5.66H6.7c-.07,0-.12-.08-.15-.15a1.59,1.59,0,0,0-.07-.2A.42.42,0,0,0,6,5.15a1.33,1.33,0,0,0-.45.25.19.19,0,0,0-.08.1s0,.07,0,.1l.13.26A.3.3,0,0,0,5.73,6a.66.66,0,0,0,.19.09.7.7,0,0,1,.23.15,4.49,4.49,0,0,0,1,.64.11.11,0,0,0,.08,0s0,0,0-.06a.73.73,0,0,0,.07-.36l0,.15a1.84,1.84,0,0,0,0-.62S7.29,5.89,7.24,5.9Z" transform="translate(-3.23 -4.26)"/><path class="cls-11" d="M12.14,6.61c-.06-.23-.19-.51-.42-.5a2.58,2.58,0,0,0-.26.08.21.21,0,0,1-.24,0c-.13-.17.2-.35.18-.55a.34.34,0,0,0-.08-.17,2.58,2.58,0,0,0-.65-.58.9.9,0,0,0-.47-.17,1.93,1.93,0,0,1-.24,0,.82.82,0,0,1-.3-.1,2.58,2.58,0,0,0-2.34.17l.08,0c-.11,0-.11.2,0,.26a.29.29,0,0,0,.31,0c.1-.06.17-.15.26-.21a.32.32,0,0,1,.31-.06c.05,0,.1.07.15.06s.1,0,.14,0,0,.08,0,.13A.12.12,0,0,0,8.72,5,.65.65,0,0,0,8.89,5a.93.93,0,0,1,.77.13,3.31,3.31,0,0,1,.78.49c.12.11.23.26.17.41s-.07.11-.06.17a.14.14,0,0,0,.08.1l.47.41a.67.67,0,0,0-.22.19.2.2,0,0,0,.06.27.33.33,0,0,0,.14,0,4.66,4.66,0,0,0,.84-.19.32.32,0,0,0,.23-.17A.43.43,0,0,0,12.14,6.61Z" transform="translate(-3.23 -4.26)"/><path class="cls-11" d="M6.36,7.46a5.91,5.91,0,0,0-1-.12.12.12,0,0,0-.1,0l-.07.07a.29.29,0,0,1-.16,0,2.07,2.07,0,0,0-1,.12L4,7.63a.28.28,0,0,1,.16.16s0,.08,0,.09h.07l1.66-.31A2.49,2.49,0,0,0,6.36,7.46Z" transform="translate(-3.23 -4.26)"/><path class="cls-11" d="M5,8.3c.17,0,.25.22.39.31s.06,0,.09,0,.08,0,.11-.08a5.86,5.86,0,0,1,.89-.66.24.24,0,0,0,.12-.16A4.64,4.64,0,0,0,5,8.29Z" transform="translate(-3.23 -4.26)"/></g><g class="cls-4"><path class="cls-3" d="M4.13,8.19l0,0A.52.52,0,0,0,4,8.71a1.16,1.16,0,0,0,.36.49.51.51,0,0,0,.24.15.23.23,0,0,0,.26-.07.32.32,0,0,0,0-.32.66.66,0,0,1-.15-.3.35.35,0,0,1,.13-.31.92.92,0,0,1,.31-.16A2.89,2.89,0,0,0,6,7.84c-.41,0-.83.09-1.24.15A1.42,1.42,0,0,0,4.13,8.19Z" transform="translate(-3.23 -4.26)"/><path class="cls-3" d="M4.44,7.52a2.5,2.5,0,0,0,.67,0,.27.27,0,0,0-.23-.08l-1-.08a.59.59,0,0,0-.45.09l.07,0a.39.39,0,0,0-.18.3c0,.13.12.25.24.22s.19-.21.29-.32a.52.52,0,0,1,.3-.11A3.16,3.16,0,0,1,4.44,7.52Z" transform="translate(-3.23 -4.26)"/><path class="cls-3" d="M4.8,5.88A.17.17,0,0,0,4.91,6a2.64,2.64,0,0,0,.91.26c0-.06-.06-.1-.12-.13a2,2,0,0,1-.59-.46c-.05-.06-.12-.13-.2-.1H5C5,5.68,4.78,5.76,4.8,5.88Z" transform="translate(-3.23 -4.26)"/><path class="cls-3" d="M6.66,5.23A.71.71,0,0,0,7,5.6l.08,0a.12.12,0,0,0,0-.1A2.19,2.19,0,0,0,7,4.76a.52.52,0,0,1-.2.26.25.25,0,0,1-.3-.1.8.8,0,0,0,.17.33Z" transform="translate(-3.23 -4.26)"/><path class="cls-3" d="M6.52,8.81a.2.2,0,0,1,.09.09.59.59,0,0,0,.1.17.28.28,0,0,0,.29,0,1.2,1.2,0,0,0,.23-.22l.3-.34c-.16.06-.3.18-.47.23S6.69,8.75,6.52,8.81Z" transform="translate(-3.23 -4.26)"/><path class="cls-3" d="M6.48,8.83l0,0h0Z" transform="translate(-3.23 -4.26)"/><path class="cls-3" d="M8.89,8.54l-.18-.09a.68.68,0,0,0-.6.15l-.06,0c.22.07.36.34.6.33a.39.39,0,0,0,.27-.15,1.28,1.28,0,0,0,.16-.28A.19.19,0,0,1,8.89,8.54Z" transform="translate(-3.23 -4.26)"/><path class="cls-3" d="M9.86,8.61h0Z" transform="translate(-3.23 -4.26)"/><path class="cls-3" d="M9.89,8.61h0Z" transform="translate(-3.23 -4.26)"/><path class="cls-3" d="M9.69,8.4c-.08,0-.18,0-.2.08a0,0,0,0,0,0,0,.05.05,0,0,0,.06,0,.87.87,0,0,0,.32.06.81.81,0,0,0,.39-.17Z" transform="translate(-3.23 -4.26)"/><path class="cls-3" d="M10.77,8.37v.07A.24.24,0,0,0,11,8.5a.23.23,0,0,0,.15-.18A1,1,0,0,0,10.77,8.37Z" transform="translate(-3.23 -4.26)"/><path class="cls-3" d="M12,7.72v0a.64.64,0,0,1-.46.47.49.49,0,0,0,.42-.11A.27.27,0,0,0,12,7.72Z" transform="translate(-3.23 -4.26)"/></g><g class="cls-12"><path class="cls-6" d="M11.42,8c0-.07-.1-.09-.18-.1L9.53,7.61a2.79,2.79,0,0,0-.58,0,4.26,4.26,0,0,0-.69.22,1.91,1.91,0,0,1-.92,0,1.24,1.24,0,0,0-.27,0h0v0l0,0a.23.23,0,0,0-.14.09L6,8.52S6,8.6,6,8.64a.11.11,0,0,0,.09,0,1.1,1.1,0,0,0,.86-.14,3,3,0,0,1,.26-.24c.09-.06.25-.05.29.06s0,.06,0,.08.15,0,.2-.06.14-.13.19-.07,0,.09,0,.13a.15.15,0,0,0,.27,0c0-.07,0-.19.09-.21s.14.1.23.11a.56.56,0,0,0,.12,0c.12-.05.25,0,.37.09s.28.1.37,0c-.09,0,0-.19.06-.21a.48.48,0,0,1,.28.08,1.84,1.84,0,0,0,1,.07.29.29,0,0,0,.21-.09,1.33,1.33,0,0,1,.06-.12c.06-.07.18-.05.28,0S11.44,8.07,11.42,8Z" transform="translate(-3.23 -4.26)"/></g><path class="cls-3" d="M4.07,7.45a.81.81,0,0,0-.22,0,1,1,0,0,0-.37.12v0a.4.4,0,0,0,0,.15.13.13,0,0,0,.09.11c.07,0,.14-.06.19-.12A.53.53,0,0,1,4,7.49a.44.44,0,0,1,.2,0h.53Z" transform="translate(-3.23 -4.26)"/><path class="cls-3" d="M5,8.26a3.39,3.39,0,0,1,.61-.21H5.54a3.41,3.41,0,0,0-.93.27c-.1.05-.22.12-.24.23a.35.35,0,0,0,0,.17,1.07,1.07,0,0,0,.32.46.13.13,0,0,0,.07,0,.1.1,0,0,0,.09-.11c0-.21-.21-.37-.18-.57S4.86,8.32,5,8.26Z" transform="translate(-3.23 -4.26)"/><g class="cls-12"><path class="cls-5" d="M10.93,6.16c.21-.21.44-.52.3-.78s-.38-.25-.6-.3c-.46-.12-.87-.39-1.32-.53a2.44,2.44,0,0,0-1.76.13l.09-.09a1.21,1.21,0,0,0-.46,1A.62.62,0,0,0,7.24,6a1.49,1.49,0,0,0,.27.23c.15.15.21.37.37.51a1.08,1.08,0,0,0,.64.2l.79.07A1.6,1.6,0,0,0,9.8,7a1.41,1.41,0,0,0,.52-.32Z" transform="translate(-3.23 -4.26)"/><path class="cls-5" d="M6.61,5.52a1.2,1.2,0,0,0-.15-.3.34.34,0,0,0-.29-.15l.14,0a1,1,0,0,0-.57,0,.53.53,0,0,0-.25.19.42.42,0,0,0,0,.38A.94.94,0,0,0,5.7,6a1.71,1.71,0,0,0,.76.44c.11,0,.25,0,.31-.07a.28.28,0,0,0,0-.22C6.73,5.93,6.67,5.73,6.61,5.52Z" transform="translate(-3.23 -4.26)"/><path class="cls-5" d="M12,6.4a.45.45,0,0,0-.54,0h.07l-.17,0a3.81,3.81,0,0,0-.67.24,1.13,1.13,0,0,0-.52.47s0,0,0,0l0,0c.32.17.77,0,1.06.19.11.08.21.22.34.19s.16-.21.2-.33A3.23,3.23,0,0,1,12,6.84.41.41,0,0,0,12,6.4Z" transform="translate(-3.23 -4.26)"/><path class="cls-5" d="M5.34,8.13c-.06,0-.14.06-.14.12a.12.12,0,0,0,0,.08c.11.1.28,0,.41,0s.41-.21.6-.33.27-.16.28-.31a.79.79,0,0,0-.3.12Z" transform="translate(-3.23 -4.26)"/><path class="cls-5" d="M5.3,7.46l-.1,0h0Z" transform="translate(-3.23 -4.26)"/><path class="cls-5" d="M4.35,7.49a.14.14,0,0,0-.1,0,.09.09,0,0,0,0,.11.21.21,0,0,0,.2.11.64.64,0,0,0,.23,0l.53-.2A4.83,4.83,0,0,0,4.35,7.49Z" transform="translate(-3.23 -4.26)"/></g><path class="cls-13" d="M6,6.87a0,0,0,1,0,0,0A0,0,0,1,0,6,6.87Z" transform="translate(-3.23 -4.26)"/><path class="cls-13" d="M4.79,6.38s0,0,0,0A0,0,0,1,0,4.79,6.38Z" transform="translate(-3.23 -4.26)"/><path class="cls-13" d="M5.61,7.94s0,0,0,0A0,0,0,1,0,5.61,7.94Z" transform="translate(-3.23 -4.26)"/><path class="cls-13" d="M5.12,7.24a0,0,0,1,0,0,0A0,0,0,1,0,5.12,7.24Z" transform="translate(-3.23 -4.26)"/><path class="cls-13" d="M7.13,7.94a0,0,0,1,0,0,0S7.15,7.94,7.13,7.94Z" transform="translate(-3.23 -4.26)"/><path class="cls-13" d="M6.8,8.47a0,0,0,1,0,0,0S6.82,8.47,6.8,8.47Z" transform="translate(-3.23 -4.26)"/><path class="cls-13" d="M8.72,8.26s0,0,0,0A0,0,0,1,0,8.72,8.26Z" transform="translate(-3.23 -4.26)"/><path class="cls-13" d="M7.86,7.77s0,0,0,0A0,0,0,1,0,7.86,7.77Z" transform="translate(-3.23 -4.26)"/><path class="cls-13" d="M9.75,8.3a0,0,0,0,0,0,0S9.77,8.3,9.75,8.3Z" transform="translate(-3.23 -4.26)"/><path class="cls-13" d="M8.85,7.81a0,0,0,1,0,0,0S8.87,7.81,8.85,7.81Z" transform="translate(-3.23 -4.26)"/><path class="cls-13" d="M9.79,7.9a0,0,0,1,0,0,0S9.81,7.9,9.79,7.9Z" transform="translate(-3.23 -4.26)"/><path class="cls-13" d="M9.34,7.08a0,0,0,1,0,0,0S9.36,7.08,9.34,7.08Z" transform="translate(-3.23 -4.26)"/><path class="cls-13" d="M11.18,7.44a0,0,0,0,0,0,0A0,0,0,0,0,11.18,7.44Z" transform="translate(-3.23 -4.26)"/><path class="cls-13" d="M5.9,8.1a0,0,0,1,0,0,0S5.92,8.1,5.9,8.1Z" transform="translate(-3.23 -4.26)"/><path class="cls-13" d="M6.63,8.22s0,0,0,0S6.66,8.22,6.63,8.22Z" transform="translate(-3.23 -4.26)"/><path class="cls-13" d="M6.39,8.84a0,0,0,1,0,0,0S6.41,8.84,6.39,8.84Z" transform="translate(-3.23 -4.26)"/><path class="cls-13" d="M3.6,7s0,0,0,0S3.63,7,3.6,7Z" transform="translate(-3.23 -4.26)"/><path class="cls-13" d="M7,7.81s0,0,0,0A0,0,0,1,0,7,7.81Z" transform="translate(-3.23 -4.26)"/><path class="cls-13" d="M7.45,8s0,0,0,0A0,0,0,1,0,7.45,8Z" transform="translate(-3.23 -4.26)"/><path class="cls-13" d="M8.85,7.61a0,0,0,1,0,0,0S8.87,7.61,8.85,7.61Z" transform="translate(-3.23 -4.26)"/><path class="cls-13" d="M8.89,7.49a0,0,0,1,0,0,0S8.91,7.49,8.89,7.49Z" transform="translate(-3.23 -4.26)"/><path class="cls-13" d="M8.89,7.24a0,0,0,1,0,0,0S8.91,7.24,8.89,7.24Z" transform="translate(-3.23 -4.26)"/><path class="cls-13" d="M8.35,7.65s0,0,0,0S8.38,7.65,8.35,7.65Z" transform="translate(-3.23 -4.26)"/><path class="cls-13" d="M7.08,7.65s0,0,0,0S7.11,7.65,7.08,7.65Z" transform="translate(-3.23 -4.26)"/><path class="cls-13" d="M6.84,7.61a0,0,0,1,0,0,0A0,0,0,1,0,6.84,7.61Z" transform="translate(-3.23 -4.26)"/><path class="cls-13" d="M7.29,7.85a0,0,0,0,0,0,.05A0,0,0,0,0,7.29,7.85Z" transform="translate(-3.23 -4.26)"/><path class="cls-13" d="M7.58,7.69h0a0,0,0,1,0,0,0h0S7.6,7.69,7.58,7.69Z" transform="translate(-3.23 -4.26)"/><path class="cls-13" d="M8.15,7.81a0,0,0,1,0,0,0A0,0,0,1,0,8.15,7.81Z" transform="translate(-3.23 -4.26)"/><path class="cls-13" d="M8.68,7.57s0,0,0,0A0,0,0,1,0,8.68,7.57Z" transform="translate(-3.23 -4.26)"/><path class="cls-13" d="M8.48,5.68a0,0,0,1,0,0,0S8.5,5.68,8.48,5.68Z" transform="translate(-3.23 -4.26)"/><path class="cls-13" d="M7.17,5.68a0,0,0,1,0,0,0S7.19,5.68,7.17,5.68Z" transform="translate(-3.23 -4.26)"/><path class="cls-13" d="M6.63,6.46s0,0,0,0S6.66,6.46,6.63,6.46Z" transform="translate(-3.23 -4.26)"/><path class="cls-13" d="M8.23,5.89s0,0,0,0A0,0,0,1,0,8.23,5.89Z" transform="translate(-3.23 -4.26)"/><path class="cls-13" d="M9.66,6.38s0,0,0,0S9.69,6.38,9.66,6.38Z" transform="translate(-3.23 -4.26)"/><path class="cls-14" d="M14.68,10.56l0,0a4.19,4.19,0,0,0-1.9-.46,2.29,2.29,0,0,0-.52,0,2.2,2.2,0,0,1,.3-.31,2.76,2.76,0,0,0-2.38,0,.81.81,0,0,0-.33.25h.07a.75.75,0,0,1,.44.62,2.62,2.62,0,0,1,0,.79,6.82,6.82,0,0,0,0,1.69,1.94,1.94,0,0,0,.31.88.77.77,0,0,0,.83.3.19.19,0,0,0,.12-.09.28.28,0,0,0,0-.13c0-.23-.08-.46-.1-.69a6.42,6.42,0,0,1,.22-2,5.54,5.54,0,0,1,.21-.8A3.44,3.44,0,0,1,12,12a6.69,6.69,0,0,1-.3,2,.29.29,0,0,0,0,.16.28.28,0,0,0,.12.14.87.87,0,0,0,.64.21c.34-.07.51-.44.61-.77.18-.55.29-1.13.51-1.67a2.75,2.75,0,0,1,1-1.36C14.65,10.68,14.72,10.61,14.68,10.56Z" transform="translate(-3.23 -4.26)"/><path class="cls-3" d="M10.17,10.19a.06.06,0,0,1,0-.07l-.05,0Z" transform="translate(-3.23 -4.26)"/><path class="cls-3" d="M10.28,10.07a.1.1,0,0,0-.11,0,.74.74,0,0,1,.24.46,3.26,3.26,0,0,0,.06.7.13.13,0,0,0,0-.09,1.61,1.61,0,0,0-.1-1A.23.23,0,0,0,10.28,10.07Z" transform="translate(-3.23 -4.26)"/><path class="cls-3" d="M10.58,9.89c-.05,0-.08,0-.1.1v0s0,.12,0,.17a2.36,2.36,0,0,1,.25,1.06A3.57,3.57,0,0,0,10.68,10C10.67,10,10.64,9.89,10.58,9.89Z" transform="translate(-3.23 -4.26)"/><path class="cls-3" d="M10.84,9.76l-.08.08.24,1c0-.32,0-.65,0-1a.06.06,0,0,0,0-.06C11,9.73,10.9,9.72,10.84,9.76Z" transform="translate(-3.23 -4.26)"/><path class="cls-3" d="M10.72,9.93l0-.09h0Z" transform="translate(-3.23 -4.26)"/><path class="cls-3" d="M11.51,9.74l0,0a.21.21,0,0,0-.2.06c-.09.46-.16.92-.21,1.39a.27.27,0,0,0,.09-.21,3,3,0,0,1,.34-1.1S11.54,9.77,11.51,9.74Z" transform="translate(-3.23 -4.26)"/><path class="cls-3" d="M11.25,9.79a.2.2,0,0,0,0,.11Z" transform="translate(-3.23 -4.26)"/><path class="cls-3" d="M11.25,9.79l0,0v0Z" transform="translate(-3.23 -4.26)"/><path class="cls-3" d="M11.91,9.79a.17.17,0,0,0-.12,0h0v0a.1.1,0,0,0-.07,0,.4.4,0,0,0-.07.13,2.14,2.14,0,0,0-.16.42,6.83,6.83,0,0,0-.16.81,3.92,3.92,0,0,1,.54-1.13C11.92,10,12,9.86,11.91,9.79Z" transform="translate(-3.23 -4.26)"/><path class="cls-3" d="M12.28,9.84a0,0,0,0,0,0,0l-.09.09.06-.07a3.38,3.38,0,0,0-.64,1.25,11.26,11.26,0,0,1,.71-1.21S12.3,9.85,12.28,9.84Z" transform="translate(-3.23 -4.26)"/><path class="cls-3" d="M12,10.58v0h0v0Z" transform="translate(-3.23 -4.26)"/><path class="cls-3" d="M12,10.58a.33.33,0,0,0,0,.13Z" transform="translate(-3.23 -4.26)"/><path class="cls-3" d="M12.18,10.62c0-.06,0-.14-.08-.15a.09.09,0,0,0-.1.09,1.93,1.93,0,0,1,.18.78c.05,0,.05-.09.05-.15S12.2,10.81,12.18,10.62Z" transform="translate(-3.23 -4.26)"/><path class="cls-3" d="M12.28,10.5a.3.3,0,0,0,0-.13v0h0Z" transform="translate(-3.23 -4.26)"/><path class="cls-3" d="M12.39,10.27s-.07,0-.08.08a4.33,4.33,0,0,0,.1.71.5.5,0,0,0,0-.32.86.86,0,0,1,0-.28.2.2,0,0,0,0-.11S12.42,10.27,12.39,10.27Z" transform="translate(-3.23 -4.26)"/><path class="cls-3" d="M12.61,10.33a2.21,2.21,0,0,1,.09,1,2.24,2.24,0,0,0,.17-.86.29.29,0,0,0-.06-.22A.14.14,0,0,0,12.61,10.33Z" transform="translate(-3.23 -4.26)"/><path class="cls-3" d="M12.6,10.37a.08.08,0,0,1,0,0s0,0,0,0Z" transform="translate(-3.23 -4.26)"/><path class="cls-3" d="M13.3,10.52a.24.24,0,0,0,0-.09.17.17,0,0,0-.11-.11h-.14s0,0,0,0a.09.09,0,0,0,0,.05,6.82,6.82,0,0,1-.1,1.1C13,11.16,13.17,10.84,13.3,10.52Z" transform="translate(-3.23 -4.26)"/><path class="cls-3" d="M13.73,10.63s.09-.07.08-.12a.09.09,0,0,0,0,0,.22.22,0,0,0-.29.06l.11,0a3.36,3.36,0,0,0-.46.93A2,2,0,0,1,13.73,10.63Z" transform="translate(-3.23 -4.26)"/><path class="cls-3" d="M14.05,10.79c.06,0,.12-.06.14-.12s0-.14-.11-.15a.24.24,0,0,0-.19.11l.17-.05a1.11,1.11,0,0,0-.48.48,2.87,2.87,0,0,0-.23.64,3.2,3.2,0,0,1,.27-.52A1.07,1.07,0,0,1,14.05,10.79Z" transform="translate(-3.23 -4.26)"/><path class="cls-3" d="M14.48,10.64v0h0Z" transform="translate(-3.23 -4.26)"/><path class="cls-3" d="M14,11a2.21,2.21,0,0,0-.36.74,2,2,0,0,1,.78-1,.16.16,0,0,0,.1-.11A1.09,1.09,0,0,0,14,11Z" transform="translate(-3.23 -4.26)"/><g class="cls-4"><path class="cls-5" d="M10.68,11.74a.23.23,0,0,0-.12.12,1.08,1.08,0,0,0-.13.29,3.06,3.06,0,0,0,.11,1.36.63.63,0,0,0,.17.23.11.11,0,0,0,.08,0s.06,0,.07-.07a1.3,1.3,0,0,0,0-.52,2.83,2.83,0,0,1,.08-1,.58.58,0,0,0,0-.29A.23.23,0,0,0,10.68,11.74Z" transform="translate(-3.23 -4.26)"/></g><g class="cls-4"><path class="cls-5" d="M12.85,12.32a1,1,0,0,0-.27-.42s-.1-.07-.15,0,0,0,0,.07a2.26,2.26,0,0,0-.1.44c0,.47-.22.93-.23,1.4,0,.05,0,.13.08.13a.19.19,0,0,0,.08,0,1.59,1.59,0,0,0,.58-.94A1.28,1.28,0,0,0,12.85,12.32Z" transform="translate(-3.23 -4.26)"/></g><path class="cls-11" d="M11.69,11.11l-.12.12,0-.05-.07.07a.06.06,0,0,0-.06-.06.16.16,0,0,0-.09,0,.47.47,0,0,0-.15.13l0-.09-.09.08a.81.81,0,0,0,0-.22l-.08.05a.64.64,0,0,0-.05-.23.33.33,0,0,0-.06.19L10.78,11a.53.53,0,0,1-.22.2l0,0s0,.06,0,.05-.05,0-.07-.06,0-.07-.07-.07l0,.2,0-.15a3.27,3.27,0,0,1,0,.54,2.43,2.43,0,0,1,.13-.38.69.69,0,0,1,0,.25l.07-.17a.15.15,0,0,1,0,.09.11.11,0,0,1,0-.08s.06,0,.07,0a.37.37,0,0,1,.1-.17l0,.12a.72.72,0,0,1,.11-.19.7.7,0,0,1,0,.25l.09-.09v.25a.64.64,0,0,1,.06-.18.41.41,0,0,1,0,.22.64.64,0,0,1,.08-.19.44.44,0,0,1,0,.2.5.5,0,0,1,.11-.27l0,.25a.66.66,0,0,1,.09-.27,1.74,1.74,0,0,1,0,.51,5.66,5.66,0,0,1,.13-.56c0,.23-.05.46-.08.69a4.21,4.21,0,0,1,.12-.48.29.29,0,0,1,0,.16l0-.05a.3.3,0,0,1,0,.13v.11a3.26,3.26,0,0,1,.23-.75,1.14,1.14,0,0,0-.15.23A.74.74,0,0,1,11.69,11.11Z" transform="translate(-3.23 -4.26)"/><path class="cls-11" d="M13.78,11.54l-.27.34a.19.19,0,0,1,0-.15,0,0,0,0,1-.06,0,.24.24,0,0,1,0-.08l-.2.24a.28.28,0,0,1,0-.18.14.14,0,0,0-.1.05l.1-.35a1.46,1.46,0,0,0-.17.24s0,0,0,0,0,0-.05,0a.12.12,0,0,1,0-.1.19.19,0,0,0-.1.05.93.93,0,0,0-.14-.36.09.09,0,0,1-.1.08.1.1,0,0,1-.09-.1.12.12,0,0,1-.08.1c-.05,0-.09-.05-.07-.09a.56.56,0,0,0-.21.27,1,1,0,0,1-.13-.28,1.48,1.48,0,0,0,0,.42A.47.47,0,0,0,12,11.4a1.43,1.43,0,0,0,0,.29.13.13,0,0,0,0,.06l.07,0h0V12a1.52,1.52,0,0,1,.09-.28.18.18,0,0,1,0,.16l.05-.08s0,0,0,.05a.73.73,0,0,0,.07-.19.13.13,0,0,1,0,.09,1.51,1.51,0,0,1,.15-.28.41.41,0,0,1,0,.16l.1-.12,0,.21.11-.12a.41.41,0,0,1,0,.19l.08-.09a1.82,1.82,0,0,1,0,.33l.09-.18v.28a.61.61,0,0,1,.09-.18l0,.24.14-.27v.21l.09-.13a.25.25,0,0,0,.16-.08c0,.11,0,.22,0,.32A5.58,5.58,0,0,0,13.78,11.54Zm-1.71.32v0A0,0,0,0,1,12.07,11.86Z" transform="translate(-3.23 -4.26)"/><g class="cls-4"><path class="cls-6" d="M11.55,11.8a4.91,4.91,0,0,1,.78-2,1,1,0,0,1-.59.11l-.15-.07-.08,0c-.07,0-.13.05-.19.05a.5.5,0,0,1-.13,0,.7.7,0,0,0-.14,0l-1,.43a.38.38,0,0,1,.27.25,1.2,1.2,0,0,1,.07.42.08.08,0,0,0,0,.07s.08,0,.1-.06.07-.35.16-.5a.41.41,0,0,1,.41-.19.35.35,0,0,1,.29.33.57.57,0,0,0,0,.26.81.81,0,0,0,.1.09.29.29,0,0,1,.08.21,2.23,2.23,0,0,1-.13.72,2.84,2.84,0,0,0-.05.58c0,.18,0,.36,0,.54a7.3,7.3,0,0,1-.07.94.23.23,0,0,1-.08.16c-.07,0-.15,0-.21-.06l0,.11a.48.48,0,0,1-.17-.26l0,.2a1.73,1.73,0,0,1-.22-.31l0,.1-.15-.2a.87.87,0,0,0,.91.66.14.14,0,0,0,.1,0c.05,0,0-.11,0-.18a4.62,4.62,0,0,1-.09-.65,7,7,0,0,1,0-1.12C11.5,12.15,11.52,12,11.55,11.8Z" transform="translate(-3.23 -4.26)"/></g><g class="cls-4"><path class="cls-6" d="M11.82,10.49h0l-.1,0Z" transform="translate(-3.23 -4.26)"/></g><g class="cls-4"><path class="cls-6" d="M13.44,10.3a3.67,3.67,0,0,0-1.54.18.13.13,0,0,0,0,0l-.09,0a.38.38,0,0,1,.15.2,1.34,1.34,0,0,1,0,.35.69.69,0,0,0,.09.34,1.24,1.24,0,0,1,.56-.78.42.42,0,0,1,.19,0,.48.48,0,0,1,.24.36c0,.14,0,.29.08.43s.06.19.08.28a1.12,1.12,0,0,1,0,.32,9.32,9.32,0,0,1-.42,1.57,1.18,1.18,0,0,1-.34.51.67.67,0,0,1-.41.16.22.22,0,0,1-.16,0,.1.1,0,0,1,0-.15l.12,0s.08,0,0-.07a.39.39,0,0,0-.24,0c-.08,0-.14.12-.1.19a.19.19,0,0,0,.11.09,1,1,0,0,0,.62.13.75.75,0,0,0,.49-.57c.07-.25.07-.52.14-.77s.24-.53.34-.81.11-.37.19-.54a2.72,2.72,0,0,1,1-1.06A5.16,5.16,0,0,0,13.44,10.3Z" transform="translate(-3.23 -4.26)"/></g><g class="cls-4"><path class="cls-6" d="M11.86,14s0-.07,0-.12a9.27,9.27,0,0,1,.33-1.65,1.26,1.26,0,0,0,0-.28.27.27,0,0,0-.14-.23.53.53,0,0,0,0,.28l0-.05a7.29,7.29,0,0,1-.3,2,.1.1,0,0,0,0,.09A.07.07,0,0,0,11.86,14Z" transform="translate(-3.23 -4.26)"/></g><g class="cls-4"><path class="cls-3" d="M11.87,9.94l-.38-.08a1.43,1.43,0,0,0-.46,0,2.79,2.79,0,0,0-1,.37l-.14.05a1.79,1.79,0,0,0,1-.18c.1-.05.24-.11.33,0s.05.26.1.38.22.18.28.3a.56.56,0,0,1,0,.42,2.16,2.16,0,0,0-.12.71s0,0,0,0a4.61,4.61,0,0,0,0,2,.4.4,0,0,1,0,.15.12.12,0,0,1-.1.1h-.05l-.08.05a.36.36,0,0,1-.36,0,1,1,0,0,1-.28-.26.75.75,0,0,0,.44.38.5.5,0,0,0,.32,0,.28.28,0,0,0,.2-.22.51.51,0,0,0,0-.21,5.15,5.15,0,0,1,.23-2.9,4.46,4.46,0,0,1,.2-.55,4.44,4.44,0,0,1,.39-.63A.91.91,0,0,1,11.87,9.94Z" transform="translate(-3.23 -4.26)"/><path class="cls-3" d="M14.5,10.72l-.05,0c-.19-.11-.44,0-.66,0a1.6,1.6,0,0,1-.39-.2.87.87,0,0,0-.88.08,1.41,1.41,0,0,1,.29,0,.55.55,0,0,1,.39.18c.09.1.14.24.27.27s.09,0,.13,0,0,.06,0,.1a1.62,1.62,0,0,1,0,.58c.13-.05.21-.19.29-.3a2.26,2.26,0,0,1,.53-.54S14.51,10.77,14.5,10.72Z" transform="translate(-3.23 -4.26)"/><path class="cls-3" d="M12.49,10.55l0,0-.15,0Z" transform="translate(-3.23 -4.26)"/><path class="cls-3" d="M13.4,12.28v0h0s0-.07,0-.11,0-.08-.06-.07l0,.3h0c-.11.38-.22.77-.34,1.15a1.21,1.21,0,0,1-.45.77.64.64,0,0,1-.47.07.55.55,0,0,0,.58,0,1,1,0,0,0,.4-.62c.16-.49.31-1,.43-1.5C13.44,12.29,13.42,12.29,13.4,12.28Z" transform="translate(-3.23 -4.26)"/></g><path class="cls-15" d="M16,10.1a.72.72,0,0,0-.53-.45,2.21,2.21,0,0,0-.73,0,5,5,0,0,1-1,0l-.61,0,.08-.1a.12.12,0,0,0,0-.11s0-.05-.09-.06a3.74,3.74,0,0,0-.75,0,3,3,0,0,1-.7-.21A1.14,1.14,0,0,0,11.12,9a2.32,2.32,0,0,0-1.38.66L9.29,10c-.06.05-.12.11-.11.18s.1.11.17.13a2.44,2.44,0,0,0,1.38-.23,1.5,1.5,0,0,1,.7-.19l.18,0a.7.7,0,0,0-.13.24.26.26,0,0,0,0,.21.27.27,0,0,0,.12.09,1.09,1.09,0,0,0,.69.08c.3-.06.59-.24.88-.17s.39.25.61.3.31,0,.47,0a2,2,0,0,1,.49.19.5.5,0,0,0,.5,0c.09-.06.14-.15.23-.19a1.2,1.2,0,0,1,.2,0A.44.44,0,0,0,16,10.1Z" transform="translate(-3.23 -4.26)"/><g class="cls-4"><path class="cls-6" d="M10.67,10a.06.06,0,0,0-.06,0,.11.11,0,0,0-.08,0,1.47,1.47,0,0,1-.57.22,4.21,4.21,0,0,1-.5,0,.18.18,0,0,1-.13,0,.08.08,0,0,1,0-.12.24.24,0,0,0-.09.08l0,0a.13.13,0,0,0,.05.14.38.38,0,0,0,.15.05c.68.09,1.3-.41,2-.44A1.51,1.51,0,0,0,10.67,10Z" transform="translate(-3.23 -4.26)"/></g><path class="cls-3" d="M13.13,9.6A2.18,2.18,0,0,1,11.8,10a.31.31,0,0,0-.19,0,.11.11,0,0,0-.07.15c.16-.11.38-.06.57-.07a1.94,1.94,0,0,0,1-.44Z" transform="translate(-3.23 -4.26)"/><g class="cls-4"><path class="cls-3" d="M13.19,9.59h0a2.27,2.27,0,0,1-1.36.39h-.12a.33.33,0,0,0-.15.14.3.3,0,0,0,0,.15.21.21,0,0,0,.13.2.65.65,0,0,0,.24.06.25.25,0,0,0,.12,0s0-.06.06-.09a.5.5,0,0,1,.31-.2c.12,0,.24-.05.36-.1s.44-.36.69-.49Z" transform="translate(-3.23 -4.26)"/></g><g class="cls-4"><path class="cls-11" d="M11.38,9a.45.45,0,0,0-.28,0h.17a2.62,2.62,0,0,0-1.62.78.14.14,0,0,0-.06.13.11.11,0,0,0,.07.06.67.67,0,0,0,.5,0c.15-.07.29-.17.44-.25s.56-.23.81-.4a.27.27,0,0,0,.08-.07C11.54,9.17,11.47,9.06,11.38,9Z" transform="translate(-3.23 -4.26)"/></g><g class="cls-4"><path class="cls-5" d="M11.28,9.07l0,0h-.06a.37.37,0,0,0-.18,0,1.31,1.31,0,0,0-.28.09,1.44,1.44,0,0,0-.6.4s0,.06,0,.09a.09.09,0,0,0,.1,0,2.62,2.62,0,0,0,.48-.22l.55-.3S11.29,9.1,11.28,9.07Z" transform="translate(-3.23 -4.26)"/></g><path class="cls-9" d="M12.85,9.3a2,2,0,0,1-.95-.13l-.36-.12.12.09a.21.21,0,0,1,.06.2c0,.08-.07.16-.06.24a.24.24,0,0,0,.15.16,1,1,0,0,0,.81-.13L13,9.4s.06,0,.06-.08S12.89,9.3,12.85,9.3Z" transform="translate(-3.23 -4.26)"/><g class="cls-4"><path class="cls-11" d="M15.61,9.78a.9.9,0,0,0-.63-.1l-.69.07a1.31,1.31,0,0,1-.34,0,2.09,2.09,0,0,0-.43,0,.4.4,0,0,0-.33.12l0,0s0,0,.05,0a4.2,4.2,0,0,0,.79.13,3.53,3.53,0,0,0,.46,0,3,3,0,0,1,.73.07,1.1,1.1,0,0,0,.31,0,.24.24,0,0,0,.21-.21A.28.28,0,0,0,15.61,9.78Z" transform="translate(-3.23 -4.26)"/></g><g class="cls-4"><path class="cls-9" d="M14.45,10l-.84-.16-.14,0a.42.42,0,0,0-.25,0h.06a.05.05,0,0,0,0,.08.15.15,0,0,0,.09.06,1,1,0,0,0,.41.1H14a1.19,1.19,0,0,0,.46,0s.07,0,.06-.06S14.48,10,14.45,10Z" transform="translate(-3.23 -4.26)"/></g><g class="cls-10"><path class="cls-6" d="M15.42,10.31s-.05-.05-.09-.06a4.37,4.37,0,0,0-.52-.12.32.32,0,0,0-.3.07,1,1,0,0,1-.62,0L13.11,10l-.06,0a.1.1,0,0,0-.09,0s-.05.05,0,.07l0,0,.31.16a1,1,0,0,0,.65.16l.25-.06c.15,0,.27.11.4.16a.83.83,0,0,0,.8-.2S15.43,10.34,15.42,10.31Z" transform="translate(-3.23 -4.26)"/></g><g class="cls-4"><path class="cls-6" d="M12.56,10.35a.84.84,0,0,1-.14.06.11.11,0,0,1-.13-.06.22.22,0,0,1-.16.05h-.22a.15.15,0,0,1-.09,0s0-.06,0-.08l-.12.08a.41.41,0,0,1,0-.22H11.6l0,0c-.09,0-.1.15-.05.23a.38.38,0,0,0,.24.13.83.83,0,0,0,.58,0l.19-.1A1.17,1.17,0,0,1,13,10.3.62.62,0,0,0,12.56,10.35Z" transform="translate(-3.23 -4.26)"/></g><path class="cls-9" d="M13.91,10.7h0Z" transform="translate(-3.23 -4.26)"/><path class="cls-9" d="M14,10.7h0Z" transform="translate(-3.23 -4.26)"/><path class="cls-9" d="M13.73,10.63l0,0Z" transform="translate(-3.23 -4.26)"/><path class="cls-9" d="M13.73,10.63Z" transform="translate(-3.23 -4.26)"/><path class="cls-9" d="M16,10.11l-.09.27a.23.23,0,0,1-.08.11s-.1,0-.08-.07-.06,0-.09.06-.21,0-.28.12-.07.17-.1.25l.06,0a.38.38,0,0,1,.26-.2,1.17,1.17,0,0,0,.27,0,.32.32,0,0,0,.15-.22A.76.76,0,0,0,16,10.11Z" transform="translate(-3.23 -4.26)"/><path class="cls-9" d="M15.09,10.92h.07s.05,0,.07-.06l-.19.06Z" transform="translate(-3.23 -4.26)"/><path class="cls-9" d="M14.53,10.66l-.09,0s0,0,0,0a.29.29,0,0,0-.15-.12.32.32,0,0,0-.27,0,1.29,1.29,0,0,1-.16.09.2.2,0,0,1-.13,0,.33.33,0,0,0,.16.07.86.86,0,0,1,.59,0l0,0,.07,0a1.08,1.08,0,0,0,.5.15h0a.84.84,0,0,1-.43-.19A.24.24,0,0,0,14.53,10.66Z" transform="translate(-3.23 -4.26)"/><path class="cls-16" d="M6.38,14.19c0,.05,0,.1,0,.15A.11.11,0,0,0,6.38,14.19Z" transform="translate(-3.23 -4.26)"/><path class="cls-16" d="M6.53,14.43v-.18h0Z" transform="translate(-3.23 -4.26)"/><path class="cls-16" d="M5.55,11.94a3.41,3.41,0,0,1,.37,2.4,1.92,1.92,0,0,1-.32-.83,1.24,1.24,0,0,0,.11.76c-.27-.58-.57-1.16-.89-1.73a5.36,5.36,0,0,1,.47,1.89,2.46,2.46,0,0,0-.91-1.49A2.24,2.24,0,0,1,5,14.56l.06.06a.4.4,0,0,0,.61,0,.76.76,0,0,1,.12-.19c.1-.08.24,0,.37,0a.3.3,0,0,0,.18-.06A3.85,3.85,0,0,0,5.55,11.94Z" transform="translate(-3.23 -4.26)"/><path class="cls-16" d="M5.55,11.94a2,2,0,0,0-.19-.31A3.21,3.21,0,0,1,5.55,11.94Z" transform="translate(-3.23 -4.26)"/><path class="cls-16" d="M5,14.61v0l0-.06Z" transform="translate(-3.23 -4.26)"/><path class="cls-16" d="M5,14.5,4.78,14A1.55,1.55,0,0,0,5,14.5Z" transform="translate(-3.23 -4.26)"/><path class="cls-16" d="M6.31,14.52c0-.06,0-.12.05-.18h0Z" transform="translate(-3.23 -4.26)"/><path class="cls-16" d="M13.81,13.87l-.17.19A1,1,0,0,0,13.81,13.87Z" transform="translate(-3.23 -4.26)"/><path class="cls-16" d="M11.23,14.51a1.16,1.16,0,0,0,0-.18l0,.06Z" transform="translate(-3.23 -4.26)"/><path class="cls-16" d="M9.42,14.4c0-.2,0-.39,0-.59,0,.12-.06.25-.1.37Z" transform="translate(-3.23 -4.26)"/><path class="cls-16" d="M10.29,14.64l0-.27,0,.06Z" transform="translate(-3.23 -4.26)"/><path class="cls-16" d="M7.9,14.76v-.12a.14.14,0,0,1,0,.06Z" transform="translate(-3.23 -4.26)"/><path class="cls-16" d="M10.33,14.37a.5.5,0,0,1,.11-.1.54.54,0,0,0-.07-.13Z" transform="translate(-3.23 -4.26)"/><path class="cls-16" d="M10.44,14.27a.59.59,0,0,1,.07.26.1.1,0,0,0,0,0l-.05-.24Z" transform="translate(-3.23 -4.26)"/><path class="cls-16" d="M11.4,12.1a6.33,6.33,0,0,0-.49,2c-.05-.11-.24,0-.27.11a1,1,0,0,1-.09.3l.14.58a5,5,0,0,0,.54-.67A10.31,10.31,0,0,1,11.4,12.1Z" transform="translate(-3.23 -4.26)"/><path class="cls-16" d="M9.08,14.11V12.4l-.41,1.68-.13-3.24c-.15.05-.18.25-.19.41,0,1.07,0,2.13-.08,3.2l-.39-1.87v2.06h0c0-.16.1-.32.14-.48a.94.94,0,0,0,.16.52c.12.14.38.17.47,0s0-.34.11-.46l.38.37a2.09,2.09,0,0,0,.17-.41c0-.13-.09-.25-.14-.38A.82.82,0,0,0,9.08,14.11Z" transform="translate(-3.23 -4.26)"/><path class="cls-16" d="M10,14.48a8.68,8.68,0,0,0-.69-3.13q.09,1.23.09,2.46l0-.17a6.93,6.93,0,0,0,.16.91.42.42,0,0,0,.14.24.25.25,0,0,0,.27,0,.62.62,0,0,1,0,.13v-.13a.57.57,0,0,0,.13-.14l.12-.18a8.67,8.67,0,0,0-.12-1.24A8.08,8.08,0,0,0,10,14.48Z" transform="translate(-3.23 -4.26)"/><path class="cls-16" d="M14.1,13a7.43,7.43,0,0,0-1.27,1.68c.07-1.28,1.56-2,2-3.23a1.44,1.44,0,0,0-1,.75,20.66,20.66,0,0,0-1.32,2.34,13.77,13.77,0,0,0,.61-1.36.27.27,0,0,0-.34,0,.89.89,0,0,0-.19.31L12,14.86a.27.27,0,0,0-.37-.16,13.83,13.83,0,0,1,.17-1.92,4.64,4.64,0,0,0-.56,1.55l0,0c.16.16,0,.57.21.59a.58.58,0,0,0,.17-.06.29.29,0,0,1,.36.3l.41-.32a.48.48,0,0,0,.72.15.2.2,0,0,0,.09-.17c0-.07-.1-.12-.15-.07.17-.22.34-.44.53-.65a.77.77,0,0,1-.31.19Z" transform="translate(-3.23 -4.26)"/><polygon class="cls-16" points="3.15 9.94 3.15 9.94 3.15 9.94 3.15 9.94"/><path class="cls-16" d="M13.81,13.87a10.84,10.84,0,0,1,1-.95C14.31,13,14.11,13.48,13.81,13.87Z" transform="translate(-3.23 -4.26)"/><path class="cls-16" d="M7.4,14.12a.81.81,0,0,1,0,.27l.21.3c0,.06.1.12.17.11s.09-.05.11-.1a11.5,11.5,0,0,1-.7-2.15C7.28,13.07,7.35,13.59,7.4,14.12Z" transform="translate(-3.23 -4.26)"/><path class="cls-16" d="M6.44,13.22c0-.07,0-.14,0-.2Z" transform="translate(-3.23 -4.26)"/><path class="cls-16" d="M6.38,14.19a.24.24,0,0,1,.14.05c0-.34-.06-.68-.08-1A4,4,0,0,1,6.38,14.19Z" transform="translate(-3.23 -4.26)"/><path class="cls-16" d="M6.89,14.38c-.11-.34-.23-.68-.34-1,0,.3,0,.6,0,.9.18.15.28.5.49.4s.11-.18.14-.29L7,14C6.93,14.15,6.91,14.26,6.89,14.38Z" transform="translate(-3.23 -4.26)"/><path class="cls-16" d="M7.16,14.36l.12.18a.28.28,0,0,0,.11-.15l-.13-.18A.27.27,0,0,0,7.16,14.36Z" transform="translate(-3.23 -4.26)"/><path class="cls-17" d="M7.24,12a5.65,5.65,0,0,1,.52,2.43.77.77,0,0,1-.07.37,1.11,1.11,0,0,0-.25-.61.79.79,0,0,1,.06.52c0,.17-.3.28-.42.15s0-.38-.19-.49l-.08.54a.93.93,0,0,0-.15-.42l0,.31a1.92,1.92,0,0,0-.39-1.25,3.09,3.09,0,0,1,.15,1.09l-.18-.43a3.78,3.78,0,0,0-.57-1.33,1.21,1.21,0,0,1,0-.42c0-.34.14-.73-.08-1a.28.28,0,0,0-.11-.08c-.14,0-.23.16-.19.29a1.93,1.93,0,0,0,.22.36.57.57,0,0,1,0,.58l0,0A6.2,6.2,0,0,0,4.44,11a.38.38,0,0,0-.14-.11c-.14,0-.23.2-.15.32a.84.84,0,0,0,.38.25,1.26,1.26,0,0,1,.69,1c-.17,0-.27-.19-.4-.29s-.38-.13-.43,0,.12.25.26.27a1.46,1.46,0,0,1,.42,0,.62.62,0,0,1,.32.3l.21.32,0,.08a3.2,3.2,0,0,1,.43,1.55.49.49,0,0,1-.23-.28.66.66,0,0,1,0,.48c-.12-.13-.25-.25-.38-.37l.17.57a.38.38,0,0,1,.24.07s.06.11.11.15.19,0,.22-.11a.81.81,0,0,0,0-.27.27.27,0,0,1,.1-.24v0l0,.06a.36.36,0,0,1,0,.1l0,0a.15.15,0,0,0,.18.07s.06-.06.1-.07.14.06.17.13a.29.29,0,0,0,.11.2l.12-.14a.61.61,0,0,0,.2.19L7.44,15l.17.23L7.68,15c.06.06,0,.18.08.25s.21.06.27,0a.47.47,0,0,0,.05-.31A7.29,7.29,0,0,0,7.24,12Zm-1,2.33a1.31,1.31,0,0,1,.06.27Z" transform="translate(-3.23 -4.26)"/><path class="cls-17" d="M6.32,14.76l0,.15h0l0-.15Z" transform="translate(-3.23 -4.26)"/><path class="cls-17" d="M5.61,15.16h0L5.49,15C5.42,15,5.51,15.14,5.61,15.16Z" transform="translate(-3.23 -4.26)"/><path class="cls-17" d="M5.64,15.18v0h0Z" transform="translate(-3.23 -4.26)"/><path class="cls-17" d="M9.08,11.36a4.6,4.6,0,0,1,.35,1.54,15.42,15.42,0,0,1-.24,1.9,7.69,7.69,0,0,0-.29-.93,5.63,5.63,0,0,1-.27-2,.79.79,0,0,1,.16-.5c.08-.09.22-.17.2-.3S8.8,10.92,8.7,11a.61.61,0,0,0-.2.29,3.35,3.35,0,0,0-.13-.77c0-.08-.1-.19-.18-.16s-.08.11-.08.17a2.07,2.07,0,0,0,.27.7.77.77,0,0,1,0,.72A.52.52,0,0,0,8,11.52a.36.36,0,0,0,.22.37A.23.23,0,0,1,8.4,12a.21.21,0,0,1,0,.1,13.74,13.74,0,0,1,.26,2.79l.2.11a.67.67,0,0,0,.07.18l0,.06v0a.73.73,0,0,0,.36.31l0-.1,0,0A5.83,5.83,0,0,0,9.08,11.36Z" transform="translate(-3.23 -4.26)"/><path class="cls-17" d="M9.4,15.25l0,.11A.11.11,0,0,0,9.4,15.25Z" transform="translate(-3.23 -4.26)"/><path class="cls-17" d="M12.33,13.64a7.83,7.83,0,0,1-.57,1.51.29.29,0,0,1,0,.09c.23-.08.33-.34.41-.56a10.41,10.41,0,0,1,1.65-3A4.28,4.28,0,0,0,12.33,13.64Z" transform="translate(-3.23 -4.26)"/><path class="cls-17" d="M11.73,15.2l0,0a.31.31,0,0,0-.07-.09A.33.33,0,0,0,11.73,15.2Z" transform="translate(-3.23 -4.26)"/><path class="cls-17" d="M11.75,14.52a.75.75,0,0,0-.1-.66,6.36,6.36,0,0,1-.44,1,1,1,0,0,1-.3.36.33.33,0,0,1-.43-.06.48.48,0,0,1-.06-.29l0-2.28a4.74,4.74,0,0,0-.19,2.27.43.43,0,0,0,.08.47.41.41,0,0,0,.5.06,1.2,1.2,0,0,0,.23-.22.61.61,0,0,1,.39-.23.4.4,0,0,1,.23.08A1.43,1.43,0,0,1,11.75,14.52Z" transform="translate(-3.23 -4.26)"/><path class="cls-17" d="M12.78,14.72l-.28-.27a2,2,0,0,0,.3.67,5.53,5.53,0,0,1,1.87-2,2,2,0,0,0-1.11.6A5.58,5.58,0,0,0,12.78,14.72Z" transform="translate(-3.23 -4.26)"/><path class="cls-17" d="M12.54,14.24a2.62,2.62,0,0,0-.18.56Z" transform="translate(-3.23 -4.26)"/><path class="cls-17" d="M12.34,14.9s0-.07,0-.1L12.3,15Z" transform="translate(-3.23 -4.26)"/><path class="cls-17" d="M15.38,12.92a2.2,2.2,0,0,1-.76-.43l.41-.13a.12.12,0,0,0,.08,0,.19.19,0,0,0,0-.08c0-.15-.14-.32-.3-.3a.34.34,0,0,0-.24.21.75.75,0,0,1-.18.28c-.08.07-.24.08-.29,0s0-.2,0-.3a.21.21,0,0,0-.22-.16.2.2,0,0,0-.15.22.44.44,0,0,0,0,.1c0,.15-.12.28-.24.38a3.63,3.63,0,0,0-1,1.59,7.62,7.62,0,0,1,.64-1.11,1.41,1.41,0,0,1,.39-.45,1,1,0,0,1,.73-.12,3.16,3.16,0,0,1,.7.27.59.59,0,0,1,.24.17c.1.13.09.34.23.42a.21.21,0,0,0,.3-.18C15.77,13.06,15.55,13,15.38,12.92Z" transform="translate(-3.23 -4.26)"/></svg>