<svg xmlns="http://www.w3.org/2000/svg" width="59.195" height="45.97" viewBox="0 0 59.195 45.97">
  <path id="Path_3099" data-name="Path 3099" d="M491.3,253.205a10.878,10.878,0,0,0-10.937-10.794,10.716,10.716,0,0,0-1.445.1l-.094-1.455c0-1.681-4.808-3.062-11.05-3.294V231.4c0-.552-.8-1-1.795-1s-1.795.449-1.795,1v6.371c-6.242.227-11.055,1.612-11.055,3.294L452.1,257.11,441.419,247.9a5.784,5.784,0,0,0-.656-7.214l-8.654,9.492a5.752,5.752,0,0,0,7.071.113L451.5,266.533l-.449,6.943c0,1.6,6.681,2.894,14.931,2.894s14.931-1.3,14.931-2.894l-.217-3.333C486.32,269,491.3,258.817,491.3,253.205Zm-10.789,14.152L479.1,245.3a8.238,8.238,0,0,1,1.267-.108,8.1,8.1,0,0,1,8.161,8.013C488.524,257.347,484.7,266.252,480.516,267.357Z" transform="translate(-432.11 -230.4)" fill="#24a77e"/>
</svg>
