<svg id="Layer_1" data-name="Layer 1" xmlns="http://www.w3.org/2000/svg" viewBox="0 0 9.67 8.29"><defs><style>.cls-1{fill:#562f26;}.cls-2{fill:#064425;}.cls-3{fill:#f9bd55;}.cls-4{fill:#e5670a;}.cls-5{fill:#e25f05;}.cls-6{opacity:0.7;}.cls-7{fill:#b74b02;}.cls-8{fill:#ef990f;}.cls-9{fill:#d8a20b;}.cls-10{opacity:0.4;}.cls-11{fill:#e2480c;}.cls-12{fill:#963f04;}.cls-13{opacity:0.5;}.cls-14{fill:#fff;}.cls-15{opacity:0.2;}.cls-16{fill:#b52a04;}.cls-17{fill:#cbcad8;}.cls-18{fill:#534741;}.cls-19{fill:#efb72b;}.cls-20{fill:#ef4307;}.cls-21{opacity:0.3;}.cls-22{fill:#6d1703;}.cls-23{fill:#377246;}.cls-24{fill:#87db75;}</style></defs><path class="cls-1" d="M13.92,11.46a.33.33,0,0,0-.17-.18,2.31,2.31,0,0,0-.92-.29,1.54,1.54,0,0,1-.61-.12c-.12-.06-.21-.16-.33-.21a2.32,2.32,0,0,0-.53,0c-.35,0-.62-.34-1-.41s-.67.09-1,.06c-.15,0-.29-.06-.44-.08a1.63,1.63,0,0,0-.49,0A7.48,7.48,0,0,0,7,10.68L6,11.11h0l0,0,0,0a.86.86,0,0,0-.33.2.33.33,0,0,0-.08.34l-.12.16a.85.85,0,0,0-.17.29.62.62,0,0,0,.38.63,4,4,0,0,0,.78.19c.15,0,.33.18.24.31s0,0,0,.08.05,0,.08.06l1,.27a1.49,1.49,0,0,0,.59.09,2.09,2.09,0,0,0,.54-.21,2.49,2.49,0,0,1,1.29-.22.6.6,0,0,1,.48.21,1.43,1.43,0,0,0,.14.2.39.39,0,0,0,.19.06,1.41,1.41,0,0,0,.93,0c.21-.11.37-.32.6-.38s.52,0,.68-.16.1-.29.21-.39.13-.09.17-.16-.06-.36,0-.54.17-.22.28-.31S14,11.59,13.92,11.46Z" transform="translate(-4.79 -5.76)"/><path class="cls-2" d="M8,11.2a1.6,1.6,0,0,0,0-.23l-.14,0Z" transform="translate(-4.79 -5.76)"/><path class="cls-2" d="M7.79,11c-.13-.15-.25-.3-.37-.46a1.73,1.73,0,0,1,.21.53l.29,0-.14-.3Z" transform="translate(-4.79 -5.76)"/><path class="cls-2" d="M7.42,10.51a1.89,1.89,0,0,0-.2-.27Z" transform="translate(-4.79 -5.76)"/><path class="cls-2" d="M8.33,11s0-.06,0-.09h0S8.33,11,8.33,11Z" transform="translate(-4.79 -5.76)"/><path class="cls-2" d="M9.86,10.65l.24,0v-1Z" transform="translate(-4.79 -5.76)"/><path class="cls-2" d="M8.18,10.88,8,10.43a2,2,0,0,1,.05.54l.26-.05A3.38,3.38,0,0,0,8,10.11,2.9,2.9,0,0,1,8.18,10.88Z" transform="translate(-4.79 -5.76)"/><path class="cls-2" d="M9.52,10.68a6.11,6.11,0,0,1-.22-.94l-.09.9c-.05-.23-.11-.46-.18-.68a3.35,3.35,0,0,1,0,.71l-.1-.22a.12.12,0,0,0-.05.1.91.91,0,0,0,0-.46,1.3,1.3,0,0,0-.12.55A5.71,5.71,0,0,0,8.38,8.8a4.75,4.75,0,0,1,.15,1.76A4.33,4.33,0,0,0,8.27,9.5a2.85,2.85,0,0,1,.08,1.42l1.37-.24-.06-.19Z" transform="translate(-4.79 -5.76)"/><path class="cls-2" d="M10.72,10.41c0-.14.08-.29.11-.44A1.67,1.67,0,0,0,10.72,10.41Z" transform="translate(-4.79 -5.76)"/><path class="cls-2" d="M10.3,10.58l.17,0c.11-.62.21-1.24.31-1.85Z" transform="translate(-4.79 -5.76)"/><path class="cls-2" d="M9.79,11l.07-.35-.14,0A3,3,0,0,1,9.79,11Z" transform="translate(-4.79 -5.76)"/><path class="cls-2" d="M10.1,10.8l0-.2h0Z" transform="translate(-4.79 -5.76)"/><path class="cls-2" d="M10.7,10.6l.09-.11h-.08S10.7,10.57,10.7,10.6Z" transform="translate(-4.79 -5.76)"/><path class="cls-2" d="M10.4,11c.07,0,.15,0,.18-.12s.07-.23.11-.34l-.22,0Z" transform="translate(-4.79 -5.76)"/><path class="cls-2" d="M10.69,10.51h0a.28.28,0,0,1,0-.09Z" transform="translate(-4.79 -5.76)"/><path class="cls-2" d="M10.14,10.6l.16,0,0-.74Z" transform="translate(-4.79 -5.76)"/><path class="cls-2" d="M8.34,11.94l0-.34-.14,0Z" transform="translate(-4.79 -5.76)"/><path class="cls-2" d="M8.1,11.61c-.13-.21-.25-.43-.37-.65a3.08,3.08,0,0,1,.21.75l.29-.07-.14-.42Z" transform="translate(-4.79 -5.76)"/><path class="cls-2" d="M7.73,11c-.06-.13-.13-.26-.2-.38C7.59,10.71,7.66,10.84,7.73,11Z" transform="translate(-4.79 -5.76)"/><path class="cls-2" d="M8.64,11.66s0-.08,0-.13h0S8.64,11.62,8.64,11.66Z" transform="translate(-4.79 -5.76)"/><path class="cls-2" d="M10.17,11.16l.23-.05V9.67C10.32,10.17,10.25,10.66,10.17,11.16Z" transform="translate(-4.79 -5.76)"/><path class="cls-2" d="M8.49,11.48l-.17-.63a3.78,3.78,0,0,1,0,.75l.26-.06a6.13,6.13,0,0,0-.28-1.14A5.5,5.5,0,0,1,8.49,11.48Z" transform="translate(-4.79 -5.76)"/><path class="cls-2" d="M9.82,11.2c-.09-.43-.16-.87-.21-1.31l-.09,1.26q-.07-.48-.18-1a6.7,6.7,0,0,1-.05,1l-.1-.31a.19.19,0,0,0,0,.13,1.67,1.67,0,0,0,0-.63,2.37,2.37,0,0,0-.12.76,11,11,0,0,0-.29-2.57A9.26,9.26,0,0,1,8.84,11a9.22,9.22,0,0,0-.26-1.5,5.54,5.54,0,0,1,.08,2L10,11.2,10,10.93Z" transform="translate(-4.79 -5.76)"/><path class="cls-2" d="M11,10.82c0-.2.08-.4.11-.61A3.12,3.12,0,0,0,11,10.82Z" transform="translate(-4.79 -5.76)"/><path class="cls-2" d="M10.61,11.05l.17,0,.31-2.59Z" transform="translate(-4.79 -5.76)"/><path class="cls-2" d="M10.1,11.65l.07-.49-.14,0C10.06,11.34,10.08,11.49,10.1,11.65Z" transform="translate(-4.79 -5.76)"/><path class="cls-2" d="M10.41,11.37l0-.28,0,0Z" transform="translate(-4.79 -5.76)"/><path class="cls-2" d="M11,11.09l.09-.16L11,11C11,11,11,11.05,11,11.09Z" transform="translate(-4.79 -5.76)"/><path class="cls-2" d="M10.71,11.6c.07.08.15-.06.18-.17S11,11.12,11,11l-.22,0Z" transform="translate(-4.79 -5.76)"/><path class="cls-2" d="M11,11h0a.62.62,0,0,1,0-.13Z" transform="translate(-4.79 -5.76)"/><path class="cls-2" d="M10.45,11.09l.16,0,0-1Z" transform="translate(-4.79 -5.76)"/><path class="cls-3" d="M10.37,7.34s0,0,0-.07a.07.07,0,0,0-.06,0l-.63,0a1,1,0,0,0-.42,0A.36.36,0,0,0,9,7.54a15.93,15.93,0,0,1-.09,3.78.58.58,0,0,0,.06.45.47.47,0,0,0,.25.13,1.7,1.7,0,0,0,.9-.18.59.59,0,0,0,.19-.11.57.57,0,0,0,.1-.39A13.3,13.3,0,0,1,10.37,7.34Z" transform="translate(-4.79 -5.76)"/><path class="cls-4" d="M10.2,8.26a1.27,1.27,0,0,1,0-.28,1,1,0,0,0,0-.24,0,0,0,0,0,0,0h0A7.76,7.76,0,0,0,9,7.74v.15a.06.06,0,0,1,0,0,.1.1,0,0,0,0,0,.56.56,0,0,0,.42.15.49.49,0,0,1,.2,0c.09,0,.14.1.17.19a1.07,1.07,0,0,1,.12.58c0,.12,0,.23-.06.35s0,.2,0,.3l.09,1a.12.12,0,0,0-.14.11.25.25,0,0,0,.15.17,1.42,1.42,0,0,1,.28.22s0,0,.05,0v0a1.14,1.14,0,0,0,0-.41A16.78,16.78,0,0,1,10.2,8.26Z" transform="translate(-4.79 -5.76)"/><path class="cls-5" d="M10.09,8.62a1.06,1.06,0,0,0,0-.19s0-.06-.05,0l0,0a.06.06,0,0,1-.08,0,.28.28,0,0,1-.08.11h0s0-.07-.06-.09a.07.07,0,0,0-.08,0s0,.06-.07,0l-.05,0-.06,0a.05.05,0,0,1-.08,0s-.05,0-.07,0l-.05-.07s0-.06-.06-.06h0s0,0,0,0c0-.17-.05-.33-.07-.5v0c0,.25,0,.5.06.74l.07,0,.05.21a.28.28,0,0,0,.06-.08,1.31,1.31,0,0,1,.06.27c.06,0,.06-.11.09-.18s0,0,0,0a0,0,0,0,1,0,0,.07.07,0,0,1,0,.06.08.08,0,0,1,.09,0l0,0s.05,0,.06-.05l0-.11s.05,0,.05.07,0,.09,0,.07,0,0,0,0a.12.12,0,0,0,0-.09.07.07,0,0,1,0,0,.05.05,0,0,1,.05,0l0,0,.12.3s0,0,0,0,0,0,0,0l0-.14v0l0-.35Z" transform="translate(-4.79 -5.76)"/><path class="cls-5" d="M10.22,8.73v.08A.11.11,0,0,0,10.22,8.73Z" transform="translate(-4.79 -5.76)"/><g class="cls-6"><path class="cls-7" d="M10.37,10.52c-.06-.53-.13-1.06-.15-1.6a9.73,9.73,0,0,1,0-1.08.07.07,0,0,0,0,0h0a5.57,5.57,0,0,0-1.08,0h0V7.73a.09.09,0,0,0,0,.07h0s0,0,0,0v0s0,0,0,0l.07,0A1.08,1.08,0,0,0,9.75,8h.09a.1.1,0,0,1,.07,0,.76.76,0,0,1,.19.51,3.71,3.71,0,0,1,0,.47,2,2,0,0,0,0,.25,2.64,2.64,0,0,0,0,.28c0,.26.07.52.1.78l.06.48s0,0,0,0,0,0,0,0A.42.42,0,0,0,10.37,10.52Z" transform="translate(-4.79 -5.76)"/></g><path class="cls-8" d="M13.07,7.11a11.1,11.1,0,0,0-2-.52,10.92,10.92,0,0,0-4.82-.14H6.07a.47.47,0,0,0,.15.39,1.26,1.26,0,0,0,.36.24A12,12,0,0,0,12,7.9a3.08,3.08,0,0,0,.75-.09,1.56,1.56,0,0,0,.47-.22.3.3,0,0,0,.15-.2C13.35,7.26,13.2,7.16,13.07,7.11Z" transform="translate(-4.79 -5.76)"/><path class="cls-3" d="M13.32,7.18a4.47,4.47,0,0,0-2-1.07,11.87,11.87,0,0,0-2.23-.32,8.29,8.29,0,0,0-1.65.06,2,2,0,0,0-1.4.67A2,2,0,0,0,7,7c.33.09.67.14,1,.22l.66.17a6.63,6.63,0,0,0,1.26.11l1.45,0,1,0a2.28,2.28,0,0,0,.94-.13.21.21,0,0,0,.13-.11A.25.25,0,0,0,13.32,7.18Z" transform="translate(-4.79 -5.76)"/><path class="cls-9" d="M9,7.59v0Z" transform="translate(-4.79 -5.76)"/><g class="cls-10"><path class="cls-11" d="M13.2,7.35l-.11-.23.19.24a1.31,1.31,0,0,0-.78-.83,6,6,0,0,0-2.59-.65,7,7,0,0,0-2.78,0,1.48,1.48,0,0,0-1,.55l.45-.23a1.12,1.12,0,0,0-.3.27,2.55,2.55,0,0,1,.6-.35,1.8,1.8,0,0,0-.51.44,1.77,1.77,0,0,1,.55-.35,1.87,1.87,0,0,0-.46.38,2.76,2.76,0,0,1,.64-.43,1.87,1.87,0,0,0-.5.43,2.38,2.38,0,0,1,.54-.35,3.51,3.51,0,0,0-.42.44,5,5,0,0,1,.46-.34,3,3,0,0,0-.35.45l.47-.4A1.86,1.86,0,0,0,7,6.84a3.66,3.66,0,0,1,.58-.46,1.37,1.37,0,0,0-.39.47,2.85,2.85,0,0,1,.47-.45,3.17,3.17,0,0,0-.4.49,2.79,2.79,0,0,1,.48-.43A6,6,0,0,0,7.36,7a3.05,3.05,0,0,1,.48-.47A4.6,4.6,0,0,0,7.52,7L8,6.5,7.71,7a5.49,5.49,0,0,1,.4-.43L7.84,7l.42-.48c-.07.16-.15.31-.23.46l.32-.39-.2.47.3-.38a2.06,2.06,0,0,0-.21.48l.28-.42-.18.47c.11-.16.22-.32.32-.48-.06.16-.12.33-.17.5l.29-.49a1.49,1.49,0,0,1-.11.4c.07-.14.15-.27.22-.4l-.09.41a1.83,1.83,0,0,1,.26-.36l-.15.47a1.5,1.5,0,0,0,.26-.44,1.48,1.48,0,0,1,0,.47l.12-.41v.43a3.53,3.53,0,0,1,.15-.46c0,.18,0,.37,0,.55A3.68,3.68,0,0,0,9.53,7V7.4L9.63,7c0,.14,0,.28,0,.43A3.07,3.07,0,0,1,9.74,7l0,.36a3.11,3.11,0,0,0,.06-.44l.1.46V7l.06.45L10,7a1.41,1.41,0,0,1,.12.49,4.17,4.17,0,0,1,0-.5c0,.17.09.34.13.51a2,2,0,0,1,0-.54c0,.16.07.33.11.49l0-.47a2.11,2.11,0,0,1,.14.49c0-.15,0-.3,0-.45l.12.5a3.62,3.62,0,0,0,0-.57l.07.52a3.38,3.38,0,0,1,0-.45c0,.14.07.28.1.42l0-.41a1.15,1.15,0,0,0,.12.4V7.05l.18.45c0-.16,0-.32-.05-.48a2.06,2.06,0,0,1,.21.48l-.08-.44c.07.15.15.3.23.45a.86.86,0,0,1-.09-.35,1.51,1.51,0,0,1,.2.35,1.19,1.19,0,0,1-.11-.42,1.46,1.46,0,0,1,.27.38.91.91,0,0,1-.11-.42,1,1,0,0,1,.25.45,1,1,0,0,0-.06-.35L12,7.5a1.66,1.66,0,0,1-.11-.38,2.44,2.44,0,0,1,.28.43L12,7.16l.3.36-.12-.41a2.26,2.26,0,0,0,.26.42l-.18-.46a2.38,2.38,0,0,1,.34.43,1.47,1.47,0,0,1-.08-.35,1.79,1.79,0,0,0,.3.38L12.6,7l.37.5a2.16,2.16,0,0,1-.26-.47,1,1,0,0,1,.31.36L12.82,7l.29.36L13,7.12A.69.69,0,0,1,13.2,7.35Z" transform="translate(-4.79 -5.76)"/></g><path class="cls-12" d="M9.23,7.73c-.05-.05,0-.15-.06-.21h0a.1.1,0,0,0,0,.09l0-.07a.76.76,0,0,0,0,.16.15.15,0,0,0,.12.1S9.24,7.75,9.23,7.73Z" transform="translate(-4.79 -5.76)"/><path class="cls-12" d="M9.09,7.75C9,7.7,9,7.6,9,7.52s0,0,0,0,0,0,0,0a.14.14,0,0,0,0,.06V7.52A1,1,0,0,0,9,7.68a.21.21,0,0,0,.13.1S9.11,7.76,9.09,7.75Z" transform="translate(-4.79 -5.76)"/><path class="cls-12" d="M8.75,7.57l0-.05h0A.17.17,0,0,0,8.75,7.57Z" transform="translate(-4.79 -5.76)"/><path class="cls-12" d="M8.73,7.52h0v0Z" transform="translate(-4.79 -5.76)"/><path class="cls-12" d="M8.85,7.65s0-.09,0-.13,0,0,0,0,0,0,0,0a.59.59,0,0,0,.06.14.31.31,0,0,0,.14.09A.18.18,0,0,1,8.85,7.65Z" transform="translate(-4.79 -5.76)"/><path class="cls-12" d="M8.63,7.49s0,0,0-.06,0,0,0,0h0a.09.09,0,0,0,0,0h0a.26.26,0,0,0,.22.2A.36.36,0,0,1,8.63,7.49Z" transform="translate(-4.79 -5.76)"/><path class="cls-12" d="M8.44,7.48s0-.07-.06-.08a.11.11,0,0,0,0,0l0,0a.34.34,0,0,0,.22.27A.39.39,0,0,1,8.44,7.48Z" transform="translate(-4.79 -5.76)"/><path class="cls-12" d="M8.26,7.42s0,0,0,0a.12.12,0,0,0,0,.1V7.38a.31.31,0,0,0,.2.29l-.11-.12A.21.21,0,0,1,8.26,7.42Z" transform="translate(-4.79 -5.76)"/><path class="cls-12" d="M8,7.38v0H8Z" transform="translate(-4.79 -5.76)"/><path class="cls-12" d="M8.11,7.44a.42.42,0,0,1,0-.1l0,0H8a.45.45,0,0,0,.24.3A.49.49,0,0,1,8.11,7.44Z" transform="translate(-4.79 -5.76)"/><polygon class="cls-12" points="3.23 1.58 3.23 1.57 3.23 1.57 3.23 1.58"/><path class="cls-12" d="M7.91,7.36a.42.42,0,0,0,0-.1.05.05,0,0,0,0,.08l0,0a.33.33,0,0,0,.25.29A.47.47,0,0,1,7.91,7.36Z" transform="translate(-4.79 -5.76)"/><path class="cls-12" d="M7.73,7.29s0,0,0,0l0,0v0l0-.06a.39.39,0,0,0,.24.3A.46.46,0,0,1,7.73,7.29Z" transform="translate(-4.79 -5.76)"/><path class="cls-12" d="M7.56,7.24s0,0,0,0,0,0,0,0h0a.15.15,0,0,0,0,.09.35.35,0,0,0,.2.16A.45.45,0,0,1,7.56,7.24Z" transform="translate(-4.79 -5.76)"/><path class="cls-12" d="M7.38,7.2s0,0,0,0,0,0,0,0v0a.15.15,0,0,0,0,.13.37.37,0,0,0,.2.15A.42.42,0,0,1,7.38,7.2Z" transform="translate(-4.79 -5.76)"/><path class="cls-12" d="M7.29,7.26l0-.12s0,0,0,0h0v0h0a1.11,1.11,0,0,0,.07.16.29.29,0,0,0,.16.13A.39.39,0,0,1,7.29,7.26Z" transform="translate(-4.79 -5.76)"/><path class="cls-12" d="M7.11,7.18a.2.2,0,0,0,0-.08l0,0s0,0,0,0v0a.35.35,0,0,0,.25.25A.31.31,0,0,1,7.11,7.18Z" transform="translate(-4.79 -5.76)"/><path class="cls-12" d="M6.9,7.08A.18.18,0,0,0,6.85,7V7h0a.43.43,0,0,0,.25.26A.58.58,0,0,1,6.9,7.08Z" transform="translate(-4.79 -5.76)"/><path class="cls-12" d="M6.69,7s0,0-.05,0V7a.49.49,0,0,0,.25.24A1.51,1.51,0,0,1,6.69,7Z" transform="translate(-4.79 -5.76)"/><path class="cls-12" d="M6.65,7V7l0,0Z" transform="translate(-4.79 -5.76)"/><path class="cls-12" d="M6.53,7s0-.06,0-.08v0h0A.2.2,0,0,0,6.56,7a.52.52,0,0,0,.11.1C6.63,7.06,6.55,7,6.53,7Z" transform="translate(-4.79 -5.76)"/><path class="cls-12" d="M6.4,6.93a.13.13,0,0,1,0-.12l0,0a.17.17,0,0,0,0,.13A.48.48,0,0,0,6.49,7,.34.34,0,0,1,6.4,6.93Z" transform="translate(-4.79 -5.76)"/><path class="cls-12" d="M6.21,6.72h0s0,0,0,0a.18.18,0,0,0,.1.14.25.25,0,0,1-.09-.19Z" transform="translate(-4.79 -5.76)"/><path class="cls-12" d="M9.32,7.59s0,0,0,0h0a.52.52,0,0,0,.05.24.07.07,0,0,0,0,0Z" transform="translate(-4.79 -5.76)"/><path class="cls-12" d="M9.27,7.56v0Z" transform="translate(-4.79 -5.76)"/><polygon class="cls-12" points="4.48 1.8 4.48 1.8 4.48 1.79 4.48 1.8"/><path class="cls-12" d="M9.42,7.56h0v.22a.24.24,0,0,0,0-.2S9.43,7.56,9.42,7.56Z" transform="translate(-4.79 -5.76)"/><path class="cls-12" d="M9.4,7.58a.07.07,0,0,0,0,.06Z" transform="translate(-4.79 -5.76)"/><path class="cls-12" d="M9.4,7.58h0Z" transform="translate(-4.79 -5.76)"/><polygon class="cls-12" points="4.76 1.82 4.76 1.82 4.76 1.82 4.76 1.82"/><path class="cls-12" d="M9.55,7.58a.11.11,0,0,0,0,0Z" transform="translate(-4.79 -5.76)"/><path class="cls-12" d="M9.56,7.57h0a.59.59,0,0,1,0,.23.26.26,0,0,0,.07-.21S9.57,7.56,9.56,7.57Z" transform="translate(-4.79 -5.76)"/><path class="cls-12" d="M9.75,7.59s0,0-.05,0,0,0,0,0l0,0,0,0a.32.32,0,0,1-.1.17s.06,0,.08,0l.06-.12A.06.06,0,0,0,9.75,7.59Z" transform="translate(-4.79 -5.76)"/><path class="cls-12" d="M9.91,7.6a0,0,0,0,0-.05,0h0s0,.09-.08.13-.08,0-.11.09a.23.23,0,0,0,.22-.16S9.93,7.61,9.91,7.6Z" transform="translate(-4.79 -5.76)"/><path class="cls-12" d="M10.12,7.63s0,0,0,0a0,0,0,0,0,0,0,.1.1,0,0,0,0,.05l0,0a.39.39,0,0,1-.17.21.14.14,0,0,0,.11,0l.08-.08A.21.21,0,0,0,10.12,7.63Z" transform="translate(-4.79 -5.76)"/><path class="cls-12" d="M10.31,7.66a0,0,0,0,0,0,0,0,0,0,0,0-.06,0s0,0,0,.06l0-.06a.4.4,0,0,1-.2.22h0l.15-.1A.12.12,0,0,0,10.31,7.66Z" transform="translate(-4.79 -5.76)"/><path class="cls-12" d="M10.43,7.62h0a.11.11,0,0,0-.07.09l.06,0a.24.24,0,0,1-.18.18s0,0,0,0a.12.12,0,0,0,.1,0,.24.24,0,0,0,.15-.2S10.45,7.62,10.43,7.62Z" transform="translate(-4.79 -5.76)"/><path class="cls-12" d="M10.6,7.61a.07.07,0,0,0-.07.07l0,0a.61.61,0,0,1-.07.14.22.22,0,0,1-.12.09A.28.28,0,0,0,10.6,7.61Z" transform="translate(-4.79 -5.76)"/><path class="cls-12" d="M10.79,7.65s0-.05,0-.05,0,0,0,0a.16.16,0,0,0-.06.08l.05,0a.47.47,0,0,1-.2.22.35.35,0,0,0,.14-.06A.29.29,0,0,0,10.79,7.65Z" transform="translate(-4.79 -5.76)"/><path class="cls-12" d="M11,7.67s0-.07,0-.07a0,0,0,0,0,0,0s0,0,0,.05l.05-.07a.32.32,0,0,1-.22.22l-.06,0a.56.56,0,0,0,.18-.07A.27.27,0,0,0,11,7.67Z" transform="translate(-4.79 -5.76)"/><path class="cls-12" d="M11.11,7.68v0s0,0,0,0l0,0h0a.25.25,0,0,1-.22.21A.36.36,0,0,0,11.11,7.68Z" transform="translate(-4.79 -5.76)"/><path class="cls-12" d="M11.06,7.65a.25.25,0,0,0,0,.07Z" transform="translate(-4.79 -5.76)"/><polygon class="cls-12" points="6.26 1.89 6.26 1.89 6.26 1.89 6.26 1.89"/><path class="cls-12" d="M11.28,7.8a.34.34,0,0,0,.17-.14,0,0,0,0,0,0,0s0,0-.05,0l0,0h0a.21.21,0,0,1-.13.16l-.13,0,0,0a.23.23,0,0,0,.1-.2s0,0,0,0h0a.16.16,0,0,0-.06.08l0,0a.27.27,0,0,1-.27.22.45.45,0,0,0,.16,0A.43.43,0,0,0,11.28,7.8Z" transform="translate(-4.79 -5.76)"/><path class="cls-12" d="M11.65,7.68s0,0,0,0a0,0,0,0,0,0,0h0v0a.36.36,0,0,1-.16.14.62.62,0,0,1-.23.07.82.82,0,0,0,.3-.07A.3.3,0,0,0,11.65,7.68Z" transform="translate(-4.79 -5.76)"/><path class="cls-12" d="M11.89,7.65v0s0,0-.05,0a.2.2,0,0,0-.08.08l.06,0a.55.55,0,0,1-.32.21.9.9,0,0,0,.23-.08A.32.32,0,0,0,11.89,7.65Z" transform="translate(-4.79 -5.76)"/><path class="cls-12" d="M11.44,7.88l.07,0Z" transform="translate(-4.79 -5.76)"/><path class="cls-12" d="M12.09,7.66s0,0,0,0h0a.32.32,0,0,0-.13.1L12,7.66a.42.42,0,0,1-.18.14l-.22.07a.83.83,0,0,0,.43-.15A.08.08,0,0,0,12.09,7.66Z" transform="translate(-4.79 -5.76)"/><path class="cls-12" d="M12.28,7.65h0l0,0a.67.67,0,0,1-.37.22.73.73,0,0,0,.43-.21S12.3,7.67,12.28,7.65Z" transform="translate(-4.79 -5.76)"/><path class="cls-12" d="M12.17,7.72l0,0v0Z" transform="translate(-4.79 -5.76)"/><path class="cls-12" d="M12.48,7.65a.1.1,0,0,0-.09,0l0,0a.76.76,0,0,1-.36.2.75.75,0,0,0,.32-.13S12.47,7.69,12.48,7.65Z" transform="translate(-4.79 -5.76)"/><path class="cls-12" d="M12.28,7.86l-.08,0Z" transform="translate(-4.79 -5.76)"/><path class="cls-12" d="M12.62,7.64a.16.16,0,0,0-.11.07l.06,0a.72.72,0,0,1-.29.2.88.88,0,0,0,.32-.16S12.63,7.66,12.62,7.64Z" transform="translate(-4.79 -5.76)"/><path class="cls-12" d="M12.76,7.65h0a.43.43,0,0,1-.25.19l.14,0A.26.26,0,0,0,12.76,7.65Z" transform="translate(-4.79 -5.76)"/><path class="cls-12" d="M12.48,7.84l-.06,0Z" transform="translate(-4.79 -5.76)"/><polygon class="cls-12" points="7.92 1.9 7.93 1.89 7.94 1.89 7.92 1.9"/><path class="cls-12" d="M12.68,7.68l0,0Z" transform="translate(-4.79 -5.76)"/><path class="cls-12" d="M12.92,7.64s0,0,0,0,0,0,0,0l-.06.06.09,0a.81.81,0,0,1-.3.21l.17-.08C12.84,7.74,12.91,7.71,12.92,7.64Z" transform="translate(-4.79 -5.76)"/><path class="cls-12" d="M13,7.64l.08-.06a.58.58,0,0,1-.23.18,1,1,0,0,0,.22-.13l.05-.06C13.08,7.56,13,7.6,13,7.64Z" transform="translate(-4.79 -5.76)"/><g class="cls-13"><path class="cls-14" d="M9.77,9.86l-.06-.25a3.09,3.09,0,0,0-.11-.75l0,0,0,0L9.49,9a.3.3,0,0,1,0-.16L9.39,9a2.59,2.59,0,0,0-.14-.29.41.41,0,0,0,0,.22V8.85c0,.46-.18.92-.12,1.38a.08.08,0,0,1,0,0s.07,0,.11,0a.28.28,0,0,1,.28,0l.07,0h.07c.06,0,.13.08.18,0s0-.07,0-.11Z" transform="translate(-4.79 -5.76)"/></g><g class="cls-15"><path class="cls-11" d="M11.6,6.27c0-.07-.1-.1-.17-.12a11.86,11.86,0,0,0-2.84-.34h.33a5.88,5.88,0,0,0-1.33.06,1.18,1.18,0,0,0-.55.2.2.2,0,0,0-.08.1c0,.12.11.21.23.25a5.33,5.33,0,0,0,1,.16,7.89,7.89,0,0,0,3.18-.13C11.51,6.42,11.62,6.36,11.6,6.27Z" transform="translate(-4.79 -5.76)"/></g><g class="cls-13"><path class="cls-11" d="M11,6.09A.26.26,0,0,0,10.79,6l.16,0a15.21,15.21,0,0,0-2.33-.24,1,1,0,0,0-.48.06A1.51,1.51,0,0,0,8.42,6a2,2,0,0,0,.41.07,9.26,9.26,0,0,0,2.1.11s.09,0,.09-.06S11,6.11,11,6.09Z" transform="translate(-4.79 -5.76)"/></g><g class="cls-10"><path class="cls-14" d="M7.56,6.81a1.94,1.94,0,0,1-.73-.5.1.1,0,0,1,0-.07c0-.1.15-.13.19-.22a.28.28,0,0,0-.2,0h0a.87.87,0,0,0-.56.32.23.23,0,0,0,0,.22.24.24,0,0,0,.11.09,5.76,5.76,0,0,0,2.19.59A2.22,2.22,0,0,0,7.56,6.81Z" transform="translate(-4.79 -5.76)"/></g><g class="cls-6"><path class="cls-16" d="M9.12,7.44h0Z" transform="translate(-4.79 -5.76)"/></g><g class="cls-6"><path class="cls-16" d="M13.34,7.3a.1.1,0,0,0-.05-.08,3.38,3.38,0,0,0-1.44-.94,6.31,6.31,0,0,0-.72-.18l-.84-.17.44.11a5.25,5.25,0,0,1,.52.17,4.66,4.66,0,0,1,.5.25.46.46,0,0,1,.27.26.33.33,0,0,1-.14.34,3.54,3.54,0,0,1-.33.19,1.38,1.38,0,0,1-.41.19c-.22,0-.45-.09-.65,0l-.1,0H10.3a.9.9,0,0,0-.16,0l-.37,0a.54.54,0,0,0-.28,0,.6.6,0,0,0-.35,0,21.33,21.33,0,0,0,2.53.13h1a1.05,1.05,0,0,0,.61-.12A.17.17,0,0,0,13.34,7.3Z" transform="translate(-4.79 -5.76)"/></g><g class="cls-6"><path class="cls-16" d="M13.25,7.25a.3.3,0,0,0-.12-.19,3.75,3.75,0,0,0-1.77-.93l-.15,0a2.94,2.94,0,0,0,.57.26,2.12,2.12,0,0,1,.73.5c.11.11.21.27.13.4a.35.35,0,0,1-.29.13l-1.16.16,1.2,0a2.9,2.9,0,0,0,.51,0,.53.53,0,0,0,.24-.08A.22.22,0,0,0,13.25,7.25Z" transform="translate(-4.79 -5.76)"/></g><path class="cls-17" d="M10.84,11a.27.27,0,0,0-.08.07.25.25,0,0,0,0,.17c0,.06,0,.14-.07.15s-.06,0-.09-.06a.38.38,0,0,0-.26-.08.44.44,0,0,0,0-.2.16.16,0,0,0-.13-.14.57.57,0,0,1-.13,0s0,0-.07-.06a.65.65,0,0,0-.55-.23,1.34,1.34,0,0,0-.59.17.18.18,0,0,1,0-.16.86.86,0,0,0-.37.76.85.85,0,0,0,.48.7l.2,0A2.44,2.44,0,0,0,10.62,12a.16.16,0,0,0,.09-.05c0-.06,0-.15,0-.23s.1-.11.17-.16a.78.78,0,0,0,.34-.84Z" transform="translate(-4.79 -5.76)"/><path class="cls-18" d="M9.13,11a0,0,0,1,0,0,0S9.11,11,9.13,11Z" transform="translate(-4.79 -5.76)"/><path class="cls-18" d="M9.23,10.93h0s0,0,0,0h0A0,0,0,1,0,9.23,10.93Z" transform="translate(-4.79 -5.76)"/><path class="cls-18" d="M9.33,11.15s0,0,0,0A0,0,0,1,0,9.33,11.15Z" transform="translate(-4.79 -5.76)"/><path class="cls-18" d="M9,11.06s0,0,0,0S9.05,11.06,9,11.06Z" transform="translate(-4.79 -5.76)"/><path class="cls-18" d="M9,11H9s0-.05,0,0H9S9,11,9,11Z" transform="translate(-4.79 -5.76)"/><path class="cls-18" d="M9.31,10.92s0,0,0,0S9.29,10.92,9.31,10.92Z" transform="translate(-4.79 -5.76)"/><path class="cls-18" d="M9.24,11.06s0,0,0,0h0s0,0,0,0h0S9.26,11.06,9.24,11.06Z" transform="translate(-4.79 -5.76)"/><path class="cls-18" d="M9.09,11.16s0,0,0,0A0,0,0,1,0,9.09,11.16Z" transform="translate(-4.79 -5.76)"/><path class="cls-18" d="M9.21,11.19s0,0,0,0A0,0,0,1,0,9.21,11.19Z" transform="translate(-4.79 -5.76)"/><path class="cls-18" d="M9.46,11.15s0,0,0,0A0,0,0,1,0,9.46,11.15Z" transform="translate(-4.79 -5.76)"/><path class="cls-18" d="M9.5,11.38s0,0,0,0S9.52,11.38,9.5,11.38Z" transform="translate(-4.79 -5.76)"/><path class="cls-18" d="M9.18,11.23a0,0,0,0,0,0,0S9.21,11.23,9.18,11.23Z" transform="translate(-4.79 -5.76)"/><path class="cls-18" d="M9.52,11.48s0,0,0,0S9.55,11.48,9.52,11.48Z" transform="translate(-4.79 -5.76)"/><path class="cls-18" d="M9.57,11.34s0,0,0,0S9.6,11.34,9.57,11.34Z" transform="translate(-4.79 -5.76)"/><path class="cls-18" d="M9.66,11.51h0s0,0,0,0h0s0,0,0,0Z" transform="translate(-4.79 -5.76)"/><path class="cls-18" d="M9.79,11.58s0,0,0,0A0,0,0,1,0,9.79,11.58Z" transform="translate(-4.79 -5.76)"/><path class="cls-18" d="M9.87,11.49a0,0,0,1,0,0,0S9.89,11.49,9.87,11.49Z" transform="translate(-4.79 -5.76)"/><path class="cls-18" d="M9.92,11.51s0,0,0,0A0,0,0,1,0,9.92,11.51Z" transform="translate(-4.79 -5.76)"/><path class="cls-18" d="M9.79,11.39h0a0,0,0,1,0,0,0h0l0,0A0,0,0,1,0,9.79,11.39Z" transform="translate(-4.79 -5.76)"/><path class="cls-18" d="M10.1,11.34h0s0,0,0,0,0,0,0,0h0s0,0,0,0S10.12,11.34,10.1,11.34Z" transform="translate(-4.79 -5.76)"/><path class="cls-18" d="M10.13,11.12s0,0,0,0A0,0,0,1,0,10.13,11.12Z" transform="translate(-4.79 -5.76)"/><path class="cls-18" d="M10.2,11.25a0,0,0,1,0,0,0S10.22,11.25,10.2,11.25Z" transform="translate(-4.79 -5.76)"/><path class="cls-18" d="M10.19,11.06a0,0,0,0,0,0,0s0,0,0,0a0,0,0,0,0,0,0S10.17,11.06,10.19,11.06Z" transform="translate(-4.79 -5.76)"/><path class="cls-18" d="M10.26,10.93s0,0,0,0S10.28,10.93,10.26,10.93Z" transform="translate(-4.79 -5.76)"/><path class="cls-18" d="M10.07,10.92s0,0,0,0S10.05,10.92,10.07,10.92Z" transform="translate(-4.79 -5.76)"/><path class="cls-18" d="M10.23,11s0,0,0,0,0,0,0,0,0,0,0,0S10.25,11,10.23,11Z" transform="translate(-4.79 -5.76)"/><path class="cls-18" d="M10.13,11s0,0,0,0A0,0,0,1,0,10.13,11Z" transform="translate(-4.79 -5.76)"/><path class="cls-18" d="M10.06,11.07a0,0,0,1,0,0,0S10.08,11.07,10.06,11.07Z" transform="translate(-4.79 -5.76)"/><path class="cls-18" d="M10.19,11.12h0s0,0,0,0,0,0,0,0,0,0,0,0,0,0,0,0S10.19,11.13,10.19,11.12Z" transform="translate(-4.79 -5.76)"/><path class="cls-18" d="M9.93,11.2s0,0,0,0S10,11.2,9.93,11.2Z" transform="translate(-4.79 -5.76)"/><path class="cls-18" d="M9.87,11.31a0,0,0,1,0,0,0S9.89,11.31,9.87,11.31Z" transform="translate(-4.79 -5.76)"/><path class="cls-18" d="M9.63,11.48h0s0,0,0,0l0,0S9.62,11.47,9.63,11.48Z" transform="translate(-4.79 -5.76)"/><path class="cls-18" d="M9.7,11.47s0,0,0,0A0,0,0,1,0,9.7,11.47Z" transform="translate(-4.79 -5.76)"/><path class="cls-18" d="M9.46,11.38h0s0,0,0,0,0,0,0,0,0,0,0,0l0,0h0l0,0A0,0,0,1,0,9.46,11.38Z" transform="translate(-4.79 -5.76)"/><path class="cls-18" d="M9.45,11.31a0,0,0,1,0,0,0S9.42,11.31,9.45,11.31Z" transform="translate(-4.79 -5.76)"/><path class="cls-18" d="M9.44,11.24a0,0,0,1,0,0,0S9.46,11.24,9.44,11.24Z" transform="translate(-4.79 -5.76)"/><path class="cls-18" d="M9.45,11.2h0s0,0,0,0h0l0,0S9.47,11.2,9.45,11.2Z" transform="translate(-4.79 -5.76)"/><path class="cls-18" d="M9.41,11.1s0,0,0,0S9.43,11.1,9.41,11.1Z" transform="translate(-4.79 -5.76)"/><path class="cls-18" d="M9.26,11.11h0s0,0,0,0h0S9.28,11.11,9.26,11.11Z" transform="translate(-4.79 -5.76)"/><path class="cls-18" d="M9.13,11.09a0,0,0,1,0,0,0h0a0,0,0,1,0,0,0s0,0,0,0Z" transform="translate(-4.79 -5.76)"/><path class="cls-18" d="M9.3,11.11a0,0,0,1,0,0,0S9.32,11.11,9.3,11.11Z" transform="translate(-4.79 -5.76)"/><path class="cls-18" d="M9.27,11.3s0,0,0,0S9.25,11.3,9.27,11.3Z" transform="translate(-4.79 -5.76)"/><path class="cls-18" d="M9.46,11.11s0,0,0,0A0,0,0,1,0,9.46,11.11Z" transform="translate(-4.79 -5.76)"/><path class="cls-18" d="M9.35,11s0,0,0,0A0,0,0,0,0,9.35,11Z" transform="translate(-4.79 -5.76)"/><path class="cls-18" d="M9.08,11.05s0,0,0,0S9.06,11.05,9.08,11.05Z" transform="translate(-4.79 -5.76)"/><path class="cls-18" d="M8.94,10.9s0,0,0,0S8.92,10.9,8.94,10.9Z" transform="translate(-4.79 -5.76)"/><path class="cls-18" d="M8.85,10.88s0,0,0,0h0s0,0,0,0a0,0,0,1,0,0,0h0Z" transform="translate(-4.79 -5.76)"/><path class="cls-18" d="M8.71,11.37a0,0,0,0,0,0,0S8.74,11.37,8.71,11.37Z" transform="translate(-4.79 -5.76)"/><path class="cls-18" d="M8.88,11.77a0,0,0,1,0,0,0S8.9,11.77,8.88,11.77Z" transform="translate(-4.79 -5.76)"/><path class="cls-18" d="M8.76,11.49a0,0,0,1,0,0,0S8.74,11.49,8.76,11.49Z" transform="translate(-4.79 -5.76)"/><path class="cls-18" d="M9.07,11.77s0,0,0,0A0,0,0,1,0,9.07,11.77Z" transform="translate(-4.79 -5.76)"/><path class="cls-18" d="M9.14,11.82s0,0,0,0A0,0,0,1,0,9.14,11.82Z" transform="translate(-4.79 -5.76)"/><path class="cls-18" d="M9.27,11.79h0s0,0,0,0h0S9.3,11.78,9.27,11.79Z" transform="translate(-4.79 -5.76)"/><path class="cls-18" d="M9.22,11.86s0,0,0,0S9.2,11.86,9.22,11.86Z" transform="translate(-4.79 -5.76)"/><path class="cls-18" d="M9.24,12s0,0,0,0S9.27,12,9.24,12Z" transform="translate(-4.79 -5.76)"/><path class="cls-18" d="M9.51,12s0,0,0,0A0,0,0,1,0,9.51,12Z" transform="translate(-4.79 -5.76)"/><path class="cls-18" d="M8.92,11.61s0,0,0,0S8.89,11.61,8.92,11.61Z" transform="translate(-4.79 -5.76)"/><path class="cls-18" d="M8.89,11.67s0,0,0,0S8.87,11.67,8.89,11.67Z" transform="translate(-4.79 -5.76)"/><path class="cls-18" d="M9.09,11.92s0,0,0,0A0,0,0,1,0,9.09,11.92Z" transform="translate(-4.79 -5.76)"/><path class="cls-18" d="M9.06,11.89l0,0s0,0,0,0l0,.06s0,0,0,0S9.07,11.89,9.06,11.89Z" transform="translate(-4.79 -5.76)"/><path class="cls-18" d="M8.94,11.77s0,0,0,0S9,11.77,8.94,11.77Z" transform="translate(-4.79 -5.76)"/><path class="cls-18" d="M9.07,11.85s0,0,0,0A0,0,0,1,0,9.07,11.85Z" transform="translate(-4.79 -5.76)"/><path class="cls-18" d="M8.93,11.75l0,0s0,0,0,0a0,0,0,0,0,0,0s0,0,0,0h0S8.91,11.75,8.93,11.75Z" transform="translate(-4.79 -5.76)"/><path class="cls-18" d="M9,11.82a0,0,0,1,0,0,0S9,11.82,9,11.82Z" transform="translate(-4.79 -5.76)"/><path class="cls-18" d="M8.9,11.86s0,0,0,0A0,0,0,1,0,8.9,11.86Z" transform="translate(-4.79 -5.76)"/><path class="cls-18" d="M8.76,11.73s0,0,0,0A0,0,0,1,0,8.76,11.73Z" transform="translate(-4.79 -5.76)"/><path class="cls-18" d="M8.85,11.72s0,0,0,0A0,0,0,1,0,8.85,11.72Z" transform="translate(-4.79 -5.76)"/><path class="cls-18" d="M8.71,11.67s0,0,0,0A0,0,0,1,0,8.71,11.67Z" transform="translate(-4.79 -5.76)"/><path class="cls-18" d="M8.8,11.58l0,0h0s0,0,0,0,0,0,0,0,0,0,0,0h0A0,0,0,1,0,8.8,11.58Z" transform="translate(-4.79 -5.76)"/><path class="cls-18" d="M9.21,11.9a0,0,0,1,0,0,0S9.23,11.9,9.21,11.9Z" transform="translate(-4.79 -5.76)"/><path class="cls-18" d="M9.46,12s0,0,0,0A0,0,0,1,0,9.46,12Z" transform="translate(-4.79 -5.76)"/><path class="cls-18" d="M9.42,11.92s0,0,0,0A0,0,0,1,0,9.42,11.92Z" transform="translate(-4.79 -5.76)"/><path class="cls-18" d="M9.6,11.9s0,0,0,0S9.62,11.9,9.6,11.9Z" transform="translate(-4.79 -5.76)"/><path class="cls-18" d="M11,11.07s0,0,0,0A0,0,0,0,0,11,11.07Z" transform="translate(-4.79 -5.76)"/><path class="cls-18" d="M10.84,11.16s0,0,0,0S10.87,11.16,10.84,11.16Z" transform="translate(-4.79 -5.76)"/><path class="cls-18" d="M10.91,11.34a0,0,0,1,0,0,0S10.93,11.34,10.91,11.34Z" transform="translate(-4.79 -5.76)"/><path class="cls-18" d="M11,11.11a0,0,0,1,0,0,0S11,11.11,11,11.11Z" transform="translate(-4.79 -5.76)"/><path class="cls-18" d="M10.91,11.29a0,0,0,1,0,0,0S10.93,11.29,10.91,11.29Z" transform="translate(-4.79 -5.76)"/><path class="cls-18" d="M11,11.15s0,0,0,0h0a0,0,0,0,0,0,0v0h0S11,11.15,11,11.15Z" transform="translate(-4.79 -5.76)"/><path class="cls-18" d="M10.89,11s0,0,0,0S10.92,11,10.89,11Z" transform="translate(-4.79 -5.76)"/><path class="cls-18" d="M11.14,10.88a0,0,0,1,0,0,0S11.16,10.88,11.14,10.88Z" transform="translate(-4.79 -5.76)"/><path class="cls-18" d="M11.16,10.83s0,0,0,0A0,0,0,1,0,11.16,10.83Z" transform="translate(-4.79 -5.76)"/><path class="cls-18" d="M11,11.26a0,0,0,1,0,0,0S11,11.26,11,11.26Z" transform="translate(-4.79 -5.76)"/><path class="cls-18" d="M11,11s0,0,0,0A0,0,0,1,0,11,11Z" transform="translate(-4.79 -5.76)"/><path class="cls-18" d="M11.08,11.06h0s0,0,0,0h0s0,0,0,0a0,0,0,0,0,0,0h0s0,0,0,0S11.1,11.07,11.08,11.06Z" transform="translate(-4.79 -5.76)"/><path class="cls-18" d="M11,11.2s0,0,0,0S11,11.2,11,11.2Z" transform="translate(-4.79 -5.76)"/><path class="cls-18" d="M10.84,11.35s0,0,0,0S10.87,11.35,10.84,11.35Z" transform="translate(-4.79 -5.76)"/><path class="cls-18" d="M10.65,11.52s0,0,0,0A0,0,0,1,0,10.65,11.52Z" transform="translate(-4.79 -5.76)"/><g class="cls-13"><path class="cls-14" d="M9.16,11.56a.62.62,0,0,1-.3-.5.25.25,0,0,0,0-.12.12.12,0,0,0-.06-.06,1.09,1.09,0,0,0-.2.58.1.1,0,0,0,0,.07s0,0,.07,0,.13.16.21.2a.35.35,0,0,0,.31,0s.05,0,.06,0S9.21,11.59,9.16,11.56Z" transform="translate(-4.79 -5.76)"/></g><g class="cls-13"><path class="cls-14" d="M8.74,10.88s0,0,0,0h0Z" transform="translate(-4.79 -5.76)"/></g><g class="cls-13"><path class="cls-14" d="M9.38,11l.11.05c.07.06.09.19.18.21s.14,0,.18-.11A.29.29,0,0,0,9.94,11c0-.16-.12-.31-.28-.33a.89.89,0,0,0-.47.12l0,0A.53.53,0,0,0,9.38,11Z" transform="translate(-4.79 -5.76)"/></g><g class="cls-13"><path class="cls-14" d="M10.55,11.33a.47.47,0,0,0-.17,0c-.17.06-.33.17-.5.24a.75.75,0,0,1-.55.06l0,0c0,.08.07.13.14.15l.23,0A1,1,0,0,0,10,12c.15,0,.25-.17.39-.24s.16-.05.23-.09a.19.19,0,0,0,.1-.21A.18.18,0,0,0,10.55,11.33Z" transform="translate(-4.79 -5.76)"/></g><g class="cls-13"><path class="cls-14" d="M9.86,11a.24.24,0,0,0-.12-.14.39.39,0,0,0-.49.11l.05,0a.57.57,0,0,1,.27.11c.07.05.15.12.23.09A.13.13,0,0,0,9.86,11Z" transform="translate(-4.79 -5.76)"/></g><g class="cls-13"><path class="cls-14" d="M8.67,11.2a.2.2,0,0,0,0,.15.27.27,0,0,0,.07.08A1.1,1.1,0,0,0,9,11.6a1.79,1.79,0,0,1-.26-.66A.28.28,0,0,0,8.67,11.2Z" transform="translate(-4.79 -5.76)"/></g><g class="cls-13"><path class="cls-14" d="M10.51,11.35a.18.18,0,0,0-.2,0,.45.45,0,0,0-.17.11l-.32.26,0,.05a1.22,1.22,0,0,0,.71-.27.07.07,0,0,0,0-.05A.08.08,0,0,0,10.51,11.35Z" transform="translate(-4.79 -5.76)"/></g><path class="cls-19" d="M7.35,10.42a.21.21,0,0,0-.11,0A2.6,2.6,0,0,0,6,10.49c.11.47-.11,1,0,1.45a.49.49,0,0,0,.18.28.6.6,0,0,0,.32.07,5.61,5.61,0,0,0,.58,0,.17.17,0,0,0,.12,0,.2.2,0,0,0,.06-.13,10,10,0,0,0,.12-1.55A.22.22,0,0,0,7.35,10.42Z" transform="translate(-4.79 -5.76)"/><path class="cls-4" d="M6,10.63Z" transform="translate(-4.79 -5.76)"/><path class="cls-4" d="M7.28,10.71a3.84,3.84,0,0,0-1.22-.07H6l0,.25a2.44,2.44,0,0,1,.81,0A.43.43,0,0,1,7,11a.4.4,0,0,1,.21.28.87.87,0,0,1,0,.36l.09-.85a0,0,0,0,0,0,0Z" transform="translate(-4.79 -5.76)"/><path class="cls-11" d="M8.14,9.07a2,2,0,0,0-.4-.51.91.91,0,0,0-.46-.23,1.84,1.84,0,0,0-1.58.21A1.44,1.44,0,0,0,5.1,10a.81.81,0,0,0,.14.33,1,1,0,0,0,.66.37c.25,0,.52,0,.77.07a4.52,4.52,0,0,0,.63.08,1.56,1.56,0,0,0,.87-.21.65.65,0,0,0,.21-.16A.67.67,0,0,0,8.5,10,2.08,2.08,0,0,0,8.14,9.07Z" transform="translate(-4.79 -5.76)"/><g class="cls-15"><path class="cls-19" d="M7.39,8.45a1.2,1.2,0,0,0-.8-.17l.2,0a1.64,1.64,0,0,0-1,.2,1,1,0,0,0-.53.94.45.45,0,0,0,.05.19.47.47,0,0,0,.14.14.92.92,0,0,0,.77.14,1.53,1.53,0,0,0,.46-.23,2.13,2.13,0,0,0,.45-.34A1.28,1.28,0,0,0,7.44,9a.41.41,0,0,0,.07-.42A.34.34,0,0,0,7.39,8.45Z" transform="translate(-4.79 -5.76)"/></g><g class="cls-15"><path class="cls-14" d="M7.24,8.34a1.87,1.87,0,0,0-.85-.06h.07l-.23,0a1,1,0,0,0-.68.59.5.5,0,0,0,0,.32A.45.45,0,0,0,6,9.48a1.2,1.2,0,0,0,.52-.2,3.23,3.23,0,0,0,.74-.53c.08-.09.16-.23.09-.33A.29.29,0,0,0,7.24,8.34Z" transform="translate(-4.79 -5.76)"/></g><g class="cls-6"><path class="cls-20" d="M7.6,10.76l0,0Z" transform="translate(-4.79 -5.76)"/></g><g class="cls-6"><path class="cls-16" d="M8.09,9a2.93,2.93,0,0,1,.12.72,1.69,1.69,0,0,0-.13-.42,4.16,4.16,0,0,1,.13.59L8,9.4a3.6,3.6,0,0,1,.08.56L8,9.47A2.87,2.87,0,0,1,8,10a1,1,0,0,1-.1-.38,1.48,1.48,0,0,0,0,.42.57.57,0,0,1-.08-.25,1.55,1.55,0,0,0,0,.31,1.31,1.31,0,0,1-.09-.28,1.33,1.33,0,0,0,0,.34l0-.28,0,.33a3.18,3.18,0,0,1-.06-.43,1.2,1.2,0,0,0,0,.38l-.06-.39,0,.41a.55.55,0,0,1,0-.22.44.44,0,0,0-.07.22l0-.13a.23.23,0,0,0-.06.16l0-.09-.06.12L7.07,10,7,10.22A.54.54,0,0,1,7,10a.55.55,0,0,0,0,.25,1.76,1.76,0,0,0,0-.31.71.71,0,0,0,0,.29l0-.38a1.07,1.07,0,0,0-.07.39l-.06-.38a1,1,0,0,0,0,.35,1.27,1.27,0,0,0-.05-.34,2.6,2.6,0,0,0,0,.4l0-.18a.32.32,0,0,0,0,.14.35.35,0,0,0-.08-.13.32.32,0,0,0,0,.14.54.54,0,0,0-.1-.2v.15l0-.13a.41.41,0,0,0,0,.22l0-.17a.21.21,0,0,0,0,.11L6,10.08a.75.75,0,0,0,0,.16L5.91,10l0,.17a1.19,1.19,0,0,1-.06-.37,1.08,1.08,0,0,0,0,.31,1.53,1.53,0,0,0-.07-.29,1.46,1.46,0,0,0,0,.3l0-.11a.29.29,0,0,0,0,.13L5.67,10v.08L5.61,10l0,.07-.06-.11a.16.16,0,0,0,0,.09.57.57,0,0,0,0-.14l0,.06,0-.13,0,.12V10l0-.33a1.36,1.36,0,0,0,0,.35,1.56,1.56,0,0,1,0-.53,1.73,1.73,0,0,0,0,.32.57.57,0,0,1,0-.26l0,.19a1.85,1.85,0,0,1,0-.41l0,0,.11-.24a1.23,1.23,0,0,0-.12.26v0h0a2.68,2.68,0,0,0-.05.3,1.12,1.12,0,0,0,0,.41.94.94,0,0,0,.79.58v-.06l0,0,.23,0,.06,0,0-.06a.14.14,0,0,1,0,.08l.06,0,0,.06a0,0,0,0,1,.07,0l.08-.08s.06,0,.06,0,0,0,0,.06l0,0s0,0,.06,0a.11.11,0,0,0,0-.07l0,.11A.53.53,0,0,1,7,10.56l0,.14.1-.07,0,.12.09-.06v.08l.08,0,.13.06.11-.06,0,.08a.66.66,0,0,1,.17-.12l0,.09a.26.26,0,0,1,.11-.07.43.43,0,0,0,0,0,.12.12,0,0,1,.07,0,.14.14,0,0,1,0,.1.76.76,0,0,1,.18-.09l0,.07L8,10.65l-.06.06a.37.37,0,0,0,.24-.12h0a0,0,0,0,0,.06,0,.94.94,0,0,0,.24-.79A1.56,1.56,0,0,0,8.09,9Z" transform="translate(-4.79 -5.76)"/></g><g class="cls-13"><path class="cls-14" d="M7,11.12A1.15,1.15,0,0,0,6.77,11c-.15,0-.32,0-.48-.06l-.12,0a.1.1,0,0,0-.11,0h0c0,.11,0,.22,0,.33a.06.06,0,0,0,0,.06s.06.06.1.07a.67.67,0,0,0,.37,0l.17-.07a2.63,2.63,0,0,0,.3-.08s.05,0,0-.07Z" transform="translate(-4.79 -5.76)"/></g><g class="cls-15"><path class="cls-14" d="M7.08,8.35a.54.54,0,0,0-.22,0,1.68,1.68,0,0,0-.59.07.81.81,0,0,0-.57.46.27.27,0,0,0,0,.18c0,.08.17.08.26.07a2.91,2.91,0,0,0,.82-.21.73.73,0,0,0,.26-.14.34.34,0,0,0,.13-.25.13.13,0,0,0,0-.08A.24.24,0,0,0,7.08,8.35Z" transform="translate(-4.79 -5.76)"/></g><g class="cls-21"><path class="cls-22" d="M8.44,10.07a2.52,2.52,0,0,0-.61-1.38.86.86,0,0,0-.51-.31h0a.5.5,0,0,1,.24.29A2.15,2.15,0,0,1,7.64,10a.9.9,0,0,1-.52.7c-.15.05-.32,0-.47.09.23,0,.45.06.68.07a1.47,1.47,0,0,0,.82-.22.62.62,0,0,0,.28-.32A.6.6,0,0,0,8.44,10.07Z" transform="translate(-4.79 -5.76)"/></g><g class="cls-21"><path class="cls-22" d="M6.36,10.67a.81.81,0,0,1-.46-.09l-.31-.13a1,1,0,0,1-.45-.53,1.05,1.05,0,0,0,.06.24.88.88,0,0,0,.5.52,2,2,0,0,0,1,0l-.24,0Z" transform="translate(-4.79 -5.76)"/></g><g class="cls-21"><path class="cls-22" d="M6.81,10.67H6.73A.11.11,0,0,0,6.81,10.67Z" transform="translate(-4.79 -5.76)"/></g><g class="cls-13"><path class="cls-22" d="M7.38,8.37l.2.1,0,0Z" transform="translate(-4.79 -5.76)"/></g><g class="cls-13"><path class="cls-22" d="M8.41,9.79A2.48,2.48,0,0,0,8.07,9a1.6,1.6,0,0,0-.49-.48,2.53,2.53,0,0,1,.57.94c0,.12.06.23.09.35a1,1,0,0,1-.07.69.67.67,0,0,1-.37.25,1.76,1.76,0,0,1-.45.07L7,10.8a2.2,2.2,0,0,0,.85,0,.77.77,0,0,0,.59-.56A1,1,0,0,0,8.41,9.79Z" transform="translate(-4.79 -5.76)"/></g><path class="cls-17" d="M7.61,11.37a.43.43,0,0,0-.24.22c0-.11-.14-.17-.24-.21a.8.8,0,0,0-.39-.09.75.75,0,0,0-.28.11l-.37.21c-.08,0-.17.08-.24,0a.29.29,0,0,1,0-.14.54.54,0,0,0-.19-.28s-.06,0-.07.08a1.27,1.27,0,0,0,.78,1.33l0-.06a1.44,1.44,0,0,0,.94,0,1.44,1.44,0,0,0,.49-.43,2,2,0,0,0,.2-.31A1.42,1.42,0,0,0,8,11.18C7.93,11.31,7.75,11.32,7.61,11.37Z" transform="translate(-4.79 -5.76)"/><path class="cls-18" d="M6.11,11.89s0,0,0,0S6.09,11.89,6.11,11.89Z" transform="translate(-4.79 -5.76)"/><path class="cls-18" d="M6.05,12.12a0,0,0,1,0,0,0A0,0,0,0,0,6.05,12.12Z" transform="translate(-4.79 -5.76)"/><path class="cls-18" d="M6.2,12.25a0,0,0,1,0,0,0A0,0,0,1,0,6.2,12.25Z" transform="translate(-4.79 -5.76)"/><path class="cls-18" d="M6.05,12.25a0,0,0,1,0,0,0A0,0,0,1,0,6.05,12.25Z" transform="translate(-4.79 -5.76)"/><path class="cls-18" d="M6.14,12.12h0s0,0,0,0,0,0,0,0h0s0,0,0,0a0,0,0,1,0,0,0h0a0,0,0,0,0,0,0Z" transform="translate(-4.79 -5.76)"/><path class="cls-18" d="M6,11.89a0,0,0,0,0,0,0A0,0,0,0,0,6,11.89Z" transform="translate(-4.79 -5.76)"/><path class="cls-18" d="M6.12,12.09h0s0,0,0,0h0a0,0,0,1,0,0,0Z" transform="translate(-4.79 -5.76)"/><path class="cls-18" d="M5.91,12h0a.25.25,0,0,1,0-.07,0,0,0,0,0,0,0h0a.14.14,0,0,1,0-.06s0,0,0,0a.89.89,0,0,0,.08.17h0l0,0S5.93,12,5.91,12Z" transform="translate(-4.79 -5.76)"/><path class="cls-18" d="M6,12s0,0,0,0A0,0,0,0,0,6,12Z" transform="translate(-4.79 -5.76)"/><path class="cls-18" d="M5.83,11.82s0,0,0,0A0,0,0,1,0,5.83,11.82Z" transform="translate(-4.79 -5.76)"/><path class="cls-18" d="M5.78,11.62a0,0,0,1,0,0,0A0,0,0,0,0,5.78,11.62Z" transform="translate(-4.79 -5.76)"/><path class="cls-18" d="M6,11.93s0,0,0,0A0,0,0,0,0,6,11.93Z" transform="translate(-4.79 -5.76)"/><path class="cls-18" d="M5.91,11.9h0s0,0,0,0h0S5.89,11.9,5.91,11.9Z" transform="translate(-4.79 -5.76)"/><path class="cls-18" d="M5.93,11.94a0,0,0,0,0,0,0A0,0,0,0,0,5.93,11.94Z" transform="translate(-4.79 -5.76)"/><path class="cls-18" d="M5.89,12.06h0s0,0,0,0h0A0,0,0,1,0,5.89,12.06Z" transform="translate(-4.79 -5.76)"/><path class="cls-18" d="M5.91,12a0,0,0,1,0,0,0A0,0,0,0,0,5.91,12Z" transform="translate(-4.79 -5.76)"/><path class="cls-18" d="M6,12.14s0,0,0,0S6,12.14,6,12.14Z" transform="translate(-4.79 -5.76)"/><path class="cls-18" d="M6.37,12.21s0,0,0,0l.06,0s0,0,0,0Z" transform="translate(-4.79 -5.76)"/><path class="cls-18" d="M6.32,12.24s0,0,0,0,0,0,0,0,0,0,0,0S6.34,12.25,6.32,12.24Z" transform="translate(-4.79 -5.76)"/><path class="cls-18" d="M6.17,12.22h0a0,0,0,0,0,0,0h0A0,0,0,1,0,6.17,12.22Z" transform="translate(-4.79 -5.76)"/><path class="cls-18" d="M6.23,12.14s0,0,0,0S6.25,12.14,6.23,12.14Z" transform="translate(-4.79 -5.76)"/><path class="cls-18" d="M6.06,12h0s0,0,0,0h0S6,12,6.06,12Z" transform="translate(-4.79 -5.76)"/><path class="cls-18" d="M6,12.07a0,0,0,0,0,0,0A0,0,0,1,0,6,12.07Z" transform="translate(-4.79 -5.76)"/><path class="cls-18" d="M6.22,12.21l0,0s0,0,0,0l0,0h0l0,0s0,0,0,0h0s0,0,0,0h0l.06.05S6.24,12.22,6.22,12.21Z" transform="translate(-4.79 -5.76)"/><path class="cls-18" d="M6.16,12.31s0,0,0,0h0s0,0,0,0Z" transform="translate(-4.79 -5.76)"/><path class="cls-18" d="M6.36,12.39a0,0,0,0,0,0,0A0,0,0,0,0,6.36,12.39Z" transform="translate(-4.79 -5.76)"/><path class="cls-18" d="M6.31,12.16a0,0,0,1,0,0,0A0,0,0,0,0,6.31,12.16Z" transform="translate(-4.79 -5.76)"/><path class="cls-18" d="M6.29,12.26s0,0,0,0A0,0,0,1,0,6.29,12.26Z" transform="translate(-4.79 -5.76)"/><path class="cls-18" d="M6.26,12.36a0,0,0,1,0,0,0S6.28,12.36,6.26,12.36Z" transform="translate(-4.79 -5.76)"/><path class="cls-18" d="M6.47,12.19a0,0,0,0,0,0,0A0,0,0,1,0,6.47,12.19Z" transform="translate(-4.79 -5.76)"/><path class="cls-18" d="M6.63,12.37a0,0,0,0,0,0,0A0,0,0,0,0,6.63,12.37Z" transform="translate(-4.79 -5.76)"/><path class="cls-18" d="M6.92,12.09a0,0,0,0,0,0,0A0,0,0,0,0,6.92,12.09Z" transform="translate(-4.79 -5.76)"/><path class="cls-18" d="M7.33,11.72s0,0,0,0S7.35,11.72,7.33,11.72Z" transform="translate(-4.79 -5.76)"/><path class="cls-18" d="M7.28,11.75s0,0,0,0S7.31,11.75,7.28,11.75Z" transform="translate(-4.79 -5.76)"/><path class="cls-18" d="M7.32,11.6a0,0,0,1,0,0,0A0,0,0,0,0,7.32,11.6Z" transform="translate(-4.79 -5.76)"/><path class="cls-18" d="M7.39,11.79a0,0,0,1,0,0,0A0,0,0,0,0,7.39,11.79Z" transform="translate(-4.79 -5.76)"/><path class="cls-18" d="M7.3,11.59s0,0,0,0l0,0s0,0,0,0Z" transform="translate(-4.79 -5.76)"/><path class="cls-18" d="M7.4,11.72a0,0,0,0,0,0,0A0,0,0,0,0,7.4,11.72Z" transform="translate(-4.79 -5.76)"/><path class="cls-18" d="M7.21,11.66a0,0,0,1,0,0,0h0s0,0,0,0,0,0,0,0,0,0,0,0h0Z" transform="translate(-4.79 -5.76)"/><path class="cls-18" d="M7.29,11.92s0,0,0,0S7.26,11.92,7.29,11.92Z" transform="translate(-4.79 -5.76)"/><path class="cls-18" d="M7.26,11.89s0,0,0,0S7.24,11.89,7.26,11.89Z" transform="translate(-4.79 -5.76)"/><path class="cls-18" d="M7.05,11.76s0,0,0,0S7,11.76,7.05,11.76Z" transform="translate(-4.79 -5.76)"/><path class="cls-18" d="M7.16,12s0,0,0,0A0,0,0,0,0,7.16,12Z" transform="translate(-4.79 -5.76)"/><path class="cls-18" d="M7.06,11.89s0,0,0,0S7,11.89,7.06,11.89Z" transform="translate(-4.79 -5.76)"/><path class="cls-18" d="M7.05,11.93a0,0,0,1,0,0,0A0,0,0,0,0,7.05,11.93Z" transform="translate(-4.79 -5.76)"/><path class="cls-18" d="M7,12s0,0,0,0v.07a0,0,0,0,0,0,0V12H7S7,12,7,12Z" transform="translate(-4.79 -5.76)"/><path class="cls-18" d="M7,12a0,0,0,1,0,0,0h0a0,0,0,0,0,0,0H7Z" transform="translate(-4.79 -5.76)"/><path class="cls-18" d="M7,11.93s0,0,0,0S7,11.93,7,11.93Z" transform="translate(-4.79 -5.76)"/><path class="cls-18" d="M6.89,12a0,0,0,0,0,0,0A0,0,0,0,0,6.89,12Z" transform="translate(-4.79 -5.76)"/><path class="cls-18" d="M7,12s0,0,0,0S7,12,7,12Z" transform="translate(-4.79 -5.76)"/><path class="cls-18" d="M7.06,11.94a0,0,0,0,0,0,0A0,0,0,0,0,7.06,11.94Z" transform="translate(-4.79 -5.76)"/><path class="cls-18" d="M7.1,11.91a0,0,0,0,0,0,0A0,0,0,0,0,7.1,11.91Z" transform="translate(-4.79 -5.76)"/><path class="cls-18" d="M7.08,11.77s0,0,0,0a0,0,0,0,0,0,0,0,0,0,0,0,0,0S7.07,11.77,7.08,11.77Z" transform="translate(-4.79 -5.76)"/><path class="cls-18" d="M7.17,12h0s0,0,0,0a0,0,0,1,0,0,0h0s0,0,0,0A0,0,0,1,0,7.17,12Z" transform="translate(-4.79 -5.76)"/><path class="cls-18" d="M7.16,11.79a0,0,0,0,0,0,0h0s0,0,0,0,0,0,0,0h0S7.14,11.79,7.16,11.79Z" transform="translate(-4.79 -5.76)"/><path class="cls-18" d="M7.2,11.81a0,0,0,1,0,0,0A0,0,0,0,0,7.2,11.81Z" transform="translate(-4.79 -5.76)"/><path class="cls-18" d="M7.27,11.81a0,0,0,0,0,0,0S7.29,11.81,7.27,11.81Z" transform="translate(-4.79 -5.76)"/><path class="cls-18" d="M7.16,11.62s0,0,0,0a0,0,0,0,0,0,0s0,0,0,0S7.14,11.62,7.16,11.62Z" transform="translate(-4.79 -5.76)"/><path class="cls-18" d="M7.12,11.58l0,0s0,0,0,0h0s0,0,0,0,0,0,0,0Z" transform="translate(-4.79 -5.76)"/><path class="cls-18" d="M7.09,11.52s0,0,0,0h0s0,0,0,0Z" transform="translate(-4.79 -5.76)"/><path class="cls-18" d="M7.26,11.66h0s0,0,0,0h0s0,0,0,0h0s0,0,0,0A0,0,0,0,0,7.26,11.66Z" transform="translate(-4.79 -5.76)"/><path class="cls-18" d="M7,11.48s0,0,0,0S7,11.48,7,11.48Z" transform="translate(-4.79 -5.76)"/><path class="cls-18" d="M7.11,11.52a0,0,0,1,0,0,0A0,0,0,1,0,7.11,11.52Z" transform="translate(-4.79 -5.76)"/><path class="cls-18" d="M7.21,11.65a0,0,0,0,0,0,0A0,0,0,1,0,7.21,11.65Z" transform="translate(-4.79 -5.76)"/><path class="cls-18" d="M6.91,11.42a0,0,0,0,0,0,0A0,0,0,1,0,6.91,11.42Z" transform="translate(-4.79 -5.76)"/><path class="cls-18" d="M7.2,11.57s0,0,0,0,0,0,0,0,0,0,0,0S7.19,11.57,7.2,11.57Z" transform="translate(-4.79 -5.76)"/><path class="cls-18" d="M7.11,11.44a0,0,0,1,0,0,0A0,0,0,0,0,7.11,11.44Z" transform="translate(-4.79 -5.76)"/><path class="cls-18" d="M7,11.81s0,0,0,0A0,0,0,1,0,7,11.81Z" transform="translate(-4.79 -5.76)"/><path class="cls-18" d="M7,12.13a0,0,0,0,0,0,0A0,0,0,0,0,7,12.13Z" transform="translate(-4.79 -5.76)"/><path class="cls-18" d="M7,12.22a0,0,0,0,0,0,0A0,0,0,0,0,7,12.22Z" transform="translate(-4.79 -5.76)"/><path class="cls-18" d="M7.19,12.11a0,0,0,1,0,0,0A0,0,0,1,0,7.19,12.11Z" transform="translate(-4.79 -5.76)"/><path class="cls-18" d="M7.19,12.19a0,0,0,1,0,0,0A0,0,0,1,0,7.19,12.19Z" transform="translate(-4.79 -5.76)"/><path class="cls-18" d="M7.08,12.33a0,0,0,0,0,0,0A0,0,0,0,0,7.08,12.33Z" transform="translate(-4.79 -5.76)"/><path class="cls-18" d="M7.14,12.2s0,0,0,0S7.17,12.2,7.14,12.2Z" transform="translate(-4.79 -5.76)"/><path class="cls-18" d="M7.14,12.16s0,0,0,0S7.17,12.16,7.14,12.16Z" transform="translate(-4.79 -5.76)"/><path class="cls-18" d="M7.28,12.22s0,0,0,0S7.31,12.22,7.28,12.22Z" transform="translate(-4.79 -5.76)"/><path class="cls-18" d="M7.19,12.35a0,0,0,0,0,0,0A0,0,0,0,0,7.19,12.35Z" transform="translate(-4.79 -5.76)"/><path class="cls-18" d="M7.24,12.29a0,0,0,1,0,0,0A0,0,0,0,0,7.24,12.29Z" transform="translate(-4.79 -5.76)"/><path class="cls-18" d="M7.36,12.19a0,0,0,0,0,0,0A0,0,0,1,0,7.36,12.19Z" transform="translate(-4.79 -5.76)"/><path class="cls-18" d="M7.46,12.23a0,0,0,1,0,0,0A0,0,0,1,0,7.46,12.23Z" transform="translate(-4.79 -5.76)"/><path class="cls-18" d="M7.27,12.37s0,0,0,0h0a0,0,0,0,0,0,0h0a0,0,0,0,0,0,0s0,0,0,0h0s0,0,0,0v0h0S7.29,12.37,7.27,12.37Z" transform="translate(-4.79 -5.76)"/><path class="cls-18" d="M7.35,12.33a0,0,0,0,0,0,0A0,0,0,1,0,7.35,12.33Z" transform="translate(-4.79 -5.76)"/><path class="cls-18" d="M7.51,12.2a0,0,0,0,0,0,0A0,0,0,1,0,7.51,12.2Z" transform="translate(-4.79 -5.76)"/><path class="cls-18" d="M7.55,12.19a0,0,0,0,0,0,0A0,0,0,1,0,7.55,12.19Z" transform="translate(-4.79 -5.76)"/><path class="cls-18" d="M7.64,12.15s0,0,0,0S7.66,12.15,7.64,12.15Z" transform="translate(-4.79 -5.76)"/><path class="cls-18" d="M7.35,12.44s0,0,0,0S7.37,12.44,7.35,12.44Z" transform="translate(-4.79 -5.76)"/><path class="cls-18" d="M7.53,12.25a0,0,0,1,0,0,0A0,0,0,1,0,7.53,12.25Z" transform="translate(-4.79 -5.76)"/><path class="cls-18" d="M7.41,12.34a0,0,0,0,0,0,0S7.43,12.34,7.41,12.34Z" transform="translate(-4.79 -5.76)"/><path class="cls-18" d="M7.39,12.23a0,0,0,1,0,0,0A0,0,0,1,0,7.39,12.23Z" transform="translate(-4.79 -5.76)"/><path class="cls-18" d="M7.37,12.18s0,0,0,0S7.35,12.18,7.37,12.18Z" transform="translate(-4.79 -5.76)"/><path class="cls-18" d="M7.46,12.19a0,0,0,0,0,0,0A0,0,0,0,0,7.46,12.19Z" transform="translate(-4.79 -5.76)"/><path class="cls-18" d="M7.21,12a0,0,0,0,0,0,0A0,0,0,0,0,7.21,12Z" transform="translate(-4.79 -5.76)"/><path class="cls-18" d="M7.12,12.08a0,0,0,0,0,0,0A0,0,0,0,0,7.12,12.08Z" transform="translate(-4.79 -5.76)"/><path class="cls-18" d="M7.31,12.14h0s0,0,0,0,0,0,0,0h0s0,0,0,0S7.33,12.14,7.31,12.14Z" transform="translate(-4.79 -5.76)"/><path class="cls-18" d="M7.55,12.14s0,0,0,0S7.57,12.14,7.55,12.14Z" transform="translate(-4.79 -5.76)"/><path class="cls-18" d="M7.59,12.09s0,0,0,0A0,0,0,1,0,7.59,12.09Z" transform="translate(-4.79 -5.76)"/><path class="cls-18" d="M7.65,12s0,0,0,0S7.67,12,7.65,12Z" transform="translate(-4.79 -5.76)"/><path class="cls-18" d="M7.73,12s0,0,0,0A0,0,0,1,0,7.73,12Z" transform="translate(-4.79 -5.76)"/><path class="cls-18" d="M7.84,11.86s0,0,0,0h0s0,0,0,0l0,0h0S7.86,11.86,7.84,11.86Z" transform="translate(-4.79 -5.76)"/><g class="cls-13"><path class="cls-14" d="M5.66,11.61a.48.48,0,0,0,0-.12s-.06-.07-.09-.05a.56.56,0,0,0,0,.38,2.39,2.39,0,0,0,.21.34.26.26,0,0,0,0-.28A.75.75,0,0,1,5.66,11.61Z" transform="translate(-4.79 -5.76)"/></g><g class="cls-13"><path class="cls-14" d="M5.57,11.43l0-.06S5.58,11.41,5.57,11.43Z" transform="translate(-4.79 -5.76)"/></g><g class="cls-13"><polygon class="cls-14" points="0.77 5.68 0.77 5.68 0.78 5.67 0.77 5.68"/></g><g class="cls-13"><path class="cls-14" d="M6.45,12.05A.23.23,0,0,0,6.68,12a.52.52,0,0,0,.2-.56s0-.05,0-.06H6.77a.19.19,0,0,0-.1,0h0l.06-.06-.18.11h0a1.18,1.18,0,0,0-.39.19s0,0,0,.06,0,.1.06.13a.61.61,0,0,1,.14.07C6.35,11.94,6.38,12,6.45,12.05Z" transform="translate(-4.79 -5.76)"/></g><g class="cls-13"><path class="cls-14" d="M6.84,12.19h0a.75.75,0,0,1-.34.18.52.52,0,0,0-.18,0s.06.06.1.07l.42.06H7A.1.1,0,0,0,7,12.44s0-.06,0-.09Z" transform="translate(-4.79 -5.76)"/></g><g class="cls-13"><path class="cls-14" d="M7.48,11.54c-.08.12,0,.3-.09.43s0,.07,0,.09h0c.19,0,.3-.21.39-.37a.55.55,0,0,0,.07-.3v-.07C7.76,11.43,7.57,11.42,7.48,11.54Z" transform="translate(-4.79 -5.76)"/></g><g class="cls-13"><path class="cls-14" d="M6.79,11.42H6.73l0,0-.09,0-.06,0-.3.12,0,0s0,0,0,0l.11.17a.08.08,0,0,0,0,0h0l.19-.12c.08,0,.16-.11.16-.2s0,0,0,0Z" transform="translate(-4.79 -5.76)"/></g><g class="cls-13"><path class="cls-14" d="M7.79,11.33l-.11.08a.19.19,0,0,0-.12.11.36.36,0,0,0,0,.25,1.81,1.81,0,0,0,.29-.33s0-.07,0-.1A.1.1,0,0,0,7.79,11.33Z" transform="translate(-4.79 -5.76)"/></g><path class="cls-19" d="M12.55,11.41a.2.2,0,0,0-.12-.06l-.7-.19a.38.38,0,0,0-.21,0c-.16.49-.31,1-.45,1.49a.32.32,0,0,0,0,.14.24.24,0,0,0,.13.11,2.85,2.85,0,0,0,.54.18h.11a.16.16,0,0,0,.08-.06c.22-.26.2-.66.38-.95a2,2,0,0,0,.28-.44A.2.2,0,0,0,12.55,11.41Z" transform="translate(-4.79 -5.76)"/><path class="cls-4" d="M12.41,11.7h-.05a1,1,0,0,1-.31-.16,1.09,1.09,0,0,0-.57-.08v-.11l-.18.46c.08-.07.1-.2.19-.24a.21.21,0,0,1,.19,0,.53.53,0,0,1,.25.43,1,1,0,0,1-.1.5.14.14,0,0,0,0,.11s.08,0,.12,0a.28.28,0,0,0,.08-.11,2,2,0,0,1,.36-.71S12.45,11.72,12.41,11.7Z" transform="translate(-4.79 -5.76)"/><path class="cls-11" d="M13.3,10.07a1.25,1.25,0,0,0-.7-.6,1.74,1.74,0,0,0-1.36.27A1.13,1.13,0,0,0,11,11.15a1.52,1.52,0,0,0,.31.31,2.09,2.09,0,0,0,1.08.4,1.05,1.05,0,0,0,.82-.25,1.08,1.08,0,0,0,.23-.63A1.79,1.79,0,0,0,13.3,10.07Z" transform="translate(-4.79 -5.76)"/><path class="cls-9" d="M11.51,11.15h0l0-.05Z" transform="translate(-4.79 -5.76)"/><g class="cls-15"><path class="cls-19" d="M12.87,9.66a.27.27,0,0,0-.15-.09A1.48,1.48,0,0,0,12,9.48a1,1,0,0,0-.71.34.57.57,0,0,0,0,.73.82.82,0,0,0,.72.14,1.48,1.48,0,0,0,.65-.22A.73.73,0,0,0,13,9.89.45.45,0,0,0,12.87,9.66Z" transform="translate(-4.79 -5.76)"/></g><g class="cls-15"><path class="cls-14" d="M12.67,9.66l0-.07a.23.23,0,0,0-.14-.07,1.15,1.15,0,0,0-.32,0h0a.66.66,0,0,0-.34,0,.6.6,0,0,0-.36.4.2.2,0,0,0,0,.2l.08,0a.61.61,0,0,0,.27.08,1.72,1.72,0,0,0,.29-.11,2,2,0,0,1,.26-.05.38.38,0,0,0,.23-.13A.39.39,0,0,0,12.67,9.66Z" transform="translate(-4.79 -5.76)"/></g><g class="cls-6"><path class="cls-16" d="M11.75,11.19l-.1.07,0-.16s0,0,0,0l-.05,0a.23.23,0,0,1,0-.12l-.05.06a2.21,2.21,0,0,1,.06-.34.53.53,0,0,0-.13.36,1.29,1.29,0,0,1,0-.39c-.09.07,0,.24-.1.33a.88.88,0,0,1,0-.28l0,.25a.85.85,0,0,1,0-.39.75.75,0,0,0-.09.3,1.41,1.41,0,0,1,0-.41.76.76,0,0,0,0,.27v-.2l0,.11a.94.94,0,0,1,0-.5s0,0,0,0v0l0,.12a.29.29,0,0,1,0,.09,1.1,1.1,0,0,0,.08.67V11a.68.68,0,0,0,0,.14.24.24,0,0,0,0-.08.7.7,0,0,0,0,.14.24.24,0,0,0,.05-.14v.08l0,0a.68.68,0,0,0,0,.14,0,0,0,0,0,0,0l0,.14a.41.41,0,0,0,.05-.09l0,.1,0-.1a.15.15,0,0,0,0,.09l0-.06,0,.12,0,0,0,.06s0,0,0,0h0v.05a0,0,0,0,1,.06,0,.1.1,0,0,0,0-.05l0,.05.11-.16a.28.28,0,0,1,0,.09.13.13,0,0,0,.05-.13l-.14.1Z" transform="translate(-4.79 -5.76)"/></g><g class="cls-6"><path class="cls-16" d="M12.23,11.38s0,0,0,0a.28.28,0,0,1,0-.09l0,0a.45.45,0,0,1,.08-.37.54.54,0,0,0-.1.16l0-.09s-.05,0-.07.08a1.28,1.28,0,0,0-.13.51.6.6,0,0,1,.14-.26.58.58,0,0,1-.06.17h0v.13C12.12,11.57,12.18,11.48,12.23,11.38Z" transform="translate(-4.79 -5.76)"/></g><g class="cls-6"><path class="cls-16" d="M13.39,10.49a1.14,1.14,0,0,1-.07.63,1.26,1.26,0,0,0,0-.28,3.09,3.09,0,0,1-.12.59c0-.19,0-.39.05-.58a2.7,2.7,0,0,1-.06.41.36.36,0,0,1-.14.27,1.48,1.48,0,0,1,.1-.27,1.14,1.14,0,0,1-.18.25,1.05,1.05,0,0,1,.06-.24,1,1,0,0,1-.25.36l.1-.23a.48.48,0,0,1-.21.19.64.64,0,0,0,.19-.45c-.07.15-.15.3-.23.44a2.44,2.44,0,0,0,.06-.39.78.78,0,0,1-.18.44l.08-.19-.09.11a.06.06,0,0,0,0-.08h0l0,0h0v-.08a.41.41,0,0,1,0,.09l0,0,0,.06,0,.1.09-.05a.33.33,0,0,1-.13.13h.1a.1.1,0,0,1-.05,0,.33.33,0,0,0,.17,0s0,0,0,0,0,0,.07,0a.49.49,0,0,0,.27,0s0,0,.05,0h0a.46.46,0,0,0,.3-.17,1,1,0,0,0,.18-.31A1,1,0,0,0,13.39,10.49Z" transform="translate(-4.79 -5.76)"/></g><g class="cls-6"><path class="cls-20" d="M12.87,11.77h0Z" transform="translate(-4.79 -5.76)"/></g><g class="cls-6"><path class="cls-20" d="M12.23,11.59a.18.18,0,0,0,.07-.05v0Z" transform="translate(-4.79 -5.76)"/></g><g class="cls-13"><path class="cls-14" d="M11.8,12v-.15s0,0,0-.07l-.06-.05a.46.46,0,0,0-.25-.08h0a.27.27,0,0,0,0,.26.69.69,0,0,0,.22.16.06.06,0,0,0,.08,0A.06.06,0,0,0,11.8,12Z" transform="translate(-4.79 -5.76)"/></g><g class="cls-15"><path class="cls-14" d="M12.5,9.55s0,0-.06,0h-.1a.69.69,0,0,0-.66.14.25.25,0,0,0-.11.29.21.21,0,0,0,.15.11.61.61,0,0,0,.19,0,1.43,1.43,0,0,0,.27-.09.59.59,0,0,0,.22-.12.27.27,0,0,0,.11-.23A.11.11,0,0,0,12.5,9.55Z" transform="translate(-4.79 -5.76)"/></g><g class="cls-21"><path class="cls-22" d="M11.73,11.49s0-.06,0-.07h0l-.09,0-.28-.19s-.07,0-.1,0a2.64,2.64,0,0,1-.23-.44.44.44,0,0,1,0-.19.61.61,0,0,0,0,.19.66.66,0,0,0,.17.45.74.74,0,0,1,.12.13s0,.06,0,.06h0c.08,0,.11.09.17.14l.07,0,.23.11s.06,0,.06,0A.13.13,0,0,1,11.73,11.49Z" transform="translate(-4.79 -5.76)"/></g><g class="cls-21"><path class="cls-22" d="M11,10.52s0,0,0-.06S11,10.5,11,10.52Z" transform="translate(-4.79 -5.76)"/></g><g class="cls-21"><path class="cls-22" d="M13.34,10.31A1.13,1.13,0,0,0,13,9.75a1,1,0,0,0-.18-.17.45.45,0,0,0-.37-.09,1.09,1.09,0,0,1,.42.51,1.22,1.22,0,0,1,0,.33,1.79,1.79,0,0,1-.14.73,1.44,1.44,0,0,1-.74.61,1,1,0,0,0,1.19-.12.62.62,0,0,0,.17-.22,1,1,0,0,0,.07-.28A1.83,1.83,0,0,0,13.34,10.31Z" transform="translate(-4.79 -5.76)"/></g><g class="cls-13"><path class="cls-22" d="M13.43,10.69a1.27,1.27,0,0,0-.6-1.07h0a1.48,1.48,0,0,1,.46.9,1.17,1.17,0,0,1-.33.94,1,1,0,0,1-.95.24,1.12,1.12,0,0,0,1,0A1.1,1.1,0,0,0,13.43,10.69Z" transform="translate(-4.79 -5.76)"/></g><path class="cls-17" d="M13.14,11.48a.16.16,0,0,0-.05-.09.11.11,0,0,0-.11,0c-.23.13-.18.54-.43.65-.06,0-.15,0-.2.09s-.07.29-.2.31-.06-.21-.15-.21-.15.26-.28.25,0-.21-.09-.29-.14,0-.2-.08-.09-.36-.25-.4a.2.2,0,0,0-.18.1l0,.12a2,2,0,0,0-.08.92.47.47,0,0,0,0,.16.33.33,0,0,0,.14.1,1.06,1.06,0,0,0,.78.19,4.19,4.19,0,0,0,.5-.28,1.78,1.78,0,0,0,.29-.12.78.78,0,0,0,.24-.34A1.84,1.84,0,0,0,13.14,11.48Z" transform="translate(-4.79 -5.76)"/><path class="cls-18" d="M11.29,12.11a0,0,0,1,0,0,0S11.27,12.11,11.29,12.11Z" transform="translate(-4.79 -5.76)"/><path class="cls-18" d="M11.36,12.26a0,0,0,0,0,0,0S11.39,12.26,11.36,12.26Z" transform="translate(-4.79 -5.76)"/><path class="cls-18" d="M11.26,12h0s0,0,0,0h0s0,0,0,0S11.24,12,11.26,12Z" transform="translate(-4.79 -5.76)"/><path class="cls-18" d="M11.43,12.22s0,0,0,0S11.45,12.22,11.43,12.22Z" transform="translate(-4.79 -5.76)"/><path class="cls-18" d="M11.42,12.15s0,0,0,0S11.44,12.15,11.42,12.15Z" transform="translate(-4.79 -5.76)"/><path class="cls-18" d="M11.33,12.14h0s0,0,0,0l0,0s0,0,0,0A0,0,0,1,0,11.33,12.14Z" transform="translate(-4.79 -5.76)"/><path class="cls-18" d="M11.25,12.14s0,0,0,0S11.27,12.14,11.25,12.14Z" transform="translate(-4.79 -5.76)"/><path class="cls-18" d="M11.3,12.28s0,0,0,0S11.33,12.28,11.3,12.28Z" transform="translate(-4.79 -5.76)"/><path class="cls-18" d="M11.25,12h0s0,0,0,0h0a0,0,0,1,0,0,0Z" transform="translate(-4.79 -5.76)"/><path class="cls-18" d="M11.28,12.19s0,0,0,0S11.26,12.19,11.28,12.19Z" transform="translate(-4.79 -5.76)"/><path class="cls-18" d="M11.33,12.24a0,0,0,0,0,0,0A0,0,0,0,0,11.33,12.24Z" transform="translate(-4.79 -5.76)"/><path class="cls-18" d="M11.27,12.34s0,0,0,0S11.29,12.34,11.27,12.34Z" transform="translate(-4.79 -5.76)"/><path class="cls-18" d="M11.17,12.22a0,0,0,1,0,0,0S11.19,12.22,11.17,12.22Z" transform="translate(-4.79 -5.76)"/><path class="cls-18" d="M11.2,12.38a0,0,0,1,0,0,0A0,0,0,0,0,11.2,12.38Z" transform="translate(-4.79 -5.76)"/><path class="cls-18" d="M11.14,12.47a0,0,0,0,0,0,0S11.16,12.47,11.14,12.47Z" transform="translate(-4.79 -5.76)"/><path class="cls-18" d="M11.11,12.35s0,0,0,0S11.13,12.35,11.11,12.35Z" transform="translate(-4.79 -5.76)"/><path class="cls-18" d="M11.11,12.49l0,0h0s0,0,0,0,0,0,0,0h0S11.13,12.49,11.11,12.49Z" transform="translate(-4.79 -5.76)"/><path class="cls-18" d="M11,12.38a0,0,0,1,0,0,0S11,12.38,11,12.38Z" transform="translate(-4.79 -5.76)"/><path class="cls-18" d="M11,12.64s0,0,0,0A0,0,0,1,0,11,12.64Z" transform="translate(-4.79 -5.76)"/><path class="cls-18" d="M11,12.89s0,0,0,0A0,0,0,0,0,11,12.89Z" transform="translate(-4.79 -5.76)"/><path class="cls-18" d="M11.05,12.85s0,0,0,0S11.07,12.85,11.05,12.85Z" transform="translate(-4.79 -5.76)"/><path class="cls-18" d="M11.1,12.67s0,0,0,0A0,0,0,0,0,11.1,12.67Z" transform="translate(-4.79 -5.76)"/><path class="cls-18" d="M11.32,12.34a0,0,0,1,0,0,0S11.34,12.34,11.32,12.34Z" transform="translate(-4.79 -5.76)"/><path class="cls-18" d="M11.46,12.31s0,0,0,0A0,0,0,1,0,11.46,12.31Z" transform="translate(-4.79 -5.76)"/><path class="cls-18" d="M11.55,12.41a0,0,0,0,0,0,0A0,0,0,0,0,11.55,12.41Z" transform="translate(-4.79 -5.76)"/><path class="cls-18" d="M11.6,12.54s0,0,0,0A0,0,0,1,0,11.6,12.54Z" transform="translate(-4.79 -5.76)"/><path class="cls-18" d="M11.6,12.72a0,0,0,1,0,0,0S11.62,12.72,11.6,12.72Z" transform="translate(-4.79 -5.76)"/><path class="cls-18" d="M11.54,12.89h0a0,0,0,0,0,0,0h0S11.55,12.88,11.54,12.89Z" transform="translate(-4.79 -5.76)"/><path class="cls-18" d="M11.53,13.05h0a0,0,0,0,0,0,0h0A0,0,0,0,0,11.53,13.05Z" transform="translate(-4.79 -5.76)"/><path class="cls-18" d="M11.61,12.82s0,0,0,0A0,0,0,1,0,11.61,12.82Z" transform="translate(-4.79 -5.76)"/><path class="cls-18" d="M11.64,12.67a0,0,0,0,0,0,0S11.66,12.67,11.64,12.67Z" transform="translate(-4.79 -5.76)"/><path class="cls-18" d="M11.67,12.58s0,0,0,0S11.64,12.58,11.67,12.58Z" transform="translate(-4.79 -5.76)"/><path class="cls-18" d="M11.68,12.54s0,0,0,0S11.66,12.54,11.68,12.54Z" transform="translate(-4.79 -5.76)"/><path class="cls-18" d="M11.7,12.72h0a0,0,0,0,0,0,0s0,0,0,0h0s0,0,0,0S11.72,12.72,11.7,12.72Z" transform="translate(-4.79 -5.76)"/><path class="cls-18" d="M11.82,12.55h0s0,0,0,0h0l0,0s0,0,0,0h0s0,0,0,0,0,0,0,0S11.83,12.55,11.82,12.55Z" transform="translate(-4.79 -5.76)"/><path class="cls-18" d="M11.9,12.44s0,0,0,0S11.92,12.44,11.9,12.44Z" transform="translate(-4.79 -5.76)"/><path class="cls-18" d="M11.76,12.57s0,0,0,0S11.78,12.57,11.76,12.57Z" transform="translate(-4.79 -5.76)"/><path class="cls-18" d="M11.93,12.39a0,0,0,0,0,0,0S12,12.39,11.93,12.39Z" transform="translate(-4.79 -5.76)"/><path class="cls-18" d="M12,12.31a0,0,0,0,0,0,0S12,12.31,12,12.31Z" transform="translate(-4.79 -5.76)"/><path class="cls-18" d="M12.18,12.56l0,0s0,0,0,0l0,0S12.17,12.58,12.18,12.56Z" transform="translate(-4.79 -5.76)"/><path class="cls-18" d="M12.13,12.65s0,0,0,0S12.15,12.65,12.13,12.65Z" transform="translate(-4.79 -5.76)"/><path class="cls-18" d="M12.09,12.87s0,0,0,0a0,0,0,1,0,0,0s0,0,0,0S12.12,12.87,12.09,12.87Z" transform="translate(-4.79 -5.76)"/><path class="cls-18" d="M12.24,12.59v0s0,0,0,0v0S12.23,12.61,12.24,12.59Z" transform="translate(-4.79 -5.76)"/><path class="cls-18" d="M12.39,12.28a0,0,0,1,0,0,0S12.41,12.28,12.39,12.28Z" transform="translate(-4.79 -5.76)"/><path class="cls-18" d="M12.4,12.24s0,0,0,0A0,0,0,0,0,12.4,12.24Z" transform="translate(-4.79 -5.76)"/><path class="cls-18" d="M12.35,12.34l0,0s0,0,0,0l0-.05S12.36,12.32,12.35,12.34Z" transform="translate(-4.79 -5.76)"/><path class="cls-18" d="M12.34,12.27h0a0,0,0,0,0,0,0h0A0,0,0,0,0,12.34,12.27Z" transform="translate(-4.79 -5.76)"/><path class="cls-18" d="M12.29,12.46a0,0,0,0,0,0,0h0s0,0,0,0h0S12.27,12.46,12.29,12.46Z" transform="translate(-4.79 -5.76)"/><path class="cls-18" d="M12.28,12.53s0,0,0,0,0,0,0,0,0,0,0,0S12.26,12.53,12.28,12.53Z" transform="translate(-4.79 -5.76)"/><path class="cls-18" d="M12.33,12.53s0,0,0,0A0,0,0,0,0,12.33,12.53Z" transform="translate(-4.79 -5.76)"/><path class="cls-18" d="M12.19,12.7s0,0,0,0S12.21,12.7,12.19,12.7Z" transform="translate(-4.79 -5.76)"/><path class="cls-18" d="M12.16,12.83l0,.07s0,0,0,0l0-.07S12.17,12.81,12.16,12.83Z" transform="translate(-4.79 -5.76)"/><path class="cls-18" d="M12.33,12.49s0,0,0,0S12.35,12.49,12.33,12.49Z" transform="translate(-4.79 -5.76)"/><path class="cls-18" d="M12.39,12.24s0,0,0,0A0,0,0,1,0,12.39,12.24Z" transform="translate(-4.79 -5.76)"/><path class="cls-18" d="M12.29,12.38s0,0,0,0S12.27,12.38,12.29,12.38Z" transform="translate(-4.79 -5.76)"/><path class="cls-18" d="M12.24,12.51s0,0,0,0S12.21,12.51,12.24,12.51Z" transform="translate(-4.79 -5.76)"/><path class="cls-18" d="M12.26,12.6s0,0,0,0A0,0,0,1,0,12.26,12.6Z" transform="translate(-4.79 -5.76)"/><path class="cls-18" d="M12.22,12.74h0s0,0,0,0,0,0,0,0,0,0,0,0A0,0,0,0,0,12.22,12.74Z" transform="translate(-4.79 -5.76)"/><path class="cls-18" d="M12.32,12.56s0,0,0,0h0s0,0,0,0,0,0,0,0h0S12.34,12.56,12.32,12.56Z" transform="translate(-4.79 -5.76)"/><path class="cls-18" d="M12.91,11.59s0,0,0,0S12.89,11.59,12.91,11.59Z" transform="translate(-4.79 -5.76)"/><path class="cls-18" d="M12.87,11.84s0,0,0,0A0,0,0,1,0,12.87,11.84Z" transform="translate(-4.79 -5.76)"/><path class="cls-18" d="M12.84,12s0,0,0,0S12.82,12,12.84,12Z" transform="translate(-4.79 -5.76)"/><path class="cls-18" d="M12.88,11.72v0s0,0,0,0l0,0S12.87,11.74,12.88,11.72Z" transform="translate(-4.79 -5.76)"/><path class="cls-18" d="M12.93,12a0,0,0,0,0,0,0A0,0,0,1,0,12.93,12Z" transform="translate(-4.79 -5.76)"/><path class="cls-18" d="M12.92,12.17s0,0,0,0S12.9,12.17,12.92,12.17Z" transform="translate(-4.79 -5.76)"/><path class="cls-18" d="M12.88,12.05s0,0,0,0S12.91,12.05,12.88,12.05Z" transform="translate(-4.79 -5.76)"/><path class="cls-18" d="M12.8,12.41a0,0,0,1,0,0,0S12.83,12.41,12.8,12.41Z" transform="translate(-4.79 -5.76)"/><path class="cls-18" d="M12.82,12.17v-.11s0,0,0,0h0s0,0,0,0v.08S12.82,12.19,12.82,12.17Z" transform="translate(-4.79 -5.76)"/><path class="cls-18" d="M12.76,12.5a0,0,0,1,0,0,0S12.74,12.5,12.76,12.5Z" transform="translate(-4.79 -5.76)"/><path class="cls-18" d="M12.86,12.3v0s0,0,0,0v0S12.86,12.32,12.86,12.3Z" transform="translate(-4.79 -5.76)"/><path class="cls-18" d="M12.88,12.21v-.06s0,0,0,0v0h0s0,0,0,0h0A0,0,0,0,0,12.88,12.21Z" transform="translate(-4.79 -5.76)"/><path class="cls-18" d="M12.9,12.29h0v0s0,0,0,0l0,0v0a0,0,0,0,0,0,0h0s0,0,0,0a0,0,0,0,0,0,0l0-.06S12.92,12.27,12.9,12.29Zm0,.08Z" transform="translate(-4.79 -5.76)"/><path class="cls-18" d="M12.8,12.56s0,0,0,0A0,0,0,1,0,12.8,12.56Z" transform="translate(-4.79 -5.76)"/><path class="cls-18" d="M12.78,12.62a0,0,0,0,0,0,0A0,0,0,1,0,12.78,12.62Z" transform="translate(-4.79 -5.76)"/><path class="cls-18" d="M12.73,12.75a0,0,0,0,0,0,0S12.76,12.75,12.73,12.75Z" transform="translate(-4.79 -5.76)"/><path class="cls-18" d="M12.75,12.59l0,0s0,0,0,0h0A0,0,0,1,0,12.75,12.59Z" transform="translate(-4.79 -5.76)"/><path class="cls-18" d="M12.68,12.75s0,0,0,0A0,0,0,0,0,12.68,12.75Z" transform="translate(-4.79 -5.76)"/><g class="cls-13"><path class="cls-14" d="M11.14,11.77l-.06.05c-.05,0-.08.07-.1.12a1.72,1.72,0,0,0-.08.78l.27-.63a.53.53,0,0,0,0-.17A.17.17,0,0,0,11.14,11.77Z" transform="translate(-4.79 -5.76)"/></g><g class="cls-13"><path class="cls-14" d="M11.47,12.3a.83.83,0,0,0-.25.55.22.22,0,0,0,0,.14.12.12,0,0,0,.11.07c.08,0,.11-.11.12-.19l.09-.55-.05,0S11.48,12.29,11.47,12.3Z" transform="translate(-4.79 -5.76)"/></g><g class="cls-13"><path class="cls-14" d="M11.81,12.7c-.07.14-.13.27-.19.41l.21,0A.45.45,0,0,0,12,13a.34.34,0,0,0,.05-.14c0-.17.05-.34.07-.51A.83.83,0,0,0,11.81,12.7Z" transform="translate(-4.79 -5.76)"/></g><g class="cls-13"><path class="cls-14" d="M12.07,12.35l0-.1s0,.07,0,.1Z" transform="translate(-4.79 -5.76)"/></g><g class="cls-13"><path class="cls-14" d="M13,11.51a.07.07,0,0,0-.06,0h0A.58.58,0,0,0,13,12,1,1,0,0,0,13,11.51Z" transform="translate(-4.79 -5.76)"/></g><g class="cls-13"><path class="cls-14" d="M12.69,12.06a.07.07,0,0,0-.06,0l0,0a.23.23,0,0,0-.15.14s0,.07,0,.1-.11.31-.09.47.16-.06.2-.14a1.52,1.52,0,0,0,.16-.51S12.73,12.07,12.69,12.06Z" transform="translate(-4.79 -5.76)"/></g><g class="cls-13"><path class="cls-14" d="M11.09,11.81a.25.25,0,0,0,0,.09,1.06,1.06,0,0,0-.05.31.68.68,0,0,0,.18-.32s0-.07,0-.09S11.11,11.79,11.09,11.81Z" transform="translate(-4.79 -5.76)"/></g><g class="cls-13"><path class="cls-14" d="M11.52,12.27v0l0,0,0,0a.22.22,0,0,0-.05.11.64.64,0,0,0-.1.33.72.72,0,0,0,.27-.33.11.11,0,0,0,0-.11A.07.07,0,0,0,11.52,12.27Z" transform="translate(-4.79 -5.76)"/></g><g class="cls-13"><path class="cls-14" d="M12,12.38l0,0S12,12.35,12,12.38Z" transform="translate(-4.79 -5.76)"/></g><g class="cls-13"><polygon class="cls-14" points="7.22 6.59 7.23 6.59 7.24 6.59 7.22 6.59"/></g><g class="cls-13"><path class="cls-14" d="M12,12.35a.56.56,0,0,0-.11.37.38.38,0,0,0,.13-.25.12.12,0,0,0,0-.1Z" transform="translate(-4.79 -5.76)"/></g><g class="cls-13"><path class="cls-14" d="M12.63,12.06h0l-.17.07a.1.1,0,0,0-.05,0,.12.12,0,0,0,0,.13.45.45,0,0,1,0,.28.54.54,0,0,0,.24-.44.15.15,0,0,0,0-.07S12.63,12,12.63,12.06Z" transform="translate(-4.79 -5.76)"/></g><g class="cls-13"><path class="cls-14" d="M13.06,11.52s-.06,0-.08,0l0,0a0,0,0,0,0,0,0s0,0,0,.06A.55.55,0,0,1,13,12l.1-.43S13.07,11.54,13.06,11.52Z" transform="translate(-4.79 -5.76)"/></g><polygon class="cls-23" points="1.4 6.9 1.39 6.9 1.4 6.9 1.4 6.9"/><path class="cls-23" d="M6.29,12.52l-.09.14.17,0A.23.23,0,0,0,6.29,12.52Z" transform="translate(-4.79 -5.76)"/><path class="cls-23" d="M5.39,11.42a6.58,6.58,0,0,1,.29.78c0,.06,0,.14,0,.19a.71.71,0,0,0-.09-.28.53.53,0,0,0,0,.22,1.92,1.92,0,0,0-.22-.74,1.68,1.68,0,0,1,.12.83A1.14,1.14,0,0,0,5,11.7a4.57,4.57,0,0,1,.42.71l-.09-.06a.41.41,0,0,0-.49-.07.29.29,0,0,0,.18.07.09.09,0,0,0,0,.06l.16,0-.28.1s-.07,0-.07.06a.08.08,0,0,0,.07.05.32.32,0,0,0,.14,0,.23.23,0,0,0,.18,0,.84.84,0,0,1,.21-.11h.07l.11,0h0l.26.05A2.33,2.33,0,0,0,5.75,12,1.1,1.1,0,0,0,5.39,11.42Z" transform="translate(-4.79 -5.76)"/><path class="cls-23" d="M6.09,12.63h0l0,0Z" transform="translate(-4.79 -5.76)"/><path class="cls-23" d="M6,12.54l0,.06H6Z" transform="translate(-4.79 -5.76)"/><path class="cls-23" d="M6,12.6v0h0Z" transform="translate(-4.79 -5.76)"/><path class="cls-23" d="M6.12,12.59l0,0,.09,0Z" transform="translate(-4.79 -5.76)"/><path class="cls-23" d="M10.3,10.58h0Z" transform="translate(-4.79 -5.76)"/><path class="cls-23" d="M12.73,11.47c.06-.08.11-.17.17-.26L12.79,11A1.17,1.17,0,0,0,12.73,11.47Z" transform="translate(-4.79 -5.76)"/><path class="cls-23" d="M13.73,11.51c.08-.14.16-.29.25-.43a1.31,1.31,0,0,0-.54.6c0-.46.32-.86.4-1.32a6.5,6.5,0,0,1-.58,1.11.83.83,0,0,0,0-.35.43.43,0,0,1-.15.18.59.59,0,0,0,0-.37l-.16.28.44.81a3.14,3.14,0,0,1,.82-.64c.12-.07.26-.13.31-.26A1.4,1.4,0,0,0,13.73,11.51Z" transform="translate(-4.79 -5.76)"/><path class="cls-23" d="M7.74,12.23a1.69,1.69,0,0,0-.21-.31Z" transform="translate(-4.79 -5.76)"/><path class="cls-23" d="M11.51,13.52c.17,0,.26-.23.41-.29l-.33,0C11.56,13.36,11.54,13.44,11.51,13.52Z" transform="translate(-4.79 -5.76)"/><path class="cls-23" d="M11.92,13.23H12Z" transform="translate(-4.79 -5.76)"/><path class="cls-23" d="M11.57,13.27h0l0-.08Z" transform="translate(-4.79 -5.76)"/><path class="cls-23" d="M11.42,13.55l-.23,0-.18.21s.08,0,.11,0,.1,0,.12,0,0,.06,0,.09a.11.11,0,0,0,.13.13c0-.12-.16-.22-.1-.33s.08-.06.14-.05l-.07.12a.41.41,0,0,0,.07-.11l0,0a.54.54,0,0,1,.14.16.84.84,0,0,0,.23.23.75.75,0,0,0-.16-.35l0-.06s0-.07.08-.08a.28.28,0,0,0,.12,0l-.39.07.15-.28h-.08A.9.9,0,0,1,11.42,13.55Z" transform="translate(-4.79 -5.76)"/><path class="cls-23" d="M11.48,12.57a1.53,1.53,0,0,1-.13.73l.14,0A2.41,2.41,0,0,0,11.48,12.57Z" transform="translate(-4.79 -5.76)"/><path class="cls-23" d="M12,13.43a1.51,1.51,0,0,1,.21-.23l-.17,0A.31.31,0,0,1,12,13.43Z" transform="translate(-4.79 -5.76)"/><path class="cls-23" d="M12.88,13.11l-.14,0Z" transform="translate(-4.79 -5.76)"/><path class="cls-23" d="M12.61,13.25l.48.09A1.28,1.28,0,0,0,12.61,13.25Z" transform="translate(-4.79 -5.76)"/><path class="cls-23" d="M12.56,13.24a.43.43,0,0,1,0-.05s0,0-.07,0l.24,0a.39.39,0,0,1-.15-.06s-.07-.07-.12-.07a.11.11,0,0,0-.07,0,1,1,0,0,0-.23.17l.22,0a.66.66,0,0,0-.21.08l-.06.14h0a.05.05,0,0,1,0,0,.26.26,0,0,0,.25.13.33.33,0,0,1-.12-.17c0-.07.06-.16.13-.13l.05,0,.15.16a.23.23,0,0,0,.1.07s.09,0,.1,0-.05-.13-.12-.14-.16-.06-.15-.12h0Z" transform="translate(-4.79 -5.76)"/><path class="cls-23" d="M7.53,13.58a.33.33,0,0,0,0-.32.75.75,0,0,1,.15.09s.12,0,.15,0a.09.09,0,0,0,0-.12.38.38,0,0,0-.13-.06h0l.16-.09c0-.05-.11,0-.17,0h0a1.89,1.89,0,0,1-.24-.47v.2l-.22-.45c0-.09-.11-.19-.21-.21a2.4,2.4,0,0,0,.41.85v-.12l.23.21s-.07,0-.09,0l0,0c0-.06-.13,0-.17,0a.78.78,0,0,0-.18-.35c-.08,0-.07.16,0,.23a.43.43,0,0,0,0,.07h0a.29.29,0,0,0-.26.3.86.86,0,0,1,.29-.21,1.34,1.34,0,0,0-.13.27.66.66,0,0,1,.24-.17l0,0c0,.09-.1.16-.14.25a.24.24,0,0,0,0,.29l.15-.46s0,0,0-.06l.07,0v0s0,0,0,0Z" transform="translate(-4.79 -5.76)"/><path class="cls-23" d="M7.75,13.56a.75.75,0,0,0-.25.25,3.11,3.11,0,0,0,.28-.23,1,1,0,0,0,0,.34l.06,0a.21.21,0,0,0,.05.17.44.44,0,0,0,.06-.25s.09,0,.11,0a2.12,2.12,0,0,0-.36-.3Z" transform="translate(-4.79 -5.76)"/><path class="cls-23" d="M5.83,13.13a1.39,1.39,0,0,0,.4-.06v.11l.38-.1L6.47,13C6.23,12.94,6,12.94,5.83,13.13Z" transform="translate(-4.79 -5.76)"/><path class="cls-23" d="M6.26,12.8l-.12-.09-.13,0v-.05H6l0,.06-.12,0,0-.05-.07,0v.06l-.16,0c-.08,0-.2,0-.2.11h.35c-.07.11-.29,0-.36.11s0,.05,0,.08a.21.21,0,0,1-.12.08.12.12,0,0,0-.08.12A.32.32,0,0,0,5.51,13a1.32,1.32,0,0,1,.35-.23A.43.43,0,0,1,6.26,12.8Z" transform="translate(-4.79 -5.76)"/><path class="cls-23" d="M5.6,12.54l.12.09Z" transform="translate(-4.79 -5.76)"/><path class="cls-23" d="M10.51,13.13c-.08,0-.17,0-.24-.08a.18.18,0,0,1,0-.1c0-.13.09-.27.13-.4l-.19.31a.32.32,0,0,0,0-.27,3.9,3.9,0,0,0-.19.35h0a.32.32,0,0,0,0-.14l-.11,0h0a.45.45,0,0,0,0-.32.47.47,0,0,0-.1.2,2.05,2.05,0,0,0,0-.74c0-.14-.09-.31-.23-.32a3.17,3.17,0,0,1-.1,1.19l-.07-.34a.36.36,0,0,0-.11.21.5.5,0,0,0-.09-.29.7.7,0,0,0-.12.28H9l0-.14v.11a.91.91,0,0,0-.11-.42,7.32,7.32,0,0,0-.09-.93A.57.57,0,0,0,8.61,11l-.07,0c-.07,0-.08.11-.08.18l.12,1.15h0q-.06-.32-.15-.63c0,.32,0,.64.05,1h0a4.05,4.05,0,0,0-.4-1.12,8,8,0,0,1,.19,1.09H8.2a.18.18,0,0,0,.07.05s0,.1,0,.15a.22.22,0,0,1-.14-.11v.19l-.09-.31.15,0a.33.33,0,0,1,0-.22.18.18,0,0,0-.11-.19H8a.16.16,0,0,0-.12-.08l.08.3v0a.48.48,0,0,0,0,.17h0l0,0a1,1,0,0,0,0,.24c0-.06,0-.11-.07-.17l0,0-.06-.13h0l-.08-.1a2.12,2.12,0,0,0-.11-.21,1.42,1.42,0,0,1,.08.18.56.56,0,0,0-.15-.1.18.18,0,0,0,.15.22h0a1.92,1.92,0,0,1,.09.63H8l0,.05a.54.54,0,0,0-.15.15c.08,0,.15-.11.21-.06a.15.15,0,0,1,0,.1l0,.23c.08,0,.06-.18.14-.16a.09.09,0,0,1,0,.06l.09.28a1.33,1.33,0,0,0,0-.4.29.29,0,0,0-.14-.25.55.55,0,0,1,.19.18.67.67,0,0,0,.12.2.13.13,0,0,0,.2,0,.41.41,0,0,0-.21-.2c-.05,0-.11,0-.1-.09s0-.07.08-.1h.69a.58.58,0,0,0-.31.27.43.43,0,0,0,.26-.15h0a.06.06,0,0,0,.05.07s.05-.08.1-.07,0,0,0,.06a2,2,0,0,1,0,.26c.07,0,.15,0,.17-.1s0-.13-.07-.19a.15.15,0,0,1,0-.18h.31l.09.11a.41.41,0,0,0-.3-.09.37.37,0,0,0,.18,0,.5.5,0,0,1-.08.2l.11,0a.75.75,0,0,1,0,.15.57.57,0,0,1,0-.14.13.13,0,0,1,.17,0c.08.07,0,.22.09.28s.16-.05.14-.13a.31.31,0,0,0-.15-.19l.09,0a.33.33,0,0,1-.19-.14l0-.05h.23A.41.41,0,0,0,10.51,13.13Zm-2.59-.55,0,0h0A.06.06,0,0,0,7.92,12.58Zm.56.09h0v0ZM9,12.8Zm.19.33h0Zm.67-.07h0l0,0Z" transform="translate(-4.79 -5.76)"/><path class="cls-23" d="M10.26,12.47a.39.39,0,0,0,.23-.15,1.76,1.76,0,0,0-.2-.09.2.2,0,0,1-.13-.18.2.2,0,0,0,.17.24.29.29,0,0,0-.16,0,.11.11,0,0,0-.06.13A.12.12,0,0,0,10.26,12.47Z" transform="translate(-4.79 -5.76)"/><path class="cls-23" d="M10.56,12.33a.38.38,0,0,0-.08.44.75.75,0,0,0,.18-.43.49.49,0,0,0,.18.26c0-.11-.12-.2-.12-.31a.66.66,0,0,1,0-.15c0-.06,0-.12,0-.14l-.1.19a.24.24,0,0,0-.08-.19.36.36,0,0,1,0,.32l0,0Z" transform="translate(-4.79 -5.76)"/><path class="cls-23" d="M10.93,13.19l0,0a1.35,1.35,0,0,0,0-.4,1.05,1.05,0,0,0-.12.38,1.44,1.44,0,0,0-.12-.71v.84h0a.05.05,0,0,1,0,0l-.1.2.12,0a.2.2,0,0,1,0,.15c.11,0,.1-.18.12-.29h.12s0,0,0,.06l0,0a.56.56,0,0,0,.07.16.13.13,0,0,0,.07,0s0,.07,0,.11a1.37,1.37,0,0,0,.29-.42l-.43.06A.25.25,0,0,1,10.93,13.19Zm.08.16,0,.19a.33.33,0,0,1-.11-.15A.2.2,0,0,1,11,13.35Z" transform="translate(-4.79 -5.76)"/><path class="cls-23" d="M10.52,13.27l-.06,0Z" transform="translate(-4.79 -5.76)"/><path class="cls-23" d="M10.52,13.27l.09,0S10.56,13.28,10.52,13.27Z" transform="translate(-4.79 -5.76)"/><path class="cls-23" d="M12.11,13.42v0S12.1,13.41,12.11,13.42Z" transform="translate(-4.79 -5.76)"/><path class="cls-23" d="M13.52,12.32v0c.1-.05.23-.07.28-.18A.2.2,0,0,0,13.52,12.32Z" transform="translate(-4.79 -5.76)"/><path class="cls-23" d="M13.18,12.69l.09-.1a.34.34,0,0,0,0,.1,1.18,1.18,0,0,1-.07.2.09.09,0,0,1,.12,0s0,.11.08.15a.11.11,0,0,0,.14,0,.13.13,0,0,0,.06-.13c0-.05-.05-.08-.08-.13a.27.27,0,0,1-.06-.12l0-.09.07-.13a.17.17,0,0,0-.11,0v0l.15-.16h0A.52.52,0,0,0,13.18,12.69Z" transform="translate(-4.79 -5.76)"/><path class="cls-24" d="M5.56,11.73c0,.19.17.35.21.54a.22.22,0,0,1,0,.08s-.08.06-.08.11a.28.28,0,0,0-.05-.16.18.18,0,0,1,0,.14,1,1,0,0,0,0-.18.24.24,0,0,0-.14-.14.66.66,0,0,1,.16.35H5.8A.8.8,0,0,0,5.56,11.73Z" transform="translate(-4.79 -5.76)"/><path class="cls-24" d="M5.43,12.44l.14,0A.22.22,0,0,0,5.43,12.44Z" transform="translate(-4.79 -5.76)"/><path class="cls-24" d="M5,12.39h.23s.08,0,.09,0-.17,0-.26,0a.17.17,0,0,0-.13.14.86.86,0,0,0,.32-.1.45.45,0,0,1,.19-.05h0A.32.32,0,0,0,5,12.39Z" transform="translate(-4.79 -5.76)"/><path class="cls-24" d="M6.28,12.76h0l0,0Z" transform="translate(-4.79 -5.76)"/><path class="cls-24" d="M6.3,12.78a.43.43,0,0,1,0,.05.08.08,0,0,0,.09,0A.39.39,0,0,0,6.3,12.78Z" transform="translate(-4.79 -5.76)"/><path class="cls-24" d="M6.36,12.73v0s0,0,.06.06l0,0h0A.27.27,0,0,0,6.36,12.73Z" transform="translate(-4.79 -5.76)"/><path class="cls-24" d="M6.07,12.75l0-.06a.66.66,0,0,0-.33.09.09.09,0,0,0,0,.07c.13,0,.28-.09.41,0a.38.38,0,0,1-.09.09.53.53,0,0,0,.17-.08L6,13s0,.05,0,.06a.49.49,0,0,0,.12-.13l0,.1a.36.36,0,0,1,.08-.27h0l-.08,0Z" transform="translate(-4.79 -5.76)"/><path class="cls-24" d="M6.28,12.74v0h0l0,0c0-.05,0-.09,0-.13a.12.12,0,0,0-.08.09.5.5,0,0,0,0-.21.28.28,0,0,0-.14-.21l.09.44h.06Z" transform="translate(-4.79 -5.76)"/><path class="cls-24" d="M6.18,12.72h0l0,0s0,0,0,0a.34.34,0,0,1-.06-.12.29.29,0,0,1,0,.09.82.82,0,0,0-.26-.23l.16.24h.06Z" transform="translate(-4.79 -5.76)"/><path class="cls-24" d="M6.43,12.89s0,0,0,0h0Z" transform="translate(-4.79 -5.76)"/><polygon class="cls-24" points="1.43 6.95 1.42 6.96 1.43 6.96 1.43 6.95"/><path class="cls-24" d="M7.68,13.11a.45.45,0,0,0-.2,0l.06,0s0-.05,0-.07-.07,0-.1,0a.37.37,0,0,0,.12-.2s0-.05,0-.05,0,0,0,0a.2.2,0,0,0,0,.08.24.24,0,0,0,0-.13c0,.08,0,.15,0,.23l0-.05,0,.15v0a.08.08,0,0,1-.12,0A.39.39,0,0,1,7.19,13a.14.14,0,0,0-.08-.1l0,.17.13.14.07,0a.49.49,0,0,1,0,.12.11.11,0,0,1,.06-.07c0,.12.07.25.11.37a.52.52,0,0,0-.06-.3s0,0,0,0,0,0,0-.07,0,0,0-.06h0l.24.1A.17.17,0,0,0,7.68,13.11Z" transform="translate(-4.79 -5.76)"/><path class="cls-24" d="M7.15,13.08v0l0,0Z" transform="translate(-4.79 -5.76)"/><path class="cls-24" d="M7.05,13.2a.2.2,0,0,0,.13,0,.63.63,0,0,0-.27.16s0,.06,0,.08a.33.33,0,0,0,.22-.08.41.41,0,0,0,0-.09.28.28,0,0,1,.1-.09A.2.2,0,0,0,7.05,13.2Z" transform="translate(-4.79 -5.76)"/><path class="cls-24" d="M7.3,13.22l0,0h0A.05.05,0,0,1,7.3,13.22Z" transform="translate(-4.79 -5.76)"/><path class="cls-24" d="M8,12.7l0,.17a.08.08,0,0,0,.08,0,.06.06,0,0,0,0-.07s0-.06,0-.08a.08.08,0,0,1,0,0,.51.51,0,0,0,.21-.15v0s0,0-.07,0a.08.08,0,0,1-.08,0l0,0,0,0a1,1,0,0,0-.1.17c0-.14.07-.31,0-.44s0,0,0,0A.34.34,0,0,0,8,12.13a2.46,2.46,0,0,0,0,.26l0-.08a.61.61,0,0,1,0,.27.22.22,0,0,0-.1-.18.13.13,0,0,0,0,.09.44.44,0,0,0-.19-.07A1.24,1.24,0,0,1,8,12.7Z" transform="translate(-4.79 -5.76)"/><path class="cls-24" d="M8.45,13s0,0,0,0H8.29l0,0a.16.16,0,0,0-.09,0A.35.35,0,0,0,7.88,13,.3.3,0,0,0,8,13s0,0-.07.06a.06.06,0,0,0,0,.08l.12-.08L8,13.25l.13-.07v.17a1.1,1.1,0,0,0,.06-.26c.06,0,.07.11.07.17a.28.28,0,0,0,0,.18.19.19,0,0,0,0-.18.85.85,0,0,0-.06-.17.3.3,0,0,0,.13.09h0s0,0,0,0a.43.43,0,0,1,0-.05A.05.05,0,0,0,8.45,13Z" transform="translate(-4.79 -5.76)"/><path class="cls-24" d="M9.46,12.89l-.2.06s0-.08,0-.08a.23.23,0,0,0,.1-.16l0,0a.49.49,0,0,0-.08-.39,1.43,1.43,0,0,0,0,.29s0,0,0-.06a.65.65,0,0,0-.08.22c-.05-.05-.13,0-.17.07s-.06-.1,0-.16,0-.13,0-.16a.81.81,0,0,0,.1-.21s0,0,0-.07,0,0-.06,0l0,0-.11.37a1.28,1.28,0,0,1,0-.19l0,0c0,.06,0,.13,0,.19a.57.57,0,0,0,.08.28.25.25,0,0,1,.26-.07.33.33,0,0,0-.1.14s0,0,0,0,0,.12,0,.12,0-.06,0-.1l0-.06h0A.25.25,0,0,0,9.46,12.89Z" transform="translate(-4.79 -5.76)"/><path class="cls-24" d="M8.71,11.42s-.05-.06-.08,0a2.56,2.56,0,0,1,.18.75.31.31,0,0,0,0-.1A1,1,0,0,0,8.71,11.42Z" transform="translate(-4.79 -5.76)"/><path class="cls-24" d="M8.72,12.09a1.91,1.91,0,0,0-.21-.43,1.82,1.82,0,0,1,.24.79A.73.73,0,0,0,8.72,12.09Z" transform="translate(-4.79 -5.76)"/><path class="cls-24" d="M8.75,12.45a.3.3,0,0,1,0,.1l0,0Z" transform="translate(-4.79 -5.76)"/><path class="cls-24" d="M8.81,12.13l0,.34a1,1,0,0,0,0-.18A.86.86,0,0,0,8.81,12.13Z" transform="translate(-4.79 -5.76)"/><path class="cls-24" d="M8.72,12.81s0-.07,0-.1,0,0,0,0Z" transform="translate(-4.79 -5.76)"/><path class="cls-24" d="M8.67,12.84h0a.17.17,0,0,0,0-.18l0,.07a.21.21,0,0,0,0-.16h0a.83.83,0,0,0-.34-.68,0,0,0,0,0-.05,0,.71.71,0,0,0,.16.26,1.09,1.09,0,0,1,.21.45.76.76,0,0,0,0,.15.52.52,0,0,0,0-.11.58.58,0,0,1,0,.23s0,0,0,0l.1.17C8.68,12.94,8.7,12.88,8.67,12.84Z" transform="translate(-4.79 -5.76)"/><path class="cls-24" d="M8.72,13.07h0L8.68,13A.07.07,0,0,0,8.72,13.07Z" transform="translate(-4.79 -5.76)"/><path class="cls-24" d="M8.76,13.08h0l.07.11A.1.1,0,0,0,8.76,13.08Z" transform="translate(-4.79 -5.76)"/><path class="cls-24" d="M10,12.8s0,0,0,.07A.08.08,0,0,0,10,12.8Z" transform="translate(-4.79 -5.76)"/><path class="cls-24" d="M9.68,12.37s0,.06,0,.09l0,.06,0,.07h0s0-.05,0-.07a.35.35,0,0,0-.11-.13,1.33,1.33,0,0,0,0,.28v-.08h0v0a.34.34,0,0,0,0,.22.43.43,0,0,0,.13.19s0,0,0,0,.05,0,.06-.07a.63.63,0,0,0,0-.19.1.1,0,0,1,.08.07.43.43,0,0,1,0-.11.08.08,0,0,1,0,0,.55.55,0,0,1,0-.18.25.25,0,0,1,.1.15.21.21,0,0,1,.19-.16l-.61,0A1.62,1.62,0,0,0,9.68,12.37Z" transform="translate(-4.79 -5.76)"/><path class="cls-24" d="M9.68,12.12a.62.62,0,0,0-.14-.43,3.16,3.16,0,0,1,.14.68A2.09,2.09,0,0,0,9.68,12.12Z" transform="translate(-4.79 -5.76)"/><path class="cls-24" d="M9.94,12.93v0Z" transform="translate(-4.79 -5.76)"/><path class="cls-24" d="M10.26,12.3s0,.07,0,.08a0,0,0,0,0,.05,0l.14-.07a.25.25,0,0,0-.12,0A.11.11,0,0,0,10.26,12.3Z" transform="translate(-4.79 -5.76)"/><path class="cls-24" d="M10.63,12.39s0,0,.07.09a.09.09,0,0,0,.11,0,.23.23,0,0,0-.15-.17.14.14,0,0,0,.09-.09s-.07,0-.09,0,0-.08,0-.11a.48.48,0,0,0-.08.16l-.08-.16s0,0,0,0a0,0,0,0,0,0,0s0,0,0,0,.14.15.13.25v-.06l-.06,0s0,0,0,0a0,0,0,0,0,0,.06s.07,0,.11,0a.48.48,0,0,0,0,.24.47.47,0,0,0,.1-.2S10.61,12.39,10.63,12.39Z" transform="translate(-4.79 -5.76)"/><polygon class="cls-24" points="5.67 6.54 5.67 6.54 5.67 6.54 5.67 6.54"/><path class="cls-24" d="M11.3,13.16a.25.25,0,0,0-.19,0l-.16.1a.18.18,0,0,1-.14,0,.67.67,0,0,0,.15-.14h-.07a.41.41,0,0,0,.11-.23.05.05,0,0,0,0-.07l-.09.3s0,.06,0,.07-.06,0-.07,0,0-.07,0-.11,0-.1,0-.15a1.1,1.1,0,0,0-.17-.25s0,.09,0,.13a.62.62,0,0,1,.07.46l.07-.06v.16a0,0,0,0,0,0,0h0a1.31,1.31,0,0,0,.28-.09.13.13,0,0,0-.09,0A.65.65,0,0,0,11.3,13.16Z" transform="translate(-4.79 -5.76)"/><path class="cls-24" d="M10.12,13.18s-.1,0-.1-.08.08,0,.12,0,.1,0,.11,0A.31.31,0,0,0,10,13l-.08,0a1.36,1.36,0,0,1,.24.24l.07.07a.06.06,0,0,0,.08,0,.09.09,0,0,0,0-.06A.4.4,0,0,0,10.12,13.18Z" transform="translate(-4.79 -5.76)"/><path class="cls-24" d="M9.56,13.09l.07,0h0Z" transform="translate(-4.79 -5.76)"/><path class="cls-24" d="M9.52,13a.13.13,0,0,0-.13.05.16.16,0,0,0,0,.1,1.45,1.45,0,0,0,0,.36c0-.11,0-.23,0-.35s0-.07.05-.07a1.63,1.63,0,0,1,0,.31v.07a.08.08,0,0,0,.06,0,.1.1,0,0,0,0-.05.21.21,0,0,0,0,.11s0-.08,0-.12l-.12-.32s0-.08,0-.1a.08.08,0,0,1,.1,0h0A.33.33,0,0,0,9.52,13Z" transform="translate(-4.79 -5.76)"/><path class="cls-24" d="M9.87,13.31s0,0,0,0a.41.41,0,0,0-.23-.18s0,.07,0,.1.1.08.12.14,0,.05,0,.06a0,0,0,0,0,0,0,.08.08,0,0,0,0,0Z" transform="translate(-4.79 -5.76)"/><path class="cls-24" d="M11.82,13.38v0a.12.12,0,0,0,0-.08l0,0Z" transform="translate(-4.79 -5.76)"/><path class="cls-24" d="M11.63,13.42a.13.13,0,0,0,.06-.07l-.14,0,.19-.07-.06,0h0l0,0-.11.1s0,0,0-.06l-.06,0a.44.44,0,0,0,0-.56s0,0-.05,0a.74.74,0,0,1,0,.6l.11.11a.61.61,0,0,0-.26-.15.11.11,0,0,0,.09,0l-.07.07a.41.41,0,0,1,.16,0,.66.66,0,0,0-.34.15.22.22,0,0,1,.14,0,.07.07,0,0,0,.06,0s0,0,.06,0a.08.08,0,0,1,.1,0s0,.07.07.1.07,0,.08,0a0,0,0,0,0,0,0,.76.76,0,0,0-.12-.19c.09,0,.15.07.2.14s.11.15.19.16a.76.76,0,0,0-.32-.32.86.86,0,0,0,.23.06s.06,0,.07,0v0h0s0,0,0,0h0l0,0v0Z" transform="translate(-4.79 -5.76)"/><path class="cls-24" d="M11.91,13.06s-.06,0-.09,0l-.12.14.07,0h0A.27.27,0,0,0,11.91,13.06Z" transform="translate(-4.79 -5.76)"/><path class="cls-24" d="M11.68,13.24l0,0,0,0Z" transform="translate(-4.79 -5.76)"/><path class="cls-24" d="M11.85,13.39h0Z" transform="translate(-4.79 -5.76)"/><path class="cls-24" d="M11.85,13.39h0Z" transform="translate(-4.79 -5.76)"/><polygon class="cls-24" points="6.84 7.49 6.84 7.49 6.84 7.49 6.84 7.49"/><path class="cls-24" d="M11.68,13.27h0l0,0h0Z" transform="translate(-4.79 -5.76)"/><path class="cls-24" d="M12.77,13.14l-.12,0a.14.14,0,0,0,.06-.12l-.12.06a.17.17,0,0,0,0-.19.36.36,0,0,0,0,.11l-.17.08h0a.18.18,0,0,0-.12-.13.35.35,0,0,0,.06.17l-.09.07,0,0s0,0,0,.05h0l.14-.05h.06s0,0,0,.05a2.33,2.33,0,0,1,.07.25l.08-.18s0,0,0-.05-.06,0-.07-.09A.31.31,0,0,0,12.77,13.14Zm-.31,0a.15.15,0,0,1-.05-.06l.12-.15A.35.35,0,0,1,12.46,13.19Z" transform="translate(-4.79 -5.76)"/><path class="cls-24" d="M13.61,12.61l-.18,0,.05-.06s0,0,0,0h-.17a.18.18,0,0,0,.08-.07s0-.05,0-.06-.05,0-.07,0l-.11.2a.29.29,0,0,0-.07-.18s0,0,0,.06,0,.06,0,.08h-.22l.15,0h.1s0,.05-.06.08a.1.1,0,0,0,0,.1.19.19,0,0,0,.14-.09.27.27,0,0,0-.06.16.52.52,0,0,0,.1-.11.16.16,0,0,1,0,.1s.06.08.09.05l-.14-.25.18.06.14,0,.08,0h0S13.64,12.62,13.61,12.61Zm-.49,0h0Zm.29,0Z" transform="translate(-4.79 -5.76)"/><path class="cls-24" d="M13.58,11.93s0-.06.07-.09a.08.08,0,0,0,0-.1l-.08,0a2.59,2.59,0,0,0,.32-.47.32.32,0,0,0,0-.25l0,0s-.06,0-.07.06-.08.2-.12.3a.62.62,0,0,0-.14.43s0,0,0,0,0,0,0,0a.11.11,0,0,0,0-.08h0a.28.28,0,0,0,0-.13l0,.07a2,2,0,0,1,0,.23h0l0,.06v.09s0,0,0,0,0,0,0,0L13.7,12l0,0a.33.33,0,0,1,.18-.08c.07,0,.14-.05.16-.11A.72.72,0,0,0,13.58,11.93Z" transform="translate(-4.79 -5.76)"/><path class="cls-24" d="M13.39,11.94a.34.34,0,0,1,0-.2.28.28,0,0,0,0-.13l-.1.24s0-.07,0-.11a.25.25,0,0,0,0,.25.39.39,0,0,1,0,.18L13.4,12V12A0,0,0,0,1,13.39,11.94Z" transform="translate(-4.79 -5.76)"/><path class="cls-24" d="M13.35,12.17l0,.07A.14.14,0,0,0,13.35,12.17Z" transform="translate(-4.79 -5.76)"/></svg>