<svg xmlns="http://www.w3.org/2000/svg" width="92.01" height="124.81" viewBox="0 0 92.01 124.81">
  <g id="Group_6101" data-name="Group 6101" transform="translate(-142.25 -265.53)" opacity="0.5">
    <path id="Path_3106" data-name="Path 3106" d="M188.25,368.75c-29.3,0-46,9.67-46,21.59h92.01C234.26,378.42,217.55,368.75,188.25,368.75Z" fill="#005329"/>
    <path id="Path_3107" data-name="Path 3107" d="M184.37,380.34s-.17-1.11-.47-3.06c-.33-1.98-.81-4.82-1.39-8.22-.26-1.76-.56-3.67-.73-5.77a48.271,48.271,0,0,1-.19-6.67,30.471,30.471,0,0,1,1.12-7.24,22.306,22.306,0,0,1,3.23-7c.62-.91,1.43-1.91,2.22-2.87.8-.91,1.57-1.79,2.39-2.61,1.61-1.68,3.24-3.2,4.79-4.69s3.04-2.89,4.37-4.3a42.318,42.318,0,0,0,3.53-4.13,28.472,28.472,0,0,0,2.42-3.89c.29-.63.55-1.21.8-1.75.19-.56.37-1.08.53-1.55a15.277,15.277,0,0,0,.56-2.24c.11-.52.17-.8.17-.8s-.02.28-.06.82a15.2,15.2,0,0,1-.26,2.33c-.1.5-.2,1.05-.32,1.65-.18.59-.37,1.22-.58,1.9a30.341,30.341,0,0,1-1.96,4.37,48.566,48.566,0,0,1-3.07,4.76c-1.17,1.63-2.49,3.27-3.83,4.95s-2.74,3.39-4.03,5.16c-.66.88-1.26,1.8-1.86,2.69-.54.89-1.08,1.74-1.62,2.8l-.4.76-.05.1-.01.02c.04-.06-.1.18.08-.14l-.02.04-.06.18-.13.36c-.17.47-.36.94-.5,1.42a22.262,22.262,0,0,0-.61,2.92,24.123,24.123,0,0,0-.09,5.88,40.323,40.323,0,0,0,.93,5.63c.4,1.8.9,3.51,1.36,5.1,1.02,3.28,1.87,6,2.47,7.91.58,1.95.91,3.07.91,3.07Z" fill="#005329"/>
    <path id="Path_3108" data-name="Path 3108" d="M186.32,342.19s-.04-.94-.11-2.58q-.03-.615-.06-1.35c-.05-.42-.1-.88-.16-1.37a33.925,33.925,0,0,0-.47-3.39c-.2-1.29-.49-2.67-.85-4.13-.32-1.47-.79-3-1.22-4.61-.94-3.19-2.07-6.62-3.15-10.11-.54-1.76-1.06-3.52-1.52-5.31-.48-1.76-.86-3.57-1.21-5.3-.3-1.76-.6-3.45-.72-5.1a44.868,44.868,0,0,1-.25-4.62c-.09-1.43.1-2.74.12-3.88a25.318,25.318,0,0,1,.3-2.95c.22-1.62.35-2.54.35-2.54s-.04.94-.11,2.58a25.537,25.537,0,0,0-.02,2.94c.08,1.13.02,2.41.24,3.78a41.274,41.274,0,0,0,.66,4.36c.26,1.54.69,3.09,1.13,4.7.49,1.59.99,3.22,1.62,4.82.59,1.62,1.26,3.23,1.94,4.83,1.37,3.21,2.82,6.42,4.11,9.56.62,1.6,1.26,3.12,1.76,4.67.53,1.52,1.01,2.99,1.37,4.42a40.1,40.1,0,0,1,.95,4.03c.13.63.24,1.21.35,1.75.07.49.13.94.19,1.35.22,1.62.35,2.54.35,2.54Z" fill="#005329"/>
    <g id="Group_6099" data-name="Group 6099">
      <g id="Group_6098" data-name="Group 6098">
        <path id="Path_3109" data-name="Path 3109" d="M207.62,311.31s.8-6.86-1.86-11.15-10.05-5.74-11.12-6.97c0,0,.47,10.18,2.68,12.79,1.85,2.18,6.21,6.1,8.47,5.84,0,0-5.36-6.57-5.48-10.15C200.32,301.67,205.55,310.8,207.62,311.31Z" fill="#79bd1a"/>
      </g>
      <path id="Path_3110" data-name="Path 3110" d="M211.24,316.67s26.63-7.31,19.69-30.68a57.006,57.006,0,0,1-8.87,5.11c-6.22,3.05-14.35,7.93-12.29,24.88.22,1.82,6.42-16.65,13.44-19.81C223.21,296.16,210.68,314.83,211.24,316.67Z" fill="#79bd1a"/>
    </g>
    <path id="Path_3111" data-name="Path 3111" d="M176.1,283.13s5.87-15.14-8.5-17.6a28.917,28.917,0,0,1-.6,5.72c-.69,3.88-1.14,9.18,8.22,12.44,1,.35-6.14-7.43-5.23-11.72C170,271.96,174.97,282.94,176.1,283.13Z" fill="#79bd1a"/>
    <g id="Group_6100" data-name="Group 6100">
      <path id="Path_3112" data-name="Path 3112" d="M179.89,288.62s5.68-1.64,8.19-5.16,1.2-9.83,1.82-11.09c0,0-7.89,3.74-9.21,6.35-1.11,2.18-2.75,6.93-1.8,8.63,0,0,3.41-6.41,6.2-7.69C185.08,279.66,179.61,286.82,179.89,288.62Z" fill="#79bd1a"/>
    </g>
  </g>
</svg>
