<svg id="Group_6366" data-name="Group 6366" xmlns="http://www.w3.org/2000/svg" width="117.693" height="242.516" viewBox="0 0 117.693 242.516">
  <path id="Path_3224" data-name="Path 3224" d="M43.027,341.005a9.906,9.906,0,0,0,3.6-.515c1.971-.671,3.847-1.99,5.92-1.787,2.127.207,3.879,2,6.017,2.092,2.665.121,4.924-2.423,7.586-2.24a9.788,9.788,0,0,1,3.336,1.206,5.49,5.49,0,0,0,4.417.293l-.02.012c.117-.18.343-.141.492-.254l-.016.012a2.031,2.031,0,0,1,1.011-.48.108.108,0,0,0,.164-.023c1.081-.663,1.315,1.042.979,1.713a6.561,6.561,0,0,1-6.7,3.457,7.109,7.109,0,0,0-1.974-.222c-1.284.164-2.15,1.338-3.2,2.1a7.285,7.285,0,0,1-5.053,1.1c-2.064-.23-3.992-1.463-6.04-1.506-1.893-.043-3.4,1.249-4.991,2.08-2.782,1.456-6.232.925-9.084-.39-1.6-.734-2.973-1.35-4.761-.991-.769.156-1.452.663-2.248.859a10.276,10.276,0,0,1-3.348.234,16.257,16.257,0,0,1-4.8-1.268c-.57-.238-1.522-.574-2.041-.051a8.14,8.14,0,0,0-.976,1.8q-1.1,2.025-2.2,4.054c-.855,1.623-1.752,3.223-2.63,4.831-.308.57-2.462,3.684-1.463,3.816l-.012-.008c.987.578,3.055-.016,4.031-.406,1.362-.542,2.548-1.448,3.89-2.033a9.385,9.385,0,0,1,7.855.254c2.653,1.331,5.272,2.646,8.378,2.314,2.774-.3,5.44-1.92,8.183-1.417,1.846.339,3.492,1.647,5.428,1.494,2.115-.168,3.988-1.491,6.134-1.487a23.894,23.894,0,0,1,4.171.7,15.432,15.432,0,0,0,3.5.234c.628-.027,2.38-.609,2.911-.355.679.324,1.678-.031,1.643,1.2a2.307,2.307,0,0,1-.6,1.331c-2.076,2.591-4.854,2.189-7.8,2.291a4.4,4.4,0,0,0-1.916.363l.012-.008c-.125.156-.347.121-.492.238l.016-.008a8.658,8.658,0,0,1-5.611.773,24.3,24.3,0,0,0-4.39-.749c-2.173.059-3.274,1.459-4.948,2.54a9.23,9.23,0,0,1-6.044,1.315A13.717,13.717,0,0,1,33.3,367.1a14.434,14.434,0,0,0-3.332-2.01,6.441,6.441,0,0,0-3.442-.1c-.488.109-1.011.238-1.479.394a6.211,6.211,0,0,0-1.506.5l.012-.008c-.741,0-1.686.566-2.486.66a13.321,13.321,0,0,1-5.982-.675c-.628-.222-2.173-1.346-2.759-1.233s-.937,1.284-1.221,1.729l-1.908,2.938A43.979,43.979,0,0,1,5.126,375.4l-.062.07s.094-.019.1-.023a.339.339,0,0,1,.144-.168,2.364,2.364,0,0,0,.2-.14,3.246,3.246,0,0,1,.32-.238c.2-.144.468-.078.675-.207l-.02.012c.113-.187.339-.148.5-.254l-.02.016a7.117,7.117,0,0,1,2.4-.956l-.027.019a7.06,7.06,0,0,1,4.484-.234l-.027-.02c.222.164.554-.023.741.242l-.023-.016a5.918,5.918,0,0,1,1.916.968l-.02-.016a1.948,1.948,0,0,1,.726.5l-.023-.019a2.794,2.794,0,0,1,.968.737l-.023-.02a5.886,5.886,0,0,0,6.325.624,9.736,9.736,0,0,1,8.132-.332,4.808,4.808,0,0,1,1.249.648l-.02-.012c.152.109.382.07.492.254l-.02-.016c.336.141.73.164.964.5l-.02-.02c.531.277,1.147.25,1.69.488l-.02-.02a7.6,7.6,0,0,0,4.1-.472l-.023.016c2.544-1.135,5.123-1.67,7.808-.476l-.023-.016a4.857,4.857,0,0,1,1.206.5l-.023-.02a5.035,5.035,0,0,1,1.217.48l-.02-.016a8.59,8.59,0,0,0,5.916-.051c.191-.059.371-.125.531.055l.07.043.066-.047a7.092,7.092,0,0,0,2.977,0l-.023.02c.109-.2.339-.16.5-.254l-.023.016c.538-.609,1.338-.617,2.033-.843.484-.16.827.133.987.609l-.023-.035a2.424,2.424,0,0,1-.222,2.341l.016-.027c-.094.16-.059.386-.25.5l.016-.023A5.389,5.389,0,0,1,61,382.692l.027-.02c-.105.2-.336.168-.5.254l.027-.019a9.937,9.937,0,0,1-6.86.585c-1.53-.359-2.646.144-4.023.722a23.286,23.286,0,0,1-4.487,1.459,15.394,15.394,0,0,1-9.728-1.292,8.1,8.1,0,0,0-2.763-1.069c-1.413-.129-2.532.7-3.645,1.444a8.081,8.081,0,0,1-3.684,1.409,10.872,10.872,0,0,1-7.906-2.283c-.964-.761-1.807-1.67-2.79-2.4-1.947-1.459-3.645-1.245-5.865-.675l.02-.012a7.839,7.839,0,0,1-4.967-.012l.023.016a4.714,4.714,0,0,1-1.686-.472.057.057,0,0,0,.016.008c-.925-.46-2.849,2.97-3.371,3.641q-1.217,1.569-2.486,3.094a12.446,12.446,0,0,1-2.06,2.505l.031-.027a.344.344,0,0,1-.261.265l.031-.035c-.121.219-.277.2-.449.062v-7.121c1.05-1.678,2.384-3.141,3.555-4.729a2.212,2.212,0,0,0,.484-2.271,7.906,7.906,0,0,1-.3-2.813,6.6,6.6,0,0,0-2.092-5.1,18.8,18.8,0,0,1-1.643-1.7V346.16c.332-.261.62-.082.835.152,1.861,2.017,3.652,4.066,3.84,7.016a7.568,7.568,0,0,1-.277,2.575,6.5,6.5,0,0,0,1.377,5.99c.215.285.429.566.636.855,1.783,2.478,2.739,5.155,1.959,8.245.308.059.359-.18.453-.312,2.279-3.371,4.694-6.649,6.9-10.071.964-1.5,1.03-1.912-.055-3.3a11.813,11.813,0,0,1-2.6-6A5.22,5.22,0,0,0,4.174,347.5c-2.9-1.9-4.6-4.5-4.417-8.1a3.139,3.139,0,0,0-1.015-2.322c-.7-.761-1.584-1.307-2.294-2.056a8.309,8.309,0,0,1-2.478-7.227,3.559,3.559,0,0,0-.312-2.521V315.3c.585-.312.761.215,1.015.519a8.063,8.063,0,0,1,1.292,2.525A7.606,7.606,0,0,0-1.9,321.569c.472.421.909.878,1.342,1.342a8.885,8.885,0,0,1,2.634,5.8,8.064,8.064,0,0,0,2.7,5.982A7.439,7.439,0,0,1,7.6,340.233a5.5,5.5,0,0,0,1.775,3.773,22.98,22.98,0,0,1,1.748,2.092,8.48,8.48,0,0,1,1.455,6.868,7.564,7.564,0,0,0-.273,2.708c1.982-3.352,3.968-6.559,5.857-9.825a1.758,1.758,0,0,0-.18-2.181,12.782,12.782,0,0,0-1.256-1.42,7.755,7.755,0,0,1-2.454-5,6.24,6.24,0,0,0-2.63-4.7A15.686,15.686,0,0,1,9.918,331.1,6.767,6.767,0,0,1,7.6,325.959c0-.117-.016-.238,0-.355a6.621,6.621,0,0,0-2.614-6.556,4.8,4.8,0,0,1-1.448-5.4,2.937,2.937,0,0,0-.741-3.145A9.784,9.784,0,0,1,1.63,309a4.916,4.916,0,0,1-.62-4.523,20.36,20.36,0,0,1,1.159-2.6,2.878,2.878,0,0,0-.2-3.336c-.265-.343-.55-.73-.23-1.182a1.348,1.348,0,0,1,1.366-.523A5.226,5.226,0,0,1,7.19,302.2c-.062.511-.148,1.018-.25,1.522a4.687,4.687,0,0,0,1.37,4.55,6.9,6.9,0,0,1,2.283,5.74,6.417,6.417,0,0,0,2.856,6.138,5.605,5.605,0,0,1,2.607,5.479,7.242,7.242,0,0,0,2.255,6.228,5.543,5.543,0,0,1,1.537,4.234c-.043,1.655-.148,3.332.741,4.843.289.078.332-.156.41-.312,1.893-3.738,3.688-7.531,5.728-11.191a1.836,1.836,0,0,0-.109-2.177,11.075,11.075,0,0,1-2-5.256,7.655,7.655,0,0,0-2.4-4.905c-1-.952-2.049-1.861-3-2.86a12.346,12.346,0,0,1-3.1-5.919,7.119,7.119,0,0,0-1.565-3.149A7.149,7.149,0,0,1,12.911,298a4.677,4.677,0,0,0-.379-4.214,3.911,3.911,0,0,1-.515-1.935,1.98,1.98,0,0,0-.839-1.58c.047-.109.094-.254.2-.265,1.764-.2,3.442-.909,5.237-.933.1.07.219.144.23.258a9.212,9.212,0,0,0,2.833,5.326,5.4,5.4,0,0,1,1.362,4.05,13.619,13.619,0,0,0,.464,4.69,8.75,8.75,0,0,0,2.185,3.871,7.249,7.249,0,0,1,2.365,5.135,6.061,6.061,0,0,0,1.268,3.621,8.118,8.118,0,0,1,1.619,6.7,5.236,5.236,0,0,0,.008,1.943,14.747,14.747,0,0,0,1.089-1.9,44.68,44.68,0,0,1,5.014-8.85,1.825,1.825,0,0,0,.008-2.451,12.1,12.1,0,0,1-2.568-8.183,5.852,5.852,0,0,0-1.717-4.409c-.429-.46-.839-.948-1.276-1.4-2.595-2.689-3.106-5.924-2.529-9.455a15.876,15.876,0,0,0,.012-3.075,7.3,7.3,0,0,1,3.734-1.881,3.64,3.64,0,0,1,2.341,3.348A10.148,10.148,0,0,0,35.82,292.7a7.8,7.8,0,0,1,2.119,5.959,29.462,29.462,0,0,0,.39,7.917,7.118,7.118,0,0,1-.012,2.228c2.17-3.379,4.327-6.739,6.653-9.99a1.3,1.3,0,0,0,.012-1.635,10.146,10.146,0,0,1-1.4-7.043,10.959,10.959,0,0,0-.827-6.5,14.593,14.593,0,0,1-.917-9.392,21.041,21.041,0,0,1,.64-2.529,10.013,10.013,0,0,0,.464-4.909,11.359,11.359,0,0,1,.706-6.279,2.976,2.976,0,0,0,.183-.687c.648-.835,1.76-.613,2.552-1.124.121.012.269.047.3.144a6.31,6.31,0,0,0,2.841,3.009.345.345,0,0,1-.125.457l.016-.008a4.581,4.581,0,0,1-.472,1.456l.012-.016c-.585.936-.121,2.478.2,3.395a7.484,7.484,0,0,1,.273,3.984c-.3,1.432-1.022,2.774-1.112,4.23-.125,2.064,1.03,3.988,1.253,6.044.2,1.815-.324,3.6-.449,5.4-.121,1.729.761,3.6-.2,5.205l.016-.023a11.34,11.34,0,0,1-.663,1.576,1.444,1.444,0,0,0-.129.371,1.13,1.13,0,0,1-.051.3c-.043.1-.133.168-.168.265-.121.312-.031.937.367.48a98.821,98.821,0,0,1,11.144-10.778l-.016.012a.443.443,0,0,1,.281-.234l-.016.023c.351-.855-.527-1.428-.5-2.209l.008.016a5.813,5.813,0,0,1,.047-4.324c.937-2.337,1.2-4.686-.1-7-.137-.242,0-.554-.2-.776a4.929,4.929,0,0,1,.039-3.969c.531-1.194,1.448-2.306,1.459-3.672.012-1.268-.8-2.4-.96-3.66-.219-1.764.862-3.387,1.506-5.045a66.133,66.133,0,0,0,1.346-4.78c.121-.461.222-1.885.71-2.107l-.035.039a.333.333,0,0,1,.254-.277l-.035.031c.6-.4.886-.012,1.143.453l-.016-.027a1.924,1.924,0,0,1,.14,1.37,25.818,25.818,0,0,0,.812,7,14.612,14.612,0,0,1,.23,5.018,11.908,11.908,0,0,0,.546,6.048,3.929,3.929,0,0,1,.086,3,11.833,11.833,0,0,0-.441,6.263,7.6,7.6,0,0,1-.258,3.145,3.021,3.021,0,0,1-.222,1.1q2.306-1.428,4.616-2.852c.371-.23.32-.418.18-.773a9.541,9.541,0,0,1-.441-5.962q.146-.492.328-.972c.866-2.267,1.768-4.183,1.53-6.7a13.522,13.522,0,0,1-.234-3.832c.289-1.495,1.374-2.7,1.959-4.109a22.563,22.563,0,0,0,.905-3.793c.293-1.319,1.05-3.231,2.255-3.988a.49.49,0,0,1,.613.066s-.008,0-.008-.012a.469.469,0,0,1,.238.265l-.027-.039a4.274,4.274,0,0,1,0,2.587l.02-.027c-.246.46.082,1.007-.215,1.463a.5.5,0,0,0,0,.468,9.976,9.976,0,0,1-.125,4.175c-.133.519-.32,1.026-.5,1.53a10.3,10.3,0,0,0-.632,2.3,5.293,5.293,0,0,0,.484,2.646,7.933,7.933,0,0,1,.515,1.729,6.379,6.379,0,0,1-1.229,4.152,5.809,5.809,0,0,0-.956,3.855,3.388,3.388,0,0,1,.043,1.413,5.129,5.129,0,0,1-.172,1.011,7.848,7.848,0,0,0,2.252-.851l2.509-1.089c.226-.1.5-.191.519-.429s-.211-.593-.207-.874a6.95,6.95,0,0,1,.425-1.744l-.02.027a13.191,13.191,0,0,1,.695-1.939l-.008.016a7.091,7.091,0,0,0,.425-2.025,14.781,14.781,0,0,1,.414-1.795,14.184,14.184,0,0,1,.648-1.553q1.411-3.026,2.817-6.048a12.247,12.247,0,0,1,.78-1.487c.371-.57.831-1.073,1.253-1.608a13.829,13.829,0,0,0,1.171-1.752,3.813,3.813,0,0,1,.64-.94c.421-.394,1.342-.558,1.452.215a2.345,2.345,0,0,1-.121.847c-.628,2.692-.242,5.6-1.413,8.171a23.289,23.289,0,0,0-1.034,2.131c-.382,1.128-.293,2.388-.784,3.473a7.1,7.1,0,0,1-1.155,1.635,18.578,18.578,0,0,0-1.764,2.24c-.343.554-1.4,2.236-.074,1.732a14.925,14.925,0,0,1,1.518-.484c.726-.187,1.467-.3,2.189-.507a8.468,8.468,0,0,0,3.094-1.658,26.456,26.456,0,0,1,3.172-2.021c1.237-.776,2.318-1.822,3.57-2.56.652-.382,1.444-.609,2.134-.929a20.883,20.883,0,0,0,2.068-1.089c.777-.472,1.51-1.011,2.318-1.424a15.425,15.425,0,0,1,3.071-1.081,4.491,4.491,0,0,0,1.514-.624c.457-.332.78-.827,1.315-1.054l-.031.019c1.175-.858,1.791.765,1.53,1.674a5.269,5.269,0,0,1-.851,1.53,11.533,11.533,0,0,1-2.743,2.989c-.343.23-.706.421-1.061.636-.3.183-.644.585-.972.687l.027-.027a10.092,10.092,0,0,1-3.34,2.431,17.606,17.606,0,0,1-3.059.82,8.721,8.721,0,0,0-2.876,1.221,25.293,25.293,0,0,1-2.985,1.764c-2.138.948-4.659,1.054-6.946,1.444a16.084,16.084,0,0,0-1.662.343,12.335,12.335,0,0,0-2.54,1.1,11.627,11.627,0,0,1-2.228,1.3,4.532,4.532,0,0,1,.714-.219,33.422,33.422,0,0,1,4.835.16,20.532,20.532,0,0,1,4.546.207c.382.105.749.261,1.136.363,1.292.343,2.665.047,4,.168a5.406,5.406,0,0,1,1.362.293c.234.086.457.187.687.277a12.318,12.318,0,0,0,4.054.378c.675.031,1.584-.355,1.92.5a1.453,1.453,0,0,1-.359,1.459,4.008,4.008,0,0,1-1.327.851,10.31,10.31,0,0,1-5.03,1.194c-.987-.082-1.947-.41-2.934-.437-1.3-.035-2.56.445-3.859.472-1.795.043-3.488-.769-5.26-1.054-1.4-.226-2.817-.133-4.218-.316a13.077,13.077,0,0,1-4.058-1.444,4.385,4.385,0,0,0-1.069-.3,1.139,1.139,0,0,0-.62.234q-2.406,1.487-4.71,3.122-1.171.831-2.31,1.7a8.628,8.628,0,0,0-1.136.878,3.076,3.076,0,0,1-.675.695c.148.012.254-.1.39-.105,1.171-.25,2.369.062,3.535-.207l-.02.016a16.165,16.165,0,0,1,5.681-.226l-.023-.02c.535.277,1.167-.117,1.686.25l-.02-.016a10.093,10.093,0,0,0,3.141,0l-.02.016a12.576,12.576,0,0,1,4.257,0l-.02-.012a7.564,7.564,0,0,1,1.912.507l-.023-.02a13.049,13.049,0,0,0,4.87.281,13.73,13.73,0,0,1,1.963.043,6.686,6.686,0,0,0,2,.179c1.108-.25,2.911-1.826,3.758-.258l-.02-.027c.519.757-.347,1.857-1.026,2.216-.5.265-1.069.4-1.592.628-.234.1-.46.226-.695.336a14.2,14.2,0,0,1-4.511.956,11.981,11.981,0,0,0-1.826.308c-.336.09-.663.207-1,.3a8.3,8.3,0,0,1-4.019.2l.016.008a13.959,13.959,0,0,1-2.392-.476l.012,0c-.718-.187-1.463-.207-2.185-.347a7.568,7.568,0,0,0-2.22-.133c-1.315.125-2.614.4-3.937.406a22.038,22.038,0,0,1-5.592-1.03,16.982,16.982,0,0,0-4.456-.7,4.64,4.64,0,0,0-1.74.308,6.028,6.028,0,0,0-1.424,1.069c-.379.316-.749.636-1.12.964q-1.077.948-2.115,1.939-1.311,1.253-2.552,2.579c-.421.449-.866.894-1.253,1.374-.105.129-.656,1.159-.706,1.159a4.662,4.662,0,0,0,1.3-.2l-.016.008c1.725-.882,3.961-.386,5.795-.847.956-.238,1.857-.667,2.825-.855a30.1,30.1,0,0,1,4.675-.051c1.69-.062,3.348-.558,5.038-.6a16.761,16.761,0,0,1,4.144.554,9.623,9.623,0,0,0,3.968.371,28.966,28.966,0,0,1,2.954-.827,8.788,8.788,0,0,1,2.248.25,15.391,15.391,0,0,0,4.46.113c1.175-.14,2.634-.773,3.812-.6a1.151,1.151,0,0,1,.87,1.147,1.963,1.963,0,0,1-.7,1.491c-.3.265-.652.457-.972.695-.418.308-.773.683-1.182,1a6.838,6.838,0,0,1-4.644,1.089,10.665,10.665,0,0,0-2.369.035c-.741.156-1.436.593-2.166.812a8.358,8.358,0,0,1-2.478.382c-.7-.008-1.374-.187-2.068-.246a13.046,13.046,0,0,0-2.646.082l.016-.012c-.706.226-1.444.316-2.162.476l.023-.016a12.086,12.086,0,0,1-5.44-.234l.023.016a32.055,32.055,0,0,0-3.336-.581,13.946,13.946,0,0,0-3.582.355,8.946,8.946,0,0,1-4.011.32,16.6,16.6,0,0,1-2.088-.456c-.46-.125-.921-.258-1.389-.347a7.615,7.615,0,0,0-2.248-.09,3.958,3.958,0,0,0-1.932.562l.016-.016a10.351,10.351,0,0,0-1.311,1.783q-.767,1.042-1.522,2.1-.831,1.159-1.643,2.33a11.259,11.259,0,0,1-1.479,2.123l0-.012c-.07.179-.152.379.164.375,2.2-.035,4.1-1.155,6.15-1.9a9.57,9.57,0,0,1,5.506-.6c1.588.4,2.966,1.44,4.565,1.8,2.845.648,5.83-.94,8.69-.359,2.275.46,4.16,2.24,6.466,2.474,1.959.2,3.836-.745,5.771-1.12a10.129,10.129,0,0,1,5.428.441,1.953,1.953,0,0,1,.839.5c1.2,1.381-1.038,2.739-2.053,3.133a17.051,17.051,0,0,1-3.41,1.015c-1.151.191-2.33-.012-3.477.226-.933.191-1.811.574-2.72.847A11.5,11.5,0,0,1,66.8,315c-.457-.23-.9-.492-1.366-.695a8.354,8.354,0,0,0-5.334-.261,25.391,25.391,0,0,1-8.066.979c-3.278-.269-6.353-1.654-9.56-2.376-.6-.137-1.416-.222-1.834.23a57.237,57.237,0,0,0-3.567,5.791c-.554,1-1.093,2-1.643,3a22.012,22.012,0,0,0-1.467,2.595c.566.765,1.315.32,2,.3l-.02.016c.874-.414,1.814-.687,2.65-1.186l-.027.02c.086-.215.332-.164.476-.281l-.016.012a6.459,6.459,0,0,1,1.92-.956l-.023.012c1.377-.788,2.981-.254,4.374.121a28.2,28.2,0,0,0,2.813.656,9.635,9.635,0,0,0,4.628-.3c1.9-.644,3.945-1.814,5.978-.983l.059.051.07-.027c.25.148.6-.023.808.254l-.027-.02a10.885,10.885,0,0,0,6.957.472l-.023.016a8.157,8.157,0,0,1,1.916-.5l-.02.012a5.138,5.138,0,0,1,2.532-.152c.933.129,1.826.386,2.771.457a42.66,42.66,0,0,0,4.686-.031c.851-.031,1.674-.043,2.064.929l-.023-.031c1.619,2.415-3.539,3.083-4.69,3.235-1.225.16-2.392.585-3.609.8-1.233.215-2.474-.07-3.676.328a13.478,13.478,0,0,0-2.755,1.573c-3.5,2.17-8.054,1.811-11.843.644a16.935,16.935,0,0,0-3.356-.823,6.7,6.7,0,0,0-3.4.648,11.7,11.7,0,0,1-8.058.542c-1.865-.492-3.66-1.214-5.518-1.725a2.343,2.343,0,0,0-1.53-.074c-.367.176-.41.624-.687.745l.02-.027c-1.3,1.733-2.138,4.066-3.141,5.99-.89,2.08-2.115,4.078-3.161,6.083-.671,1.288-1.03,2,.679,1.768l-.023.02c.332-.363.839.023,1.178-.277a19.316,19.316,0,0,1,3.972-2.345A9.2,9.2,0,0,1,35.6,339.1c1.974.141,3.773,1.159,5.7,1.6A5.559,5.559,0,0,0,43.027,341.005Z" transform="translate(6.35 -215.279)" fill="#005329"/>
  <path id="Path_3227" data-name="Path 3227" d="M33.733,682.232c-3.715.09-7.145-1.6-10.38-3.255-1.155-.589-2.333-1.342-3.687-1.206-2.79.277-5.6.386-8.366.882a10.2,10.2,0,0,0-5.908,2.716,91.118,91.118,0,0,0-7.843,8.838c-1.054,1.428-2.162,2.817-3.247,4.222-.164.211-.289.5-.652.375V683.411c0-.051.125-.187.148-.246a1.206,1.206,0,0,0,.078-.351c.027-.246.012-.484.043-.73.137-1.065.418-2.1.538-3.168a11.286,11.286,0,0,0-.035-2.81c-.129-.94-.367-1.861-.48-2.806-.039-.316-.008-.64-.031-.96a1.737,1.737,0,0,0-.09-.488c-.023-.066-.172-.254-.172-.312v-6.883a.428.428,0,0,1,.336-.121.479.479,0,0,1,.3.191c.909,2.615,1.366,5.354,2.216,8.031a75.518,75.518,0,0,1,6.384-13.685c.472-.823.48-1.92,1.455-2.443A.929.929,0,0,1,5.356,657c.242.827-.273,1.459-.542,2.154A70.08,70.08,0,0,0-2.8,678.861c-.6,2.821-.937,5.689-1.4,8.534a2.884,2.884,0,0,0-.094.394c0,.156.137.211.059.074s.219,0,.078-.074a145.715,145.715,0,0,1,13.01-15.023c2.7-2.669,5.6-5.084,8.538-7.473a16.377,16.377,0,0,0,4.788-6.5c.894-2.427,2.06-4.737,3-7.149,1.338-3.235,1.647-6.735,2.626-10.063a11.748,11.748,0,0,1,.691-2.135A30.683,30.683,0,0,1,29.651,636c.2-.425.328-.89.784-1.132a.6.6,0,0,1,.546.086c.414.718-.031,1.35-.2,2.006a12.57,12.57,0,0,0-.476,1.674c-.667,2.626-1.116,5.3-1.717,7.941-.047.176-.14.344-.179.519-.035.148.137.2.059.059s.23-.027.082-.078c1.522-1.74,3.192-3.336,4.647-5.124a1.834,1.834,0,0,1,.816-.652.581.581,0,0,1,.6.519c.074.328-.363.656-.527.874-.289.382-.581.757-.882,1.128-.39.484-.792.96-1.2,1.428-.207.242-.421.476-.624.722-.827.987-1.647,2.013-2.38,3.087-.375.546-.73,1.108-1.054,1.682a4.715,4.715,0,0,0-.457.866,7.98,7.98,0,0,1-.336.909c-.917,2.08-1.9,4.129-2.755,6.236a3.2,3.2,0,0,1-.16.277,3.614,3.614,0,0,0-.2.433,2.277,2.277,0,0,0-.2.972,14.4,14.4,0,0,0,1.534-.987c.78-.48,1.506-1.042,2.267-1.549s1.557-1,2.353-1.471c1.588-.944,3.223-1.814,4.87-2.65,1.323-.667,2.657-1.307,3.988-1.955.6-.289,1.26-.48,1.877-.773.679-.324,1.354-.648,2.033-.979,1.569-.765,3.122-1.561,4.683-2.345.222-.113.445-.222.671-.336,1.256-.613,2.571-1.093,3.82-1.709.293-.144.581-.3.866-.453a2.639,2.639,0,0,0,.437-.242,9.172,9.172,0,0,0,.944-1.069c.363-.418.737-.827,1.12-1.225a.19.19,0,0,1,.117-.074c.109-.125.219-.254.324-.378.39-.453.816-.886,1.2-1.342a11.273,11.273,0,0,1,1.249-1.151c.925-.819,1.861-1.635,2.743-2.5.375-.367,1.292-1.3,1.674-.461.062.5-.3.784-.6,1.089-2.146,2.185-4.378,4.281-6.36,6.606.082.2.148-.008.187-.023.144-.062-.035.035.1-.051,2.786-1.3,5.674-2.349,8.448-3.66a2.715,2.715,0,0,1,1.487-.316,1.053,1.053,0,0,1,.761.651c.109.289.187.855-.062,1.081a1.193,1.193,0,0,1-.375.2c-2.681,1.026-5.365,2.029-8.042,3.055-1.2.461-2.388.937-3.563,1.455-1.159.511-2.267,1.108-3.4,1.674-.57.285-1.151.554-1.729.819l-1.171.538c-1.186.546-2.369,1.093-3.543,1.654-1.151.55-2.248,1.155-3.36,1.776a4.107,4.107,0,0,1-1.53.632,17.4,17.4,0,0,1,3.606-.09,32.591,32.591,0,0,0,7.414-.445,62.879,62.879,0,0,0,7.457-1.409,2.636,2.636,0,0,1,1-.121c.636.09,1.089.847.441,1.272a2.018,2.018,0,0,1-.636.234l-5.412,1.311a12.5,12.5,0,0,1-2.361.371c-.921.051-1.842.035-2.763.051-1.791.024-3.594.222-5.389.152a9.956,9.956,0,0,1-3.723.46A15.448,15.448,0,0,0,32.4,658.5c-.078.047-.137.144-.219.2a1.2,1.2,0,0,1-.3.129,5.425,5.425,0,0,0-.687.269A31.892,31.892,0,0,0,26.658,662q-2.3,1.609-4.515,3.328c-1.959,1.522-3.929,3.051-5.814,4.663-1.206,1.03-2.275,2.209-3.449,3.27a27.494,27.494,0,0,0-3.968,3.77,1.181,1.181,0,0,1-.574.515,40.567,40.567,0,0,1,5.693-.9c1.8-.207,3.6-.347,5.4-.5,1.865-.152,3.727-.308,5.584-.535a50.966,50.966,0,0,0,5.529-.94c.6-.137,1.19-.289,1.775-.456.429-.082.823-.1.855.5.008.168-1.194.609-1.354.671-.476.187-.968.332-1.459.476-1.381.41-2.79.671-4.183,1.018a14.235,14.235,0,0,0-2.8.535c-.066.027-.113,0-.14.082a7.8,7.8,0,0,0,2.134,1.194,20.869,20.869,0,0,0,5.026,1.892c1.139.285,2.322.429,3.477.671A.775.775,0,0,1,33.733,682.232Z" transform="translate(6.35 -452.319)" fill="#384215"/>
  <path id="Path_3228" data-name="Path 3228" d="M43.972,223.65a50.861,50.861,0,0,1-11.933,1.69c-3.789.152-7.59.086-11.375.418-1.335.117-2.665.328-4,.492a10.478,10.478,0,0,0-5.12,2.572,82.354,82.354,0,0,0-7.594,7.488,106.8,106.8,0,0,0-9.669,11.07c-.16.218-.3.484-.636.468v-7.359c1.338-4.359,3.165-8.585,3.8-13.138.265-1.869.234-3.769.332-5.654a85.086,85.086,0,0,1,1-9.861,2.417,2.417,0,0,1,.5-1.307.811.811,0,0,1,1.12.14,1.835,1.835,0,0,1,.109,1.272,44.865,44.865,0,0,0-.609,8.854,9.319,9.319,0,0,1-.164,1.935,14.2,14.2,0,0,1,1.471-3.851,82.059,82.059,0,0,1,4.534-8.866c.226-.363.41-.777.847-.96.418,0,.819.02.823.589l.008-.012a.152.152,0,0,0-.113.172A108.561,108.561,0,0,0,2.2,221.082a112.228,112.228,0,0,0-4.9,16.389c-.062.265-.082.542-.121.816s-.254.628.308.562c.917-.979,1.826-1.967,2.751-2.938,5.83-6.087,11.9-11.913,18.3-17.4a24.625,24.625,0,0,0,5.923-7.64c1.639-3.247,3.129-6.56,4.636-9.868a33.75,33.75,0,0,1,5.346-8.495c.375-.039.41.183.355.472A80.435,80.435,0,0,0,26.42,211.9c.379.031.538-.219.737-.371,5.432-4.156,10.945-8.206,16.572-12.1A17.607,17.607,0,0,0,49,194.064c.753-1.253,1.623-2.431,2.412-3.664a38.1,38.1,0,0,1,2.747-3.563c.39-.113.535.144.659.437.094.535-.258.886-.538,1.257a56.127,56.127,0,0,0-3.887,6.037.392.392,0,0,0-.078.191,1.647,1.647,0,0,1,.172-.152,49.7,49.7,0,0,1,7.554-3.477c.472-.16,1.065.48.73.9a1.04,1.04,0,0,1-.351.254,105.824,105.824,0,0,0-9.627,5.615c-1.666,1.136-3.254,2.372-4.889,3.547a5.82,5.82,0,0,1-1.163.8l.02-.016c-.293.222-.5.55,0,.636.211.035.418-.008.632.008.273.023.546.059.816.082.546.051,1.089.1,1.635.141,1.854.137,3.715.211,5.572.261,1.889.051,3.766-.047,5.65-.047.2-.012.394-.02.589-.031a1.582,1.582,0,0,0,.3-.035c.1-.023.2-.066.293-.094a2.471,2.471,0,0,1,.929-.023.648.648,0,0,1,.242.059c.156.086.191.379.187.539a.659.659,0,0,1-.46.585,2.26,2.26,0,0,1-.624.113c-1.034.082-2.072.148-3.106.258a22.126,22.126,0,0,1-2.322.261,32.436,32.436,0,0,1-4.4-.082,34.523,34.523,0,0,0-5.315,0,17.692,17.692,0,0,0-3.6.449,11.308,11.308,0,0,0-3.223,1.58c-1.3.89-2.451,1.963-3.676,2.95-.929.745-1.9,1.44-2.852,2.158-.788.6-1.53,1.253-2.3,1.873-.581.468-1.147.948-1.709,1.44-.515.457-1.1.874-1.584,1.358q-1.779,1.493-3.5,3.048-.872.784-1.733,1.588a11.117,11.117,0,0,1-1.6,1.37.741.741,0,0,1-.265.238l.012-.016c0,.172-.258.3-.207.468.059.2.406.2.554.183a49.465,49.465,0,0,1,5.1-.222c.152,0,.3.012.453.02l.5.023.905.047a3.993,3.993,0,0,0,1.986-.246c.578-.285,1.116-.628,1.709-.913l-.027.02a18.013,18.013,0,0,1,2.107-1.171c2.357-1.241,4.69-2.517,7.036-3.785,1.779-.964,3.582-1.912,5.44-2.72.613-.265,1.132.012.929.714a50.079,50.079,0,0,1-5.732,3.274c-2.486,1.448-5.069,2.728-7.426,4.386a1.433,1.433,0,0,1-.956.382,6.434,6.434,0,0,1,1.346-.035c1.4,0,2.81-.105,4.21-.105,1.92-.113,3.84-.3,5.748-.546q1-.129,2-.281a23.129,23.129,0,0,0,2.384-.667,1.214,1.214,0,0,1,.972.2.587.587,0,0,1-.027.769,2.474,2.474,0,0,1-1.994.769C44.2,223.482,44.061,223.5,43.972,223.65Z" transform="translate(6.35 -179.115)" fill="#384215"/>
  <path id="Path_3232" data-name="Path 3232" d="M29.522,625.611c.133-.281.254-.57.371-.858.078-.2.152-.4.238-.593a3.549,3.549,0,0,0,.312-.62.937.937,0,0,0-.632-.488,4.681,4.681,0,0,1-3.379-3.855c-.312-1.483-2.123-.523-3.114-.367a7.935,7.935,0,0,1-4.195-.265c-1.03-.41-1.912-1.128-2.907-1.615a9.725,9.725,0,0,0-3.481-.87,15.618,15.618,0,0,0-5.744.6c-2.973.894-5.436,2.084-8.62,1.631l.02.016c-.628-.367-1.354.035-1.994-.246l-.07.035-.062-.051a5.972,5.972,0,0,0-2.614-.016v4.991a30.075,30.075,0,0,1,3.867,1.776,8.947,8.947,0,0,0,7.414.823,33.68,33.68,0,0,1,3.773-.987,8.473,8.473,0,0,1,5.092.527c1.35.566,2.622,1.28,3.933,1.92,3.286,1.6,6.657,2.189,10.157.671.183-.082.531-.09.679-.223.164-.148.187-.429.281-.62.133-.273.3-.534.437-.808C29.362,625.946,29.444,625.778,29.522,625.611Z" transform="translate(6.35 -440.845)" fill="#616840"/>
  <path id="Path_3239" data-name="Path 3239" d="M-3.472,676.017a6.367,6.367,0,0,1-2.868.788V666.6c.2-.258.476-.121.722-.156A5.635,5.635,0,0,1-1.6,668.907C.087,671.2-.924,675.053-3.472,676.017Z" transform="translate(6.344 -471.585)" fill="#d2972d"/>
  <path id="Path_3241" data-name="Path 3241" d="M113.756,627.256c-.3-1.342-1.982-1.463-3.087-1.526-1.007-.055-2.021-.012-3.028-.066-.48-.027-.972-.144-1.448-.141-.46,0-.944.09-1.4.137-1.772.191-3.59.527-5.373.554A7.874,7.874,0,0,1,97.481,626c-.211-.051-.418-.109-.624-.176a11.776,11.776,0,0,1-1.654-.73,7.54,7.54,0,0,1-.929-.445.578.578,0,0,0-.48-.183c-.488.1-.659.523-.913.87-1.089,1.491-2.275,2.853-4.281,3.075-.308.035-.511,1.132-.593,1.413-.055.187-.484,2.349-.546,2.349a3.78,3.78,0,0,0,1.459-.449c.476-.207.94-.441,1.432-.6A3.007,3.007,0,0,0,91,630.015c1.112-2.2,3.633-3.321,6.563-2.9,1.986.285,3.305,1.779,3.773,4.277.078.406.023.913.644.96a6.341,6.341,0,0,0,3.2-.925,15.864,15.864,0,0,0,1.416-.851,6.564,6.564,0,0,1,1.05-.613,3.54,3.54,0,0,1,1.175-.2l1.428-.117c1.307-.109,2.934-.382,3.465-1.776A1.022,1.022,0,0,0,113.756,627.256Z" transform="translate(-50.854 -445.994)" fill="#626840"/>
  <path id="Path_3242" data-name="Path 3242" d="M95.14,190.657a4.472,4.472,0,0,1-1.4-2.369,4.382,4.382,0,0,1,2.841-5.451,9.814,9.814,0,0,1,1.592-.511,2.188,2.188,0,0,1,.812.043,4.7,4.7,0,1,1-2.837,8.9A3.912,3.912,0,0,1,95.14,190.657Z" transform="translate(-54.577 -176.367)" fill="#d2972d"/>
  <path id="Path_3243" data-name="Path 3243" d="M87.572,675.729c.055.035-.386.257-.394.265-.191.086-.382.172-.57.261-.386.179-.773.367-1.159.558q-.942.468-1.869.972c-.589.324-1.21.624-1.787.972a76.284,76.284,0,0,0-7.418,4.07c-.386.246-.687.6-1.1.816a.355.355,0,0,1-.261.055,1.061,1.061,0,0,1-.148-.078c-.2-.09-.379.059-.566.09a.3.3,0,0,1-.308-.125c-.14-.183-.051-.426.027-.617.71-1.775,1.534-3.508,2.318-5.252.285-.628.527-1.276.87-1.877a.727.727,0,0,0,.659,0,24,24,0,0,1,5.576-1.26c.019,0,.039,0,.059,0a13.06,13.06,0,0,1,3.153.4c.5.086,1,.183,1.487.316A4.515,4.515,0,0,1,87.572,675.729Z" transform="translate(-41.379 -476.537)" fill="#616840"/>
  <path id="Path_3244" data-name="Path 3244" d="M147.18,175.292a1.2,1.2,0,0,0-.62-.476,4.422,4.422,0,0,1-.168-6.243c.144-.183.3-.359.449-.538.41-.562,1.065-.609,1.658-.792l-.016.008a3.541,3.541,0,0,1,3.075.472l-.012-.008a3.269,3.269,0,0,1,.71.507l-.023-.023a5.1,5.1,0,0,1,1.467,2.564,4.285,4.285,0,0,1-.581,2.845,4.062,4.062,0,0,1-1.662,1.479C150.064,175.764,148.655,176.228,147.18,175.292Z" transform="translate(-86.054 -167.089)" fill="#d2972d"/>
  <path id="Path_3248" data-name="Path 3248" d="M134.394,264.8a3.155,3.155,0,0,1,.917.343,3.643,3.643,0,0,1,.851.695,4.628,4.628,0,0,1,.324.4,5.145,5.145,0,0,1,.538,5.123,4.529,4.529,0,0,1-4.257,2.213,5.223,5.223,0,0,1-2.747-.933,4.967,4.967,0,0,1-1.76-2.447c-.031-.23-.059-.464-.09-.695a2.117,2.117,0,0,1,.219-2.162,6.459,6.459,0,0,1,1.276-1.612,4.9,4.9,0,0,1,.835-.632,3.189,3.189,0,0,1,1.37-.316A9.268,9.268,0,0,1,134.394,264.8Z" transform="translate(-75.546 -226.613)" fill="#d2972d"/>
  <path id="Path_3249" data-name="Path 3249" d="M94.924,746.174a4.754,4.754,0,0,1,4.542-1.081,4.039,4.039,0,0,1,3.11,3.89,4.429,4.429,0,0,1-1.346,3.18,4.012,4.012,0,0,1-1.592.886,5.505,5.505,0,0,1-4.3-.827,4.253,4.253,0,0,1-1.705-3.028,3.916,3.916,0,0,1,.207-1.4,4.66,4.66,0,0,1,.679-1.167A4.564,4.564,0,0,1,94.924,746.174Z" transform="translate(-54.615 -519.445)" fill="#d1962b"/>
  <path id="Path_3252" data-name="Path 3252" d="M24.96,233a3.081,3.081,0,0,1-.343-.566,4.809,4.809,0,0,1-.468-.886,4.383,4.383,0,0,1-.3-1.818,5.416,5.416,0,0,1,1.428-3.282,3.689,3.689,0,0,1,3.2-1,5.622,5.622,0,0,1,1.752.406,3.506,3.506,0,0,1,2.072,2.993,4.616,4.616,0,0,1-4.078,5.178,4.89,4.89,0,0,1-1.561-.14,4.569,4.569,0,0,1-.78-.258c-.273-.121-.441-.367-.7-.507a1.79,1.79,0,0,1-.191-.1A.079.079,0,0,1,24.96,233Z" transform="translate(-12.063 -202.662)" fill="#d2972d"/>
  <path id="Path_3253" data-name="Path 3253" d="M82.236,311.91a5.19,5.19,0,0,0-1.662,3.126,7.172,7.172,0,0,0,.2,2.536,16.581,16.581,0,0,0-2.692,1.015c-.219.062-.437.141-.656.211-.211-.921-.577-1.795-.761-2.731A8.81,8.81,0,0,1,77,311.633c.191-.6.4-1.2.566-1.807a5.674,5.674,0,0,0,.176-2.458,6.119,6.119,0,0,1-.07-2.353c.105-.472.258-.94.808-1.061a1.287,1.287,0,0,1,1.327.585,2.165,2.165,0,0,1,.441,1.081,5.491,5.491,0,0,1,.1.94A7.906,7.906,0,0,0,82.236,311.91Z" transform="translate(-44.179 -250.53)" fill="#626840"/>
  <path id="Path_3254" data-name="Path 3254" d="M46.306,342.776c-.917.461-1.971.312-2.919.659a8.863,8.863,0,0,1-1.37.269,6.106,6.106,0,0,0-.445-3.239c-.133-.328-.277-.656-.394-.987a1.174,1.174,0,0,1,1.338-1.686,2.242,2.242,0,0,1,1.733,1.28,8.524,8.524,0,0,1,1.237,3.172C45.564,342.827,45.908,342.792,46.306,342.776Z" transform="translate(-22.565 -271.176)" fill="#626941"/>
  <path id="Path_3256" data-name="Path 3256" d="M39.577,679.274c.02-.332.14-.511-.144-.628-1.057-.441-2.111-.89-3.153-1.37A5.709,5.709,0,0,0,31.9,677c-1.085.367-2.181.706-3.243,1.132a13.146,13.146,0,0,1-6.329,1.225,5.148,5.148,0,0,0,.515-2.088c.3-.344.644-.215,1.03-.242a4.293,4.293,0,0,0,3.781-2.8,4.164,4.164,0,0,0-.5-4.464c-.289-.394-.8-.7-.652-1.315a11.9,11.9,0,0,1,9.314,1.448c.671.414,1.331.843,2,1.26a8.6,8.6,0,0,0,4.027,1.237c.394.027.476-.051.78-.394C41.614,674.373,40.6,676.9,39.577,679.274Z" transform="translate(-11.139 -472.586)" fill="#616840"/>
  <path id="Path_3257" data-name="Path 3257" d="M105.7,635.463c0-.062,0-.121,0-.183a5.394,5.394,0,0,0-1.729-3.9c-1.537-1.346-3.313-1.358-5.123-1.019a5.561,5.561,0,0,0-4.55,4.125,3.674,3.674,0,0,0-.035,2.486,4.112,4.112,0,0,0,.679,1.194,3.048,3.048,0,0,0,.472.429c.191.16.316.4.507.57a5.584,5.584,0,0,0,.577.422,8,8,0,0,0,1.366.776,4.958,4.958,0,0,0,1.6.312A6.825,6.825,0,0,0,101,640.6a5.838,5.838,0,0,0,2.525-1.018,5.532,5.532,0,0,0,1.682-2.22A4.458,4.458,0,0,0,105.7,635.463Z" transform="translate(-54.875 -449.472)" fill="#d1962b"/>
  <path id="Path_3258" data-name="Path 3258" d="M76.789,612.975a5.016,5.016,0,0,1,1.963-2.435,5.758,5.758,0,0,1,6.739.168,4.494,4.494,0,0,1,.554.57,4.752,4.752,0,0,1,1.007,2.38,4.888,4.888,0,0,1-.012,1.307,3.269,3.269,0,0,1-.507,1.292,7.538,7.538,0,0,1-.921,1.272,13.626,13.626,0,0,1-1.818,1.53,4.211,4.211,0,0,1-2.384.542c-.156,0-.312-.012-.468-.016-.226-.074-.449-.152-.675-.215a4.866,4.866,0,0,1-3.6-4.027,3.665,3.665,0,0,1-.191-.976A5.823,5.823,0,0,1,76.789,612.975Z" transform="translate(-44.151 -436.887)" fill="#d1962b"/>
  <path id="Path_3259" data-name="Path 3259" d="M170.664,667.587a4.285,4.285,0,0,0-3.524-2.365,6.531,6.531,0,0,0-2.751.215,5.476,5.476,0,0,0-3.211,3.5,4.36,4.36,0,0,0,.831,3.957,4.8,4.8,0,0,0,4.14,1.713,5.372,5.372,0,0,0,4.265-2.341,4.777,4.777,0,0,0,.644-3.551A4.909,4.909,0,0,0,170.664,667.587Z" transform="translate(-95.7 -470.814)" fill="#d1962b"/>
  <path id="Path_3260" data-name="Path 3260" d="M179.334,643.99c-.039-.035-.078-.07-.117-.109a6.265,6.265,0,0,1-1.916-3.27,2.8,2.8,0,0,1,.238-1.795,2.862,2.862,0,0,1,1.038-.964,14.036,14.036,0,0,1,1.982-1.495,5.412,5.412,0,0,1,2.568-.535,5.139,5.139,0,0,1,3.73,1.807,4.688,4.688,0,0,1,.492,4.643A4.958,4.958,0,0,1,179.334,643.99Z" transform="translate(-105.608 -452.914)" fill="#d1962b"/>
  <path id="Path_3261" data-name="Path 3261" d="M21.2,668.568a4.957,4.957,0,0,0-3.223-1.612,4.652,4.652,0,0,0-2.294.425,6.2,6.2,0,0,0-2.454,2.13c-1.717,2.2-.137,6.329,2.618,6.852.316.094.632.187.948.277.238,0,.472,0,.71,0a4.46,4.46,0,0,0,4.429-2.915,4.757,4.757,0,0,0,.4-2.985A4.824,4.824,0,0,0,21.2,668.568Z" transform="translate(-5.151 -471.893)" fill="#d2972d"/>
  <path id="Path_3262" data-name="Path 3262" d="M102.246,723.266a4.883,4.883,0,0,0-2.092-2.806,4.351,4.351,0,0,0-2.435-.441,5.4,5.4,0,0,0-3.707,1.916,4.917,4.917,0,0,0-.9,4.164,3.613,3.613,0,0,0,2.142,2.329,5.546,5.546,0,0,0,6.376-1.627A3.815,3.815,0,0,0,102.246,723.266Z" transform="translate(-54.227 -504.247)" fill="#d1962b"/>
  <path id="Path_3263" data-name="Path 3263" d="M164.019,621.135c1.846-1.776,5.619-2.185,7.024.144a5.461,5.461,0,0,1,.929,4.054,1.745,1.745,0,0,1-.222.6,6.554,6.554,0,0,1-1.811,2.158,5.184,5.184,0,0,1-2.3.909,4.4,4.4,0,0,1-4.5-3.317,4.769,4.769,0,0,1,.144-3.586A3.533,3.533,0,0,1,164.019,621.135Z" transform="translate(-96.836 -443.065)" fill="#d1962b"/>
  <path id="Path_3264" data-name="Path 3264" d="M6.412,673.054a5.123,5.123,0,0,0,.316,4.737,6.022,6.022,0,0,0,2.3,2.115,6.172,6.172,0,0,0-.8,1.077,7,7,0,0,1-.648,1.174.276.276,0,0,0-.152-.211,1.377,1.377,0,0,0-.355-.086c-.956-.191-1.877-.5-2.821-.745a11.45,11.45,0,0,1-2.185-.777,2.186,2.186,0,0,1-.636-.328c-.234-.238.016-.414.238-.574,1.678-1.194,1.994-3.43,1.787-5.338-.02-.191-.152-1.3-.371-1.35A13.185,13.185,0,0,0,6.412,673.054Z" transform="translate(1.661 -475.435)" fill="#626840"/>
  <path id="Path_3265" data-name="Path 3265" d="M93.286,690.164c-.051.027-.1.059-.156.086a1.985,1.985,0,0,1-.445.222,6.032,6.032,0,0,0-.535.292c.117-.394.527-.573,1.175-.944.418-.242,1-.5,1.4-.765a10.974,10.974,0,0,1,5.248-1.6,15.541,15.541,0,0,1,1.705-.043c.293,0,.585,0,.882-.008a6.487,6.487,0,0,1,.816-.059.326.326,0,0,1-.121.063,12.137,12.137,0,0,1-1.26.566c-1.217.324-2.517,0-3.766.148a8.075,8.075,0,0,0-2.56.8C94.862,689.314,94.07,689.731,93.286,690.164Z" transform="translate(-53.714 -484.335)" fill="#626a43"/>
  <path id="Path_3266" data-name="Path 3266" d="M114.662,680.28c-.023.019-.012.039.008.063.215.246,1,.944.585,1.292-.109.094-.386.09-.519.109-.4.051-.8.074-1.194.094-.32.016-.644.023-.968.016-.168,0-.336-.008-.5-.02-.094,0-.449-.086-.515-.039a8.823,8.823,0,0,1,1.514-.839c.265-.121.538-.234.808-.343A3.614,3.614,0,0,0,114.662,680.28Z" transform="translate(-65.55 -480.027)" fill="#5d643c"/>
  <path id="Path_3267" data-name="Path 3267" d="M162.355,217.988a4.441,4.441,0,0,1,1.065-.687,6.31,6.31,0,0,1,2.365-.531,4.848,4.848,0,0,1,1.483.137,3.44,3.44,0,0,1,1.015.472c1.444,1,1.9,2.942,1.935,4.6a2.848,2.848,0,0,1-.055.706,2.983,2.983,0,0,1-.215.574,4.225,4.225,0,0,1-1.034,1.506,3.726,3.726,0,0,1-.593.394,6.1,6.1,0,0,1-4,.773,3.32,3.32,0,0,1-.819-.25,4.713,4.713,0,0,1-1.21-.944,5.093,5.093,0,0,1-.554-.6,4.577,4.577,0,0,1-.359-.613,4.792,4.792,0,0,1-.554-2.025A4.312,4.312,0,0,1,162.355,217.988Z" transform="translate(-95.586 -197.381)" fill="#d2972d"/>
  <path id="Path_3268" data-name="Path 3268" d="M160.861,191.936a9.5,9.5,0,0,1-2.017-2.868,4.209,4.209,0,0,1,1.272-4.187,5.1,5.1,0,0,1,1.061-.675c2.575-1.28,6.251-.105,7.117,2.794a4.308,4.308,0,0,1,.164.89c.191,2.841-2.544,5-5.248,4.839a4.545,4.545,0,0,1-2.06-.593A3.132,3.132,0,0,1,160.861,191.936Z" transform="translate(-94.295 -177.213)" fill="#d2972d"/>
  <path id="Path_3269" data-name="Path 3269" d="M124.735,251.731a7.847,7.847,0,0,1-2.439-1.214,3.7,3.7,0,0,1-1-1.276,2.638,2.638,0,0,1-.226-.394,1.522,1.522,0,0,1-.082-.46,6.717,6.717,0,0,1,.137-2.092,3.834,3.834,0,0,1,1.147-1.9,4.484,4.484,0,0,1,2.88-1.264,5.8,5.8,0,0,1,1.4.027,3.984,3.984,0,0,1,2.306,1.264,4.652,4.652,0,0,1,1.151,3.937,2.555,2.555,0,0,1-.379.991,3.584,3.584,0,0,1-.386.453,7.88,7.88,0,0,1-1.3,1.089c-.2.133-.414.25-.624.371a3.217,3.217,0,0,1-2.552.48A.09.09,0,0,0,124.735,251.731Z" transform="translate(-71.288 -213.443)" fill="#d2972d"/>
  <path id="Path_3270" data-name="Path 3270" d="M1.041,231.119c-.394-1.854-.5-3.652.956-5.162l1.03-.562a4.1,4.1,0,0,1,4.843.351,4.082,4.082,0,0,1,1.338,4.663c-.055.2.008.46-.035.675a2.187,2.187,0,0,1-.234.6,2.754,2.754,0,0,1-1,.929,11.181,11.181,0,0,1-2.677,1.112,1.756,1.756,0,0,1-.593.113,6.38,6.38,0,0,1-.706-.164,2.442,2.442,0,0,1-.687-.121,4.093,4.093,0,0,1-.964-.617A3.6,3.6,0,0,1,1.041,231.119Z" transform="translate(1.999 -202.262)" fill="#d2972d"/>
  <path id="Path_3271" data-name="Path 3271" d="M125.69,271.41a10.2,10.2,0,0,1,.749-1.608c.117-.207.234-.414.359-.62a3.385,3.385,0,0,1,.367-.617,1.37,1.37,0,0,1,.62-.39c.07-.019.113-.016.09.066a1.368,1.368,0,0,1-.277.39,5.214,5.214,0,0,0-.441.538,4.716,4.716,0,0,0-.519,2.17A1.829,1.829,0,0,0,125.69,271.41Z" transform="translate(-74.166 -228.724)" fill="#616840"/>
  <path id="Path_3277" data-name="Path 3277" d="M18.5,241.581a7.386,7.386,0,0,0,1.514-2.361c.89,1.038.737,1.717-.484,2.2A1.8,1.8,0,0,1,18.5,241.581Z" transform="translate(-8.803 -211.074)" fill="#868964"/>
  <path id="Path_3278" data-name="Path 3278" d="M182.26,640.109a1.516,1.516,0,0,1,.921-.769A1.045,1.045,0,0,1,182.26,640.109Z" transform="translate(-108.662 -455.062)" fill="#d1962b"/>
  <path id="Path_3280" data-name="Path 3280" d="M11.2,346.654c-1.011.219-2,.511-3.032.683-1.416.234-2.852.363-4.285.484a97.441,97.441,0,0,1-10.235.535v-1.9c0,.144,7.89-.574,8.6-.663,2.607-.324,5.28-.624,7.851-1.143,2.111-.425,4.206-.929,6.3-1.436a57.516,57.516,0,0,0,5.951-1.573,29.2,29.2,0,0,0,5.607-2.521,3.962,3.962,0,0,1,2.119-.714.722.722,0,0,1,.527.394,1.933,1.933,0,0,1,.164.464.35.35,0,0,1-.09.293c-.281.32-1.1.433-1.5.609a14.375,14.375,0,0,0-1.541.843,43.548,43.548,0,0,1-5.338,2.778,32.066,32.066,0,0,1-4.694,1.619C15.5,345.972,13.332,346.194,11.2,346.654Z" transform="translate(6.35 -271.546)" fill="#384215"/>
  <path id="Path_3281" data-name="Path 3281" d="M95.632,326.243a4.9,4.9,0,0,0-2.049-3.383c-1.463-1.015-2.954-.741-4.538-.207A4.063,4.063,0,0,0,86.5,328.7c.082.164.168.328.25.488a1.736,1.736,0,0,0,.156.258.78.78,0,0,1,.047.23c.464.41.886.862,1.381,1.237a3.3,3.3,0,0,0,1.569.644,5.284,5.284,0,0,0,4.039-1.01,4.831,4.831,0,0,0,1.7-3.215A4.617,4.617,0,0,0,95.632,326.243Z" transform="translate(-49.91 -261.659)" fill="#d2972d"/>
</svg>
