<svg xmlns="http://www.w3.org/2000/svg" width="71.376" height="169.498" viewBox="0 0 71.376 169.498">
  <g id="Group_6349" data-name="Group 6349" transform="translate(-290.109)">
    <g id="Group_6317" data-name="Group 6317">
      <g id="Group_6316" data-name="Group 6316">
        <path id="Path_16793" data-name="Path 16793" d="M307.087,96a20.019,20.019,0,0,1,3.286,7.037,28.96,28.96,0,0,1,.579,7.774c-.068,2.584-.266,5.137-.182,7.659a21.655,21.655,0,0,0,1.36,7.331,11.867,11.867,0,0,0,.749,1.7,10.978,10.978,0,0,0,.868,1.648l1,1.581,1.085,1.611a48.567,48.567,0,0,1,3.865,6.774,36.044,36.044,0,0,1,3.745,15.094l-.861-.032a30.365,30.365,0,0,0-1.349-7.412,43.861,43.861,0,0,0-2.764-7.064c-.546-1.143-1.16-2.252-1.768-3.364-.668-1.077-1.287-2.186-2.024-3.22l-1.07-1.583-1.06-1.677a11.986,11.986,0,0,1-.928-1.754,13.062,13.062,0,0,1-.767-1.834,22.922,22.922,0,0,1-1.312-7.769c-.047-2.616.2-5.192.372-7.738a28.785,28.785,0,0,0-.284-7.568,20.4,20.4,0,0,0-2.814-7Z" fill="#005329"/>
        <path id="Path_16794" data-name="Path 16794" d="M325.623,147.824c-.737-5.32-1.643-10.589-2.755-15.835s-2.355-10.478-3.423-15.77l-.763-3.977c-.217-1.334-.461-2.661-.657-4-.412-2.669-.744-5.352-.942-8.045A104.1,104.1,0,0,1,317.076,84l.857.092a70.023,70.023,0,0,0-.3,16.054c.268,2.669.677,5.323,1.16,7.961.254,1.317.561,2.625.839,3.937l.941,3.916c1.317,5.207,2.735,10.409,3.822,15.706a97.683,97.683,0,0,1,2.089,16.08Z" fill="#005329"/>
        <path id="Path_16795" data-name="Path 16795" d="M321.708,125.14a20.59,20.59,0,0,1,2.371-10.209,63.745,63.745,0,0,1,5.518-8.844,68.732,68.732,0,0,0,5.515-8.68,19.043,19.043,0,0,0,2.343-9.813h.862c-.132.878-.218,1.749-.3,2.62l-.5,2.576c-.24.838-.509,1.67-.764,2.507l-1.016,2.413a69.464,69.464,0,0,1-5.395,8.89,63.021,63.021,0,0,0-5.263,8.8,29.232,29.232,0,0,0-2.507,9.748Z" fill="#005329"/>
        <path id="Path_16796" data-name="Path 16796" d="M309.671,120.316a22.3,22.3,0,0,0-5.092-8.656,26.893,26.893,0,0,0-3.813-3.372,25.826,25.826,0,0,0-4.372-2.583l.326-.8a26.633,26.633,0,0,1,4.59,2.621,27.919,27.919,0,0,1,4,3.438,23.375,23.375,0,0,1,5.464,9.009Z" fill="#005329"/>
        <path id="Path_16797" data-name="Path 16797" d="M327.172,145.515a41.01,41.01,0,0,1,3.445-11.608,102.622,102.622,0,0,1,5.8-10.571,84.338,84.338,0,0,0,5.634-10.523,34.579,34.579,0,0,0,2.9-11.5l.856.094a57.346,57.346,0,0,1-3.111,11.665,88.569,88.569,0,0,1-5.312,10.818c-1.965,3.491-3.948,6.946-5.613,10.538q-1.22,2.706-2.2,5.5c-.279.945-.587,1.885-.856,2.835l-.69,2.887Z" fill="#005329"/>
        <path id="Path_16798" data-name="Path 16798" d="M333.312,129.033a20.356,20.356,0,0,1,5.452-4.983,28.9,28.9,0,0,1,6.765-2.87A41.518,41.518,0,0,0,352.3,118.7a14.926,14.926,0,0,0,5.358-4.7l.122.082a14.689,14.689,0,0,1-5.259,5.025,41.83,41.83,0,0,1-6.776,2.734,30,30,0,0,0-6.5,2.978,23.09,23.09,0,0,0-5.256,4.74Z" fill="#005329"/>
        <g id="Group_6308" data-name="Group 6308">
          <path id="Path_16799" data-name="Path 16799" d="M318.133,82.821A20.173,20.173,0,0,1,315.808,79a.861.861,0,0,1,.872-1.286,1.041,1.041,0,0,1,.95-1.19c.978-.114,1.263.971,1.263.971.736-.253,1.171.219.85,1.645A21.085,21.085,0,0,1,318.133,82.821Z" fill="#e69771"/>
          <path id="Path_16800" data-name="Path 16800" d="M318.3,82.91a20.2,20.2,0,0,1,2.733-3.541.861.861,0,0,1,1.513.354,1.042,1.042,0,0,1,1.453.459,1.254,1.254,0,0,1-.454,1.527c.5.6.215,1.172-1.231,1.384A21.033,21.033,0,0,1,318.3,82.91Z" fill="#e69771"/>
          <path id="Path_16801" data-name="Path 16801" d="M318.284,83.1a20.2,20.2,0,0,1,4.286,1.281.861.861,0,0,1,.213,1.539,1.043,1.043,0,0,1,.092,1.521,1.255,1.255,0,0,1-1.589.124c-.377.681-1.016.621-1.732-.652A21.032,21.032,0,0,1,318.284,83.1Z" fill="#e69771"/>
          <path id="Path_16802" data-name="Path 16802" d="M318.1,83.153a20.158,20.158,0,0,1,.342,4.46.861.861,0,0,1-1.36.751,1.042,1.042,0,0,1-1.387.631c-.923-.342-.685-1.438-.685-1.438-.771-.108-.945-.726-.013-1.851A21.051,21.051,0,0,1,318.1,83.153Z" fill="#e69771"/>
          <path id="Path_16803" data-name="Path 16803" d="M317.983,83a20.161,20.161,0,0,1-4.041,1.919.861.861,0,0,1-1.189-1,1.041,1.041,0,0,1-1.086-1.068c-.012-.984,1.1-1.156,1.1-1.156-.176-.758.339-1.142,1.724-.675A21.04,21.04,0,0,1,317.983,83Z" fill="#e69771"/>
          <path id="Path_16804" data-name="Path 16804" d="M319.32,82.991a1.165,1.165,0,1,1-1.166-1.165A1.166,1.166,0,0,1,319.32,82.991Z" fill="#ffbc3a"/>
        </g>
        <g id="Group_6309" data-name="Group 6309">
          <path id="Path_16805" data-name="Path 16805" d="M338.011,87.842a23.906,23.906,0,0,1,2.34-4.747,1.019,1.019,0,0,1,1.838.055,1.232,1.232,0,0,1,1.792.193,1.484,1.484,0,0,1-.169,1.878c.72.574.524,1.308-1.1,1.892A24.916,24.916,0,0,1,338.011,87.842Z" fill="#e69771"/>
          <path id="Path_16806" data-name="Path 16806" d="M338.031,88.07a23.93,23.93,0,0,1,5.271.482,1.018,1.018,0,0,1,.607,1.735,1.232,1.232,0,0,1,.463,1.742,1.483,1.483,0,0,1-1.813.516c-.278.879-1.033.959-2.162-.351A24.9,24.9,0,0,1,338.031,88.07Z" fill="#e69771"/>
          <path id="Path_16807" data-name="Path 16807" d="M337.825,88.172a23.855,23.855,0,0,1,1.441,5.093,1.019,1.019,0,0,1-1.4,1.189,1.232,1.232,0,0,1-1.46,1.057c-1.151-.18-1.132-1.508-1.132-1.508-.919.056-1.265-.62-.448-2.144A24.938,24.938,0,0,1,337.825,88.172Z" fill="#e69771"/>
          <path id="Path_16808" data-name="Path 16808" d="M337.657,88.016a23.918,23.918,0,0,1-4.237,3.172,1.019,1.019,0,0,1-1.613-.882,1.233,1.233,0,0,1-1.511-.984c-.244-1.139,1-1.6,1-1.6-.382-.839.126-1.4,1.841-1.188A24.936,24.936,0,0,1,337.657,88.016Z" fill="#e69771"/>
          <path id="Path_16809" data-name="Path 16809" d="M337.742,87.8a23.86,23.86,0,0,1-4.481-2.817,1.019,1.019,0,0,1,.245-1.822,1.231,1.231,0,0,1,.376-1.762,1.483,1.483,0,0,1,1.85.361c.646-.657,1.356-.387,1.769,1.292A24.953,24.953,0,0,1,337.742,87.8Z" fill="#e69771"/>
          <path id="Path_16810" data-name="Path 16810" d="M338.594,89.135a1.379,1.379,0,1,1,.424-1.9A1.378,1.378,0,0,1,338.594,89.135Z" fill="#ffbc3a"/>
        </g>
        <g id="Group_6310" data-name="Group 6310">
          <path id="Path_16811" data-name="Path 16811" d="M297.676,105.781a24.488,24.488,0,0,1,5.378-.747,1.045,1.045,0,0,1,1.011,1.592,1.264,1.264,0,0,1,.868,1.632c-.345,1.145-1.691.939-1.691.939-.073.942-.809,1.2-2.242.153A25.546,25.546,0,0,1,297.676,105.781Z" fill="#e69771"/>
          <path id="Path_16812" data-name="Path 16812" d="M297.493,105.93a24.523,24.523,0,0,1,2.627,4.752A1.045,1.045,0,0,1,299,112.2a1.264,1.264,0,0,1-1.212,1.4c-1.192.089-1.482-1.242-1.482-1.242-.906.27-1.409-.325-.947-2.037A25.557,25.557,0,0,1,297.493,105.93Z" fill="#e69771"/>
          <path id="Path_16813" data-name="Path 16813" d="M297.289,105.814a24.514,24.514,0,0,1-3.494,4.156,1.045,1.045,0,0,1-1.817-.505,1.264,1.264,0,0,1-1.738-.631,1.521,1.521,0,0,1,.628-1.829c-.577-.748-.2-1.432,1.562-1.615A25.586,25.586,0,0,1,297.289,105.814Z" fill="#e69771"/>
          <path id="Path_16814" data-name="Path 16814" d="M297.324,105.581a24.509,24.509,0,0,1-5.133-1.77,1.045,1.045,0,0,1-.18-1.877,1.265,1.265,0,0,1-.035-1.849,1.522,1.522,0,0,1,1.933-.071c.491-.806,1.264-.7,2.068.879A25.6,25.6,0,0,1,297.324,105.581Z" fill="#e69771"/>
          <path id="Path_16815" data-name="Path 16815" d="M297.554,105.53a24.5,24.5,0,0,1-.189-5.426,1.046,1.046,0,0,1,1.688-.842,1.263,1.263,0,0,1,1.713-.695c1.1.461.759,1.778.759,1.778.929.17,1.109.928-.079,2.246A25.547,25.547,0,0,1,297.554,105.53Z" fill="#e69771"/>
          <path id="Path_16816" data-name="Path 16816" d="M296.914,107.021a1.414,1.414,0,1,1,1.86-.736A1.415,1.415,0,0,1,296.914,107.021Z" fill="#ffbc3a"/>
        </g>
        <g id="Group_6311" data-name="Group 6311">
          <path id="Path_16817" data-name="Path 16817" d="M345.458,101.192a17.741,17.741,0,0,1,3.9-.542.757.757,0,0,1,.733,1.154.918.918,0,0,1,.63,1.184c-.251.829-1.226.68-1.226.68-.053.683-.587.869-1.625.111A18.51,18.51,0,0,1,345.458,101.192Z" fill="#e69771"/>
          <path id="Path_16818" data-name="Path 16818" d="M345.325,101.3a17.741,17.741,0,0,1,1.9,3.445.757.757,0,0,1-.814,1.1.916.916,0,0,1-.879,1.012c-.864.064-1.074-.9-1.074-.9-.657.195-1.022-.236-.687-1.478A18.538,18.538,0,0,1,345.325,101.3Z" fill="#e69771"/>
          <path id="Path_16819" data-name="Path 16819" d="M345.177,101.215a17.724,17.724,0,0,1-2.533,3.013.758.758,0,0,1-1.317-.366.916.916,0,0,1-1.26-.457,1.1,1.1,0,0,1,.455-1.326c-.418-.543-.146-1.038,1.133-1.171A18.554,18.554,0,0,1,345.177,101.215Z" fill="#e69771"/>
          <path id="Path_16820" data-name="Path 16820" d="M345.2,101.046a17.75,17.75,0,0,1-3.721-1.283.758.758,0,0,1-.131-1.361.916.916,0,0,1-.025-1.34,1.1,1.1,0,0,1,1.4-.051c.356-.585.916-.509,1.5.637A18.536,18.536,0,0,1,345.2,101.046Z" fill="#e69771"/>
          <path id="Path_16821" data-name="Path 16821" d="M345.369,101.01a17.739,17.739,0,0,1-.136-3.934.757.757,0,0,1,1.223-.61.916.916,0,0,1,1.242-.5c.8.334.55,1.289.55,1.289.674.123.8.673-.057,1.628A18.508,18.508,0,0,1,345.369,101.01Z" fill="#e69771"/>
          <path id="Path_16822" data-name="Path 16822" d="M344.9,102.091a1.026,1.026,0,1,1,1.349-.534A1.026,1.026,0,0,1,344.9,102.091Z" fill="#ffbc3a"/>
        </g>
        <g id="Group_6313" data-name="Group 6313">
          <g id="Group_6312" data-name="Group 6312">
            <path id="Path_16823" data-name="Path 16823" d="M305.844,95.838c-2.6-3.2-1.638-5.155-1.343-5.566s3.84,2.5,2.991,5.96Z" fill="#e69771"/>
            <path id="Path_16824" data-name="Path 16824" d="M308.338,96.473c.6-5.183-1.541-7.119-1.709-6.84-1.357,2.256-.108,7.113-.108,7.113Z" fill="#e69771"/>
          </g>
          <path id="Path_16825" data-name="Path 16825" d="M307.9,98.124c-3.28-2.35-4.671-4.7-1.778-3.251-.518-2.81.789-1.98,1.564.094C308.02,92.679,309.689,93.4,307.9,98.124Z" fill="#005329"/>
        </g>
        <g id="Group_6315" data-name="Group 6315">
          <g id="Group_6314" data-name="Group 6314">
            <path id="Path_16826" data-name="Path 16826" d="M355.7,114.363c1.393-3.886,3.56-4.072,4.064-4.032s-.152,4.581-3.548,5.646Z" fill="#e69771"/>
            <path id="Path_16827" data-name="Path 16827" d="M356.443,116.825c4.742-2.176,5.29-5.006,4.966-5-2.634.008-6.141,3.592-6.141,3.592Z" fill="#e69771"/>
          </g>
          <path id="Path_16828" data-name="Path 16828" d="M354.8,117.306c.311-4.023,1.6-6.431,1.86-3.205,2.135-1.9,2.1-.351.73,1.386C359.524,114.587,359.772,116.388,354.8,117.306Z" fill="#005329"/>
        </g>
        <path id="Path_16829" data-name="Path 16829" d="M310.336,112.579c1.755-5.383.18-6.413,4.489-8.078C315.444,108.369,312.4,109.448,310.336,112.579Z" fill="#005329"/>
        <path id="Path_16830" data-name="Path 16830" d="M317.524,101.47c.418-4.176.23-6.572,4.538-8.237C322.682,97.1,320.7,99.322,317.524,101.47Z" fill="#005329"/>
        <path id="Path_16831" data-name="Path 16831" d="M341.016,116.537c-4-5.861-3.047-6.362-2.407-10.639C341.62,108.942,341.827,111.593,341.016,116.537Z" fill="#005329"/>
        <path id="Path_16832" data-name="Path 16832" d="M333,130.718c-4-5.862-3.047-6.362-2.407-10.639C333.607,123.122,333.814,125.774,333,130.718Z" fill="#005329"/>
        <path id="Path_16833" data-name="Path 16833" d="M304.275,126.071c7.1-.167,5.638.271,8.877,3.137C308.96,130.077,307.981,129.443,304.275,126.071Z" fill="#005329"/>
        <path id="Path_16834" data-name="Path 16834" d="M312.754,111.28c6.785,2.083,5.263,2.039,7.431,5.781C315.933,116.56,315.2,115.65,312.754,111.28Z" fill="#719d61"/>
        <path id="Path_16835" data-name="Path 16835" d="M338.767,101.046c-4.574,5.429-3.937,4.046-8.229,4.575C332.663,101.9,333.786,101.59,338.767,101.046Z" fill="#005329"/>
        <path id="Path_16836" data-name="Path 16836" d="M348.4,113.632c-4.574,5.428-3.937,4.045-8.229,4.575C342.3,114.49,343.421,114.176,348.4,113.632Z" fill="#005329"/>
        <path id="Path_16837" data-name="Path 16837" d="M347.534,120.8c6.96-1.394,5.6-.709,9.286,1.552C352.841,123.934,351.767,123.479,347.534,120.8Z" fill="#005329"/>
        <path id="Path_16838" data-name="Path 16838" d="M327.939,109.481c-1.792-3.8-3.188-5.752-.352-9.4C330.11,103.08,329.552,106.006,327.939,109.481Z" fill="#005329"/>
        <path id="Path_16839" data-name="Path 16839" d="M328.438,117.061c-2.044,6.8-2.008,5.275-5.737,7.465C323.176,120.271,324.082,119.537,328.438,117.061Z" fill="#005329"/>
      </g>
      <path id="Path_16840" data-name="Path 16840" d="M346.106,131.732l-.87,5.3-.965,5.825L341.935,157a15,15,0,0,1-4.144,8.1,14.906,14.906,0,0,1-24.4-4.946A14.74,14.74,0,0,1,312.5,157l-2.335-14.148-.965-5.825-.87-5.3Z" fill="#d2972d"/>
      <line id="Line_63" data-name="Line 63" x2="35.458" transform="translate(309.368 138.787)" fill="none" stroke="#fff" stroke-linecap="round" stroke-linejoin="round" stroke-width="0.5"/>
      <line id="Line_64" data-name="Line 64" x2="28.714" transform="translate(312.806 158.655)" fill="none" stroke="#fff" stroke-linecap="round" stroke-linejoin="round" stroke-width="0.5"/>
      <line id="Line_65" data-name="Line 65" x2="25.984" transform="translate(314.174 161.945)" fill="none" stroke="#fff" stroke-linecap="round" stroke-linejoin="round" stroke-width="0.5"/>
      <line id="Line_66" data-name="Line 66" x2="36.792" transform="translate(308.776 134.804)" fill="none" stroke="#fff" stroke-linecap="round" stroke-linejoin="round" stroke-width="0.5"/>
      <path id="Path_16841" data-name="Path 16841" d="M311.465,150.631l7.906-18.885,7.866,18.885,9.248-18.885,6.524,18.885-8.642,17.07-7.13-17.07-7.19,17.035Z" fill="none" stroke="#322532" stroke-linecap="round" stroke-linejoin="round" stroke-width="0.5"/>
      <path id="Path_16842" data-name="Path 16842" d="M319.37,131.746l7.866-38.334,9.248,38.334" fill="none" stroke="#322532" stroke-miterlimit="10" stroke-width="0.5"/>
      <path id="Path_16843" data-name="Path 16843" d="M311.465,131.746l15.772-38.334,15.772,38.334" fill="none" stroke="#322532" stroke-miterlimit="10" stroke-width="0.5"/>
    </g>
    <line id="Line_67" data-name="Line 67" y1="93.412" transform="translate(327.236)" fill="none" stroke="#322532" stroke-miterlimit="10" stroke-width="0.5"/>
  </g>
</svg>
