<svg xmlns="http://www.w3.org/2000/svg" width="59.195" height="45.97" viewBox="0 0 59.195 45.97">
  <g id="Group_6499" data-name="Group 6499" transform="translate(-432.11 -230.4)">
    <path id="Path_3099" data-name="Path 3099" d="M491.3,253.205a10.878,10.878,0,0,0-10.937-10.794,10.716,10.716,0,0,0-1.445.1l-.094-1.455c0-1.681-4.808-3.062-11.05-3.294V231.4c0-.552-.8-1-1.795-1s-1.795.449-1.795,1v6.371c-6.242.227-11.055,1.612-11.055,3.294L452.1,257.11,441.419,247.9a5.784,5.784,0,0,0-.656-7.214l-8.654,9.492a5.752,5.752,0,0,0,7.071.113L451.5,266.533l-.449,6.943c0,1.6,6.681,2.894,14.931,2.894s14.931-1.3,14.931-2.894l-.217-3.333C486.32,269,491.3,258.817,491.3,253.205Zm-10.789,14.152L479.1,245.3a8.238,8.238,0,0,1,1.267-.108,8.1,8.1,0,0,1,8.161,8.013C488.524,257.347,484.7,266.252,480.516,267.357Z" transform="translate(0 0)" fill="#24a77e"/>
    <path id="Path_3100" data-name="Path 3100" d="M530.379,285.347l-.1.025.03.488.464-.123c4.457-1.174,8.3-10.468,8.3-14.531a8.326,8.326,0,0,0-2.638-6.065,8.3,8.3,0,0,1,2.244,5.671C538.682,274.878,534.841,284.173,530.379,285.347Z" transform="translate(-49.764 -17.61)" fill="#24a77e"/>
    <path id="Path_3101" data-name="Path 3101" d="M441.352,252.43l-8.092,8.876a4.831,4.831,0,0,0,.473.306l7.963-8.733A3.4,3.4,0,0,0,441.352,252.43Z" transform="translate(-0.583 -11.167)" fill="#24a77e"/>
    <path id="Path_3102" data-name="Path 3102" d="M462.283,258.729l1.085-16.839c0-1.238,4.29-2.692,10.675-2.924l.38-.015V232.2c0-.242.557-.6,1.4-.6a2.352,2.352,0,0,1,1.006.207c0-.242-.562-.6-1.4-.6s-1.4.365-1.4.6v6.755l-.38.015c-6.385.232-10.675,1.686-10.675,2.924l-1.085,16.839-11.119-9.581-.02.035Z" transform="translate(-9.449 -0.406)" fill="#24a77e"/>
    <path id="Path_3103" data-name="Path 3103" d="M528.48,255.56a10.914,10.914,0,0,0-1.4.1l-.054.01.03.444.419-.054a10.031,10.031,0,0,1,1.4-.1,10.572,10.572,0,0,1,7.308,2.914A10.569,10.569,0,0,0,528.48,255.56Z" transform="translate(-48.116 -12.754)" fill="#24a77e"/>
    <path id="Path_3104" data-name="Path 3104" d="M459.987,287.1,447.354,270.45l-.064.044,12.3,16.213-.454,7.066c0,.163.143.335.424.513a.338.338,0,0,1-.025-.118Z" transform="translate(-7.695 -20.302)" fill="#24a77e"/>
    <path id="Path_3105" data-name="Path 3105" d="M504.82,246.55c5.084.187,8.831,1.144,10.153,2.14-.745-1.119-4.788-2.322-10.532-2.53v.38Z" transform="translate(-36.665 -7.989)" fill="#24a77e"/>
  </g>
</svg>
