<svg xmlns="http://www.w3.org/2000/svg" width="45.29" height="54.63" viewBox="0 0 45.29 54.63">
  <g id="Group_6243" data-name="Group 6243" transform="translate(-78.52 -306.61)" opacity="0.1">
    <path id="Path_3217" data-name="Path 3217" d="M104.94,337.38c-2.4-3.99-5.06-8.76-5.06-8.76l-6.58-11.4-6.59,11.4s-1.26,2.28-5.06,8.76c-1.61,2.74-3.13,5.66-3.13,9.09a14.77,14.77,0,0,0,29.54,0C108.07,343.05,106.58,340.11,104.94,337.38Z" fill="#005329"/>
    <path id="Path_3218" data-name="Path 3218" d="M103.06,340.68c-1.07-1.79-2.26-3.92-2.26-3.92l-2.95-5.1-2.95,5.1s-.56,1.02-2.26,3.92a8.045,8.045,0,0,0-1.4,4.07,6.61,6.61,0,0,0,13.22,0A8.013,8.013,0,0,0,103.06,340.68Z" fill="#f9fae8" opacity="0.1"/>
    <path id="Path_3219" data-name="Path 3219" d="M122.08,317.78c-1.33-2.21-2.8-4.85-2.8-4.85l-3.65-6.32-3.65,6.32s-.7,1.26-2.8,4.85a9.951,9.951,0,0,0-1.73,5.03,8.18,8.18,0,1,0,16.36,0A9.827,9.827,0,0,0,122.08,317.78Z" fill="#005329"/>
  </g>
</svg>
